<?xml version="1.0" encoding="UTF-8"?>
<svg width="80px" height="80px" viewBox="0 0 80 80" version="1.1" xmlns="http://www.w3.org/2000/svg" xmlns:xlink="http://www.w3.org/1999/xlink">
    <!-- Generator: Sketch 51.1 (57501) - http://www.bohemiancoding.com/sketch -->
    <title>A Copy 4</title>
    <desc>Created with Sketch.</desc>
    <defs></defs>
    <g id="Page-1" stroke="none" stroke-width="1" fill="none" fill-rule="evenodd">
        <g id="kawerka-homepage-landing" transform="translate(-1207.000000, -189.000000)" fill="#333">
            <path d="M1241.08,193 C1240.28,193 1239.61333,193.026665 1239.08,193.08 C1238.54661,193.133335 1238.09327,193.306665 1237.72,193.6 C1237.34667,193.893335 1237.02667,194.306665 1236.76,194.84 C1236.49333,195.373335 1236.22667,196.12 1235.96,197.08 C1235.69333,197.88 1235.36,198.866665 1234.96,200.04 C1234.56,201.213335 1234.04,202.426665 1233.4,203.68 C1232.76,204.933335 1232.01333,206.186665 1231.16,207.44 C1230.30667,208.693372 1229.32,209.826704 1228.2,210.84 C1227.18667,211.746667 1226.01333,212.586667 1224.68,213.36 C1223.34667,214.133333 1222.01333,214.8 1220.68,215.36 C1219.34667,215.92 1218.09333,216.4 1216.92,216.8 C1215.74666,217.2 1214.81333,217.506667 1214.12,217.72 C1213.53333,217.88 1213.05333,218.053333 1212.68,218.24 C1212.30667,218.426667 1211.98667,218.706667 1211.72,219.08 C1211.45333,219.453333 1211.26666,219.973333 1211.16,220.64 C1211.05333,221.306667 1211,222.226667 1211,223.4 L1211,269 L1207,269 L1207,219.56 C1207,218.546667 1207.04,217.72 1207.12,217.08 C1207.2,216.44 1207.36,215.92 1207.6,215.52 C1207.84,215.12 1208.18667,214.8 1208.64,214.56 C1209.09333,214.32 1209.69333,214.12 1210.44,213.96 C1211.24,213.8 1212.21333,213.573333 1213.36,213.28 C1214.50667,212.986667 1215.73334,212.6 1217.04,212.12 C1218.34667,211.64 1219.66667,211.04 1221,210.32 C1222.33333,209.6 1223.53333,208.733333 1224.6,207.72 C1225.93333,206.44 1227.04,205.066665 1227.92,203.6 C1228.8,202.133335 1229.52,200.72 1230.08,199.36 C1230.64,198 1231.06667,196.76 1231.36,195.64 C1231.65333,194.52 1231.88,193.693335 1232.04,193.16 C1232.30667,192.146665 1232.66667,191.346665 1233.12,190.76 C1233.57333,190.173335 1234.17333,189.76 1234.92,189.52 C1235.66667,189.28 1236.56,189.133335 1237.6,189.08 C1238.64,189.026665 1239.88,189 1241.32,189 L1287,189 L1287,193 L1241.08,193 Z M1210.04225,189 C1210.83099,189 1211.52113,189.295775 1212.11268,189.887324 C1212.70423,190.478873 1213,191.169016 1213,191.957746 C1213,192.802817 1212.70423,193.521127 1212.11268,194.112676 C1211.52113,194.704225 1210.83099,195 1210.04225,195 C1209.19718,195 1208.47887,194.704225 1207.88732,194.112676 C1207.29577,193.521127 1207,192.802817 1207,191.957746 C1207,191.169016 1207.29577,190.478873 1207.88732,189.887324 C1208.47887,189.295775 1209.19718,189 1210.04225,189 Z M1225.21918,190 C1225.82192,190 1226.36986,190.042553 1226.86301,190.12766 C1227.35616,190.212766 1227.73973,190.368793 1228.0137,190.595745 C1228.39726,190.880376 1228.65754,191.249169 1228.79452,191.702128 C1228.93151,192.156951 1229,192.695957 1229,193.319149 C1229,194.397165 1228.75342,195.446809 1228.26027,196.468085 C1227.76712,197.489362 1227.05479,198 1226.12329,198 C1225.46575,198 1224.63014,197.773048 1223.61644,197.319149 C1222.60274,196.86525 1221.60274,196.340426 1220.61644,195.744681 C1219.63014,195.148936 1218.78082,194.553191 1218.06849,193.957447 C1217.35616,193.361702 1217,192.893617 1217,192.553191 C1217,192.269505 1217.26027,191.985814 1217.78082,191.702128 C1218.30137,191.418441 1218.9726,191.148936 1219.79452,190.893617 C1220.61644,190.638298 1221.50685,190.425532 1222.46575,190.255319 C1223.42467,190.085106 1224.34247,190 1225.21918,190 Z M1214.19713,196.140911 C1214.45998,195.929545 1215.10394,195.955965 1216.12903,196.220174 C1217.15412,196.484384 1218.24492,196.880701 1219.40143,197.409126 C1220.55795,197.93755 1221.64875,198.545233 1222.67384,199.232184 C1223.69892,199.919136 1224.36918,200.553243 1224.68459,201.134507 C1224.89486,201.504404 1225,201.927141 1225,202.402721 C1225,203.512409 1224.54002,204.556046 1223.62007,205.533627 C1222.70012,206.511207 1221.68817,207 1220.58423,207 C1220.32139,207 1220.03226,206.97358 1219.71685,206.920737 C1219.40143,206.866611 1219.11231,206.734503 1218.84946,206.524419 C1218.32378,206.207366 1217.74552,205.520414 1217.1147,204.46357 C1216.48387,203.406726 1215.90561,202.297038 1215.37993,201.134507 C1214.85424,199.971975 1214.45998,198.901919 1214.19713,197.924338 C1213.93429,196.946757 1213.93429,196.352282 1214.19713,196.140911 Z M1209.61702,198 C1210.01418,198 1210.56738,198.331034 1211.2766,198.993103 C1211.98582,199.655172 1212.69503,200.455174 1213.40426,201.393103 C1214.11348,202.331396 1214.7234,203.310705 1215.23404,204.331034 C1215.74468,205.351722 1216,206.220688 1216,206.937931 C1216,207.820691 1215.47518,208.551724 1214.42553,209.131034 C1213.37589,209.710345 1212.28369,210 1211.14894,210 C1210.6383,210 1210.15603,209.917241 1209.70213,209.751724 C1209.24823,209.586207 1208.9078,209.310344 1208.68085,208.924138 C1208.39716,208.482758 1208.21277,207.889655 1208.12766,207.144828 C1208.04255,206.4 1208,205.613793 1208,204.786207 C1208,203.958621 1208.04255,203.144829 1208.12766,202.344828 C1208.21277,201.544826 1208.32624,200.813793 1208.46809,200.151724 C1208.60993,199.489655 1208.78014,198.965519 1208.97872,198.57931 C1209.1773,198.193102 1209.39007,198 1209.61702,198 Z" id="A-Copy-4" transform="translate(1247.000000, 229.000000) scale(-1, 1) translate(-1247.000000, -229.000000) "></path>
        </g>
    </g>
</svg>