
<svg width="33px" height="10px" viewBox="0 0 33 10" version="1.1" xmlns="http://www.w3.org/2000/svg" xmlns:xlink="http://www.w3.org/1999/xlink">
    <!-- Generator: Sketch 51.1 (57501) - http://www.bohemiancoding.com/sketch -->
    <desc>Created with Sketch.</desc>
    <defs>
        <polygon id="path-1" points="0.507555556 0.533888889 9.97422222 0.533888889 9.97422222 10 0.507555556 10"></polygon>
    </defs>
    <g id="Page-1" stroke="none" stroke-width="1" fill="none" fill-rule="evenodd">
        <g id="kawerka-homepage-landing-copy-4" transform="translate(-1221.000000, -798.000000)">
            <g id="Group-9" transform="translate(1221.000000, 798.000000)">
                <g id="Group-5" transform="translate(23.000000, 0.000000)">
                    <g id="Group-4">
                        <mask id="mask-2" fill="white">
                            <use xlink:href="#path-1"></use>
                        </mask>
                        <g id="Clip-3"></g>
                        <path d="M5,1 C2.79386503,1 1,2.79386503 1,5 C1,7.20613497 2.79386503,9 5,9 C7.20613497,9 9,7.20613497 9,5 C9,2.79386503 7.20613497,1 5,1 C2.79386503,1 7.20613497,1 5,1" id="Fill-2" fill="#FBF7F2" mask="url(#mask-2)"></path>
                        <path d="M5.24088889,1.645 C3.24311111,1.645 1.61866667,3.26944444 1.61866667,5.26722222 C1.61866667,7.265 3.24311111,8.88944444 5.24088889,8.88944444 C7.23866667,8.88944444 8.86311111,7.265 8.86311111,5.26722222 C8.86311111,3.26944444 7.23866667,1.645 5.24088889,1.645 C3.24311111,1.645 7.23866667,1.645 5.24088889,1.645 M5.24088889,10.0005556 C2.63088889,10.0005556 0.507555556,7.87611111 0.507555556,5.26722222 C0.507555556,2.65722222 2.63088889,0.533888889 5.24088889,0.533888889 C7.85088889,0.533888889 9.97422222,2.65722222 9.97422222,5.26722222 C9.97422222,7.87611111 7.85088889,10.0005556 5.24088889,10.0005556 C2.63088889,10.0005556 7.85088889,10.0005556 5.24088889,10.0005556" id="Fill-2" fill="#333333" mask="url(#mask-2)"></path>
                    </g>
                </g>
                <path d="M23.5,5.5 L0.5,5.5" id="Line-5" stroke="#333333" stroke-linecap="square" fill-rule="nonzero"></path>
            </g>
        </g>
    </g>
</svg>