
<svg width="37px" height="36px" viewBox="0 0 37 36" version="1.1" xmlns="http://www.w3.org/2000/svg" xmlns:xlink="http://www.w3.org/1999/xlink">
    <!-- Generator: Sketch 51.1 (57501) - http://www.bohemiancoding.com/sketch -->
    <desc>Created with Sketch.</desc>
    <defs></defs>
    <g id="Page-1" stroke="none" stroke-width="1" fill="none" fill-rule="evenodd">
        <g id="kawerka-homepage-PAGE-2-Copy" transform="translate(-1161.000000, -2096.000000)" fill="#FFFFFF" fill-rule="nonzero">
            <g id="instagram" transform="translate(1161.000000, 2096.000000)">
                <path d="M18.0481069,8.81959911 C12.9487751,8.81959911 8.83563474,12.9327394 8.83563474,18.0320713 C8.83563474,23.1314031 12.9487751,27.2445434 18.0481069,27.2445434 C23.1474388,27.2445434 27.2605791,23.1314031 27.2605791,18.0320713 C27.2605791,12.9327394 23.1474388,8.81959911 18.0481069,8.81959911 Z M18.0481069,24.0213808 C14.752784,24.0213808 12.0587973,21.335412 12.0587973,18.0320713 C12.0587973,14.7287305 14.7447661,12.0427617 18.0481069,12.0427617 C21.3514477,12.0427617 24.0374165,14.7287305 24.0374165,18.0320713 C24.0374165,21.335412 21.3434298,24.0213808 18.0481069,24.0213808 Z M29.7861915,8.44276169 C29.7861915,9.63741648 28.8240535,10.5915367 27.6374165,10.5915367 C26.4427617,10.5915367 25.4886414,9.62939866 25.4886414,8.44276169 C25.4886414,7.25612472 26.4507795,6.29398664 27.6374165,6.29398664 C28.8240535,6.29398664 29.7861915,7.25612472 29.7861915,8.44276169 Z M35.8877506,10.623608 C35.7514477,7.74521158 35.0939866,5.19554566 32.9853007,3.09487751 C30.8846325,0.994209354 28.3349666,0.33674833 25.4565702,0.192427617 C22.4899777,0.0240534521 13.5982183,0.0240534521 10.6316258,0.192427617 C7.76124722,0.328730512 5.21158129,0.986191537 3.10289532,3.08685969 C0.994209354,5.18752784 0.344766147,7.73719376 0.200445434,10.6155902 C0.0320712695,13.5821826 0.0320712695,22.4739421 0.200445434,25.4405345 C0.33674833,28.318931 0.994209354,30.8685969 3.10289532,32.969265 C5.21158129,35.0699332 7.7532294,35.7273942 10.6316258,35.8717149 C13.5982183,36.0400891 22.4899777,36.0400891 25.4565702,35.8717149 C28.3349666,35.735412 30.8846325,35.077951 32.9853007,32.969265 C35.0859688,30.8685969 35.7434298,28.318931 35.8877506,25.4405345 C36.0561247,22.4739421 36.0561247,13.5902004 35.8877506,10.623608 Z M32.0552339,28.623608 C31.4298441,30.1951002 30.2191537,31.4057906 28.6396437,32.0391982 C26.2743875,32.9772829 20.6619154,32.7608018 18.0481069,32.7608018 C15.4342984,32.7608018 9.81380846,32.969265 7.45657016,32.0391982 C5.88507795,31.4138085 4.67438753,30.203118 4.04097996,28.623608 C3.10289532,26.2583519 3.31937639,20.6458797 3.31937639,18.0320713 C3.31937639,15.4182628 3.11091314,9.79777283 4.04097996,7.44053452 C4.66636971,5.86904232 5.87706013,4.65835189 7.45657016,4.02494432 C9.82182628,3.08685969 15.4342984,3.30334076 18.0481069,3.30334076 C20.6619154,3.30334076 26.2824053,3.09487751 28.6396437,4.02494432 C30.2111359,4.65033408 31.4218263,5.8610245 32.0552339,7.44053452 C32.9933185,9.80579065 32.7768374,15.4182628 32.7768374,18.0320713 C32.7768374,20.6458797 32.9933185,26.2663697 32.0552339,28.623608 Z" id="Shape"></path>
            </g>
        </g>
    </g>
</svg>