<svg viewBox="0 0 168 67" version="1.1" xmlns="http://www.w3.org/2000/svg" xmlns:xlink="http://www.w3.org/1999/xlink" id="el_gH2cvP_fM"><style>@-webkit-keyframes kf_el_CA97VbmxOf_an_p9sHCHbDl{0%{-webkit-transform: translate(83.99982452392578px, 33.63585662841797px) scale(0.9, 0.9) translate(-83.99982452392578px, -33.63585662841797px);transform: translate(83.99982452392578px, 33.63585662841797px) scale(0.9, 0.9) translate(-83.99982452392578px, -33.63585662841797px);}50%{-webkit-transform: translate(83.99982452392578px, 33.63585662841797px) scale(1, 1) translate(-83.99982452392578px, -33.63585662841797px);transform: translate(83.99982452392578px, 33.63585662841797px) scale(1, 1) translate(-83.99982452392578px, -33.63585662841797px);}100%{-webkit-transform: translate(83.99982452392578px, 33.63585662841797px) scale(0.9, 0.9) translate(-83.99982452392578px, -33.63585662841797px);transform: translate(83.99982452392578px, 33.63585662841797px) scale(0.9, 0.9) translate(-83.99982452392578px, -33.63585662841797px);}}@keyframes kf_el_CA97VbmxOf_an_p9sHCHbDl{0%{-webkit-transform: translate(83.99982452392578px, 33.63585662841797px) scale(0.9, 0.9) translate(-83.99982452392578px, -33.63585662841797px);transform: translate(83.99982452392578px, 33.63585662841797px) scale(0.9, 0.9) translate(-83.99982452392578px, -33.63585662841797px);}50%{-webkit-transform: translate(83.99982452392578px, 33.63585662841797px) scale(1, 1) translate(-83.99982452392578px, -33.63585662841797px);transform: translate(83.99982452392578px, 33.63585662841797px) scale(1, 1) translate(-83.99982452392578px, -33.63585662841797px);}100%{-webkit-transform: translate(83.99982452392578px, 33.63585662841797px) scale(0.9, 0.9) translate(-83.99982452392578px, -33.63585662841797px);transform: translate(83.99982452392578px, 33.63585662841797px) scale(0.9, 0.9) translate(-83.99982452392578px, -33.63585662841797px);}}@-webkit-keyframes kf_el_-pz2OGVLcq_an_Q7NX31g2C{0%{opacity: 0.1;}50%{opacity: 1;}100%{opacity: 0.1;}}@keyframes kf_el_-pz2OGVLcq_an_Q7NX31g2C{0%{opacity: 0.1;}50%{opacity: 1;}100%{opacity: 0.1;}}#el_gH2cvP_fM *{-webkit-animation-duration: 2s;animation-duration: 2s;-webkit-animation-iteration-count: infinite;animation-iteration-count: infinite;-webkit-animation-timing-function: cubic-bezier(0, 0, 1, 1);animation-timing-function: cubic-bezier(0, 0, 1, 1);}#el_CA97VbmxOf{stroke: none;stroke-width: 1;fill: none;}#el_-pz2OGVLcq{-webkit-transform: translate(-179px, -40px);transform: translate(-179px, -40px);-webkit-animation-fill-mode: backwards;animation-fill-mode: backwards;opacity: 0.1;-webkit-animation-name: kf_el_-pz2OGVLcq_an_Q7NX31g2C;animation-name: kf_el_-pz2OGVLcq_an_Q7NX31g2C;-webkit-animation-timing-function: cubic-bezier(0, 0, 1, 1);animation-timing-function: cubic-bezier(0, 0, 1, 1);}#el_gdM1l_3VYk{-webkit-transform: translate(179px, 40px);transform: translate(179px, 40px);}#el_pp83dP67Eu{fill: #333333;}#el_lVRtrCIAWS{fill: #333333;}#el_hboBG1OIQv{fill: #333333;}#el_5jmiiVZRIm{fill: #333333;}#el_P6LBLEhCfA{fill: #333333;}#el_tnrrmE2c4e{fill: #333333;}#el_rQ6pvd-BJW{fill: #333333;}#el_GpTA0SwWu2{-webkit-transform: translate(71.925px, 39.528953px);transform: translate(71.925px, 39.528953px);}#el_VeWsYJbKHk{fill: #333333;}#el_2hw5yq5oPX{fill: #333333;}#el_SPeRQcJdC8o{fill: #333333;}#el_kHyMlAiSrdB{fill: #333333;}#el_TMDdMAyxyli{fill: #333333;}#el_ISSFakd69fS{fill: #333333;}#el_j7AUbDT03n2{fill: #333333;}#el_T2HHGS666dF{-webkit-transform: translate(0px, 0.271141px);transform: translate(0px, 0.271141px);}#el_EMQogRkhKxg{fill: #333333;}#el_CDUY2_UcIMf{fill: #333333;}#el_8OZ8YoeqXuY{fill: #333333;}#el_HSKzSzWDNqp{fill: #333333;}#el_S7c5j_zL4kS{fill: #333333;}#el_pgIDGnZAmjZ{fill: #333333;}#el_bJNDwASTZeh{fill: #333333;}#el_-pz2OGVLcq_an_9-T36EiKg{-webkit-transform: translate(178.99974060058594px, 40.52375030517578px) scale(0.9, 0.9) translate(-178.99974060058594px, -40.52375030517578px);transform: translate(178.99974060058594px, 40.52375030517578px) scale(0.9, 0.9) translate(-178.99974060058594px, -40.52375030517578px);}#el_CA97VbmxOf_an_p9sHCHbDl{-webkit-transform: translate(83.99982452392578px, 33.63585662841797px) scale(0.9, 0.9) translate(-83.99982452392578px, -33.63585662841797px);transform: translate(83.99982452392578px, 33.63585662841797px) scale(0.9, 0.9) translate(-83.99982452392578px, -33.63585662841797px);-webkit-animation-fill-mode: backwards;animation-fill-mode: backwards;-webkit-animation-name: kf_el_CA97VbmxOf_an_p9sHCHbDl;animation-name: kf_el_CA97VbmxOf_an_p9sHCHbDl;-webkit-animation-timing-function: cubic-bezier(0, 0, 1, 1);animation-timing-function: cubic-bezier(0, 0, 1, 1);}#el_-pz2OGVLcq_an_0fU9JsxPn{-webkit-transform: translate(178.99974060058594px, 40.52375030517578px) translate(-178.99974060058594px, -40.52375030517578px) translate(0px, 0px);transform: translate(178.99974060058594px, 40.52375030517578px) translate(-178.99974060058594px, -40.52375030517578px) translate(0px, 0px);}</style>
    <!-- Generator: Sketch 51.1 (57501) - http://www.bohemiancoding.com/sketch -->
    <title>Group</title>
    <desc>Created with Sketch.</desc>
    <defs>
        <polygon id="path-1" points="0.0367053168 0.256222656 96.0749065 0.256222656 96.0749065 27.21875 0.0367053168 27.21875"/>
        <polygon id="path-3" points="0 0.252610937 95.9534625 0.252610937 95.9534625 25.6607906 0 25.6607906"/>
    </defs>
    <g id="el_CA97VbmxOf_an_p9sHCHbDl" data-animator-group="true" data-animator-type="2"><g id="el_CA97VbmxOf" fill-rule="evenodd">
        <g id="el_-pz2OGVLcq">
            <g id="el_gdM1l_3VYk">
                <g id="el_JnyR74NTbw">
                    <path d="M5.0498175,62.8936328 C4.4681175,62.9307969 4.2308175,62.8815938 4.2308175,62.7167109 C4.2308175,62.5842813 4.3835925,62.3775234 4.6345425,62.0823047 C5.3527425,61.2332891 5.8672425,60.2822031 5.9906175,59.0646875 C6.1139925,57.8367031 6.1391925,56.7893047 6.1565175,55.4943203 C6.1727925,54.3270547 6.2037675,53.2131797 6.2037675,52.0825547 C6.2037675,50.9744375 6.1633425,49.8459063 6.1633425,48.6242031 C6.1633425,48.2473281 6.1675425,47.8605078 6.1769925,47.4632188 C6.1932675,46.8507969 6.1985175,46.34725 6.1985175,45.9065156 C6.1985175,44.7968281 6.1628175,44.0964688 6.1628175,43.0935625 C6.1628175,41.5227266 6.1376175,39.8686641 6.0956175,38.3187656 C6.0593925,36.9871406 5.2514175,35.6926797 4.3746675,34.8248203 C4.2455175,34.697625 4.2533925,34.5657187 4.5080175,34.4919141 C4.6544925,34.4495156 4.8513675,34.429625 5.0146425,34.4191562 C5.8614675,34.3641953 6.7681425,34.3181328 7.6753425,34.2720703 C7.9646175,34.2574141 8.2538925,34.2396172 8.5421175,34.2212969 C9.4592925,34.161625 10.3780425,34.0726406 11.2994175,34.0134922 C11.9063175,33.9747578 12.2906175,33.9679531 12.8387175,33.9328828 C13.4193675,33.8957187 13.6571925,33.9454453 13.6571925,34.1103281 C13.6571925,34.2427578 13.5038925,34.4489922 13.2534675,34.7447344 C12.5347425,35.5932266 12.0202425,36.5448359 11.8979175,37.7618281 C11.7635175,39.0913594 11.6952675,40.2643828 11.6952675,41.7095937 C11.6952675,42.5680313 11.7309675,43.3301563 11.7383175,44.1257813 C11.7467175,45.0046328 11.7545925,45.8787734 11.7414675,46.8350938 C11.7398925,46.9392578 11.8805925,46.9554844 11.9346675,46.8633594 C12.5520675,45.8206719 13.8346425,43.6515469 14.0047425,43.3626094 C14.5323675,42.4617734 15.0248175,41.6818516 15.6301425,40.7438516 C16.4354925,39.4959766 16.9127175,38.5370391 17.5101675,37.4425313 C17.8440675,36.8327266 18.0246675,36.3412187 18.0246675,35.8842578 C18.0246675,35.2849219 17.7143925,34.7436875 17.0339925,34.0705469 C16.9048425,33.9433516 16.8659925,33.7046641 17.1253425,33.6601719 C17.2550175,33.6376641 17.4156675,33.6235312 17.5600425,33.6141094 C18.2892675,33.5675234 19.0289925,33.5460625 19.7582175,33.4989531 C20.1934425,33.4706875 20.5908675,33.4481797 20.9987925,33.4214844 C21.5374425,33.3869375 22.0955175,33.3455859 22.7843175,33.2759687 C23.2400175,33.2304297 23.6967675,33.2173437 24.1529925,33.1880312 L24.9383925,33.1372578 C25.2155925,33.1194609 25.3263675,33.1964062 25.3263675,33.3099922 C25.3263675,33.4429453 25.1751675,33.6277187 24.9593925,33.7727109 C24.0842175,34.3610547 23.4458175,34.9174687 22.7139675,35.8732656 C21.9122925,36.9211875 21.3263925,38.1345156 20.5782675,39.2729922 C19.7403675,40.5491328 19.3754925,41.1338125 18.7580925,42.1189219 C18.3543675,42.7611797 17.9879175,43.4761953 17.6088675,44.1184531 C17.4912675,44.3184063 17.4776175,44.5586641 17.5652925,44.7601875 C17.6561175,44.9690391 17.7464175,45.1778906 17.8351425,45.3888359 C17.9978925,45.7761797 19.5140925,49.5752891 19.5896925,49.7563984 C19.9934175,50.719 20.3939925,51.7543594 20.8129425,52.7305703 C21.2434425,53.7355703 21.5899425,54.4128984 22.1543175,55.7319609 C23.4447675,58.8087266 23.6148675,59.4651172 24.7856175,60.5313594 C25.0391925,60.7632422 25.2964425,60.9804688 25.5421425,61.2228203 C25.6712925,61.3494922 25.6628925,61.4819219 25.4082675,61.5552031 C25.2617925,61.5976016 25.0649175,61.6174922 24.9016425,61.6284844 C24.1577175,61.6761172 23.3371425,61.7169453 22.5753675,61.7661484 C21.5547675,61.8315781 20.8344675,61.89125 19.7183175,61.9634844 C19.4096175,61.983375 18.5816925,62.0242031 18.3680175,62.0372891 C17.4907425,62.09225 17.3342925,62.1194688 16.4575425,62.1681484 C16.4171175,62.1707656 16.3047675,62.1828047 16.1693175,62.1917031 C16.0060425,62.2021719 15.8086425,62.2074063 15.6626925,62.184375 C15.4080675,62.1430234 15.3996675,62.0121641 15.5288175,61.8687422 C16.0585425,61.2756875 16.6727925,60.6821094 16.9804425,59.9137031 C17.0539425,59.7294531 17.0843925,59.5483438 17.0843925,59.3682813 C17.0843925,58.8636875 16.8460425,58.365375 16.6559925,57.8225703 C16.3394175,56.9180703 16.0947675,56.1308203 15.8291175,55.450875 C15.3791925,54.2987891 14.9156175,53.3477031 14.2819425,51.8763203 C14.2294425,51.7548828 14.0462175,51.2937344 13.8209925,50.7200469 C13.7658675,50.5802891 13.5705675,50.5776719 13.4849925,50.710625 C12.9295425,51.5695859 12.4108425,52.3840547 11.9126175,53.1974766 C11.7530175,53.457625 11.7241425,53.7638359 11.7241425,54.0595781 C11.7241425,55.5288672 11.7530175,57.0635859 11.7923925,58.50775 C11.8286175,59.839375 12.6365925,61.1338359 13.5128175,62.0016953 C13.6424925,62.1283672 13.6340925,62.2607969 13.3794675,62.3346016 C13.2329925,62.377 13.0361175,62.3968906 12.8723175,62.4068359 C11.8002675,62.4764531 10.7292675,62.5235625 9.6545925,62.5926563 C8.6324175,62.6586094 7.6107675,62.7470703 6.5891175,62.8130234 C5.9822175,62.8522813 5.5979175,62.8585625 5.0498175,62.8936328" id="el_pp83dP67Eu"/>
                    <path d="M39.6864825,48.3712781 C39.8665575,48.3351609 40.0098825,48.1503875 39.9705075,47.9792234 C39.8723325,47.5442469 39.8030325,47.2417 39.7872825,47.1699891 C39.7463325,46.9846922 39.5400075,46.0587313 39.3284325,45.1165438 C39.0932325,44.0654813 38.9010825,42.9003094 38.8811325,42.8102781 C38.6847825,41.9188641 38.4905325,41.1112 38.2899825,40.2375828 C38.0894325,39.3540203 37.9545075,38.7321766 37.6998825,37.6125438 C37.6536825,37.4052625 37.5439575,37.4973875 37.4909325,37.7182781 C37.2037575,38.9321297 37.0982325,39.3964188 36.8724825,40.3537859 C36.6477825,41.3012078 36.3994575,42.3999031 36.1779075,43.3635516 C36.1353825,43.5472781 35.1998325,47.5562859 35.1032325,47.9813172 C35.0843325,48.0619266 35.0050575,48.3969266 34.8916575,48.8779656 C34.8858825,48.9015203 34.8837825,48.925075 34.8837825,48.9475828 C34.8837825,49.0930984 34.9977075,49.1993563 35.1499575,49.1742313 C35.7400575,49.0768719 36.4934325,48.9643328 36.9354825,48.8873875 C38.2542825,48.6591688 39.2024325,48.4691609 39.6864825,48.3712781 M42.4191075,58.7253953 C41.8731075,58.8217078 41.3197575,58.9154031 40.8252075,58.9965359 C40.7863575,59.0033406 40.6761075,59.0274187 40.5432825,59.05045 C40.3836825,59.0781922 40.1915325,59.1038406 40.0482075,59.0954656 C39.7998825,59.0818562 39.7909575,58.9515203 39.9174825,58.7944891 C40.4351325,58.1464734 41.0346825,57.4879891 41.3360325,56.6876531 C41.4741075,56.3207234 41.5281825,55.9810125 41.5281825,55.6276922 C41.5281825,55.0027078 41.3586075,54.3358484 41.1864075,53.4015125 C41.1591075,53.2507625 41.0430825,52.7231375 40.8887325,52.0348172 C40.8441075,51.8364344 40.6692825,51.7118562 40.4613825,51.7479734 C40.1322075,51.8050281 39.5594325,51.8615594 37.8474075,52.1730047 C37.0693575,52.3153797 35.2675575,52.6247312 34.4910825,52.7644891 L34.3173075,52.7948484 C34.1073075,52.8320125 33.9209325,53.0057937 33.8705325,53.2204031 C33.6930825,53.9809578 33.5592075,54.5651141 33.5271825,54.72895 C33.3502575,55.6177469 33.1103325,56.3395672 33.1103325,57.0341687 C33.1103325,57.3864422 33.1717575,57.7313875 33.3339825,58.0878484 C33.6463575,58.7709344 34.2301575,59.2247547 34.7441325,59.6906141 C34.8706575,59.8042 34.8622575,59.9371531 34.6134075,60.0371297 C34.3509075,60.1433875 33.9225075,60.1920672 33.8369325,60.2067234 C33.2993325,60.3051297 31.7820825,60.5589969 31.2061575,60.6563562 C29.8180575,60.8892859 29.3670825,60.9939734 27.9789825,61.2221922 C27.9401325,61.2284734 27.8298825,61.2525516 27.6970575,61.2755828 C27.5374575,61.3038484 27.3453075,61.3294969 27.2025075,61.3211219 C26.9536575,61.3069891 26.9452575,61.1766531 27.0723075,61.0196219 C27.5752575,60.3894031 28.1727075,59.8062937 28.6851075,59.0179969 C29.4222075,57.8831844 29.4642075,57.3461375 30.2385825,54.2882156 C30.6255075,52.7974656 30.8271075,51.9892781 31.1221575,50.8539422 C31.4098575,49.7500125 31.6298325,48.6617859 31.9044075,47.5772234 C31.9553325,47.3730828 32.5470075,45.0924656 33.2079825,42.7076844 C33.5413575,41.5063953 33.8075325,40.3443641 34.0863075,39.2812625 C34.3650825,38.2181609 34.6181325,37.1890828 34.8496575,36.1244109 C35.0061075,35.4031141 35.1625575,34.8629266 35.1625575,34.3745594 C35.1625575,34.0327547 35.0864325,33.716075 34.8806325,33.3795047 C34.6848075,33.0607313 34.4170575,32.7922078 34.1367075,32.5210672 C33.8920575,32.2844734 33.7424325,32.1012703 33.7424325,31.9615125 C33.7424325,31.8201844 33.8973075,31.722825 34.2637575,31.6594891 C35.1074325,31.51345 35.5106325,31.4134734 36.5312325,31.2533016 C36.9134325,31.1931063 37.2951075,31.1234891 37.6778325,31.0648641 C38.1424575,30.9926297 38.5535325,30.9245828 38.9394075,30.8575828 C39.7326825,30.7199188 40.4214825,30.5764969 41.2630575,30.4309813 C41.8153575,30.3351922 42.3671325,30.2572 42.9194325,30.1614109 C43.4780325,30.064575 43.7053575,30.0902234 43.7053575,30.2545828 C43.7053575,30.3875359 43.5557325,30.6099969 43.3110825,30.9319109 C42.9866325,31.3579891 42.6873825,31.7432391 42.5041575,32.1881609 C42.3718575,32.5111219 42.3219825,32.8037234 42.3219825,33.0905672 C42.3219825,33.6171453 42.4899825,34.1269734 42.6238575,34.7776063 C43.0302075,36.7562 43.6297575,38.7143797 44.1321825,40.7442703 C44.2314075,41.1441766 45.1296825,45.0642 45.1758825,45.2515906 C45.4221075,46.245075 45.7071825,47.2731062 45.9660075,48.2822937 C46.2316575,49.3207937 46.4127825,50.0625047 46.7603325,51.4260594 C47.4328575,54.1421766 47.4979575,54.6698016 47.9919825,55.4392547 C48.4933575,56.2197 49.1312325,56.5829656 49.7019075,57.0995984 C49.8284325,57.2131844 49.8200325,57.3461375 49.5711825,57.4461141 C49.4283825,57.5036922 49.2357075,57.5445203 49.0766325,57.5722625 C48.4156575,57.6868953 47.7531075,57.8004812 47.0916075,57.9151141 C45.8431575,58.1312937 45.0084075,58.2804734 43.5814575,58.5270125 C43.1892825,58.5950594 42.7734825,58.6641531 42.4191075,58.7253953" id="el_lVRtrCIAWS"/>
                    <path d="M54.7791825,56.1308203 C54.5355825,56.1967734 54.3150825,56.0612031 54.2594325,55.7905859 C53.9187075,54.1422813 53.4766575,52.0014219 53.4572325,51.8878359 C53.1359325,49.9212813 52.6623825,47.9798516 52.2649575,45.9646172 C52.1867325,45.5673281 51.4758825,41.6734766 51.4391325,41.4866094 C51.2448825,40.5004531 51.0196575,39.4802734 50.8138575,38.4789375 C50.6049075,37.4482891 50.5014825,36.6547578 50.2263825,35.3016719 C49.9838325,34.0715938 49.8016575,33.3502969 49.6803825,32.7959766 C49.5370575,32.1343516 49.4252325,31.7920234 49.2120825,31.3806016 C48.8162325,30.6142891 48.3117075,30.2693438 47.8607325,29.7684141 C47.7604575,29.6584922 47.7672825,29.5250156 47.9636325,29.4182344 C48.0765075,29.3564688 48.2287575,29.3104063 48.3552825,29.2784766 C48.8776575,29.1455234 49.4010825,29.0136172 49.9245075,28.8801406 C50.6915325,28.6854219 51.4606575,28.4980313 52.2308325,28.3022656 C52.6550325,28.1944375 53.0802825,28.0839922 53.5044825,27.9677891 C53.9076825,27.8599609 54.4122075,27.738 54.8148825,27.6359297 C55.2469575,27.5244375 55.6842825,27.4155625 56.0759325,27.3202969 C56.1063825,27.3119219 56.1935325,27.2852266 56.2990575,27.2585313 C56.4250575,27.2266016 56.5767825,27.1951953 56.6901825,27.1993828 C56.8849575,27.2067109 56.8902075,27.3365234 56.7878325,27.4982656 C56.3699325,28.1625078 55.8879825,28.8393125 55.6391325,29.6511641 C55.5120825,30.0636328 55.4627325,30.4415547 55.4627325,30.8393672 C55.4627325,31.4366094 55.5750825,32.0783438 55.7089575,32.9446328 C55.8906075,34.1228906 56.0239575,35.1708125 56.1877575,36.205125 C56.3331825,37.1253281 56.5416075,38.0062734 56.7211575,39.1588828 C57.0288075,41.1416641 57.3522075,43.3128828 57.3795075,43.4824766 C57.5217825,44.3712734 57.6551325,45.2035391 57.8000325,46.0750625 C57.8514825,46.3812734 57.9003075,46.6880078 57.9496575,46.9942188 C58.0110825,47.3705703 58.0620075,47.5946016 58.1134575,47.5820391 C58.1586075,47.57 58.2042825,47.3695234 58.2588825,46.9183203 C58.2924825,46.6325234 58.3266075,46.3462031 58.3612575,46.0593594 C58.4746575,45.1224063 58.5812325,44.03575 58.7072325,43.0830938 C58.8757575,41.8121875 59.0736825,40.1403281 59.2632075,38.5496016 C59.3844825,37.5357031 59.5372575,36.6186406 59.6522325,35.5356484 C59.7808575,34.3249375 59.9504325,33.0152969 60.1005825,31.7977813 C60.4544325,28.9371953 60.4439325,28.6582031 60.6896325,26.6424453 C60.7248075,26.3519375 60.9657825,26.0823672 61.2482325,26.0122266 C61.5905325,25.9274297 61.9916325,25.8274531 62.0362575,25.8164609 C62.8279575,25.6196484 63.6191325,25.3783437 64.4145075,25.1940938 C64.6318575,25.1443672 64.6560075,25.1386094 64.7568075,25.1129609 C65.2455825,24.9889062 65.5721325,24.9281875 65.6892075,25.0501484 C65.7999825,25.1653047 65.8572075,25.3757266 65.8787325,25.5427031 C65.9380575,26.0012344 66.0325575,26.473375 66.0971325,27.0334531 C66.2714325,28.5378125 66.3286575,28.9084063 66.4667325,30.1363906 C66.5197575,30.6064375 66.6620325,31.3963047 66.7339575,31.9343984 C66.9507825,33.5518203 67.1970075,34.9865625 67.3707825,36.6191641 C67.5849825,38.6255 67.8810825,40.6355 67.8999825,40.8071875 C68.0002575,41.7069766 68.0937075,42.5497109 68.1981825,43.4311797 C68.2375575,43.7719375 68.2711575,44.1147891 68.3142075,44.4539766 C68.3630325,44.8360859 68.4192075,45.0051563 68.4806325,44.9894531 C68.5740825,44.9658984 68.6790825,44.5005625 68.7825075,43.7012734 C68.9037825,42.76275 69.0875325,41.7556563 69.2964825,40.3188203 C69.4812825,39.0452969 69.6765825,37.4441016 69.8787075,35.8507578 C70.0078575,34.8342422 70.1674575,33.9156094 70.2908325,32.8305234 C70.4294325,31.6171953 70.5869325,30.3462891 70.7061075,29.1324375 C70.7817075,28.3598438 70.9050825,27.712875 70.9050825,27.1051641 C70.9050825,26.6675703 70.8415575,26.2503906 70.6520325,25.8211719 C70.3601325,25.1585 69.8640075,24.7298047 69.4235325,24.2875 C69.3148575,24.1801953 69.3132825,24.0488125 69.5059575,23.9425547 C69.7101825,23.8300156 70.0503825,23.7692969 70.1186325,23.7515 C70.5428325,23.6384375 71.7429825,23.3416484 72.1986825,23.2296328 C73.2654825,22.9637266 74.3328075,22.66275 75.3996075,22.403125 C75.4311075,22.3952734 75.5172075,22.3685781 75.6222075,22.3413594 C75.7482075,22.3099531 75.9004575,22.2780234 76.0154325,22.2816875 C76.2144075,22.2884922 76.2275325,22.4167344 76.1346075,22.5758594 C75.7623825,23.2134062 75.3124575,23.8069844 74.9407575,24.6010391 C74.4063075,25.7437031 74.3989575,26.2755156 73.9269825,29.3187813 C73.6891575,30.8022031 73.5668325,31.6062031 73.3851825,32.7368281 C73.2087825,33.835 73.0848825,34.9169453 72.9179325,35.9952266 C72.8859075,36.1993672 72.5562075,38.5323281 72.1419825,40.9066406 C71.7246075,43.29875 71.4605325,45.1517188 71.1135075,47.3951719 C71.0778075,47.6239141 70.7974575,49.8657969 70.5701325,51.6439141 C70.5339075,51.9270938 70.3422825,52.1746797 70.1086575,52.2306875 C70.0745325,52.2390625 70.0393575,52.2474375 70.0036575,52.2558125 C69.7007325,52.3264766 69.3988575,52.4070859 69.0964575,52.4772266 C68.7767325,52.5510313 68.4575325,52.6274531 68.1378075,52.7054453 C66.9980325,52.9849609 66.2210325,53.2262656 64.7195325,53.6036641 C64.4759325,53.6638594 64.2685575,53.5303828 64.2318075,53.2550547 C64.0044825,51.5779609 63.7110075,49.3994141 63.6994575,49.2832109 C63.5130825,47.2826328 63.1749825,45.3061328 62.9166825,43.2558281 C62.9056575,43.16475 62.8951575,43.072625 62.8841325,42.9805 C62.8410825,42.6093828 62.7996075,42.2377422 62.7576075,41.8655781 C62.7035325,41.3861094 62.6494575,40.9076875 62.5959075,40.4282188 L62.4562575,39.195 C62.4426075,39.0698984 62.4284325,38.9447969 62.4142575,38.8202188 C62.4016575,38.7134375 62.3512575,38.6218359 62.2966575,38.6354453 C62.2431075,38.6495781 62.1848325,38.7636875 62.1528075,39.0641406 C62.1370575,39.2075625 62.1213075,39.3509844 62.1050325,39.4949297 C62.0661825,39.8456328 62.0268075,40.1968594 61.9858575,40.5475625 C61.8861075,41.4054766 61.7805825,42.2644375 61.6650825,43.1239219 C61.5553575,43.9446719 61.4676825,44.7628047 61.3899825,45.5793672 C61.1154075,48.4420469 60.7405575,51.3167656 60.4875075,54.1757813 C60.4607325,54.4751875 60.2759325,54.7342891 60.0423075,54.7897734 C59.7047325,54.8703828 59.3671575,54.9577969 59.0301075,55.0352656 C58.2867075,55.2064297 57.5427825,55.4194688 56.7999075,55.6079063 C56.1258075,55.7790703 55.4522325,55.9455234 54.7786575,56.1308203 L54.7791825,56.1308203 Z" id="el_hboBG1OIQv"/>
                    <path d="M83.23791,48.4576453 C83.140785,48.4859109 81.989985,48.8172469 80.881185,49.1360203 C80.74416,49.1773719 80.607135,49.2182 80.470635,49.2605984 C79.591785,49.5312156 79.183335,49.6212469 78.53286,49.8107312 C77.978985,49.9724734 77.75376,49.9729969 77.75376,49.8081141 C77.75376,49.6756844 77.899185,49.4364734 78.137535,49.0878641 C78.822135,48.0860047 79.311435,47.0244734 79.42851,45.7807859 C79.54611,44.5261062 79.57026,43.4734734 79.58706,42.1743016 C79.59336,41.6964031 79.595985,41.2289734 79.595985,40.7662547 C79.595985,39.4461453 79.57656,38.1652937 79.57656,36.7949344 C79.57656,35.9527234 79.58391,35.0775359 79.606485,34.1384891 C79.621185,33.5218797 79.626435,33.0167625 79.626435,32.5765516 C79.626435,31.4668641 79.59336,30.7738328 79.59336,29.7709266 C79.59336,28.2000906 79.568685,26.5507391 79.528785,25.0092156 C79.49361,23.6854422 78.724485,22.5631922 77.889735,21.8822 C77.766885,21.7827469 77.77581,21.6482234 78.017835,21.5205047 C78.156435,21.4467 78.344385,21.3849344 78.499785,21.3393953 C79.306185,21.1043719 80.16876,20.8656844 81.03291,20.62595 C81.29751,20.5521453 81.562635,20.4762469 81.828285,20.3987781 C82.52076,20.1967312 83.060985,20.0156219 83.76711,19.8099109 C85.460235,19.3157859 87.246285,18.8368406 88.895835,18.3552781 C90.44091,17.9051219 92.001735,17.4151844 93.55626,16.9603172 C93.78411,16.8938406 94.011435,16.8383563 94.23876,16.7718797 C94.263435,16.7645516 94.289685,16.7567 94.31541,16.7498953 C94.42671,16.7169188 94.54011,16.6965047 94.583685,16.8163719 C94.60626,16.8781375 94.60731,17.0582 94.60731,17.1806844 C94.60731,17.7705984 94.592085,18.3631297 94.592085,18.9504266 C94.592085,19.8439344 94.620435,20.7405828 94.613085,21.5943094 C94.613085,21.6319969 94.61781,21.7377312 94.61781,21.8670203 C94.61781,22.0219578 94.610985,22.2114422 94.580535,22.3606219 C94.52751,22.6181531 94.405185,22.6642156 94.27971,22.5788953 C93.41976,22.0052078 92.158185,21.6126297 90.899235,21.9560047 C89.850285,22.242325 88.74306,22.5511531 87.64581,22.8709734 C87.216885,22.996075 86.78901,23.1232703 86.366385,23.2515125 C85.952685,23.3755672 85.59096,23.4786844 85.232385,23.5797078 C85.04286,23.632575 84.870135,23.8210125 84.866985,24.0183484 C84.86226,24.2664578 84.85596,24.5145672 84.847035,24.7637234 C84.828135,25.3363641 84.820785,25.9063875 84.820785,26.4748406 C84.820785,28.0414891 84.87486,29.5940047 84.87486,31.1585594 C84.87486,31.3511844 85.01661,31.4736687 85.201935,31.4197547 C85.48806,31.3349578 85.802535,31.2423094 86.18316,31.1282 C86.88561,30.9230125 87.58911,30.717825 88.29261,30.5142078 C89.021835,30.3011687 89.750535,30.0917937 90.47976,29.8839891 C90.58161,29.8546766 90.696585,29.8101844 90.792135,29.8217 C90.924435,29.8374031 90.93231,29.9803016 90.93756,30.0876062 C90.94806,30.3095437 90.935985,30.5409031 90.931785,30.7670281 C90.92076,31.2281766 90.912885,31.6872312 90.919185,32.1436687 C90.924435,32.4556375 90.931785,32.7655125 90.935985,33.0769578 C90.937035,33.1565203 90.93756,33.2360828 90.93756,33.3156453 C90.93756,33.3590906 90.94701,33.4161453 90.94701,33.4695359 C90.94701,33.6407 90.81261,33.69095 90.69606,33.7249734 C90.49866,33.7825516 90.30231,33.8474578 90.10596,33.9045125 C89.048085,34.2122937 88.001235,34.5750359 86.94441,34.8482703 C86.376885,34.9953562 85.80936,35.156575 85.24236,35.3225047 C85.05021,35.3790359 84.89061,35.5831766 84.89061,35.7831297 C84.88956,36.6912937 84.845985,37.6125437 84.845985,38.5196609 C84.845985,39.6392937 84.851235,40.3537859 84.860685,41.7304266 L84.860685,43.3399969 C84.860685,43.5389031 85.00191,43.6708094 85.193535,43.6163719 C86.237235,43.3201062 87.31401,43.0264578 88.393935,42.710825 C89.480685,42.3946687 90.31386,42.0638562 91.35231,41.6529578 C92.517285,41.1912859 93.401385,40.4249734 94.174185,39.4890672 C94.442985,39.1634891 94.64406,38.9535906 94.777935,38.9143328 C94.914435,38.8740281 94.98216,39.0106453 94.98216,39.3822859 C94.98216,40.2846922 94.976385,40.7149578 94.976385,41.8817 C94.976385,42.3862937 95.005785,42.8741375 95.009985,43.3844891 C95.01051,43.4677156 95.01051,43.5509422 95.01051,43.6346922 C95.01051,43.9576531 95.004735,44.2821844 94.984785,44.6082859 C94.97691,44.7480437 94.937535,44.9029812 94.805235,45.0019109 C94.68396,45.0929891 94.512285,45.1589422 94.382085,45.1971531 C93.444435,45.4782391 92.57136,45.7347234 91.62951,46.0095281 C90.75591,46.2644422 89.849235,46.5005125 88.97721,46.7543797 C87.64896,47.1323016 86.960685,47.3280672 85.881285,47.6426531 C85.433985,47.7729891 84.986685,47.9153641 84.53886,48.0572156 C84.519435,48.0655906 84.500535,48.0750125 84.48111,48.0818172 C84.29526,48.1482937 84.106785,48.2022078 83.91831,48.2529812 C83.69151,48.3236453 83.465235,48.3927391 83.23791,48.4592156 L83.23791,48.4576453 Z" id="el_5jmiiVZRIm"/>
                    <path d="M104.42145,27.0355992 C104.889225,26.9068336 105.624225,26.711068 105.861525,26.6330758 C107.77725,26.0101852 108.2718,25.7605055 109.137,24.4613336 C109.573275,23.8059898 109.686675,23.0239742 109.73235,22.3581617 C109.77015,21.8184977 109.7985,21.279357 109.7985,20.748068 C109.7985,20.0121148 109.7439,19.2923883 109.5801,18.6140133 C109.457775,18.1047086 109.1748,17.6336148 108.770025,17.3535758 C107.9148,16.7605211 106.491525,17.1264039 105.467775,17.4095836 C105.069825,17.5195055 104.649825,17.6503648 104.2629,17.7807008 C104.090175,17.8398492 103.9458,17.9078961 103.8219,18.0471305 C103.736325,18.1439664 103.7274,18.3093727 103.7274,18.440232 C103.7274,18.7171305 103.728975,18.9851305 103.728975,19.140068 C103.728975,19.5996461 103.731075,20.0466617 103.731075,20.4931539 C103.731075,21.0254898 103.72845,21.555732 103.71795,22.1053414 C103.70955,22.6141227 103.704825,23.4217867 103.704825,24.2770836 C103.704825,25.1910055 103.7106,26.1593648 103.720575,26.8769977 C103.72425,27.0717164 103.866525,27.2015289 104.055525,27.1439508 C104.173125,27.1078336 104.297025,27.0701461 104.42145,27.0355992 Z M110.884725,40.5172555 C110.173875,40.714068 109.461975,40.9045992 108.751125,41.0961773 C108.712275,41.1071695 108.60465,41.1417164 108.473925,41.1778336 C108.31695,41.2212789 108.126375,41.2662945 107.984625,41.2725758 C107.738925,41.2840914 107.73105,41.1548023 107.855475,40.9846852 C108.367875,40.2848492 108.960075,39.566693 109.25775,38.7365211 C109.32915,38.5370914 109.358025,38.3497008 109.358025,38.1696383 C109.358025,37.6650445 109.128075,37.2148883 108.94485,36.710818 C108.638775,35.8707008 108.402525,35.1337008 108.146325,34.5071461 C107.7111,33.4466617 107.263275,32.5892711 106.651125,31.2471773 C106.61805,31.1728492 106.541925,30.9493414 106.407,30.6682555 C106.318275,30.4855758 106.13295,30.4740602 105.91455,30.5326852 C105.5481,30.6295211 105.210525,30.7363023 104.946975,30.8090602 C104.8614,30.8331383 104.1915,31.0372789 104.11275,31.0592633 C103.916925,31.1131773 103.755225,31.2817242 103.754175,31.4853414 C103.744725,32.5138961 103.7274,33.0587945 103.72845,33.2289117 C103.73475,34.2297242 103.733175,34.9400289 103.741575,36.2303023 C103.75995,38.6234586 103.7064,38.9202477 103.989375,39.6965055 C104.28495,40.5057398 104.8278,41.1888258 105.4032,41.6635836 C105.5271,41.7656539 105.5187,41.8991305 105.275625,42.0231852 C105.13545,42.0954195 104.946975,42.154568 104.791575,42.1974898 C103.474875,42.5612789 102.165525,42.8899977 100.85145,43.2532633 C99.766275,43.5537164 98.6475,43.9018023 97.608,44.1792242 C97.569675,44.189693 97.462575,44.2247633 97.332375,44.260357 C97.17645,44.3038023 96.9885,44.3482945 96.848325,44.3540523 C96.60525,44.3645211 96.597375,44.235232 96.721275,44.0656383 C97.55865,42.9093648 98.3304,41.3500445 98.365575,40.0063805 C98.40285,38.553318 98.430675,37.012318 98.430675,35.5461695 C98.430675,34.3940836 98.46585,33.6638883 98.46585,32.5039508 C98.46585,32.0365211 98.4606,31.4984273 98.4438,30.8347086 C98.40495,29.2434586 98.469525,27.8898492 98.469525,26.4755211 C98.469525,25.2632398 98.440125,24.0399664 98.42385,22.8114586 C98.407575,21.5227555 98.383425,20.4832086 98.264775,19.2960523 C98.1477,18.1188414 97.655775,17.3368258 96.969075,16.7249273 C96.7302,16.5113648 96.583725,16.3433414 96.583725,16.2035836 C96.583725,16.061732 96.734925,15.9497164 97.094025,15.8507867 C97.739775,15.6717711 98.121975,15.5477164 98.736225,15.3781227 C99.56625,15.1478102 100.388925,14.9483805 101.21265,14.7206852 C103.3305,14.1349586 101.498775,14.6149508 106.319325,13.281232 C107.013375,13.0891305 107.73315,12.9661227 108.42195,12.8582945 C110.266275,12.569357 112.2156,12.8483492 113.462475,13.9779273 C114.5739,14.9839742 115.015425,16.4988023 115.057425,18.1345445 C115.116225,20.4292945 114.969225,21.982857 114.356025,23.9070133 C113.9712,25.1145836 113.18685,26.1892008 112.24605,27.0424039 C112.0791,27.1936773 111.909525,27.3376227 111.736275,27.476857 C111.5058,27.6621539 111.4995,27.9128805 111.586125,28.1065523 C111.97515,28.9869742 112.362075,29.9401539 112.76685,30.8310445 C113.182125,31.7491539 113.517075,32.355818 114.062025,33.5607711 C115.30785,36.375818 115.473225,36.9966148 116.603025,37.8257398 C116.8482,38.0063258 116.98155,38.1335211 117.2178,38.3266695 C117.34275,38.4271695 117.398925,38.6396852 117.204675,38.7234352 C116.988375,38.8171305 116.6655,38.9082086 116.510625,38.9511305 C114.63165,39.4703805 112.755825,40.0006227 110.884725,40.5177789 L110.884725,40.5172555 Z" id="el_P6LBLEhCfA"/>
                    <path d="M121.452135,37.747643 C120.856785,37.8711742 120.47931,37.9313695 119.94171,38.0428617 C119.371035,38.161682 119.138985,38.1444086 119.138985,37.9800492 C119.138985,37.8470961 119.289135,37.6199242 119.534835,37.2896352 C120.239385,36.340643 120.74391,35.3167992 120.86466,34.0825336 C120.985935,32.8372758 121.01061,31.7862133 121.027935,30.4891352 C121.043685,29.3192523 121.074135,28.2017133 121.074135,27.0705648 C121.074135,25.9624477 121.034235,24.8401977 121.034235,23.6184945 C121.034235,23.2405727 121.038435,22.8542758 121.047885,22.4554164 C121.063635,21.8403773 121.06941,21.3357836 121.06941,20.8955727 C121.06941,19.7858852 121.03371,19.0897133 121.03371,18.086807 C121.03371,16.5164945 121.009035,14.8660961 120.968085,13.3219555 C120.932385,11.9955648 120.139635,10.8141664 119.27916,10.068268 C119.152635,9.95886953 119.161035,9.82591641 119.41041,9.71651797 C119.55426,9.65370547 119.74746,9.60607266 119.907585,9.57309609 C120.73866,9.40036172 121.62801,9.22815078 122.517885,9.05541641 C122.80086,8.99993203 123.084885,8.94183047 123.368385,8.88268203 C124.268235,8.69581484 125.169135,8.47858828 126.073185,8.29119766 C126.668535,8.16714297 127.04496,8.10747109 127.583085,7.99545547 C128.153235,7.87715859 128.38581,7.89390859 128.38581,8.05826797 C128.38581,8.19069766 128.23566,8.41891641 127.98996,8.74920547 C127.284885,9.69819766 126.78036,10.7209945 126.660135,11.956307 C126.52836,13.3041586 126.46116,14.4866039 126.46116,15.9318148 C126.46116,16.7902523 126.49581,17.547143 126.503685,18.3422445 C126.512085,19.2195258 126.519435,20.0926195 126.506835,21.0510336 C126.50526,21.1546742 126.643335,21.1515336 126.695835,21.0520805 C127.30221,19.9225023 128.56011,17.5754086 128.726535,17.2629164 C129.245235,16.2877523 129.72771,15.4392602 130.32201,14.4164633 C131.11161,13.0565727 131.57991,12.0311586 132.166335,10.8534242 C132.49341,10.1970336 132.670335,9.68040078 132.670335,9.22343984 C132.670335,8.62358047 132.36636,8.12526797 131.69961,7.54739297 C131.572035,7.43851797 131.53371,7.20558828 131.78781,7.12445547 C131.91591,7.08415078 132.072885,7.04751016 132.214635,7.01819766 C132.929685,6.86954141 133.65576,6.74496328 134.371335,6.59578359 C134.79816,6.50679922 135.188235,6.42880703 135.588285,6.34610391 C136.11696,6.23565859 136.66401,6.11683828 137.340735,5.95090859 C137.786985,5.84203359 138.235335,5.76456484 138.68211,5.67191641 L139.453335,5.51174453 C139.725285,5.45521328 139.83396,5.51645547 139.83396,5.63056484 C139.83396,5.76351797 139.685385,5.96922891 139.47381,6.14405703 C138.61491,6.85488516 137.98911,7.50028359 137.27091,8.55762734 C136.484985,9.71756484 135.909585,11.0130727 135.17616,12.2562367 C134.35401,13.6485805 133.996485,14.284557 133.390635,15.3555102 C132.993735,16.0542992 132.634635,16.8206117 132.262935,17.5157367 C132.147435,17.7319164 132.13431,17.974268 132.22041,18.1637523 C132.309135,18.359518 132.39786,18.555807 132.484485,18.7541898 C132.644085,19.1185023 134.13141,22.7066664 134.20596,22.877307 C134.60181,23.7828539 134.995035,24.7622055 135.406635,25.6803148 C135.82821,26.625643 136.16841,27.2542914 136.722285,28.4948383 C137.98806,31.3915414 138.15501,32.0238539 139.303185,32.9267836 C139.55256,33.1235961 139.805085,33.3047055 140.045535,33.5125102 C140.172585,33.6213852 140.164185,33.7548617 139.91481,33.8637367 C139.77096,33.9270727 139.577235,33.974182 139.417635,34.0071586 C138.687885,34.1594789 137.882535,34.3144164 137.134935,34.4698773 C136.134285,34.6782055 135.427635,34.8378539 134.332485,35.0660727 C134.02956,35.1288852 133.217385,35.285393 133.00791,35.3283148 C132.14691,35.5057602 131.99361,35.5544398 131.13261,35.7256039 C131.09376,35.7334555 130.98351,35.7617211 130.85016,35.7894633 C130.69056,35.8224398 130.49736,35.8559398 130.35351,35.8527992 C130.10361,35.8470414 130.09521,35.7172289 130.221735,35.5560102 C130.741485,34.8891508 131.344185,34.2097289 131.64606,33.3978773 C131.71851,33.203682 131.748435,33.0189086 131.748435,32.8383227 C131.748435,32.3332055 131.514285,31.8689164 131.328435,31.352807 C131.017635,30.4922758 130.77771,29.7390492 130.51731,29.096268 C130.075785,28.0069945 129.62061,27.1202914 128.99901,25.737893 C128.947035,25.6232602 128.76801,25.1877602 128.546985,24.6460023 C128.492385,24.5135727 128.30181,24.5381742 128.217285,24.682643 C127.672335,25.6190727 127.163085,26.5057758 126.67431,27.3888148 C126.51786,27.6714711 126.48951,27.9813461 126.48951,28.2776117 C126.48951,29.7469008 126.51786,31.2779555 126.55671,32.7163617 C126.59241,34.0427523 127.38516,35.2241508 128.244585,35.9700492 C128.371635,36.0789242 128.363235,36.2118773 128.113335,36.3212758 C127.97001,36.3846117 127.77681,36.4311977 127.616685,36.4652211 C126.564585,36.684018 125.51406,36.880307 124.45986,37.0996273 C123.456585,37.3079555 122.45436,37.5387914 121.45161,37.7471195 L121.452135,37.747643 Z" id="el_tnrrmE2c4e"/>
                    <path d="M154.316925,21.6187016 C154.4991,21.5982875 154.644,21.4266 154.6041,21.2512484 C154.503825,20.8078969 154.434525,20.4990688 154.418775,20.4263109 C154.3773,20.2368266 154.16835,19.2935922 153.9552,18.3330844 C153.716325,17.2616078 153.522075,16.0791625 153.502125,15.9870375 C153.303675,15.0788734 153.1068,14.2544594 152.904675,13.3630453 C152.702025,12.4622094 152.565525,11.82885 152.307225,10.6867094 C152.261025,10.4752406 152.149725,10.5574203 152.0967,10.7746469 C151.806375,11.96285 151.6998,12.4182406 151.4709,13.3557172 C151.243575,14.2832484 150.992625,15.3604828 150.76845,16.3047641 C150.7254,16.4848266 149.77935,20.4127016 149.681175,20.8288344 C149.6628,20.9083969 149.582475,21.2360688 149.468025,21.7066391 C149.46225,21.7301938 149.459625,21.753225 149.459625,21.7757328 C149.459625,21.9212484 149.57565,22.037975 149.729475,22.0259359 C150.32535,21.9798734 151.08765,21.9332875 151.534425,21.8945531 C152.86845,21.7820141 153.8271,21.6741859 154.316925,21.6187016 M157.080525,32.2109828 C156.528225,32.2596625 155.968575,32.3052016 155.46825,32.3434125 C155.428875,32.3465531 155.317575,32.3612094 155.18265,32.372725 C155.022,32.3863344 154.82775,32.3957562 154.682325,32.3748188 C154.431375,32.339225 154.42245,32.2078422 154.55055,32.0618031 C155.073975,31.4588031 155.680875,30.8537094 155.98485,30.0790219 C156.1245,29.7236078 156.1791,29.3891312 156.1791,29.0358109 C156.1791,28.4108266 156.00795,27.7293109 155.834175,26.7797953 C155.805825,26.6269516 155.688225,26.0893813 155.5323,25.3869281 C155.487675,25.1848813 155.311275,25.0451234 155.100225,25.0629203 C154.76685,25.0917094 154.1883,25.0979906 152.45685,25.2602562 C151.669875,25.3345844 149.8476,25.4863813 149.0622,25.5580922 L148.88685,25.5737953 C148.67475,25.5931625 148.48575,25.7501938 148.43535,25.9600922 C148.2558,26.7054672 148.119825,27.2781078 148.0878,27.4382797 C147.908775,28.3124203 147.666225,29.0133031 147.666225,29.7079047 C147.666225,30.0601781 147.728175,30.4103578 147.893025,30.781475 C148.208025,31.4912563 148.79865,31.9963734 149.3184,32.5072484 C149.4465,32.6313031 149.4381,32.7637328 149.186625,32.841725 C148.920975,32.925475 148.487325,32.9364672 148.4007,32.9443188 C147.857325,32.9950922 146.323275,33.1170531 145.740525,33.1641625 C144.336675,33.2756547 143.88045,33.3410844 142.4766,33.4478656 C142.437225,33.4510062 142.325925,33.4661859 142.191525,33.4771781 C142.030875,33.4913109 141.836625,33.4996859 141.6912,33.4792719 C141.44025,33.4436781 141.43185,33.3128188 141.559425,33.1667797 C142.06815,32.5800063 142.67295,32.0492406 143.191125,31.3054359 C143.936625,30.2350063 143.97915,29.7011 144.761925,26.711225 C145.15305,25.253975 145.3578,24.4641078 145.655475,23.3538969 C145.94685,22.2756156 146.1684,21.2062328 146.44665,20.1457484 C146.4981,19.9457953 147.0966,17.7169984 147.76545,15.3897953 C148.1025,14.2178188 148.3713,13.0793422 148.653225,12.0397953 C148.93515,11.0012953 149.190825,9.99420156 149.4255,8.94994375 C149.583,8.24173281 149.74155,7.71567812 149.74155,7.22731094 C149.74155,6.88602969 149.6649,6.56202188 149.45595,6.20817812 C149.25855,5.87160781 148.98765,5.57952969 148.704675,5.28431094 C148.456875,5.02625625 148.305675,4.83049062 148.305675,4.69073281 C148.305675,4.54940469 148.462125,4.46513125 148.832775,4.43424844 C149.686425,4.36149063 150.0933,4.29606094 151.125975,4.22539688 C151.512375,4.19870156 151.898775,4.16206094 152.2857,4.13693594 C152.75505,4.10500625 153.17085,4.07307656 153.56145,4.0401 C154.36365,3.97152969 155.060325,3.88830313 155.91135,3.81554531 C156.46995,3.76843594 157.028025,3.7386 157.586625,3.69096719 C158.151,3.64281094 158.381475,3.68887344 158.381475,3.85270937 C158.381475,3.98513906 158.22975,4.19556094 157.982475,4.49549063 C157.65435,4.89382656 157.351425,5.25238125 157.166625,5.6816 C157.03275,5.99252187 156.981825,6.2804125 156.981825,6.56777969 C156.981825,7.09488125 157.151925,7.61936562 157.28685,8.28151406 C157.69845,10.2946547 158.3043,12.3057016 158.8125,14.3795609 C158.9133,14.7883656 159.821025,18.7863812 159.868275,18.9779594 C160.117125,19.9934281 160.40535,21.0460609 160.66785,22.0777563 C160.9356,23.1392875 161.118825,23.897225 161.470575,25.2906156 C162.150975,28.0658813 162.2166,28.5987406 162.7164,29.4116391 C163.22355,30.2355297 163.86825,30.6542797 164.44575,31.2211625 C164.573325,31.3452172 164.564925,31.4776469 164.31345,31.5556391 C164.169075,31.6011781 163.9743,31.6252563 163.813125,31.6393891 C163.144275,31.6959203 162.4749,31.7514047 161.80605,31.8089828 C160.542375,31.9162875 159.6987,31.9916625 158.256,32.1146703 C157.8591,32.1481703 157.438575,32.1811469 157.080525,32.2109828" id="el_rQ6pvd-BJW"/>
                    <g id="el_GpTA0SwWu2">
                        <mask id="mask-2" fill="white">
                            <use xlink:href="#path-1"/>
                        </mask>
                        <g id="el_CI0ub-A7BV"/>
                        <path d="M86.6175975,0.256222656 C86.5629975,0.256222656 86.5062975,0.257269531 86.4506475,0.257792969 C83.7369225,0.310136719 81.3271725,1.52555859 79.8398475,3.59470703 C78.4669725,5.50316016 78.0569475,7.92772266 78.7436475,10.0806211 C79.3148475,11.8676367 80.5580475,13.3819414 82.0689975,14.1325508 C83.2187475,14.7030977 84.4304475,14.7926055 85.5744225,14.3916523 C86.6658975,14.0084961 86.9362725,13.2254336 86.8365225,12.6726836 C86.7136725,11.9990195 86.0731725,11.5525273 85.2861975,11.5525273 C85.1544225,11.555668 84.9648975,11.5917852 84.7569975,11.6378477 C84.5832225,11.6760586 84.3926475,11.7221211 84.2319975,11.7247383 L84.2031225,11.7247383 C82.9777725,11.7247383 81.2673225,10.3051758 81.2221725,7.95284766 C81.1691475,5.15769141 83.3158725,3.08854297 86.3277975,3.03201172 C87.9652725,2.98019141 89.6447475,3.74964453 90.9330975,5.08755078 C92.2875975,6.49402734 93.0535725,8.35798828 93.0908475,10.3344883 C93.1496475,13.3667617 91.5924975,16.483832 88.8204975,18.887457 C85.8033225,21.5035977 81.6752475,22.991207 77.1959475,23.0760039 C69.3293475,23.2183789 60.7723725,19.6129414 60.6647475,13.9933164 C60.6411225,12.7679492 61.0684725,11.5504336 61.8354975,10.6516914 C62.6319225,9.71840234 63.7323225,9.19234766 64.9329975,9.16931641 C64.9545225,9.16826953 64.9755225,9.16826953 64.9954725,9.16826953 C66.3851475,9.16826953 67.8740475,10.0345586 67.9018725,11.4656367 C67.9102725,11.9330664 67.7076225,12.3675195 67.3737225,12.5999258 C67.0797225,12.8040664 66.7132725,12.8297148 66.3116475,12.6737305 C66.0617475,12.5748008 65.7472725,12.455457 65.3566725,12.4596445 C64.9314225,12.4674961 64.5303225,12.6910039 64.2835725,13.0553164 C64.0336725,13.4238164 63.9790725,13.8881055 64.1344725,14.2948164 C64.3544475,14.8732148 64.7943975,15.2715508 65.4805725,15.512332 C66.6381975,15.9185195 67.9680225,15.6923945 69.0384975,14.9203242 C70.1483475,14.1178945 70.7694225,12.8668789 70.7436975,11.4876211 C70.6938225,8.92277734 68.4662475,6.30192578 64.6904475,6.38201172 C60.7723725,6.45686328 57.8780475,9.66972266 57.9578475,13.8572227 C57.9966975,15.8803086 58.7169975,17.8646602 59.9528475,19.3972852 C57.0968475,18.3383711 55.2425475,17.5170977 53.7326475,16.8476211 L53.5515225,16.7675352 C48.5771475,14.5581055 42.0786975,12.053457 36.0931725,12.1806523 C30.7938225,12.3020898 28.2995475,14.5167539 26.8095975,15.8394805 L26.4478725,16.1577305 C21.4776975,20.4352617 16.9469475,22.9048398 12.1909725,23.929207 C9.9476475,24.4123398 6.6133725,24.6698711 4.5989475,23.799918 C3.5636475,23.3539492 2.9892975,22.610668 2.8905975,21.5904883 C2.8107975,20.788582 2.1771225,20.2169883 1.3927725,20.2620039 C0.7018725,20.3023086 0.0151725,20.8718086 0.0372225,22.0511133 C0.0639975,23.4628242 1.0662225,25.311082 3.2465475,26.2579805 C4.7133975,26.8955273 6.5335725,27.2190117 8.5238475,27.2190117 C9.9313725,27.2190117 11.4239475,27.0567461 12.9380475,26.7306445 C16.9794975,25.8617383 21.1033725,23.8841914 25.2408975,20.9299102 C25.2603225,21.2057617 25.2902475,21.4695742 25.3364475,21.7072148 C25.7611725,24.1354414 27.8354475,26.5631445 30.9922725,26.5631445 C31.0305975,26.5631445 31.0699725,26.5631445 31.1098725,26.5620977 C32.5226475,26.5354023 33.8167725,26.0365664 34.7538975,25.156668 C35.6574225,24.3097461 36.1624725,23.1545195 36.1404225,21.9888242 C36.1225725,21.0754258 35.7781725,20.1740664 35.1954225,19.5145352 C34.5302475,18.7613086 33.6120225,18.3661133 32.5331475,18.3771055 C31.2773475,18.4011836 30.7140225,19.1120117 30.7124475,19.8066133 C30.7113975,20.4907461 31.2804975,21.2115195 32.2485975,21.2335039 L32.2701225,21.2335039 C33.1914975,21.2335039 33.3269475,21.6438789 33.3358725,22.0882773 C33.3463725,22.6551602 33.0150975,23.0404102 32.7357975,23.2654883 C32.3257725,23.5947305 31.7514225,23.7899727 31.1613225,23.8004414 C29.9653725,23.8192852 29.0539725,23.267582 28.5336975,22.2364102 C27.8443725,20.8749492 28.0422975,18.9821992 29.0030475,17.7374648 C30.2714475,16.098582 33.0150975,15.1197539 36.5320725,15.0543242 C42.4099725,14.9464961 47.1774975,17.061707 51.4142475,18.9309023 L52.4390475,19.381582 C58.9285725,22.2175664 67.7858475,26.0868164 77.1791475,25.922457 C82.6144725,25.8193398 87.5552475,24.0035352 91.0932225,20.8079492 C94.3293225,17.8845508 96.1447725,14.0592695 96.0728475,10.3130273 C95.9667975,4.73108984 91.7415975,0.256222656 86.6175975,0.256222656" id="el_VeWsYJbKHk" mask="url(#mask-2)"/>
                    </g>
                    <path d="M159.57564,45.9493852 C159.665415,45.6138617 159.46434,45.2673461 159.126765,45.1778383 C158.84904,45.100893 158.570265,45.0658227 158.300415,45.0705336 C157.951815,45.0773383 157.672515,45.3647055 157.67934,45.7148852 C157.68564,46.0603539 157.975965,46.3377758 158.324565,46.3309711 C158.47524,46.3283539 158.63379,46.352432 158.800215,46.394307 C159.138315,46.4832914 159.483765,46.2864789 159.57564,45.9493852" id="el_2hw5yq5oPX"/>
                    <path d="M161.626972,51.7884352 C161.972947,51.8590992 162.301597,51.6340211 162.370372,51.2943102 C162.461722,50.8305445 162.505297,50.3646852 162.496372,49.9103414 C162.477997,48.9330836 162.188197,47.9778102 161.659522,47.1502555 C161.536672,46.9565836 161.326672,46.8539898 161.110897,46.8581773 C161.000647,46.8602711 160.887772,46.8916773 160.785922,46.9576305 C160.490872,47.1429273 160.402672,47.5339352 160.590097,47.8286305 C160.997497,48.4598961 161.218522,49.1885211 161.232698,49.9344195 C161.239522,50.298732 161.203822,50.6724664 161.130847,51.0472477 C161.061547,51.3885289 161.283097,51.7219586 161.626972,51.7884352" id="el_SPeRQcJdC8o"/>
                    <path d="M156.59385,58.2051508 C156.8448,58.0695805 157.0884,57.931393 157.32465,57.7853539 C157.622325,57.604768 157.7163,57.2163773 157.537275,56.9195883 C157.4139,56.7222523 157.1976,56.6139008 156.98025,56.6180883 C156.87315,56.620182 156.765,56.6494945 156.665775,56.7102133 C156.44895,56.8421195 156.225825,56.9687914 155.9943,57.093893 C155.6856,57.261393 155.5743,57.6414086 155.7402,57.948143 C155.903475,58.2564477 156.2883,58.3695102 156.59385,58.2051508" id="el_kHyMlAiSrdB"/>
                    <path d="M140.683358,57.4322953 C140.434508,57.4370062 140.202983,57.5867094 140.104808,57.8301078 C139.977758,58.1556859 140.137358,58.5215688 140.461808,58.6487641 C143.008058,59.6516703 145.984283,60.1531234 149.072858,60.0950219 C149.074958,60.0950219 149.077058,60.0950219 149.079683,60.0944984 C150.674107,60.0641391 152.233358,59.825975 153.704408,59.3878578 C154.037782,59.2878812 154.229408,58.9361313 154.129132,58.6042719 C154.029908,58.2692719 153.671332,58.0797875 153.342682,58.1797641 C151.979782,58.5849047 150.538657,58.8057953 149.055533,58.8340609 C149.053433,58.8345844 149.050808,58.8345844 149.049233,58.8345844 C146.167508,58.8890219 143.285258,58.4069359 140.926433,57.4752172 C140.846108,57.4432875 140.762108,57.430725 140.683358,57.4322953" id="el_TMDdMAyxyli"/>
                    <path d="M118.060688,50.7962594 C119.024588,51.0705406 120.004763,51.3762281 121.021163,51.7368766 C122.927963,52.4178688 124.732913,53.2150641 126.474862,53.9887047 C126.793013,54.13265 127.168912,53.9887047 127.308562,53.6699313 C127.451362,53.3511578 127.308562,52.9805641 126.989887,52.8381891 C125.223788,52.0551266 123.400988,51.243275 121.445363,50.5471031 C120.416363,50.1806969 119.417813,49.8708219 118.434488,49.5892125 C118.076963,49.4897594 117.682688,49.6494078 117.576113,50.0058688 C117.470588,50.3539547 117.709463,50.6957594 118.060688,50.7962594" id="el_ISSFakd69fS"/>
                    <path d="M114.822488,49.9405961 C115.051388,49.9840414 115.279763,50.0280102 115.511813,50.0735492 C115.862513,50.1442133 116.186963,49.9238461 116.257313,49.5809945 C116.328713,49.2407602 116.107163,48.9057602 115.764863,48.8392836 C115.523363,48.789557 115.282913,48.744018 115.047188,48.7010961 C115.015688,48.6969086 114.983138,48.6932445 114.953738,48.6916742 C114.645563,48.6832992 114.369413,48.8973852 114.310613,49.2088305 C114.248138,49.551682 114.478613,49.8788305 114.822488,49.9405961" id="el_j7AUbDT03n2"/>
                    <g id="el_T2HHGS666dF">
                        <mask id="mask-4" fill="white">
                            <use xlink:href="#path-3"/>
                        </mask>
                        <g id="el_uuu8BllaL_w"/>
                        <path d="M91.4374125,3.74236875 C92.4606375,4.20456406 93.0197625,4.95465 93.0969375,5.9764 C93.1615125,6.77882969 93.8198625,7.35199375 94.5658875,7.33053281 C95.2562625,7.30331406 95.9534625,6.74794687 95.9534625,5.56864219 C95.9534625,4.16059531 94.9885125,2.299775 92.8323375,1.3157125 C90.3601125,0.182470312 86.8436625,-0.0577875 83.1807375,0.660892187 C79.1329875,1.4539 74.9844375,3.34717344 70.8070125,6.21770469 C70.7975625,5.94080625 70.7697375,5.67856406 70.7287875,5.43464219 C70.3444875,2.97448594 68.2754625,0.485017187 65.0635125,0.485017187 C62.2022625,0.485017187 59.9605125,2.4463375 59.9605125,4.9504625 C59.9605125,6.72962656 61.1979375,8.61975937 63.4911375,8.61975937 C64.7422125,8.61975937 65.3176125,7.92201719 65.3328375,7.23003281 C65.3475375,6.54747031 64.7926125,5.81675156 63.8245125,5.7754 C62.8915875,5.7628375 62.7629625,5.34932187 62.7629625,4.9044 C62.7629625,3.98629062 63.7489125,3.23986875 64.9606125,3.23986875 C66.1297875,3.23986875 67.0485375,3.81041562 67.5478125,4.845775 C68.2093125,6.21665781 67.9762125,8.0994625 66.9955125,9.32273594 C65.6998125,10.9312594 62.9472375,11.8546031 59.4423375,11.8546031 C53.6127375,11.8546031 48.8704125,9.653025 44.6866875,7.71159531 L43.6692375,7.241025 C37.2521625,4.29197812 28.4631375,0.252610937 19.1286375,0.252610937 C7.3135125,0.252610937 -0.0002625,8.14447812 -0.0002625,15.4563766 C-0.0002625,21.0828062 4.2170625,25.6607906 9.4014375,25.6607906 C12.1088625,25.6607906 14.5343625,24.4945719 16.0552875,22.4610172 C17.4601875,20.5850172 17.9153625,18.1745875 17.2717125,16.0143609 C16.7341125,14.2200172 15.5224125,12.6852984 14.0293125,11.9090406 C12.8968875,11.3212203 11.6930625,11.2086812 10.5459375,11.5881734 C9.4476375,11.9472516 9.1625625,12.7224625 9.2518125,13.2778297 C9.3604875,13.9546344 9.9868125,14.4262516 10.7764125,14.4262516 C10.9066125,14.4262516 11.0992875,14.3927516 11.3071875,14.3508766 C11.4809625,14.3152828 11.6720625,14.2723609 11.8311375,14.2723609 C13.0522875,14.2723609 14.7564375,15.7243766 14.7564375,18.0882203 C14.7564375,20.8729078 12.5782125,22.8944234 9.5773125,22.8944234 C6.0608625,22.8944234 2.9759625,19.435025 2.9759625,15.4914469 C2.9759625,9.50384531 9.4397625,3.09225937 19.0614375,3.09225937 C26.9359125,3.09225937 35.3653125,6.855775 35.3653125,12.4581266 C35.3653125,15.0637984 33.4144125,17.1831969 31.0177875,17.1831969 C29.6107875,17.1831969 28.1056125,16.2410094 28.1056125,14.8387203 C28.1056125,14.3744312 28.3156125,13.9457359 28.6521375,13.7206578 C28.9498125,13.5227984 29.3167875,13.5065719 29.7142125,13.6672672 C29.9740875,13.7756188 30.2686125,13.8975797 30.6581625,13.8975797 C31.0828875,13.8975797 31.4881875,13.6834937 31.7417625,13.3238922 C31.9979625,12.9606266 32.0620125,12.4989547 31.9144875,12.0870094 C31.7044875,11.5039 31.2708375,11.1003297 30.5920125,10.8501266 C29.4490875,10.4266656 28.1197875,10.6229547 27.0361875,11.3730406 C25.9137375,12.1508687 25.2711375,13.3867047 25.2711375,14.7643922 C25.2711375,17.3234781 27.4903125,19.9705016 31.2057375,19.9705016 C35.1154125,19.9705016 38.0632875,16.8199313 38.0632875,12.6434234 C38.0632875,10.6271422 37.3844625,8.63755625 36.1827375,7.0860875 C39.0098625,8.19734531 40.8426375,9.05107187 42.3346875,9.74672031 L42.5095125,9.82785312 C47.7096375,12.2545094 53.8174875,14.7303688 59.7321375,14.7303688 L59.8213875,14.7303688 C65.1086625,14.7083844 67.6360125,12.5481578 69.1474875,11.2578844 L69.5139375,10.9469625 C74.5523625,6.77673594 79.1151375,4.4019 83.8732125,3.47122812 C86.1175875,3.0325875 89.4439875,2.83839219 91.4374125,3.74236875" id="el_EMQogRkhKxg" mask="url(#mask-4)"/>
                    </g>
                    <path d="M8.323875,19.7662563 C8.2278,20.1007328 8.419425,20.4498656 8.753325,20.5446078 C9.03105,20.6262641 9.3093,20.6665688 9.57705,20.6665688 C9.9246,20.6665688 10.207575,20.3854828 10.207575,20.03635 C10.207575,19.6898344 9.9246,19.408225 9.57705,19.408225 C9.4269,19.408225 9.27045,19.3841469 9.1035,19.3386078 C8.770125,19.2428187 8.419425,19.43335 8.323875,19.7662563" id="el_CDUY2_UcIMf"/>
                    <path d="M6.389985,13.9077344 C6.046635,13.8313125 5.712735,14.0490625 5.63976,14.3872031 C5.54001,14.8467812 5.48751,15.3100234 5.48751,15.7633203 C5.48751,16.7390078 5.75841,17.6953281 6.26976,18.5302109 C6.387885,18.7254531 6.594735,18.8317109 6.808935,18.8317109 C6.91971,18.8317109 7.03416,18.8029219 7.136535,18.7390625 C7.43421,18.5574297 7.52766,18.1721797 7.34601,17.8753906 C6.95436,17.2378437 6.746985,16.507125 6.746985,15.7633203 C6.746985,15.4011016 6.78846,15.0289375 6.869835,14.6572969 C6.94491,14.3165391 6.729135,13.9804922 6.389985,13.9077344" id="el_8OZ8YoeqXuY"/>
                    <path d="M11.52669,7.60758828 C11.276265,7.73687734 11.03109,7.87035391 10.79169,8.00906484 C10.49139,8.18389297 10.389015,8.56966641 10.564365,8.86854922 C10.683015,9.07059609 10.895115,9.18104141 11.10984,9.18104141 C11.22009,9.18104141 11.328765,9.15382266 11.428515,9.09572109 C11.64534,8.96904922 11.87214,8.84604141 12.10419,8.72617422 C12.41394,8.56390859 12.53469,8.18755703 12.37509,7.88029922 C12.218115,7.56885391 11.83539,7.44846328 11.52669,7.60758828" id="el_HSKzSzWDNqp"/>
                    <path d="M27.373605,8.67796563 C27.619305,8.67796563 27.855555,8.53297344 27.957405,8.29219219 C28.09023,7.96975469 27.93693,7.60230156 27.616155,7.468825 C25.098255,6.42142656 22.139355,5.86553594 19.06128,5.86553594 L19.053405,5.86553594 C17.463705,5.86553594 15.906555,6.0743875 14.43183,6.48266875 C14.097405,6.57531719 13.900005,6.92235625 13.992405,7.2552625 C14.085855,7.58921563 14.43813,7.78445781 14.768355,7.69337969 C16.13598,7.31493438 17.576055,7.12178594 19.053405,7.12178594 L19.06128,7.12178594 C21.933555,7.12178594 24.79848,7.65778594 27.132105,8.62771563 C27.21138,8.66173906 27.29118,8.67796563 27.373605,8.67796563" id="el_S7c5j_zL4kS"/>
                    <path d="M52.808385,16.5893047 C50.94306,16.1349609 48.939135,15.5094531 46.864335,14.7242969 C44.97381,14.0129453 43.190385,13.18225 41.470485,12.3766797 C41.154435,12.2306406 40.77906,12.3662109 40.633635,12.6813203 C40.48506,12.9959063 40.618935,13.3691172 40.936035,13.5162031 C42.677985,14.329625 44.48241,15.1707891 46.418085,15.9020313 C48.543285,16.7023672 50.591835,17.3461953 52.51281,17.8089141 C52.562685,17.8230469 52.613085,17.8272344 52.66086,17.8272344 C52.944885,17.8272344 53.202135,17.6367031 53.27406,17.3461953 C53.354385,17.0111953 53.14911,16.6704375 52.808385,16.5893047" id="el_pgIDGnZAmjZ"/>
                    <path d="M56.0224875,17.2170633 C55.7930625,17.1840867 55.5615375,17.1463992 55.3310625,17.106618 C54.9808875,17.0490398 54.6595875,17.2788289 54.6007875,17.6185398 C54.5425125,17.9634852 54.7735125,18.287493 55.1152875,18.3445477 C55.3578375,18.3869461 55.5993375,18.4262039 55.8366375,18.4617977 C55.8681375,18.4654617 55.8996375,18.4675555 55.9285125,18.4675555 C56.2366875,18.4675555 56.5054875,18.2450945 56.5532625,17.9315555 C56.6031375,17.5892273 56.3658375,17.269407 56.0224875,17.2170633" id="el_bJNDwASTZeh"/>
                </g>
            </g>
        </g>
    </g></g>
</svg>