<?xml version="1.0" encoding="UTF-8" standalone="no"?>
<!DOCTYPE svg  PUBLIC '-//W3C//DTD SVG 1.1//EN'  'http://www.w3.org/Graphics/SVG/1.1/DTD/svg11.dtd'>
<svg version="1.1" xmlns="http://www.w3.org/2000/svg">
<defs>
<font id="corewebfont-ExtraBold" horiz-adv-x="810">
<font-face descent="-400" font-family="t" underline-thickness="48" bbox="-840 -520 2513 1950" ascent="1600" units-per-em="2000" font-weight="800" underline-position="-462" panose-1="2 11 6 3 3 3 2 2 2 4" x-height="1036" cap-height="1400" unicode-range="U+0009-FB04"/>
<missing-glyph d="M100 0v1500h800v-1500h-800zM640 247v1006h-280v-1006h280z" horiz-adv-x="1000"/>
<glyph unicode="ff" d="M1470 1206q-18 3 -45 4.5t-50 1.5q-70 0 -101.5 -30t-31.5 -90v-56h228v-278h-228v-758h-322v758h-410v-758h-322v758h-146v278h146v61q0 177 110.5 270t321.5 93q49 0 90.5 -5t79.5 -14l-35 -246q-27 8 -57.5 12.5t-59.5 4.5q-66 0 -97 -30t-31 -90v-56h410v61 q0 176 110 269.5t312 93.5q34 0 69.5 -3.5t58.5 -8.5v-242z" glyph-name="ff" horiz-adv-x="1512"/>
<glyph unicode="fi" d="M188 1097q0 177 110 270t317 93q38 0 77.5 -3.5t65.5 -8.5v-242q-22 3 -53 4.5t-57 1.5q-74 0 -106 -30t-32 -90v-56h732v-1036h-322v758h-410v-758h-322v758h-146v278h146v61zM897 1307q0 37 14 69t39 55.5t58.5 37t72.5 13.5t72.5 -13.5t58.5 -37t39 -55.5t14 -69 t-14 -69t-39 -55.5t-58.5 -37t-72.5 -13.5t-72.5 13.5t-58.5 37t-39 55.5t-14 69z" glyph-name="fi" horiz-adv-x="1369"/>
<glyph unicode="fl" d="M738 1206q-18 3 -45 4.5t-50 1.5q-70 0 -101.5 -30t-31.5 -90v-56h228v-278h-228v-758h-322v758h-146v278h146v61q0 176 110 269.5t312 93.5q34 0 69.5 -3.5t58.5 -8.5v-242zM899 1460h322v-1460h-322v1460z" glyph-name="fl" horiz-adv-x="1348"/>
<glyph unicode="ffi" d="M1629 1307q0 37 14 69t39 55.5t58.5 37t72.5 13.5t72.5 -13.5t58.5 -37t39 -55.5t14 -69t-14 -69t-39 -55.5t-58.5 -37t-72.5 -13.5t-72.5 13.5t-58.5 37t-39 55.5t-14 69zM510 1036h410v61q0 177 110 270t317 93q38 0 77.5 -3.5t65.5 -8.5v-242q-22 3 -53 4.5t-57 1.5 q-74 0 -106 -30t-32 -90v-56h732v-1036h-322v758h-410v-758h-322v758h-410v-758h-322v758h-146v278h146v61q0 177 110.5 270t321.5 93q49 0 90.5 -5t79.5 -14l-35 -246q-27 8 -57.5 12.5t-59.5 4.5q-66 0 -97 -30t-31 -90v-56z" glyph-name="ffi" horiz-adv-x="2101"/>
<glyph unicode="ffl" d="M1470 1206q-18 3 -45 4.5t-50 1.5q-70 0 -101.5 -30t-31.5 -90v-56h228v-278h-228v-758h-322v758h-410v-758h-322v758h-146v278h146v61q0 177 110.5 270t321.5 93q49 0 90.5 -5t79.5 -14l-35 -246q-27 8 -57.5 12.5t-59.5 4.5q-66 0 -97 -30t-31 -90v-56h410v61 q0 176 110 269.5t312 93.5q34 0 69.5 -3.5t58.5 -8.5v-242zM1631 1460h322v-1460h-322v1460z" glyph-name="ffl" horiz-adv-x="2080"/>
<glyph d="M100 0v1500h800v-1500h-800zM640 247v1006h-280v-1006h280z" glyph-name=".notdef" horiz-adv-x="1000"/>
<glyph glyph-name=".null" horiz-adv-x="0"/>
<glyph glyph-name=".null" horiz-adv-x="0"/>
<glyph unicode="	" glyph-name="nonmarkingreturn" horiz-adv-x="0"/>
<glyph unicode="" glyph-name="nonmarkingreturn" horiz-adv-x="0"/>
<glyph unicode=" " glyph-name="space" horiz-adv-x="606"/>
<glyph unicode="!" d="M149 1400h332v-966h-332v966zM117 159q0 39 15 72t41.5 58t63 39t78.5 14t78.5 -14t63 -39t41.5 -58t15 -72t-15 -72t-41.5 -58t-63 -39t-78.5 -14t-78.5 14t-63 39t-41.5 58t-15 72z" glyph-name="exclam" horiz-adv-x="630"/>
<glyph unicode='&quot;' d="M140 1400h308v-566h-308v566zM544 1400h308v-566h-308v566z" glyph-name="quotedbl" horiz-adv-x="992"/>
<glyph unicode="#" d="M735 300h-212l-51 -300h-302l51 300h-159v250h202l50 292h-178v250h221l53 308h302l-53 -308h212l53 308h302l-53 -308h159v-250h-202l-50 -292h178v-250h-221l-51 -300h-302zM566 550h212l50 292h-212z" glyph-name="numbersign" horiz-adv-x="1394"/>
<glyph unicode="$" d="M753 1406q90 -20 168 -61.5t141 -98.5l-168 -230q-67 58 -139.5 96t-150.5 38q-33 0 -61.5 -9t-49.5 -24.5t-33 -37.5t-12 -48q0 -29 11.5 -54.5t39.5 -48t74 -41t115 -34.5q446 -103 446 -440q0 -79 -26 -149t-75.5 -125t-120 -93.5t-159.5 -55.5v-194h-280v192 q-118 21 -216.5 75.5t-172.5 136.5l178 222q35 -37 76 -67.5t85 -53t91 -35t95 -12.5q40 0 75 10.5t60.5 29t40.5 45t15 58.5q0 30 -11.5 57t-40.5 51t-80 45t-130 38q-99 21 -178 59t-133.5 90.5t-83.5 119.5t-29 148q0 77 26 144.5t73 120.5t113 90t147 53v191h280v-198z " glyph-name="dollar" horiz-adv-x="1200"/>
<glyph unicode="%" d="M1155 1400h256l-720 -1400h-258zM1260 347q0 -25 9 -47.5t24.5 -39t37.5 -26.5t49 -10t49 10t37.5 26.5t24.5 39t9 47.5t-9 47.5t-24.5 39t-37.5 26.5t-49 10t-49 -10t-37.5 -26.5t-24.5 -39t-9 -47.5zM999 347q0 75 29 141t80 115t120.5 77t151.5 28t151.5 -28 t120.5 -77t80 -115t29 -141t-29 -141t-80 -115t-120.5 -77t-151.5 -28t-151.5 28t-120.5 77t-80 115t-29 141zM344 1053q0 -25 9 -47.5t24.5 -39t37.5 -26.5t49 -10t49 10t37.5 26.5t24.5 39t9 47.5t-9 47.5t-24.5 39t-37.5 26.5t-49 10t-49 -10t-37.5 -26.5t-24.5 -39 t-9 -47.5zM83 1053q0 75 29 141t80 115t120.5 77t151.5 28t151.5 -28t120.5 -77t80 -115t29 -141t-29 -141t-80 -115t-120.5 -77t-151.5 -28t-151.5 28t-120.5 77t-80 115t-29 141z" glyph-name="percent" horiz-adv-x="1844"/>
<glyph unicode="&amp;" d="M768 1043q-26 69 -59.5 101t-84.5 32q-24 0 -44.5 -8t-35 -22.5t-23 -33t-8.5 -39.5q0 -23 8.5 -48.5t28.5 -57t53 -69t82 -84.5l290 -279q19 45 32.5 98t21.5 115l296 -42q-12 -109 -44 -207t-83 -183l327 -316h-399l-115 110q-84 -64 -185 -99t-219 -35 q-109 0 -202.5 30t-161 82.5t-106 125t-38.5 156.5q0 123 58 221t181 180q-39 44 -65 82.5t-41 74t-21.5 70.5t-6.5 72q0 76 32.5 140.5t89.5 112t133.5 74.5t163.5 27q77 0 143.5 -18.5t120.5 -53t94.5 -83t64.5 -109.5zM607 230q53 0 105.5 17.5t100.5 55.5l-288 277 q-62 -46 -87.5 -92.5t-25.5 -96.5q0 -34 14 -63.5t39.5 -51t61.5 -34t80 -12.5z" glyph-name="ampersand" horiz-adv-x="1495"/>
<glyph unicode="&apos;" d="M140 1400h328v-566h-328v566z" glyph-name="quotesingle" horiz-adv-x="608"/>
<glyph unicode="(" d="M203 610q0 135 26.5 265t76 249.5t120.5 226t161 194.5l222 -152q-134 -160 -204 -361.5t-70 -421.5t70 -421.5t204 -361.5l-222 -152q-90 88 -161 194.5t-120.5 226t-76 249.5t-26.5 265z" glyph-name="parenleft" horiz-adv-x="870"/>
<glyph unicode=")" d="M667 610q0 -135 -26 -265t-75.5 -249.5t-121 -226t-161.5 -194.5l-222 152q134 160 204 361.5t70 421.5t-70 421.5t-204 361.5l222 152q90 -88 161.5 -194.5t121 -226t75.5 -249.5t26 -265z" glyph-name="parenright" horiz-adv-x="870"/>
<glyph unicode="*" d="M237 1009l211 -140l-18 252h272l-18 -252l211 140l132 -235l-229 -110l229 -110l-132 -235l-211 139l18 -251h-272l18 251l-211 -139l-132 235l229 110l-229 110z" glyph-name="asterisk" horiz-adv-x="1132"/>
<glyph unicode="+" d="M428 523h-312v282h312v323h316v-323h312v-282h-312v-323h-316v323z" glyph-name="plus" horiz-adv-x="1172"/>
<glyph unicode="," d="M112 160q0 39 14.5 72.5t40 58.5t60.5 39t76 14t76 -14t60.5 -39t40 -58.5t14.5 -72.5q0 -43 -20 -86l-152 -324h-206l110 241q-52 20 -83 65t-31 104z" glyph-name="comma" horiz-adv-x="606"/>
<glyph unicode="-" d="M116 518v292h612v-292h-612z" glyph-name="hyphen" horiz-adv-x="844"/>
<glyph unicode="." d="M112 160q0 39 14.5 72.5t40 58.5t60.5 39t76 14t76 -14t60.5 -39t40 -58.5t14.5 -72.5t-14.5 -72.5t-40 -58.5t-60.5 -39t-76 -14t-76 14t-60.5 39t-40 58.5t-14.5 72.5z" glyph-name="period" horiz-adv-x="606"/>
<glyph unicode="/" d="M318 -280h-328l686 1780h324z" glyph-name="slash" horiz-adv-x="990"/>
<glyph unicode="0" d="M102 700q0 156 32 289t95.5 229.5t158 151t218.5 54.5q123 0 217.5 -54.5t158 -151t96 -229.5t32.5 -289t-32.5 -289t-96 -229.5t-158 -151t-217.5 -54.5q-124 0 -218.5 54.5t-158 151t-95.5 229.5t-32 289zM422 700q0 -99 11 -178t33.5 -135t57.5 -86t82 -30t82 30 t57.5 86t33.5 135t11 178t-11 178t-33.5 135t-57.5 86t-82 30t-82 -30t-57.5 -86t-33.5 -135t-11 -178z" glyph-name="zero" horiz-adv-x="1212"/>
<glyph unicode="1" d="M841 1400v-1400h-330v1092l-220 -119l-122 221l382 206h290z" glyph-name="one" horiz-adv-x="1212"/>
<glyph unicode="2" d="M596 284h468v-284h-886v264l465 509q58 63 83.5 112t25.5 103q0 30 -11 57t-31 47.5t-47.5 32t-59.5 11.5q-61 0 -103.5 -35.5t-71.5 -113.5l-283 97q18 73 58 135.5t99.5 108t136.5 71t169 25.5q101 0 187 -29t149 -82.5t98.5 -128t35.5 -164.5q0 -115 -45.5 -211.5 t-134.5 -194.5z" glyph-name="two" horiz-adv-x="1212"/>
<glyph unicode="3" d="M543 259q43 0 80 15.5t64 42t42 62.5t15 77t-15 77t-42 62.5t-64 42t-80 15.5q-35 0 -68 -13l-126 158l288 322h-464v280h836v-275l-267 -281q78 -19 140.5 -58.5t105.5 -95t66 -125t23 -147.5q0 -88 -38 -168t-106 -141t-163.5 -97t-210.5 -36q-74 0 -142.5 16 t-128.5 46.5t-109.5 74.5t-85.5 101l199 191q48 -68 110.5 -107t140.5 -39z" glyph-name="three" horiz-adv-x="1212"/>
<glyph unicode="4" d="M69 514l588 886h306v-874h150v-281h-150v-245h-320v245h-574v269zM643 525v434l-287 -434h287z" glyph-name="four" horiz-adv-x="1212"/>
<glyph unicode="5" d="M578 -24q-153 0 -276.5 59.5t-201.5 171.5l210 195q48 -67 108.5 -104.5t135.5 -37.5q45 0 82.5 15t65 42t43 63.5t15.5 78.5t-15.5 78.5t-42.5 63.5t-64 42t-81 15q-47 0 -86.5 -19t-62.5 -48l-237 31l91 778h777v-280h-478l-29 -234q23 7 50.5 11t57.5 4 q93 0 175 -33.5t143.5 -93.5t97 -142t35.5 -179q0 -103 -37 -190t-104 -151t-161.5 -100t-210.5 -36z" glyph-name="five" horiz-adv-x="1212"/>
<glyph unicode="6" d="M642 911q90 -5 177 -35.5t154.5 -87.5t109 -140t41.5 -193q0 -104 -41.5 -192t-112 -151.5t-164 -99.5t-198.5 -36q-106 0 -200.5 36t-165.5 99.5t-112.5 151.5t-41.5 192q0 63 17.5 128.5t52.5 118.5l455 698h348zM806 457q0 44 -15.5 81.5t-42.5 65t-63.5 43 t-78.5 15.5t-78.5 -15.5t-63.5 -43t-42.5 -65t-15.5 -81.5t15.5 -81.5t42.5 -65t63.5 -43t78.5 -15.5t78.5 15.5t63.5 43t42.5 65t15.5 81.5z" glyph-name="six" horiz-adv-x="1212"/>
<glyph unicode="7" d="M1068 1400v-256l-470 -1144h-350l466 1114h-558v286h912z" glyph-name="seven" horiz-adv-x="1212"/>
<glyph unicode="8" d="M412 433q0 -41 15 -76t41.5 -60.5t62 -40t75.5 -14.5q41 0 76 14.5t61.5 40t41.5 60.5t15 76t-15 76t-41.5 60.5t-61.5 40t-76 14.5q-40 0 -75.5 -14.5t-62 -40t-41.5 -60.5t-15 -76zM1052 1031q0 -43 -11.5 -83.5t-32.5 -75.5t-50 -64t-64 -48q53 -22 93.5 -57.5 t69 -80.5t43 -96.5t14.5 -105.5q0 -94 -39 -175.5t-107.5 -141t-161 -93.5t-200.5 -34t-200.5 34t-161 93.5t-107.5 141t-39 175.5q0 54 14.5 105.5t43 96.5t69.5 80.5t93 57.5q-35 19 -64 48t-50 64t-32.5 75.5t-11.5 83.5q0 82 33.5 153.5t93 125t141 84t178.5 30.5 t178.5 -30.5t141 -84t93 -125t33.5 -153.5zM460 1021q0 -29 11 -55t30.5 -45.5t46.5 -31t58 -11.5q32 0 58.5 11.5t46 31t30.5 45.5t11 55t-11 55t-30.5 45t-46 30t-58.5 11q-31 0 -58 -11t-46.5 -30t-30.5 -45t-11 -55z" glyph-name="eight" horiz-adv-x="1212"/>
<glyph unicode="9" d="M570 489q-90 5 -177 35.5t-154.5 87.5t-109 140t-41.5 193q0 104 41.5 192t112 151.5t164 99.5t198.5 36q106 0 200.5 -36t165.5 -99.5t112.5 -151.5t41.5 -192q0 -63 -17.5 -128.5t-52.5 -118.5l-455 -698h-348zM406 943q0 -44 15.5 -81.5t42.5 -65t63.5 -43t78.5 -15.5 t78.5 15.5t63.5 43t42.5 65t15.5 81.5t-15.5 81.5t-42.5 65t-63.5 43t-78.5 15.5t-78.5 -15.5t-63.5 -43t-42.5 -65t-15.5 -81.5z" glyph-name="nine" horiz-adv-x="1212"/>
<glyph unicode=":" d="M112 160q0 39 14.5 72.5t40 58.5t60.5 39t76 14t76 -14t60.5 -39t40 -58.5t14.5 -72.5t-14.5 -72.5t-40 -58.5t-60.5 -39t-76 -14t-76 14t-60.5 39t-40 58.5t-14.5 72.5zM112 876q0 39 14.5 72.5t40 58.5t60.5 39t76 14t76 -14t60.5 -39t40 -58.5t14.5 -72.5t-14.5 -72.5 t-40 -58.5t-60.5 -39t-76 -14t-76 14t-60.5 39t-40 58.5t-14.5 72.5z" glyph-name="colon" horiz-adv-x="606"/>
<glyph unicode=";" d="M112 876q0 39 14.5 72.5t40 58.5t60.5 39t76 14t76 -14t60.5 -39t40 -58.5t14.5 -72.5t-14.5 -72.5t-40 -58.5t-60.5 -39t-76 -14t-76 14t-60.5 39t-40 58.5t-14.5 72.5zM112 160q0 39 14.5 72.5t40 58.5t60.5 39t76 14t76 -14t60.5 -39t40 -58.5t14.5 -72.5 q0 -44 -20 -86l-152 -324h-206l110 241q-52 20 -83 65t-31 104z" glyph-name="semicolon" horiz-adv-x="606"/>
<glyph unicode="&lt;" d="M114 763l911 500v-345l-506 -254l506 -255v-344l-911 500v198z" glyph-name="less" horiz-adv-x="1171"/>
<glyph unicode="=" d="M116 758v278h940v-278h-940zM116 292v278h940v-278h-940z" glyph-name="equal" horiz-adv-x="1172"/>
<glyph unicode="&gt;" d="M1057 565l-911 -500v344l506 255l-506 254v345l911 -500v-198z" glyph-name="greater" horiz-adv-x="1171"/>
<glyph unicode="?" d="M322 796q88 0 154.5 15t110.5 41.5t66.5 62.5t22.5 79q0 31 -14 57t-40 45t-62.5 29.5t-81.5 10.5q-70 0 -139 -31t-127 -79l-148 244q92 73 206.5 113.5t235.5 40.5q112 0 204.5 -34t159 -92t103.5 -135.5t37 -164.5q0 -70 -24.5 -134.5t-70 -118t-111.5 -93.5t-150 -61 v-157h-332v362zM290 159q0 39 15 72t41.5 58t63 39t78.5 14t78.5 -14t63 -39t41.5 -58t15 -72t-15 -72t-41.5 -58t-63 -39t-78.5 -14t-78.5 14t-63 39t-41.5 58t-15 72z" glyph-name="question" horiz-adv-x="1115"/>
<glyph unicode="@" d="M964 337q58 0 101 29.5t65 75.5v192q-22 46 -65 75.5t-101 29.5q-39 0 -73.5 -15t-59.5 -41.5t-39.5 -63.5t-14.5 -81t14.5 -81t39.5 -63.5t59.5 -41.5t73.5 -15zM1130 954h270v-572q11 -29 36 -43.5t53 -14.5q33 0 64 18t54.5 52.5t37.5 84.5t14 114q0 130 -55 246 t-149 203.5t-219.5 138.5t-266.5 51q-142 0 -266.5 -52.5t-216.5 -144.5t-145.5 -216.5t-53.5 -268.5t53 -268.5t147.5 -216.5t224.5 -144.5t283 -52.5q140 0 256.5 39t217.5 109l87 -174q-125 -81 -262.5 -123.5t-298.5 -42.5q-133 0 -253.5 30.5t-224 86t-186.5 134.5 t-142 176t-90.5 210t-31.5 237t32 237t90.5 210t140.5 176t182.5 134.5t216 86t240.5 30.5q131 0 249.5 -30t219.5 -84.5t182.5 -131t139 -169.5t88.5 -199.5t31 -221.5q0 -109 -32 -199t-88.5 -153.5t-134.5 -98.5t-170 -35q-41 0 -81 10t-76 28t-65.5 43t-49.5 56 q-45 -64 -119.5 -100.5t-159.5 -36.5q-87 0 -160 34t-126 93.5t-83 139t-30 169.5t29.5 169.5t82 139t124 93.5t155.5 34q68 0 128.5 -26.5t106.5 -71.5v78z" glyph-name="at" horiz-adv-x="1946"/>
<glyph unicode="A" d="M877 1400l486 -1400h-346l-91 292h-462l-91 -292h-346l486 1400h364zM695 1052l-155 -500h310z" glyph-name="A" horiz-adv-x="1390"/>
<glyph unicode="B" d="M147 0v1400h542q98 0 176.5 -27.5t133.5 -77t84.5 -119.5t29.5 -155q0 -102 -48 -176t-126 -107q53 -14 97.5 -43.5t77 -72t51 -96.5t18.5 -117q0 -89 -31 -164t-88 -129.5t-136 -85t-175 -30.5h-606zM801 989q0 70 -39 107.5t-101 37.5h-192v-290h192q62 0 101 37.5 t39 107.5zM855 427q0 74 -42 117.5t-108 43.5h-236v-322h236q66 0 108 44t42 117z" glyph-name="B" horiz-adv-x="1258"/>
<glyph unicode="C" d="M830 -24q-160 0 -298.5 56t-240 153.5t-159.5 229.5t-58 285t58 285.5t159.5 230t240 153t298.5 55.5q144 0 267 -43.5t223 -123.5l-168 -244q-67 53 -145.5 88t-176.5 35q-89 0 -166 -33t-134 -91.5t-89.5 -138.5t-32.5 -173t32.5 -172.5t89.5 -138t134 -92t166 -33.5 q48 0 93.5 10.5t88 28.5t81 43t70.5 53l175 -242q-102 -87 -230.5 -134t-277.5 -47z" glyph-name="C" horiz-adv-x="1399"/>
<glyph unicode="D" d="M669 1400q158 0 287.5 -50t221.5 -141.5t142.5 -221t50.5 -287.5t-50.5 -287.5t-142.5 -221t-221.5 -141.5t-287.5 -50h-522v1400h522zM649 288q87 0 158.5 26t122.5 78t79 129t28 179t-28 179t-79 129t-122.5 78t-158.5 26h-170v-824h170z" glyph-name="D" horiz-adv-x="1445"/>
<glyph unicode="E" d="M147 1400h892v-280h-560v-278h512v-276h-512v-286h578v-280h-910v1400z" glyph-name="E" horiz-adv-x="1152"/>
<glyph unicode="F" d="M147 1400h872v-284h-540v-300h492v-284h-492v-532h-332v1400z" glyph-name="F" horiz-adv-x="1084"/>
<glyph unicode="G" d="M830 1136q-90 0 -167 -33.5t-134 -92.5t-89 -139.5t-32 -175.5q0 -93 32.5 -173.5t89.5 -140t134 -93.5t166 -34q47 0 95.5 12t86.5 35v235h-274v254h606v-627q-100 -88 -232 -137.5t-282 -49.5q-160 0 -298.5 56t-240 153.5t-159.5 229.5t-58 285t58 285.5t159.5 230 t240 153t298.5 55.5q144 0 267 -43.5t223 -123.5l-168 -244q-67 53 -145.5 88t-176.5 35z" glyph-name="G" horiz-adv-x="1466"/>
<glyph unicode="H" d="M147 1400h332v-553h464v553h332v-1400h-332v561h-464v-561h-332v1400z" glyph-name="H" horiz-adv-x="1422"/>
<glyph unicode="I" d="M484 1400v-1400h-332v1400h332z" glyph-name="I" horiz-adv-x="636"/>
<glyph unicode="J" d="M470 1400h332v-954q0 -115 -31 -202.5t-90.5 -147t-146 -90t-196.5 -30.5q-85 0 -167.5 19t-143.5 54l87 270q37 -23 85.5 -39t94.5 -16q82 0 129 49.5t47 152.5v934z" glyph-name="J" horiz-adv-x="937"/>
<glyph unicode="K" d="M479 852h74l307 548h358l-391 -687l466 -713h-362l-368 566h-84v-566h-332v1400h332v-548z" glyph-name="K" horiz-adv-x="1263"/>
<glyph unicode="L" d="M147 1400h332v-1114h538v-286h-870v1400z" glyph-name="L" horiz-adv-x="1047"/>
<glyph unicode="M" d="M749 408l-294 520v-928h-308v1400h360l356 -632l356 632h360v-1400h-308v928l-294 -520h-228z" glyph-name="M" horiz-adv-x="1726"/>
<glyph unicode="N" d="M147 1400h348l472 -892v892h308v-1400h-348l-472 892v-892h-308v1400z" glyph-name="N" horiz-adv-x="1422"/>
<glyph unicode="O" d="M408 700q0 -93 32.5 -172.5t89.5 -138t134 -92t166 -33.5t166 33.5t134 92t89.5 138t32.5 172.5t-32.5 173t-89.5 138.5t-134 91.5t-166 33t-166 -33t-134 -91.5t-89.5 -138.5t-32.5 -173zM74 700q0 153 58 285.5t159.5 230t240 153t298.5 55.5q161 0 299 -55.5 t239.5 -153t159.5 -230t58 -285.5t-58 -285t-159.5 -229.5t-239.5 -153.5t-299 -56q-160 0 -298.5 56t-240 153.5t-159.5 229.5t-58 285z" glyph-name="O" horiz-adv-x="1660"/>
<glyph unicode="P" d="M479 468v-468h-332v1400h518q110 0 201 -34.5t156 -96t101 -147.5t36 -188t-36 -188t-101 -147.5t-156 -96t-201 -34.5h-186zM831 934q0 45 -13.5 82.5t-39.5 64t-63.5 41t-85.5 14.5h-150v-404h150q48 0 85.5 14.5t63.5 41t39.5 64t13.5 82.5z" glyph-name="P" horiz-adv-x="1214"/>
<glyph unicode="Q" d="M74 700q0 153 58 285.5t159.5 230t240 153t298.5 55.5q161 0 299 -55.5t239.5 -153t159.5 -230t58 -285.5q0 -136 -45.5 -254.5t-126.5 -212.5l186 -209l-228 -196l-199 223q-77 -36 -163 -55.5t-180 -19.5q-160 0 -298.5 56t-240 153.5t-159.5 229.5t-58 285zM408 700 q0 -93 32.5 -172.5t89.5 -138t134 -92t166 -33.5q72 0 136 21l-160 181l229 195l161 -182q27 48 41.5 103.5t14.5 117.5q0 93 -32.5 173t-89.5 138.5t-134 91.5t-166 33t-166 -33t-134 -91.5t-89.5 -138.5t-32.5 -173z" glyph-name="Q" horiz-adv-x="1660"/>
<glyph unicode="R" d="M665 1400q110 0 201 -33t156 -93t101 -144t36 -186q0 -74 -19 -138.5t-55 -117t-87.5 -92.5t-116.5 -64l315 -532h-360l-278 488h-83v-488h-328v1400h518zM475 1136v-398h156q48 0 85 15t62.5 41.5t39 63t13.5 79.5q0 91 -53 145t-147 54h-156z" glyph-name="R" horiz-adv-x="1241"/>
<glyph unicode="S" d="M262 422q35 -37 76 -67.5t85 -53t91 -35t95 -12.5q40 0 75 10.5t60.5 29t40.5 45t15 58.5q0 30 -11.5 57t-40.5 51t-80 45t-130 38q-99 21 -178 59t-133.5 90.5t-83.5 119.5t-29 148q0 90 35.5 167t98.5 133t150.5 87.5t191.5 31.5q140 0 260.5 -47.5t211.5 -130.5 l-168 -230q-67 58 -139.5 96t-150.5 38q-33 0 -61.5 -9t-49.5 -24.5t-33 -37.5t-12 -48q0 -29 11.5 -54.5t39.5 -48t74 -41t115 -34.5q446 -103 446 -440q0 -94 -36.5 -174t-104.5 -138.5t-165 -91.5t-218 -33q-160 0 -295.5 59t-230.5 165z" glyph-name="S" horiz-adv-x="1200"/>
<glyph unicode="T" d="M393 1114h-343v286h1018v-286h-343v-1114h-332v1114z" glyph-name="T" horiz-adv-x="1118"/>
<glyph unicode="U" d="M1211 466q0 -107 -42 -197t-115 -154.5t-171 -100.5t-210 -36t-210 36t-171 100.5t-115 154.5t-42 197v934h332v-932q0 -45 16 -82.5t43.5 -64t65.5 -41t81 -14.5q44 0 81.5 14.5t65 41t43.5 64t16 82.5v932h332v-934z" glyph-name="U" horiz-adv-x="1346"/>
<glyph unicode="V" d="M695 383l324 1017h344l-486 -1400h-364l-486 1400h344z" glyph-name="V" horiz-adv-x="1390"/>
<glyph unicode="W" d="M1158 1400l236 -954l220 954h343l-378 -1400h-337l-250 951l-250 -951h-337l-378 1400h343l220 -954l236 954h332z" glyph-name="W" horiz-adv-x="1984"/>
<glyph unicode="X" d="M921 0l-270 490l-270 -490h-361l422 717l-399 683h361l247 -456l247 456h361l-399 -683l422 -717h-361z" glyph-name="X" horiz-adv-x="1302"/>
<glyph unicode="Y" d="M658 864l272 536h359l-465 -846v-554h-332v554l-465 846h359z" glyph-name="Y" horiz-adv-x="1316"/>
<glyph unicode="Z" d="M715 1114h-579v286h974v-266l-609 -848h629v-286h-1024v266z" glyph-name="Z" horiz-adv-x="1226"/>
<glyph unicode="[" d="M197 1500h638v-286h-306v-1208h306v-286h-638v1780z" glyph-name="bracketleft" horiz-adv-x="870"/>
<glyph unicode="\" d="M-10 1500h324l686 -1780h-328z" glyph-name="backslash" horiz-adv-x="990"/>
<glyph unicode="]" d="M673 -280h-638v286h306v1208h-306v286h638v-1780z" glyph-name="bracketright" horiz-adv-x="870"/>
<glyph unicode="^" d="M776 1400l400 -622h-344l-206 332l-206 -332h-344l400 622h300z" glyph-name="asciicircum" horiz-adv-x="1252"/>
<glyph unicode="_" d="M0 -134h1000v-272h-1000v272z" glyph-name="underscore" horiz-adv-x="1000"/>
<glyph unicode="`" d="M671 1118h-302l-271 342h324z" glyph-name="grave" horiz-adv-x="860"/>
<glyph unicode="a" d="M641 258q80 0 142.5 39.5t93.5 105.5v229q-31 66 -93.5 106t-142.5 40q-56 0 -103.5 -20t-82.5 -55t-55 -82.5t-20 -102.5t20 -102.5t55 -82.5t82.5 -55t103.5 -20zM877 96q-60 -57 -141 -88.5t-171 -31.5q-108 0 -200 42.5t-159.5 116t-106 172.5t-38.5 211 q0 113 38.5 211.5t106 172t159.5 116t200 42.5q90 0 171 -31.5t141 -88.5v96h316v-1036h-316v96z" glyph-name="a" horiz-adv-x="1319"/>
<glyph unicode="b" d="M678 258q56 0 103.5 20t82.5 55t55 82.5t20 102.5t-20 102.5t-55 82.5t-82.5 55t-103.5 20q-80 0 -142.5 -40t-93.5 -106v-229q31 -66 93.5 -105.5t142.5 -39.5zM442 0h-316v1460h316v-520q60 57 141 88.5t171 31.5q108 0 200.5 -42.5t160 -116t105.5 -172t38 -211.5 q0 -112 -38 -211t-105.5 -172.5t-160 -116t-200.5 -42.5q-90 0 -171 31.5t-141 88.5v-96z" glyph-name="b" horiz-adv-x="1319"/>
<glyph unicode="c" d="M641 -24q-124 0 -230 42t-184 115t-122 172t-44 213t44 213t122 172t184 115t230 42q121 0 222 -38.5t179 -106.5l-153 -233q-49 39 -111 67.5t-133 28.5q-56 0 -103.5 -20t-82.5 -55t-55 -82.5t-20 -102.5t20 -102.5t55 -82.5t82.5 -55t103.5 -20q71 0 136 31t116 75 l172 -217q-79 -80 -188 -125.5t-240 -45.5z" glyph-name="c" horiz-adv-x="1119"/>
<glyph unicode="d" d="M641 258q80 0 142.5 39.5t93.5 105.5v229q-31 66 -93.5 106t-142.5 40q-56 0 -103.5 -20t-82.5 -55t-55 -82.5t-20 -102.5t20 -102.5t55 -82.5t82.5 -55t103.5 -20zM877 96q-60 -57 -141 -88.5t-171 -31.5q-108 0 -200 42.5t-159.5 116t-106 172.5t-38.5 211 q0 113 38.5 211.5t106 172t159.5 116t200 42.5q90 0 171 -31.5t141 -88.5v520h316v-1460h-316v96z" glyph-name="d" horiz-adv-x="1319"/>
<glyph unicode="e" d="M384 429q8 -49 30.5 -88t57 -66.5t79.5 -42t98 -14.5q79 0 150 33t130 90l174 -177q-86 -94 -202.5 -141t-255.5 -47q-129 0 -236.5 42t-185 115t-120 172t-42.5 213t43.5 213t119.5 172t180 115t225 42q119 0 219.5 -41t173.5 -112.5t114 -167t41 -204.5q0 -26 -4 -54.5 t-11 -51.5h-778zM625 818q-88 0 -150.5 -49t-85.5 -137h461q-19 86 -77 136t-148 50z" glyph-name="e" horiz-adv-x="1238"/>
<glyph unicode="f" d="M738 1206q-18 3 -45 4.5t-50 1.5q-70 0 -101.5 -30t-31.5 -90v-56h228v-278h-228v-758h-322v758h-146v278h146v61q0 176 110 269.5t312 93.5q34 0 69.5 -3.5t58.5 -8.5v-242z" glyph-name="f" horiz-adv-x="780"/>
<glyph unicode="g" d="M641 258q80 0 142.5 39.5t93.5 105.5v229q-31 66 -93.5 106t-142.5 40q-56 0 -103.5 -20t-82.5 -55t-55 -82.5t-20 -102.5t20 -102.5t55 -82.5t82.5 -55t103.5 -20zM877 110q-60 -58 -141 -89t-171 -31q-108 0 -200 41t-159.5 112t-106 167.5t-38.5 207.5 q0 113 38.5 211.5t106 172t159.5 116t200 42.5q90 0 171 -31.5t141 -88.5v96h316v-970q0 -116 -38.5 -213.5t-110.5 -168t-175 -109.5t-232 -39q-149 0 -280.5 48.5t-223.5 138.5l166 216q61 -59 141 -94t174 -35q60 0 108.5 16.5t83 47t53 74t18.5 98.5v64z" glyph-name="g" horiz-adv-x="1319"/>
<glyph unicode="h" d="M448 0h-322v1460h322v-531q47 60 119 95.5t153 35.5q89 0 163.5 -30.5t128.5 -85t84 -130t30 -165.5v-649h-322v606q0 34 -11.5 65t-33.5 55t-54 38t-74 14q-28 0 -55 -9.5t-51 -26t-43.5 -37.5t-33.5 -44v-661z" glyph-name="h" horiz-adv-x="1232"/>
<glyph unicode="i" d="M127 1036h322v-1036h-322v1036zM104 1307q0 37 14 69t39 55.5t58.5 37t72.5 13.5t72.5 -13.5t58.5 -37t39 -55.5t14 -69t-14 -69t-39 -55.5t-58.5 -37t-72.5 -13.5t-72.5 13.5t-58.5 37t-39 55.5t-14 69z" glyph-name="i" horiz-adv-x="576"/>
<glyph unicode="j" d="M127 1036h322v-1140q0 -176 -97 -268t-273 -92q-29 0 -61 3t-54 8v267h55q54 0 81 26.5t27 87.5v1108zM104 1307q0 37 14 69t39 55.5t58.5 37t72.5 13.5t72.5 -13.5t58.5 -37t39 -55.5t14 -69t-14 -69t-39 -55.5t-58.5 -37t-72.5 -13.5t-72.5 13.5t-58.5 37t-39 55.5 t-14 69z" glyph-name="j" horiz-adv-x="576"/>
<glyph unicode="k" d="M521 428h-73v-428h-322v1460h322v-756h78l184 332h352l-278 -472l314 -564h-350z" glyph-name="k" horiz-adv-x="1106"/>
<glyph unicode="l" d="M127 1460h322v-1460h-322v1460z" glyph-name="l" horiz-adv-x="576"/>
<glyph unicode="m" d="M448 1036v-107q46 59 114 93t152 34q108 0 192 -45t137 -125q26 38 61.5 70t78 55t91 36t99.5 13q87 0 160.5 -30.5t126.5 -85t82.5 -129.5t29.5 -164v-651h-322v607q0 33 -11 64t-31.5 55t-50.5 38t-68 14q-28 0 -54 -9.5t-49 -26t-42.5 -38.5t-34.5 -47q1 -20 1 -43 v-45v-569h-322v607q0 37 -11.5 68t-32.5 54t-51 36t-66 13q-28 0 -54 -9.5t-49 -25.5t-42 -38t-34 -46v-659h-322v1036h322z" glyph-name="m" horiz-adv-x="1878"/>
<glyph unicode="n" d="M448 0h-322v1036h322v-107q47 60 119 95.5t153 35.5q89 0 163.5 -30.5t128.5 -85t84 -130t30 -165.5v-649h-322v606q0 34 -11.5 65t-33.5 55t-54 38t-74 14q-28 0 -55 -9.5t-51 -26t-43.5 -37.5t-33.5 -44v-661z" glyph-name="n" horiz-adv-x="1232"/>
<glyph unicode="o" d="M61 518q0 114 44 213t122 172t184 115t230 42t230 -42t184 -115t122 -172t44 -213t-44 -213t-122 -172t-184 -115t-230 -42t-230 42t-184 115t-122 172t-44 213zM380 518q0 -55 20 -102.5t55 -82.5t82.5 -55t103.5 -20t103.5 20t82.5 55t55 82.5t20 102.5t-20 102.5 t-55 82.5t-82.5 55t-103.5 20t-103.5 -20t-82.5 -55t-55 -82.5t-20 -102.5z" glyph-name="o" horiz-adv-x="1282"/>
<glyph unicode="p" d="M678 258q56 0 103.5 20t82.5 55t55 82.5t20 102.5t-20 102.5t-55 82.5t-82.5 55t-103.5 20q-80 0 -142.5 -40t-93.5 -106v-229q31 -66 93.5 -105.5t142.5 -39.5zM442 -464h-316v1500h316v-96q60 57 141 88.5t171 31.5q108 0 200.5 -42.5t160 -116t105.5 -172t38 -211.5 q0 -112 -38 -211t-105.5 -172.5t-160 -116t-200.5 -42.5q-90 0 -171 31.5t-141 88.5v-560z" glyph-name="p" horiz-adv-x="1319"/>
<glyph unicode="q" d="M641 258q80 0 142.5 39.5t93.5 105.5v229q-31 66 -93.5 106t-142.5 40q-56 0 -103.5 -20t-82.5 -55t-55 -82.5t-20 -102.5t20 -102.5t55 -82.5t82.5 -55t103.5 -20zM877 96q-60 -57 -141 -88.5t-171 -31.5q-108 0 -200 42.5t-159.5 116t-106 172.5t-38.5 211 q0 113 38.5 211.5t106 172t159.5 116t200 42.5q90 0 171 -31.5t141 -88.5v96h316v-1500h-316v560z" glyph-name="q" horiz-adv-x="1319"/>
<glyph unicode="r" d="M659 778q-66 0 -121 -38.5t-90 -104.5v-635h-322v1036h322v-122q42 63 105.5 104.5t144.5 41.5q27 0 51.5 -6.5t42.5 -17.5l-20 -280q-26 10 -56 16t-57 6z" glyph-name="r" horiz-adv-x="840"/>
<glyph unicode="s" d="M202 338q48 -54 116 -86t143 -32q60 0 93 22.5t33 60.5t-35 63.5t-124 44.5q-165 35 -250 121t-85 217q0 68 28 125t79 98t121.5 64.5t155.5 23.5q108 0 205.5 -39.5t172.5 -102.5l-142 -190q-48 39 -98.5 63.5t-107.5 24.5q-47 0 -75.5 -19t-28.5 -52q0 -35 33.5 -62.5 t111.5 -43.5q179 -37 264 -122t85 -216q0 -70 -29.5 -129.5t-83 -103t-129 -68t-168.5 -24.5q-133 0 -246 45.5t-186 126.5z" glyph-name="s" horiz-adv-x="953"/>
<glyph unicode="t" d="M514 375q0 -62 31 -91.5t102 -29.5q26 0 55.5 1.5t50.5 4.5v-263q-31 -10 -79 -15.5t-98 -5.5q-91 0 -162.5 24.5t-120.5 71.5t-75 115t-26 155v416h-150v278h150v272l322 28v-300h227v-278h-227v-383z" glyph-name="t" horiz-adv-x="802"/>
<glyph unicode="u" d="M784 107q-47 -60 -119 -95.5t-153 -35.5q-88 0 -162.5 30.5t-128.5 85t-84.5 130t-30.5 165.5v649h322v-606q0 -34 11.5 -65t33.5 -55t54 -38t74 -14q28 0 55 9.5t51 26t44 37.5t33 44v661h322v-1036h-322v107z" glyph-name="u" horiz-adv-x="1232"/>
<glyph unicode="v" d="M1074 1036l-350 -1036h-356l-350 1036h336l192 -670l192 670h336z" glyph-name="v" horiz-adv-x="1092"/>
<glyph unicode="w" d="M964 1036l151 -648l153 648h326l-304 -1036h-331l-153 604l-153 -604h-331l-304 1036h326l153 -648l151 648h316z" glyph-name="w" horiz-adv-x="1612"/>
<glyph unicode="x" d="M730 0l-184 329l-184 -329h-344l317 528l-291 508h344l158 -309l158 309h344l-291 -508l317 -528h-344z" glyph-name="x" horiz-adv-x="1092"/>
<glyph unicode="y" d="M201 -464l187 464l-370 1036h336l191 -627l193 627h336l-536 -1500h-337z" glyph-name="y" horiz-adv-x="1092"/>
<glyph unicode="z" d="M81 246l452 514h-426v276h820v-246l-452 -514h472v-276h-866v246z" glyph-name="z" horiz-adv-x="1032"/>
<glyph unicode="{" d="M118 753q85 0 133.5 44.5t48.5 125.5v243q0 71 27 132t75.5 106t115 70.5t144.5 25.5h173v-286h-82q-54 0 -87.5 -32.5t-33.5 -83.5v-253q0 -93 -45.5 -152.5t-133.5 -82.5q88 -23 133.5 -82.5t45.5 -152.5v-253q0 -51 33.5 -83.5t87.5 -32.5h82v-286h-173 q-78 0 -144.5 25.5t-115 70.5t-75.5 106t-27 132v243q0 81 -48.5 125.5t-133.5 44.5v286z" glyph-name="braceleft" horiz-adv-x="870"/>
<glyph unicode="|" d="M176 1500h312v-1780h-312v1780z" glyph-name="bar" horiz-adv-x="664"/>
<glyph unicode="}" d="M752 467q-85 0 -133.5 -44.5t-48.5 -125.5v-243q0 -71 -27 -132t-75.5 -106t-115 -70.5t-144.5 -25.5h-173v286h82q54 0 87.5 32.5t33.5 83.5v253q0 93 45.5 152.5t133.5 82.5q-88 23 -133.5 82.5t-45.5 152.5v253q0 51 -33.5 83.5t-87.5 32.5h-82v286h173 q78 0 144.5 -25.5t115 -70.5t75.5 -106t27 -132v-243q0 -81 48.5 -125.5t133.5 -44.5v-286z" glyph-name="braceright" horiz-adv-x="870"/>
<glyph unicode="~" d="M810 424q-69 0 -130 26.5t-106 63.5q-37 31 -70.5 54.5t-65.5 23.5q-66 0 -87 -125l-301 58q25 174 103.5 267.5t208.5 93.5q69 0 130 -26t106 -64q37 -31 70.5 -54.5t65.5 -23.5q67 0 86 124l302 -58q-26 -174 -104 -267t-208 -93z" glyph-name="asciitilde" horiz-adv-x="1172"/>
<glyph unicode=" " glyph-name="uni00A0" horiz-adv-x="606"/>
<glyph unicode="¡" d="M149 602h332v-966h-332v966zM117 877q0 39 15 72t41.5 58t63 39t78.5 14t78.5 -14t63 -39t41.5 -58t15 -72t-15 -72t-41.5 -58t-63 -39t-78.5 -14t-78.5 14t-63 39t-41.5 58t-15 72z" glyph-name="exclamdown" horiz-adv-x="630"/>
<glyph unicode="¢" d="M536 -15q-104 17 -191 64t-150 117.5t-98.5 160t-35.5 191.5t35.5 191.5t98.5 160t150 118t191 63.5v169h202v-167q90 -14 166 -49t138 -89l-153 -233q-32 26 -70 47.5t-81 34.5v-491q45 14 85 38t74 53l172 -217q-64 -65 -147.5 -107.5t-183.5 -56.5v-167h-202v169z M384 518q0 -81 41.5 -144.5t110.5 -93.5v475q-69 -30 -110.5 -93t-41.5 -144z" glyph-name="cent" horiz-adv-x="1119"/>
<glyph unicode="£" d="M126 536v220h115q-29 66 -49 130t-20 136q0 84 35 157.5t96 128t144 85.5t179 31q77 0 144.5 -20t122 -54.5t95 -81.5t62.5 -100l-276 -148q-47 116 -148 116q-53 0 -86.5 -36.5t-33.5 -92.5q0 -28 7 -58.5t17.5 -63t24.5 -65t27 -64.5h301v-220h-256q-4 -77 -34 -140.5 t-87 -107.5h570v-288h-944v274q40 19 70.5 47t50.5 62.5t30.5 73.5t10.5 79h-168z" glyph-name="sterling" horiz-adv-x="1171"/>
<glyph unicode="¤" d="M159 652q0 63 16.5 119t47.5 106l-171 173l181 176l179 -179q51 25 107.5 38.5t119.5 13.5t120 -13.5t108 -38.5l178 179l181 -176l-171 -173q31 -50 47.5 -106t16.5 -119t-16.5 -119.5t-47.5 -106.5l171 -172l-181 -176l-179 178q-51 -25 -107.5 -38t-119.5 -13 t-119.5 13t-107.5 38l-179 -178l-181 176l171 172q-31 50 -47.5 106.5t-16.5 119.5zM453 652q0 -40 14 -75t39 -60.5t59 -40.5t74 -15t74 15t59 40.5t39 60.5t14 75t-14 75t-39 60.5t-59 40.5t-74 15t-74 -15t-59 -40.5t-39 -60.5t-14 -75z" glyph-name="currency" horiz-adv-x="1278"/>
<glyph unicode="¥" d="M658 859l272 541h359l-368 -659h237v-160h-326l-8 -16v-64h334v-160h-334v-341h-332v341h-334v160h334v64l-9 16h-325v160h235l-366 659h359z" glyph-name="yen" horiz-adv-x="1316"/>
<glyph unicode="¦" d="M176 1500h312v-800h-312v800zM176 520h312v-800h-312v800z" glyph-name="brokenbar" horiz-adv-x="664"/>
<glyph unicode="§" d="M983 535q0 -91 -46 -162t-130 -116q44 -42 70 -98t26 -128q0 -70 -30.5 -130.5t-84.5 -105t-127 -70t-158 -25.5q-73 0 -138 19t-117.5 54t-88.5 84.5t-50 110.5l265 62q11 -45 45 -69t84 -24q52 0 86 27.5t34 69.5q0 32 -19 56t-49 38l-260 116q-61 27 -108 64.5 t-78.5 82t-47.5 95t-16 102.5q0 91 45.5 162t129.5 116q-44 42 -69.5 98.5t-25.5 127.5t30.5 131.5t84.5 105t127 70t158 25.5q72 0 137.5 -19t117.5 -54.5t88 -85t50 -110.5l-264 -62q-11 45 -45 69.5t-84 24.5q-52 0 -86 -27.5t-34 -69.5q0 -32 19 -56t48 -38l260 -116 q62 -27 108.5 -64.5t78.5 -82.5t48 -95t16 -103zM468 733q-31 -3 -57.5 -15t-45.5 -31t-29.5 -44.5t-10.5 -54.5q0 -45 26.5 -81.5t81.5 -60.5l125 -56q32 3 58.5 14.5t45.5 31t30 44.5t11 55q0 45 -27 81.5t-81 60.5z" glyph-name="section" horiz-adv-x="1028"/>
<glyph unicode="¨" d="M66 1292q0 34 12.5 63t34.5 50.5t51.5 34t63.5 12.5q35 0 64.5 -12.5t51 -34t34 -50.5t12.5 -63t-12.5 -63t-34 -50.5t-51 -34t-64.5 -12.5q-34 0 -63.5 12.5t-51.5 34t-34.5 50.5t-12.5 63zM470 1292q0 34 12.5 63t34.5 50.5t51.5 34t63.5 12.5q35 0 64.5 -12.5t51 -34 t34 -50.5t12.5 -63t-12.5 -63t-34 -50.5t-51 -34t-64.5 -12.5q-34 0 -63.5 12.5t-51.5 34t-34.5 50.5t-12.5 63z" glyph-name="dieresis" horiz-adv-x="860"/>
<glyph unicode="©" d="M840 300q-89 0 -165.5 30.5t-133 84.5t-89 126.5t-32.5 156.5t32.5 156.5t89 126.5t133 84.5t165.5 30.5q81 0 150.5 -26t128.5 -73l-104 -176q-39 32 -82 52.5t-93 20.5q-40 0 -74 -15t-59 -41.5t-39 -62t-14 -77.5t14 -78t39 -62.5t59 -41.5t74 -15q51 0 96 22.5 t85 58.5l108 -176q-60 -51 -133 -78.5t-156 -27.5zM80 700q0 152 56.5 284t154 229.5t230 154t283.5 56.5q152 0 284 -56.5t229.5 -154t154 -229.5t56.5 -284q0 -151 -56.5 -283.5t-154 -230t-229.5 -154t-284 -56.5q-151 0 -283.5 56.5t-230 154t-154 230t-56.5 283.5z M212 700q0 -126 46 -235.5t126 -190.5t188 -127.5t232 -46.5t232 46.5t188 127.5t126 190.5t46 235.5t-46 235.5t-126 190.5t-188 127.5t-232 46.5t-232 -46.5t-188 -127.5t-126 -190.5t-46 -235.5z" glyph-name="copyright" horiz-adv-x="1608"/>
<glyph unicode="ª" d="M459 878q49 0 84.5 23.5t52.5 57.5v154q-17 33 -52.5 57t-84.5 24q-33 0 -62 -12t-50 -33t-33 -50t-12 -63t12 -63t33 -50t50 -33t62 -12zM596 734q-32 -36 -80.5 -57t-108.5 -21q-75 0 -140 29.5t-112.5 80.5t-74.5 120.5t-27 149.5t27 149.5t74.5 120.5t112.5 80.5 t140 29.5q60 0 108.5 -21t80.5 -57v62h249v-728h-249v62z" glyph-name="ordfeminine" horiz-adv-x="929"/>
<glyph unicode="«" d="M85 699l583 357v-259l-299 -173l299 -174v-259l-583 357v151zM610 699l583 357v-259l-299 -173l299 -174v-259l-583 357v151z" glyph-name="guillemotleft" horiz-adv-x="1297"/>
<glyph unicode="¬" d="M740 523h-624v282h940v-585h-316v303z" glyph-name="logicalnot" horiz-adv-x="1172"/>
<glyph unicode="­" d="M116 518v292h612v-292h-612z" glyph-name="uni00AD" horiz-adv-x="844"/>
<glyph unicode="®" d="M80 700q0 152 56.5 284t154 229.5t230 154t283.5 56.5q152 0 284 -56.5t229.5 -154t154 -229.5t56.5 -284q0 -151 -56.5 -283.5t-154 -230t-229.5 -154t-284 -56.5q-151 0 -283.5 56.5t-230 154t-154 230t-56.5 283.5zM212 700q0 -126 46 -235.5t126 -190.5t188 -127.5 t232 -46.5t232 46.5t188 127.5t126 190.5t46 235.5t-46 235.5t-126 190.5t-188 127.5t-232 46.5t-232 -46.5t-188 -127.5t-126 -190.5t-46 -235.5zM846 1084q60 0 110.5 -19t87.5 -53t58 -81t21 -103q0 -74 -36.5 -131t-97.5 -88l157 -295h-229l-132 259h-34v-259h-209v770 h304zM823 732q41 0 66.5 25t25.5 64q0 38 -25.5 63t-66.5 25h-72v-177h72z" glyph-name="registered" horiz-adv-x="1608"/>
<glyph unicode="¯" d="M110 1406h640v-236h-640v236z" glyph-name="macron" horiz-adv-x="860"/>
<glyph unicode="°" d="M104 1139q0 60 23 112t63.5 90.5t95.5 60.5t118 22t118 -22t95.5 -60.5t63.5 -90.5t23 -112t-23 -112t-63.5 -90.5t-95.5 -60.5t-118 -22t-118 22t-95.5 60.5t-63.5 90.5t-23 112zM310 1139q0 -41 26 -67.5t68 -26.5q41 0 67.5 26.5t26.5 67.5q0 40 -26.5 67t-67.5 27 q-42 0 -68 -27t-26 -67z" glyph-name="degree" horiz-adv-x="808"/>
<glyph unicode="±" d="M428 653h-312v272h312v303h316v-303h312v-272h-312v-303h-316v303zM116 0v272h940v-272h-940z" glyph-name="plusminus" horiz-adv-x="1172"/>
<glyph unicode="²" glyph-name="twosuperior" d="M417 666h297v-214h-625v192l314 343q36 39 51.5 69.5t15.5 65.5q0 38 -22.5 61.5t-58.5 23.5q-34 0 -58.5 -23.5t-43.5 -80.5l-222 73q13 56 41.5 101.5t71 78t97 50.5t118.5 18q71 0 131.5 -20.5t104.5 -57.5t69.5 -89t25.5 -115q0 -78 -30.5 -143.5t-93.5 -133.5z"/>
<glyph unicode="³" glyph-name="threesuperior" d="M478 760q0 25 -8.5 46.5t-24 37.5t-36.5 25t-46 9q-28 0 -52 -13l-98 122l181 201h-295v212h591v-198l-168 -178q102 -32 158 -109.5t56 -180.5q0 -61 -26.5 -116.5t-74.5 -97.5t-114.5 -67t-146.5 -25q-106 0 -192.5 46t-136.5 127l156 149q35 -51 75 -80t87 -29 q25 0 46 9t36.5 25t24 38t8.5 47z"/>
<glyph unicode="´" d="M439 1460h323l-271 -342h-302z" glyph-name="acute" horiz-adv-x="860"/>
<glyph unicode="µ" d="M126 1036h322v-643q14 -64 58 -99.5t103 -35.5q30 0 59 11.5t55 31t47 45.5t34 55v635h322v-1036h-322v115q-37 -61 -93.5 -100t-119.5 -39q-44 0 -81.5 19t-61.5 52v-511h-322v1500z" glyph-name="mu" horiz-adv-x="1252"/>
<glyph unicode="¶" d="M499 536q-94 0 -175 33t-141 91.5t-94 137.5t-34 170q0 92 34 170.5t94 137t141 91.5t175 33h538v-1662h-198v1464h-92v-1464h-198v798h-50z" glyph-name="paragraph" horiz-adv-x="1183"/>
<glyph unicode="·" d="M112 653q0 39 14.5 72.5t40 58.5t60.5 39t76 14t76 -14t60.5 -39t40 -58.5t14.5 -72.5t-14.5 -72.5t-40 -58.5t-60.5 -39t-76 -14t-76 14t-60.5 39t-40 58.5t-14.5 72.5z" glyph-name="periodcentered" horiz-adv-x="606"/>
<glyph unicode="¸" d="M461 -300q0 29 -24.5 46.5t-65.5 17.5q-16 0 -32 -1t-30 -3l-54 59l96 181h222l-73 -109q81 -22 130.5 -74t49.5 -121q0 -46 -22.5 -85.5t-62.5 -68.5t-94.5 -45.5t-117.5 -16.5q-58 0 -115 15.5t-101 48.5l86 129q23 -17 56 -27t62 -10q41 0 65.5 17.5t24.5 46.5z" glyph-name="cedilla" horiz-adv-x="860"/>
<glyph unicode="¹" glyph-name="onesuperior" d="M588 1400v-948h-257v705l-138 -76l-92 174l269 145h218z"/>
<glyph unicode="º" d="M58 1036q0 80 31.5 149t86.5 120.5t129 81t159 29.5t159.5 -29.5t129.5 -81t86.5 -120.5t31.5 -149q0 -79 -31.5 -148.5t-86.5 -121t-129.5 -81t-159.5 -29.5t-159 29.5t-129 81t-86.5 121t-31.5 148.5zM309 1036q0 -34 11.5 -63t32.5 -50t49.5 -33t61.5 -12t61.5 12 t49.5 33t33 50t12 63t-12 63t-33 50t-49.5 33t-61.5 12t-61.5 -12t-49.5 -33t-32.5 -50t-11.5 -63z" glyph-name="ordmasculine" horiz-adv-x="929"/>
<glyph unicode="»" d="M1212 548l-583 -357v259l299 174l-299 173v259l583 -357v-151zM687 548l-583 -357v259l299 174l-299 173v259l583 -357v-151z" glyph-name="guillemotright" horiz-adv-x="1297"/>
<glyph unicode="¼" d="M1195 1400h245l-682 -1400h-247zM588 1400v-948h-257v705l-138 -76l-92 174l269 145h218zM1171 349l401 599h230v-582h99v-206h-99v-160h-241v160h-390v189zM1561 365v247l-164 -247h164z" glyph-name="onequarter" horiz-adv-x="1950"/>
<glyph unicode="½" d="M588 1400v-948h-257v705l-138 -76l-92 174l269 145h218zM1195 1400h245l-682 -1400h-247zM1557 214h297v-214h-625v192l314 343q36 39 51.5 69.5t15.5 65.5q0 38 -22.5 61.5t-58.5 23.5q-34 0 -58.5 -23.5t-43.5 -80.5l-222 73q13 56 41.5 101.5t71 78t97 50.5t118.5 18 q71 0 131.5 -20.5t104.5 -57.5t69.5 -89t25.5 -115q0 -78 -30.5 -143.5t-93.5 -133.5z" glyph-name="onehalf" horiz-adv-x="1950"/>
<glyph unicode="¾" d="M478 760q0 25 -8.5 46.5t-24 37.5t-36.5 25t-46 9q-28 0 -52 -13l-98 122l181 201h-295v212h591v-198l-168 -178q102 -32 158 -109.5t56 -180.5q0 -61 -26.5 -116.5t-74.5 -97.5t-114.5 -67t-146.5 -25q-106 0 -192.5 46t-136.5 127l156 149q35 -51 75 -80t87 -29 q25 0 46 9t36.5 25t24 38t8.5 47zM1195 1400h245l-682 -1400h-247zM1171 349l401 599h230v-582h99v-206h-99v-160h-241v160h-390v189zM1561 365v247l-164 -247h164z" glyph-name="threequarters" horiz-adv-x="1950"/>
<glyph unicode="¿" d="M793 240q-88 0 -154.5 -15t-110.5 -41.5t-66.5 -62.5t-22.5 -79q0 -31 14 -57t40 -45t62.5 -29.5t81.5 -10.5q70 0 139 31t127 79l148 -244q-92 -73 -206.5 -113.5t-235.5 -40.5q-112 0 -204.5 34t-159 92t-103.5 135.5t-37 164.5q0 70 24.5 134.5t70 118t111.5 93.5 t150 61v157h332v-362zM825 877q0 -39 -15 -72t-41.5 -58t-63 -39t-78.5 -14t-78.5 14t-63 39t-41.5 58t-15 72t15 72t41.5 58t63 39t78.5 14t78.5 -14t63 -39t41.5 -58t15 -72z" glyph-name="questiondown" horiz-adv-x="1115"/>
<glyph unicode="À" d="M877 1400l486 -1400h-346l-91 292h-462l-91 -292h-346l486 1400h364zM695 1052l-155 -500h310zM913 1508h-302l-271 342h324z" glyph-name="Agrave" horiz-adv-x="1390"/>
<glyph unicode="Á" d="M877 1400l486 -1400h-346l-91 292h-462l-91 -292h-346l486 1400h364zM695 1052l-155 -500h310zM722 1850h323l-271 -342h-302z" glyph-name="Aacute" horiz-adv-x="1390"/>
<glyph unicode="Â" d="M877 1400l486 -1400h-346l-91 292h-462l-91 -292h-346l486 1400h364zM695 1052l-155 -500h310zM813 1850l292 -342h-297l-113 140l-113 -140h-297l292 342h236z" glyph-name="Acircumflex" horiz-adv-x="1390"/>
<glyph unicode="Ã" d="M877 1400l486 -1400h-346l-91 292h-462l-91 -292h-346l486 1400h364zM695 1052l-155 -500h310zM706 1555q-26 14 -49 25t-42 11t-33 -17t-22 -55l-247 48q42 236 220 236q42 0 80.5 -13t69.5 -30q26 -14 49 -24.5t43 -10.5q19 0 32.5 16.5t21.5 54.5l248 -48 q-42 -236 -221 -236q-41 0 -79.5 13t-70.5 30z" glyph-name="Atilde" horiz-adv-x="1390"/>
<glyph unicode="Ä" d="M877 1400l486 -1400h-346l-91 292h-462l-91 -292h-346l486 1400h364zM695 1052l-155 -500h310zM331 1664q0 34 12.5 63t34.5 50.5t51.5 34t63.5 12.5q35 0 64.5 -12.5t51 -34t34 -50.5t12.5 -63t-12.5 -63t-34 -50.5t-51 -34t-64.5 -12.5q-34 0 -63.5 12.5t-51.5 34 t-34.5 50.5t-12.5 63zM735 1664q0 34 12.5 63t34.5 50.5t51.5 34t63.5 12.5q35 0 64.5 -12.5t51 -34t34 -50.5t12.5 -63t-12.5 -63t-34 -50.5t-51 -34t-64.5 -12.5q-34 0 -63.5 12.5t-51.5 34t-34.5 50.5t-12.5 63z" glyph-name="Adieresis" horiz-adv-x="1390"/>
<glyph unicode="Å" d="M877 1400l486 -1400h-346l-91 292h-462l-91 -292h-346l486 1400h364zM695 1052l-155 -500h310zM632 1686q0 -26 17.5 -43.5t45.5 -17.5t45.5 17.5t17.5 43.5t-17.5 43.5t-45.5 17.5t-45.5 -17.5t-17.5 -43.5zM459 1686q0 46 18 85t49.5 68t75 45.5t93.5 16.5t93.5 -16.5 t75 -45.5t49.5 -68t18 -85t-18 -85.5t-49.5 -68.5t-75 -45.5t-93.5 -16.5t-93.5 16.5t-75 45.5t-49.5 68.5t-18 85.5z" glyph-name="Aring" horiz-adv-x="1390"/>
<glyph unicode="Æ" d="M5 0l757 1400h1005v-280h-550v-278h502v-276h-502v-286h568v-280h-895v292h-385l-148 -292h-352zM634 552h256v500z" glyph-name="AE" horiz-adv-x="1880"/>
<glyph unicode="Ç" d="M837 -300q0 29 -24.5 46.5t-65.5 17.5q-16 0 -32 -1t-30 -3l-54 59l87 165q-139 18 -257.5 80t-204 157t-134 217.5t-48.5 261.5q0 153 58 285.5t159.5 230t240 153t298.5 55.5q144 0 267 -43.5t223 -123.5l-168 -244q-67 53 -145.5 88t-176.5 35q-89 0 -166 -33 t-134 -91.5t-89.5 -138.5t-32.5 -173t32.5 -172.5t89.5 -138t134 -92t166 -33.5q48 0 93.5 10.5t88 28.5t81 43t70.5 53l175 -242q-83 -71 -184 -115.5t-217 -58.5l-61 -92q81 -22 130.5 -74t49.5 -121q0 -46 -22.5 -85.5t-62.5 -68.5t-94.5 -45.5t-117.5 -16.5 q-58 0 -115 15.5t-101 48.5l86 129q23 -17 56 -27t62 -10q41 0 65.5 17.5t24.5 46.5z" glyph-name="Ccedilla" horiz-adv-x="1399"/>
<glyph unicode="È" d="M147 1400h892v-280h-560v-278h512v-276h-512v-286h578v-280h-910v1400zM780 1508h-302l-271 342h324z" glyph-name="Egrave" horiz-adv-x="1152"/>
<glyph unicode="É" d="M147 1400h892v-280h-560v-278h512v-276h-512v-286h578v-280h-910v1400zM631 1850h323l-271 -342h-302z" glyph-name="Eacute" horiz-adv-x="1152"/>
<glyph unicode="Ê" d="M147 1400h892v-280h-560v-278h512v-276h-512v-286h578v-280h-910v1400zM708 1850l292 -342h-297l-113 140l-113 -140h-297l292 342h236z" glyph-name="Ecircumflex" horiz-adv-x="1152"/>
<glyph unicode="Ë" d="M147 1400h892v-280h-560v-278h512v-276h-512v-286h578v-280h-910v1400zM234 1664q0 34 12.5 63t34.5 50.5t51.5 34t63.5 12.5q35 0 64.5 -12.5t51 -34t34 -50.5t12.5 -63t-12.5 -63t-34 -50.5t-51 -34t-64.5 -12.5q-34 0 -63.5 12.5t-51.5 34t-34.5 50.5t-12.5 63z M638 1664q0 34 12.5 63t34.5 50.5t51.5 34t63.5 12.5q35 0 64.5 -12.5t51 -34t34 -50.5t12.5 -63t-12.5 -63t-34 -50.5t-51 -34t-64.5 -12.5q-34 0 -63.5 12.5t-51.5 34t-34.5 50.5t-12.5 63z" glyph-name="Edieresis" horiz-adv-x="1152"/>
<glyph unicode="Ì" d="M484 1400v-1400h-332v1400h332zM535 1508h-302l-271 342h324z" glyph-name="Igrave" horiz-adv-x="636"/>
<glyph unicode="Í" d="M484 1400v-1400h-332v1400h332zM351 1850h323l-271 -342h-302z" glyph-name="Iacute" horiz-adv-x="636"/>
<glyph unicode="Î" d="M484 1400v-1400h-332v1400h332zM436 1850l292 -342h-297l-113 140l-113 -140h-297l292 342h236z" glyph-name="Icircumflex" horiz-adv-x="636"/>
<glyph unicode="Ï" d="M484 1400v-1400h-332v1400h332zM-46 1664q0 34 12.5 63t34.5 50.5t51.5 34t63.5 12.5q35 0 64.5 -12.5t51 -34t34 -50.5t12.5 -63t-12.5 -63t-34 -50.5t-51 -34t-64.5 -12.5q-34 0 -63.5 12.5t-51.5 34t-34.5 50.5t-12.5 63zM358 1664q0 34 12.5 63t34.5 50.5t51.5 34 t63.5 12.5q35 0 64.5 -12.5t51 -34t34 -50.5t12.5 -63t-12.5 -63t-34 -50.5t-51 -34t-64.5 -12.5q-34 0 -63.5 12.5t-51.5 34t-34.5 50.5t-12.5 63z" glyph-name="Idieresis" horiz-adv-x="636"/>
<glyph unicode="Ð" d="M707 1400q158 0 287.5 -50t221.5 -141.5t142.5 -221t50.5 -287.5t-50.5 -287.5t-142.5 -221t-221.5 -141.5t-287.5 -50h-522v599h-170v202h170v599h522zM687 288q87 0 158.5 26t122.5 78t79 129t28 179t-28 179t-79 129t-122.5 78t-158.5 26h-170v-311h228v-202h-228 v-311h170z" glyph-name="Eth" horiz-adv-x="1483"/>
<glyph unicode="Ñ" d="M147 1400h348l472 -892v892h308v-1400h-348l-472 892v-892h-308v1400zM722 1555q-26 14 -49 25t-42 11t-33 -17t-22 -55l-247 48q42 236 220 236q42 0 80.5 -13t69.5 -30q26 -14 49 -24.5t43 -10.5q19 0 32.5 16.5t21.5 54.5l248 -48q-42 -236 -221 -236q-41 0 -79.5 13 t-70.5 30z" glyph-name="Ntilde" horiz-adv-x="1422"/>
<glyph unicode="Ò" d="M408 700q0 -93 32.5 -172.5t89.5 -138t134 -92t166 -33.5t166 33.5t134 92t89.5 138t32.5 172.5t-32.5 173t-89.5 138.5t-134 91.5t-166 33t-166 -33t-134 -91.5t-89.5 -138.5t-32.5 -173zM74 700q0 153 58 285.5t159.5 230t240 153t298.5 55.5q161 0 299 -55.5 t239.5 -153t159.5 -230t58 -285.5t-58 -285t-159.5 -229.5t-239.5 -153.5t-299 -56q-160 0 -298.5 56t-240 153.5t-159.5 229.5t-58 285zM1027 1508h-302l-271 342h324z" glyph-name="Ograve" horiz-adv-x="1660"/>
<glyph unicode="Ó" d="M408 700q0 -93 32.5 -172.5t89.5 -138t134 -92t166 -33.5t166 33.5t134 92t89.5 138t32.5 172.5t-32.5 173t-89.5 138.5t-134 91.5t-166 33t-166 -33t-134 -91.5t-89.5 -138.5t-32.5 -173zM74 700q0 153 58 285.5t159.5 230t240 153t298.5 55.5q161 0 299 -55.5 t239.5 -153t159.5 -230t58 -285.5t-58 -285t-159.5 -229.5t-239.5 -153.5t-299 -56q-160 0 -298.5 56t-240 153.5t-159.5 229.5t-58 285zM882 1850h323l-271 -342h-302z" glyph-name="Oacute" horiz-adv-x="1660"/>
<glyph unicode="Ô" d="M408 700q0 -93 32.5 -172.5t89.5 -138t134 -92t166 -33.5t166 33.5t134 92t89.5 138t32.5 172.5t-32.5 173t-89.5 138.5t-134 91.5t-166 33t-166 -33t-134 -91.5t-89.5 -138.5t-32.5 -173zM74 700q0 153 58 285.5t159.5 230t240 153t298.5 55.5q161 0 299 -55.5 t239.5 -153t159.5 -230t58 -285.5t-58 -285t-159.5 -229.5t-239.5 -153.5t-299 -56q-160 0 -298.5 56t-240 153.5t-159.5 229.5t-58 285zM948 1850l292 -342h-297l-113 140l-113 -140h-297l292 342h236z" glyph-name="Ocircumflex" horiz-adv-x="1660"/>
<glyph unicode="Õ" d="M408 700q0 -93 32.5 -172.5t89.5 -138t134 -92t166 -33.5t166 33.5t134 92t89.5 138t32.5 172.5t-32.5 173t-89.5 138.5t-134 91.5t-166 33t-166 -33t-134 -91.5t-89.5 -138.5t-32.5 -173zM74 700q0 153 58 285.5t159.5 230t240 153t298.5 55.5q161 0 299 -55.5 t239.5 -153t159.5 -230t58 -285.5t-58 -285t-159.5 -229.5t-239.5 -153.5t-299 -56q-160 0 -298.5 56t-240 153.5t-159.5 229.5t-58 285zM841 1555q-26 14 -49 25t-42 11t-33 -17t-22 -55l-247 48q42 236 220 236q42 0 80.5 -13t69.5 -30q26 -14 49 -24.5t43 -10.5 q19 0 32.5 16.5t21.5 54.5l248 -48q-42 -236 -221 -236q-41 0 -79.5 13t-70.5 30z" glyph-name="Otilde" horiz-adv-x="1660"/>
<glyph unicode="Ö" d="M408 700q0 -93 32.5 -172.5t89.5 -138t134 -92t166 -33.5t166 33.5t134 92t89.5 138t32.5 172.5t-32.5 173t-89.5 138.5t-134 91.5t-166 33t-166 -33t-134 -91.5t-89.5 -138.5t-32.5 -173zM74 700q0 153 58 285.5t159.5 230t240 153t298.5 55.5q161 0 299 -55.5 t239.5 -153t159.5 -230t58 -285.5t-58 -285t-159.5 -229.5t-239.5 -153.5t-299 -56q-160 0 -298.5 56t-240 153.5t-159.5 229.5t-58 285zM466 1664q0 34 12.5 63t34.5 50.5t51.5 34t63.5 12.5q35 0 64.5 -12.5t51 -34t34 -50.5t12.5 -63t-12.5 -63t-34 -50.5t-51 -34 t-64.5 -12.5q-34 0 -63.5 12.5t-51.5 34t-34.5 50.5t-12.5 63zM870 1664q0 34 12.5 63t34.5 50.5t51.5 34t63.5 12.5q35 0 64.5 -12.5t51 -34t34 -50.5t12.5 -63t-12.5 -63t-34 -50.5t-51 -34t-64.5 -12.5q-34 0 -63.5 12.5t-51.5 34t-34.5 50.5t-12.5 63z" glyph-name="Odieresis" horiz-adv-x="1660"/>
<glyph unicode="×" d="M794 661l266 -261l-208 -207l-266 262l-266 -262l-208 207l265 261l-265 263l207 206l267 -263l267 263l207 -206z" glyph-name="multiply" horiz-adv-x="1172"/>
<glyph unicode="Ø" d="M74 700q0 153 58 285.5t159.5 230t240 153t298.5 55.5q99 0 189 -22t170 -62l93 120h246l-177 -229q110 -99 172.5 -234.5t62.5 -296.5q0 -153 -58 -285t-159.5 -229.5t-239.5 -153.5t-299 -56q-106 0 -201 24t-179 69l-100 -129h-246l189 243q-103 98 -161 230t-58 287z M1252 700q0 82 -25 153t-70 128l-520 -671q87 -46 193 -46q89 0 166 33.5t134 92t89.5 138t32.5 172.5zM408 700q0 -76 21.5 -142.5t59.5 -120.5l514 663q-40 17 -83 26.5t-90 9.5q-89 0 -166 -33t-134 -91.5t-89.5 -138.5t-32.5 -173z" glyph-name="Oslash" horiz-adv-x="1660"/>
<glyph unicode="Ù" d="M1211 466q0 -107 -42 -197t-115 -154.5t-171 -100.5t-210 -36t-210 36t-171 100.5t-115 154.5t-42 197v934h332v-932q0 -45 16 -82.5t43.5 -64t65.5 -41t81 -14.5q44 0 81.5 14.5t65 41t43.5 64t16 82.5v932h332v-934zM864 1508h-302l-271 342h324z" glyph-name="Ugrave" horiz-adv-x="1346"/>
<glyph unicode="Ú" d="M1211 466q0 -107 -42 -197t-115 -154.5t-171 -100.5t-210 -36t-210 36t-171 100.5t-115 154.5t-42 197v934h332v-932q0 -45 16 -82.5t43.5 -64t65.5 -41t81 -14.5q44 0 81.5 14.5t65 41t43.5 64t16 82.5v932h332v-934zM733 1850h323l-271 -342h-302z" glyph-name="Uacute" horiz-adv-x="1346"/>
<glyph unicode="Û" d="M1211 466q0 -107 -42 -197t-115 -154.5t-171 -100.5t-210 -36t-210 36t-171 100.5t-115 154.5t-42 197v934h332v-932q0 -45 16 -82.5t43.5 -64t65.5 -41t81 -14.5q44 0 81.5 14.5t65 41t43.5 64t16 82.5v932h332v-934zM791 1850l292 -342h-297l-113 140l-113 -140h-297 l292 342h236z" glyph-name="Ucircumflex" horiz-adv-x="1346"/>
<glyph unicode="Ü" d="M1211 466q0 -107 -42 -197t-115 -154.5t-171 -100.5t-210 -36t-210 36t-171 100.5t-115 154.5t-42 197v934h332v-932q0 -45 16 -82.5t43.5 -64t65.5 -41t81 -14.5q44 0 81.5 14.5t65 41t43.5 64t16 82.5v932h332v-934zM309 1664q0 34 12.5 63t34.5 50.5t51.5 34 t63.5 12.5q35 0 64.5 -12.5t51 -34t34 -50.5t12.5 -63t-12.5 -63t-34 -50.5t-51 -34t-64.5 -12.5q-34 0 -63.5 12.5t-51.5 34t-34.5 50.5t-12.5 63zM713 1664q0 34 12.5 63t34.5 50.5t51.5 34t63.5 12.5q35 0 64.5 -12.5t51 -34t34 -50.5t12.5 -63t-12.5 -63t-34 -50.5 t-51 -34t-64.5 -12.5q-34 0 -63.5 12.5t-51.5 34t-34.5 50.5t-12.5 63z" glyph-name="Udieresis" horiz-adv-x="1346"/>
<glyph unicode="Ý" d="M658 864l272 536h359l-465 -846v-554h-332v554l-465 846h359zM718 1850h323l-271 -342h-302z" glyph-name="Yacute" horiz-adv-x="1316"/>
<glyph unicode="Þ" d="M479 234v-234h-332v1400h332v-234h186q110 0 201 -34.5t156 -96t101 -147.5t36 -188t-36 -188t-101 -147.5t-156 -96t-201 -34.5h-186zM831 700q0 45 -13.5 82.5t-39.5 64t-63.5 41t-85.5 14.5h-150v-404h150q48 0 85.5 14.5t63.5 41t39.5 64t13.5 82.5z" glyph-name="Thorn" horiz-adv-x="1214"/>
<glyph unicode="ß" d="M135 1021q0 89 34 163t94 127.5t141 83t175 29.5t175.5 -28.5t141.5 -78t94.5 -116.5t34.5 -144q0 -48 -15.5 -94t-44 -86t-69.5 -72t-92 -52q79 -11 146 -44t116 -83t77 -115t28 -139q0 -84 -34 -156t-94 -125.5t-141 -84t-175 -30.5q-60 0 -118 13t-107 39l62 261 q29 -20 62.5 -33.5t67.5 -13.5q32 0 59.5 11.5t47.5 32.5t31 49.5t11 61.5q0 99 -79.5 155t-223.5 61v260q38 3 69.5 15.5t54.5 33t36 48.5t13 62q0 27 -10 50.5t-28 40t-42 26t-52 9.5q-57 0 -94 -38.5t-37 -103.5v-1016h-315v1021z" glyph-name="germandbls" horiz-adv-x="1241"/>
<glyph unicode="à" d="M641 258q80 0 142.5 39.5t93.5 105.5v229q-31 66 -93.5 106t-142.5 40q-56 0 -103.5 -20t-82.5 -55t-55 -82.5t-20 -102.5t20 -102.5t55 -82.5t82.5 -55t103.5 -20zM877 96q-60 -57 -141 -88.5t-171 -31.5q-108 0 -200 42.5t-159.5 116t-106 172.5t-38.5 211 q0 113 38.5 211.5t106 172t159.5 116t200 42.5q90 0 171 -31.5t141 -88.5v96h316v-1036h-316v96zM865 1184h-302l-271 342h324z" glyph-name="agrave" horiz-adv-x="1319"/>
<glyph unicode="á" d="M641 258q80 0 142.5 39.5t93.5 105.5v229q-31 66 -93.5 106t-142.5 40q-56 0 -103.5 -20t-82.5 -55t-55 -82.5t-20 -102.5t20 -102.5t55 -82.5t82.5 -55t103.5 -20zM877 96q-60 -57 -141 -88.5t-171 -31.5q-108 0 -200 42.5t-159.5 116t-106 172.5t-38.5 211 q0 113 38.5 211.5t106 172t159.5 116t200 42.5q90 0 171 -31.5t141 -88.5v96h316v-1036h-316v96zM678 1526h323l-271 -342h-302z" glyph-name="aacute" horiz-adv-x="1319"/>
<glyph unicode="â" d="M641 258q80 0 142.5 39.5t93.5 105.5v229q-31 66 -93.5 106t-142.5 40q-56 0 -103.5 -20t-82.5 -55t-55 -82.5t-20 -102.5t20 -102.5t55 -82.5t82.5 -55t103.5 -20zM877 96q-60 -57 -141 -88.5t-171 -31.5q-108 0 -200 42.5t-159.5 116t-106 172.5t-38.5 211 q0 113 38.5 211.5t106 172t159.5 116t200 42.5q90 0 171 -31.5t141 -88.5v96h316v-1036h-316v96zM777 1526l292 -342h-297l-113 140l-113 -140h-297l292 342h236z" glyph-name="acircumflex" horiz-adv-x="1319"/>
<glyph unicode="ã" d="M641 258q80 0 142.5 39.5t93.5 105.5v229q-31 66 -93.5 106t-142.5 40q-56 0 -103.5 -20t-82.5 -55t-55 -82.5t-20 -102.5t20 -102.5t55 -82.5t82.5 -55t103.5 -20zM877 96q-60 -57 -141 -88.5t-171 -31.5q-108 0 -200 42.5t-159.5 116t-106 172.5t-38.5 211 q0 113 38.5 211.5t106 172t159.5 116t200 42.5q90 0 171 -31.5t141 -88.5v96h316v-1036h-316v96zM656 1226q-26 14 -49 25t-42 11t-33 -17t-22 -55l-247 48q42 236 220 236q42 0 80.5 -13t69.5 -30q26 -14 49 -24.5t43 -10.5q19 0 32.5 16.5t21.5 54.5l248 -48 q-42 -236 -221 -236q-41 0 -79.5 13t-70.5 30z" glyph-name="atilde" horiz-adv-x="1319"/>
<glyph unicode="ä" d="M641 258q80 0 142.5 39.5t93.5 105.5v229q-31 66 -93.5 106t-142.5 40q-56 0 -103.5 -20t-82.5 -55t-55 -82.5t-20 -102.5t20 -102.5t55 -82.5t82.5 -55t103.5 -20zM877 96q-60 -57 -141 -88.5t-171 -31.5q-108 0 -200 42.5t-159.5 116t-106 172.5t-38.5 211 q0 113 38.5 211.5t106 172t159.5 116t200 42.5q90 0 171 -31.5t141 -88.5v96h316v-1036h-316v96zM273 1340q0 34 12.5 63t34.5 50.5t51.5 34t63.5 12.5q35 0 64.5 -12.5t51 -34t34 -50.5t12.5 -63t-12.5 -63t-34 -50.5t-51 -34t-64.5 -12.5q-34 0 -63.5 12.5t-51.5 34 t-34.5 50.5t-12.5 63zM677 1340q0 34 12.5 63t34.5 50.5t51.5 34t63.5 12.5q35 0 64.5 -12.5t51 -34t34 -50.5t12.5 -63t-12.5 -63t-34 -50.5t-51 -34t-64.5 -12.5q-34 0 -63.5 12.5t-51.5 34t-34.5 50.5t-12.5 63z" glyph-name="adieresis" horiz-adv-x="1319"/>
<glyph unicode="å" d="M641 258q80 0 142.5 39.5t93.5 105.5v229q-31 66 -93.5 106t-142.5 40q-56 0 -103.5 -20t-82.5 -55t-55 -82.5t-20 -102.5t20 -102.5t55 -82.5t82.5 -55t103.5 -20zM877 96q-60 -57 -141 -88.5t-171 -31.5q-108 0 -200 42.5t-159.5 116t-106 172.5t-38.5 211 q0 113 38.5 211.5t106 172t159.5 116t200 42.5q90 0 171 -31.5t141 -88.5v96h316v-1036h-316v96zM577 1362q0 -26 17.5 -43.5t45.5 -17.5t45.5 17.5t17.5 43.5t-17.5 43.5t-45.5 17.5t-45.5 -17.5t-17.5 -43.5zM404 1362q0 46 18 85t49.5 68t75 45.5t93.5 16.5t93.5 -16.5 t75 -45.5t49.5 -68t18 -85t-18 -85.5t-49.5 -68.5t-75 -45.5t-93.5 -16.5t-93.5 16.5t-75 45.5t-49.5 68.5t-18 85.5z" glyph-name="aring" horiz-adv-x="1319"/>
<glyph unicode="æ" d="M1192 429q8 -49 30.5 -88t57 -66.5t79.5 -42t98 -14.5q79 0 150 33t130 90l174 -177q-86 -94 -202.5 -141t-255.5 -47q-72 0 -138 14.5t-123.5 41t-105.5 64t-85 82.5q-33 -46 -79.5 -83.5t-103 -64t-121 -40.5t-134.5 -14q-107 0 -199 27t-159.5 74.5t-105.5 112 t-38 139.5q0 71 37 132t101 105.5t150 70t184 25.5q78 0 156.5 -21.5t144.5 -53.5v19q0 47 -20 86t-56 67t-86.5 43.5t-111.5 15.5q-91 0 -174 -31t-148 -84l-101 210q41 35 91 62.5t105.5 46.5t115 28.5t119.5 9.5q69 0 133.5 -14t120.5 -40t102 -63t80 -84 q75 92 187 146.5t246 54.5q119 0 219.5 -41t173.5 -112.5t114 -167t41 -204.5q0 -26 -4 -54.5t-11 -51.5h-778zM379 329q0 -26 16 -48t44.5 -38.5t67.5 -26t86 -9.5q82 0 141.5 26t97.5 73v69q-45 37 -105.5 56.5t-133.5 19.5q-47 0 -86 -9.5t-67.5 -26t-44.5 -38.5t-16 -48 zM1433 818q-88 0 -150.5 -49t-85.5 -137h461q-19 86 -77 136t-148 50z" glyph-name="ae" horiz-adv-x="2046"/>
<glyph unicode="ç" d="M640 -300q0 29 -24.5 46.5t-65.5 17.5q-16 0 -32 -1t-30 -3l-54 59l89 168q-102 18 -186.5 65.5t-146 117.5t-95.5 159t-34 189q0 114 44 213t122 172t184 115t230 42q121 0 222 -38.5t179 -106.5l-153 -233q-49 39 -111 67.5t-133 28.5q-56 0 -103.5 -20t-82.5 -55 t-55 -82.5t-20 -102.5t20 -102.5t55 -82.5t82.5 -55t103.5 -20q71 0 136 31t116 75l172 -217q-63 -64 -146 -106.5t-182 -56.5l-62 -93q81 -22 130.5 -74t49.5 -121q0 -46 -22.5 -85.5t-62.5 -68.5t-94.5 -45.5t-117.5 -16.5q-58 0 -115 15.5t-101 48.5l86 129 q23 -17 56 -27t62 -10q41 0 65.5 17.5t24.5 46.5z" glyph-name="ccedilla" horiz-adv-x="1119"/>
<glyph unicode="è" d="M384 429q8 -49 30.5 -88t57 -66.5t79.5 -42t98 -14.5q79 0 150 33t130 90l174 -177q-86 -94 -202.5 -141t-255.5 -47q-129 0 -236.5 42t-185 115t-120 172t-42.5 213t43.5 213t119.5 172t180 115t225 42q119 0 219.5 -41t173.5 -112.5t114 -167t41 -204.5q0 -26 -4 -54.5 t-11 -51.5h-778zM625 818q-88 0 -150.5 -49t-85.5 -137h461q-19 86 -77 136t-148 50zM826 1184h-302l-271 342h324z" glyph-name="egrave" horiz-adv-x="1238"/>
<glyph unicode="é" d="M384 429q8 -49 30.5 -88t57 -66.5t79.5 -42t98 -14.5q79 0 150 33t130 90l174 -177q-86 -94 -202.5 -141t-255.5 -47q-129 0 -236.5 42t-185 115t-120 172t-42.5 213t43.5 213t119.5 172t180 115t225 42q119 0 219.5 -41t173.5 -112.5t114 -167t41 -204.5q0 -26 -4 -54.5 t-11 -51.5h-778zM625 818q-88 0 -150.5 -49t-85.5 -137h461q-19 86 -77 136t-148 50zM665 1526h323l-271 -342h-302z" glyph-name="eacute" horiz-adv-x="1238"/>
<glyph unicode="ê" d="M384 429q8 -49 30.5 -88t57 -66.5t79.5 -42t98 -14.5q79 0 150 33t130 90l174 -177q-86 -94 -202.5 -141t-255.5 -47q-129 0 -236.5 42t-185 115t-120 172t-42.5 213t43.5 213t119.5 172t180 115t225 42q119 0 219.5 -41t173.5 -112.5t114 -167t41 -204.5q0 -26 -4 -54.5 t-11 -51.5h-778zM625 818q-88 0 -150.5 -49t-85.5 -137h461q-19 86 -77 136t-148 50zM737 1526l292 -342h-297l-113 140l-113 -140h-297l292 342h236z" glyph-name="ecircumflex" horiz-adv-x="1238"/>
<glyph unicode="ë" d="M384 429q8 -49 30.5 -88t57 -66.5t79.5 -42t98 -14.5q79 0 150 33t130 90l174 -177q-86 -94 -202.5 -141t-255.5 -47q-129 0 -236.5 42t-185 115t-120 172t-42.5 213t43.5 213t119.5 172t180 115t225 42q119 0 219.5 -41t173.5 -112.5t114 -167t41 -204.5q0 -26 -4 -54.5 t-11 -51.5h-778zM625 818q-88 0 -150.5 -49t-85.5 -137h461q-19 86 -77 136t-148 50zM255 1340q0 34 12.5 63t34.5 50.5t51.5 34t63.5 12.5q35 0 64.5 -12.5t51 -34t34 -50.5t12.5 -63t-12.5 -63t-34 -50.5t-51 -34t-64.5 -12.5q-34 0 -63.5 12.5t-51.5 34t-34.5 50.5 t-12.5 63zM659 1340q0 34 12.5 63t34.5 50.5t51.5 34t63.5 12.5q35 0 64.5 -12.5t51 -34t34 -50.5t12.5 -63t-12.5 -63t-34 -50.5t-51 -34t-64.5 -12.5q-34 0 -63.5 12.5t-51.5 34t-34.5 50.5t-12.5 63z" glyph-name="edieresis" horiz-adv-x="1238"/>
<glyph unicode="ì" d="M127 1036h322v-1036h-322v1036zM495 1184h-302l-271 342h324z" glyph-name="igrave" horiz-adv-x="576"/>
<glyph unicode="í" d="M127 1036h322v-1036h-322v1036zM331 1526h323l-271 -342h-302z" glyph-name="iacute" horiz-adv-x="576"/>
<glyph unicode="î" d="M127 1036h322v-1036h-322v1036zM406 1526l292 -342h-297l-113 140l-113 -140h-297l292 342h236z" glyph-name="icircumflex" horiz-adv-x="576"/>
<glyph unicode="ï" d="M127 1036h322v-1036h-322v1036zM-76 1340q0 34 12.5 63t34.5 50.5t51.5 34t63.5 12.5q35 0 64.5 -12.5t51 -34t34 -50.5t12.5 -63t-12.5 -63t-34 -50.5t-51 -34t-64.5 -12.5q-34 0 -63.5 12.5t-51.5 34t-34.5 50.5t-12.5 63zM328 1340q0 34 12.5 63t34.5 50.5t51.5 34 t63.5 12.5q35 0 64.5 -12.5t51 -34t34 -50.5t12.5 -63t-12.5 -63t-34 -50.5t-51 -34t-64.5 -12.5q-34 0 -63.5 12.5t-51.5 34t-34.5 50.5t-12.5 63z" glyph-name="idieresis" horiz-adv-x="576"/>
<glyph unicode="ð" d="M249 1143l175 84q-42 24 -85 45t-88 40l257 148q94 -44 181 -102l190 92l77 -144l-123 -59q82 -73 147 -158.5t110 -179t69 -195t24 -206.5q0 -111 -42 -208t-116.5 -169t-177.5 -113.5t-225 -41.5q-118 0 -220.5 39.5t-178 108.5t-119 162.5t-43.5 201.5q0 109 45 201 t118 159.5t166.5 105.5t189.5 38q44 0 85 -10.5t76 -33.5q-34 50 -74.5 93.5t-88.5 82.5l-252 -120zM378 497q0 -51 19 -94.5t52 -75.5t78 -50.5t97 -18.5t97 18.5t78 50.5t52 75.5t19 94.5t-19 94.5t-52 75.5t-78 50.5t-97 18.5t-97 -18.5t-78 -50.5t-52 -75.5t-19 -94.5z " glyph-name="eth" horiz-adv-x="1254"/>
<glyph unicode="ñ" d="M448 0h-322v1036h322v-107q47 60 119 95.5t153 35.5q89 0 163.5 -30.5t128.5 -85t84 -130t30 -165.5v-649h-322v606q0 34 -11.5 65t-33.5 55t-54 38t-74 14q-28 0 -55 -9.5t-51 -26t-43.5 -37.5t-33.5 -44v-661zM637 1226q-26 14 -49 25t-42 11t-33 -17t-22 -55l-247 48 q42 236 220 236q42 0 80.5 -13t69.5 -30q26 -14 49 -24.5t43 -10.5q19 0 32.5 16.5t21.5 54.5l248 -48q-42 -236 -221 -236q-41 0 -79.5 13t-70.5 30z" glyph-name="ntilde" horiz-adv-x="1232"/>
<glyph unicode="ò" d="M61 518q0 114 44 213t122 172t184 115t230 42t230 -42t184 -115t122 -172t44 -213t-44 -213t-122 -172t-184 -115t-230 -42t-230 42t-184 115t-122 172t-44 213zM380 518q0 -55 20 -102.5t55 -82.5t82.5 -55t103.5 -20t103.5 20t82.5 55t55 82.5t20 102.5t-20 102.5 t-55 82.5t-82.5 55t-103.5 20t-103.5 -20t-82.5 -55t-55 -82.5t-20 -102.5zM837 1184h-302l-271 342h324z" glyph-name="ograve" horiz-adv-x="1282"/>
<glyph unicode="ó" d="M61 518q0 114 44 213t122 172t184 115t230 42t230 -42t184 -115t122 -172t44 -213t-44 -213t-122 -172t-184 -115t-230 -42t-230 42t-184 115t-122 172t-44 213zM380 518q0 -55 20 -102.5t55 -82.5t82.5 -55t103.5 -20t103.5 20t82.5 55t55 82.5t20 102.5t-20 102.5 t-55 82.5t-82.5 55t-103.5 20t-103.5 -20t-82.5 -55t-55 -82.5t-20 -102.5zM697 1526h323l-271 -342h-302z" glyph-name="oacute" horiz-adv-x="1282"/>
<glyph unicode="ô" d="M61 518q0 114 44 213t122 172t184 115t230 42t230 -42t184 -115t122 -172t44 -213t-44 -213t-122 -172t-184 -115t-230 -42t-230 42t-184 115t-122 172t-44 213zM380 518q0 -55 20 -102.5t55 -82.5t82.5 -55t103.5 -20t103.5 20t82.5 55t55 82.5t20 102.5t-20 102.5 t-55 82.5t-82.5 55t-103.5 20t-103.5 -20t-82.5 -55t-55 -82.5t-20 -102.5zM759 1526l292 -342h-297l-113 140l-113 -140h-297l292 342h236z" glyph-name="ocircumflex" horiz-adv-x="1282"/>
<glyph unicode="õ" d="M61 518q0 114 44 213t122 172t184 115t230 42t230 -42t184 -115t122 -172t44 -213t-44 -213t-122 -172t-184 -115t-230 -42t-230 42t-184 115t-122 172t-44 213zM380 518q0 -55 20 -102.5t55 -82.5t82.5 -55t103.5 -20t103.5 20t82.5 55t55 82.5t20 102.5t-20 102.5 t-55 82.5t-82.5 55t-103.5 20t-103.5 -20t-82.5 -55t-55 -82.5t-20 -102.5zM652 1226q-26 14 -49 25t-42 11t-33 -17t-22 -55l-247 48q42 236 220 236q42 0 80.5 -13t69.5 -30q26 -14 49 -24.5t43 -10.5q19 0 32.5 16.5t21.5 54.5l248 -48q-42 -236 -221 -236 q-41 0 -79.5 13t-70.5 30z" glyph-name="otilde" horiz-adv-x="1282"/>
<glyph unicode="ö" d="M61 518q0 114 44 213t122 172t184 115t230 42t230 -42t184 -115t122 -172t44 -213t-44 -213t-122 -172t-184 -115t-230 -42t-230 42t-184 115t-122 172t-44 213zM380 518q0 -55 20 -102.5t55 -82.5t82.5 -55t103.5 -20t103.5 20t82.5 55t55 82.5t20 102.5t-20 102.5 t-55 82.5t-82.5 55t-103.5 20t-103.5 -20t-82.5 -55t-55 -82.5t-20 -102.5zM277 1340q0 34 12.5 63t34.5 50.5t51.5 34t63.5 12.5q35 0 64.5 -12.5t51 -34t34 -50.5t12.5 -63t-12.5 -63t-34 -50.5t-51 -34t-64.5 -12.5q-34 0 -63.5 12.5t-51.5 34t-34.5 50.5t-12.5 63z M681 1340q0 34 12.5 63t34.5 50.5t51.5 34t63.5 12.5q35 0 64.5 -12.5t51 -34t34 -50.5t12.5 -63t-12.5 -63t-34 -50.5t-51 -34t-64.5 -12.5q-34 0 -63.5 12.5t-51.5 34t-34.5 50.5t-12.5 63z" glyph-name="odieresis" horiz-adv-x="1282"/>
<glyph unicode="÷" d="M116 526v276h940v-276h-940zM400 1067q0 38 14 70.5t38 56.5t57 37.5t71 13.5t71 -13.5t57 -37.5t38 -56.5t14 -70.5q0 -37 -14 -69.5t-38 -56.5t-57 -38t-71 -14t-71 14t-57 38t-38 56.5t-14 69.5zM400 261q0 38 14 70.5t38 56.5t57 37.5t71 13.5t71 -13.5t57 -37.5 t38 -56.5t14 -70.5q0 -37 -14 -69.5t-38 -56.5t-57 -38t-71 -14t-71 14t-57 38t-38 56.5t-14 69.5z" glyph-name="divide" horiz-adv-x="1172"/>
<glyph unicode="ø" d="M61 518q0 114 44 213t122 172t184 115t230 42q72 0 138 -15t125 -42l73 93h228l-151 -193q78 -73 122.5 -171.5t44.5 -213.5q0 -114 -44 -213t-122 -172t-184 -115t-230 -42q-73 0 -139.5 15t-125.5 42l-73 -93h-228l151 193q-78 74 -121.5 172t-43.5 213zM927 518 q0 45 -13 85t-36 73l-333 -426q45 -17 96 -17q60 0 112.5 22t91 60.5t60.5 90.5t22 112zM355 518q0 -45 12 -85t35 -73l332 425q-21 8 -44.5 13t-48.5 5q-60 0 -112.5 -22t-91 -60.5t-60.5 -90.5t-22 -112z" glyph-name="oslash" horiz-adv-x="1282"/>
<glyph unicode="ù" d="M784 107q-47 -60 -119 -95.5t-153 -35.5q-88 0 -162.5 30.5t-128.5 85t-84.5 130t-30.5 165.5v649h322v-606q0 -34 11.5 -65t33.5 -55t54 -38t74 -14q28 0 55 9.5t51 26t44 37.5t33 44v661h322v-1036h-322v107zM792 1184h-302l-271 342h324z" glyph-name="ugrave" horiz-adv-x="1232"/>
<glyph unicode="ú" d="M784 107q-47 -60 -119 -95.5t-153 -35.5q-88 0 -162.5 30.5t-128.5 85t-84.5 130t-30.5 165.5v649h322v-606q0 -34 11.5 -65t33.5 -55t54 -38t74 -14q28 0 55 9.5t51 26t44 37.5t33 44v661h322v-1036h-322v107zM665 1526h323l-271 -342h-302z" glyph-name="uacute" horiz-adv-x="1232"/>
<glyph unicode="û" d="M784 107q-47 -60 -119 -95.5t-153 -35.5q-88 0 -162.5 30.5t-128.5 85t-84.5 130t-30.5 165.5v649h322v-606q0 -34 11.5 -65t33.5 -55t54 -38t74 -14q28 0 55 9.5t51 26t44 37.5t33 44v661h322v-1036h-322v107zM721 1526l292 -342h-297l-113 140l-113 -140h-297l292 342 h236z" glyph-name="ucircumflex" horiz-adv-x="1232"/>
<glyph unicode="ü" d="M784 107q-47 -60 -119 -95.5t-153 -35.5q-88 0 -162.5 30.5t-128.5 85t-84.5 130t-30.5 165.5v649h322v-606q0 -34 11.5 -65t33.5 -55t54 -38t74 -14q28 0 55 9.5t51 26t44 37.5t33 44v661h322v-1036h-322v107zM239 1340q0 34 12.5 63t34.5 50.5t51.5 34t63.5 12.5 q35 0 64.5 -12.5t51 -34t34 -50.5t12.5 -63t-12.5 -63t-34 -50.5t-51 -34t-64.5 -12.5q-34 0 -63.5 12.5t-51.5 34t-34.5 50.5t-12.5 63zM643 1340q0 34 12.5 63t34.5 50.5t51.5 34t63.5 12.5q35 0 64.5 -12.5t51 -34t34 -50.5t12.5 -63t-12.5 -63t-34 -50.5t-51 -34 t-64.5 -12.5q-34 0 -63.5 12.5t-51.5 34t-34.5 50.5t-12.5 63z" glyph-name="udieresis" horiz-adv-x="1232"/>
<glyph unicode="ý" d="M201 -464l187 464l-370 1036h336l191 -627l193 627h336l-536 -1500h-337zM601 1526h323l-271 -342h-302z" glyph-name="yacute" horiz-adv-x="1092"/>
<glyph unicode="þ" d="M678 258q56 0 103.5 20t82.5 55t55 82.5t20 102.5t-20 102.5t-55 82.5t-82.5 55t-103.5 20q-80 0 -142.5 -40t-93.5 -106v-229q31 -66 93.5 -105.5t142.5 -39.5zM442 -464h-316v1924h316v-520q60 57 141 88.5t171 31.5q108 0 200.5 -42.5t160 -116t105.5 -172t38 -211.5 q0 -112 -38 -211t-105.5 -172.5t-160 -116t-200.5 -42.5q-90 0 -171 31.5t-141 88.5v-560z" glyph-name="thorn" horiz-adv-x="1319"/>
<glyph unicode="ÿ" d="M201 -464l187 464l-370 1036h336l191 -627l193 627h336l-536 -1500h-337zM181 1340q0 34 12.5 63t34.5 50.5t51.5 34t63.5 12.5q35 0 64.5 -12.5t51 -34t34 -50.5t12.5 -63t-12.5 -63t-34 -50.5t-51 -34t-64.5 -12.5q-34 0 -63.5 12.5t-51.5 34t-34.5 50.5t-12.5 63z M585 1340q0 34 12.5 63t34.5 50.5t51.5 34t63.5 12.5q35 0 64.5 -12.5t51 -34t34 -50.5t12.5 -63t-12.5 -63t-34 -50.5t-51 -34t-64.5 -12.5q-34 0 -63.5 12.5t-51.5 34t-34.5 50.5t-12.5 63z" glyph-name="ydieresis" horiz-adv-x="1092"/>
<glyph unicode="Ā" d="M877 1400l486 -1400h-346l-91 292h-462l-91 -292h-346l486 1400h364zM695 1052l-155 -500h310zM375 1779h640v-236h-640v236z" glyph-name="Amacron" horiz-adv-x="1390"/>
<glyph unicode="ā" d="M641 258q80 0 142.5 39.5t93.5 105.5v229q-31 66 -93.5 106t-142.5 40q-56 0 -103.5 -20t-82.5 -55t-55 -82.5t-20 -102.5t20 -102.5t55 -82.5t82.5 -55t103.5 -20zM877 96q-60 -57 -141 -88.5t-171 -31.5q-108 0 -200 42.5t-159.5 116t-106 172.5t-38.5 211 q0 113 38.5 211.5t106 172t159.5 116t200 42.5q90 0 171 -31.5t141 -88.5v96h316v-1036h-316v96zM322 1455h640v-236h-640v236z" glyph-name="amacron" horiz-adv-x="1319"/>
<glyph unicode="Ă" d="M877 1400l486 -1400h-346l-91 292h-462l-91 -292h-346l486 1400h364zM695 1052l-155 -500h310zM695 1488q-72 0 -137.5 23t-115.5 64.5t-81 99.5t-34 127h257q2 -48 33.5 -79.5t77.5 -31.5t77.5 31.5t33.5 79.5h257q-3 -69 -34 -127t-81 -99.5t-115.5 -64.5t-137.5 -23z " glyph-name="Abreve" horiz-adv-x="1390"/>
<glyph unicode="ă" d="M641 258q80 0 142.5 39.5t93.5 105.5v229q-31 66 -93.5 106t-142.5 40q-56 0 -103.5 -20t-82.5 -55t-55 -82.5t-20 -102.5t20 -102.5t55 -82.5t82.5 -55t103.5 -20zM877 96q-60 -57 -141 -88.5t-171 -31.5q-108 0 -200 42.5t-159.5 116t-106 172.5t-38.5 211 q0 113 38.5 211.5t106 172t159.5 116t200 42.5q90 0 171 -31.5t141 -88.5v96h316v-1036h-316v96zM642 1164q-72 0 -137.5 23t-115.5 64.5t-81 99.5t-34 127h257q2 -48 33.5 -79.5t77.5 -31.5t77.5 31.5t33.5 79.5h257q-3 -69 -34 -127t-81 -99.5t-115.5 -64.5t-137.5 -23z " glyph-name="abreve" horiz-adv-x="1319"/>
<glyph unicode="Ą" d="M1017 0l-91 292h-462l-91 -292h-346l486 1400h364l486 -1400q-33 -27 -62 -54.5t-50.5 -54.5t-33.5 -54t-12 -54q0 -35 23 -56t58 -21q23 0 43.5 6t37.5 17l58 -138q-37 -24 -83.5 -36.5t-95.5 -12.5q-56 0 -104.5 16t-84 43.5t-56 65.5t-20.5 83q0 36 13.5 70t36.5 66 t55 61t68 53h-137zM695 1052l-155 -500h310z" glyph-name="Aogonek" horiz-adv-x="1390"/>
<glyph unicode="ą" d="M877 96q-60 -57 -141 -88.5t-171 -31.5q-108 0 -200 42.5t-159.5 116t-106 172.5t-38.5 211q0 113 38.5 211.5t106 172t159.5 116t200 42.5q90 0 171 -31.5t141 -88.5v96h316v-1036q-33 -27 -62 -54.5t-50.5 -54.5t-33.5 -54t-12 -54q0 -35 23 -56t58 -21q23 0 43.5 6 t37.5 17l58 -138q-37 -24 -83.5 -36.5t-95.5 -12.5q-56 0 -104.5 16t-84 43.5t-56 65.5t-20.5 83q0 36 13.5 70t36.5 66t55 61t68 53h-107v96zM641 258q80 0 142.5 39.5t93.5 105.5v229q-31 66 -93.5 106t-142.5 40q-56 0 -103.5 -20t-82.5 -55t-55 -82.5t-20 -102.5 t20 -102.5t55 -82.5t82.5 -55t103.5 -20z" glyph-name="aogonek" horiz-adv-x="1319"/>
<glyph unicode="Ć" d="M830 -24q-160 0 -298.5 56t-240 153.5t-159.5 229.5t-58 285t58 285.5t159.5 230t240 153t298.5 55.5q144 0 267 -43.5t223 -123.5l-168 -244q-67 53 -145.5 88t-176.5 35q-89 0 -166 -33t-134 -91.5t-89.5 -138.5t-32.5 -173t32.5 -172.5t89.5 -138t134 -92t166 -33.5 q48 0 93.5 10.5t88 28.5t81 43t70.5 53l175 -242q-102 -87 -230.5 -134t-277.5 -47zM814 1850h323l-271 -342h-302z" glyph-name="Cacute" horiz-adv-x="1399"/>
<glyph unicode="ć" d="M641 -24q-124 0 -230 42t-184 115t-122 172t-44 213t44 213t122 172t184 115t230 42q121 0 222 -38.5t179 -106.5l-153 -233q-49 39 -111 67.5t-133 28.5q-56 0 -103.5 -20t-82.5 -55t-55 -82.5t-20 -102.5t20 -102.5t55 -82.5t82.5 -55t103.5 -20q71 0 136 31t116 75 l172 -217q-79 -80 -188 -125.5t-240 -45.5zM631 1526h323l-271 -342h-302z" glyph-name="cacute" horiz-adv-x="1119"/>
<glyph unicode="Ĉ" d="M830 -24q-160 0 -298.5 56t-240 153.5t-159.5 229.5t-58 285t58 285.5t159.5 230t240 153t298.5 55.5q144 0 267 -43.5t223 -123.5l-168 -244q-67 53 -145.5 88t-176.5 35q-89 0 -166 -33t-134 -91.5t-89.5 -138.5t-32.5 -173t32.5 -172.5t89.5 -138t134 -92t166 -33.5 q48 0 93.5 10.5t88 28.5t81 43t70.5 53l175 -242q-102 -87 -230.5 -134t-277.5 -47zM901 1850l292 -342h-297l-113 140l-113 -140h-297l292 342h236z" glyph-name="Ccircumflex" horiz-adv-x="1399"/>
<glyph unicode="ĉ" d="M641 -24q-124 0 -230 42t-184 115t-122 172t-44 213t44 213t122 172t184 115t230 42q121 0 222 -38.5t179 -106.5l-153 -233q-49 39 -111 67.5t-133 28.5q-56 0 -103.5 -20t-82.5 -55t-55 -82.5t-20 -102.5t20 -102.5t55 -82.5t82.5 -55t103.5 -20q71 0 136 31t116 75 l172 -217q-79 -80 -188 -125.5t-240 -45.5zM711 1526l292 -342h-297l-113 140l-113 -140h-297l292 342h236z" glyph-name="ccircumflex" horiz-adv-x="1119"/>
<glyph unicode="Ċ" d="M830 -24q-160 0 -298.5 56t-240 153.5t-159.5 229.5t-58 285t58 285.5t159.5 230t240 153t298.5 55.5q144 0 267 -43.5t223 -123.5l-168 -244q-67 53 -145.5 88t-176.5 35q-89 0 -166 -33t-134 -91.5t-89.5 -138.5t-32.5 -173t32.5 -172.5t89.5 -138t134 -92t166 -33.5 q48 0 93.5 10.5t88 28.5t81 43t70.5 53l175 -242q-102 -87 -230.5 -134t-277.5 -47zM613 1664q0 35 13 65t35.5 52t53 35t65.5 13t65.5 -13t53 -35t35.5 -52t13 -65q0 -34 -13 -64.5t-35.5 -52.5t-53 -35t-65.5 -13t-65.5 13t-53 35t-35.5 52.5t-13 64.5z" glyph-name="Cdotaccent" horiz-adv-x="1399"/>
<glyph unicode="ċ" d="M641 -24q-124 0 -230 42t-184 115t-122 172t-44 213t44 213t122 172t184 115t230 42q121 0 222 -38.5t179 -106.5l-153 -233q-49 39 -111 67.5t-133 28.5q-56 0 -103.5 -20t-82.5 -55t-55 -82.5t-20 -102.5t20 -102.5t55 -82.5t82.5 -55t103.5 -20q71 0 136 31t116 75 l172 -217q-79 -80 -188 -125.5t-240 -45.5zM442 1340q0 35 13 65t35.5 52t53 35t65.5 13t65.5 -13t53 -35t35.5 -52t13 -65q0 -34 -13 -64.5t-35.5 -52.5t-53 -35t-65.5 -13t-65.5 13t-53 35t-35.5 52.5t-13 64.5z" glyph-name="cdotaccent" horiz-adv-x="1119"/>
<glyph unicode="Č" d="M830 -24q-160 0 -298.5 56t-240 153.5t-159.5 229.5t-58 285t58 285.5t159.5 230t240 153t298.5 55.5q144 0 267 -43.5t223 -123.5l-168 -244q-67 53 -145.5 88t-176.5 35q-89 0 -166 -33t-134 -91.5t-89.5 -138.5t-32.5 -173t32.5 -172.5t89.5 -138t134 -92t166 -33.5 q48 0 93.5 10.5t88 28.5t81 43t70.5 53l175 -242q-102 -87 -230.5 -134t-277.5 -47zM665 1508l-292 342h297l113 -140l113 140h297l-292 -342h-236z" glyph-name="Ccaron" horiz-adv-x="1399"/>
<glyph unicode="č" d="M641 -24q-124 0 -230 42t-184 115t-122 172t-44 213t44 213t122 172t184 115t230 42q121 0 222 -38.5t179 -106.5l-153 -233q-49 39 -111 67.5t-133 28.5q-56 0 -103.5 -20t-82.5 -55t-55 -82.5t-20 -102.5t20 -102.5t55 -82.5t82.5 -55t103.5 -20q71 0 136 31t116 75 l172 -217q-79 -80 -188 -125.5t-240 -45.5zM476 1164l-292 342h297l113 -140l113 140h297l-292 -342h-236z" glyph-name="ccaron" horiz-adv-x="1119"/>
<glyph unicode="Ď" d="M669 1400q158 0 287.5 -50t221.5 -141.5t142.5 -221t50.5 -287.5t-50.5 -287.5t-142.5 -221t-221.5 -141.5t-287.5 -50h-522v1400h522zM649 288q87 0 158.5 26t122.5 78t79 129t28 179t-28 179t-79 129t-122.5 78t-158.5 26h-170v-824h170zM545 1508l-292 342h297 l113 -140l113 140h297l-292 -342h-236z" glyph-name="Dcaron" horiz-adv-x="1445"/>
<glyph unicode="ď" d="M641 258q80 0 142.5 39.5t93.5 105.5v229q-31 66 -93.5 106t-142.5 40q-56 0 -103.5 -20t-82.5 -55t-55 -82.5t-20 -102.5t20 -102.5t55 -82.5t82.5 -55t103.5 -20zM877 96q-60 -57 -141 -88.5t-171 -31.5q-108 0 -200 42.5t-159.5 116t-106 172.5t-38.5 211 q0 113 38.5 211.5t106 172t159.5 116t200 42.5q90 0 171 -31.5t141 -88.5v520h316v-1460h-316v96zM1299 1307q0 38 13.5 70t37.5 56t56.5 37.5t70.5 13.5t70.5 -13.5t56.5 -37.5t37.5 -56t13.5 -70q0 -22 -5.5 -42.5t-15.5 -41.5l-148 -308h-188l111 232q-49 20 -79.5 61.5 t-30.5 98.5z" glyph-name="dcaron" horiz-adv-x="1685"/>
<glyph unicode="Đ" d="M707 1400q158 0 287.5 -50t221.5 -141.5t142.5 -221t50.5 -287.5t-50.5 -287.5t-142.5 -221t-221.5 -141.5t-287.5 -50h-522v599h-170v202h170v599h522zM687 288q87 0 158.5 26t122.5 78t79 129t28 179t-28 179t-79 129t-122.5 78t-158.5 26h-170v-311h228v-202h-228 v-311h170z" glyph-name="Dcroat" horiz-adv-x="1483"/>
<glyph unicode="đ" d="M602 1327h275v133h316v-133h134v-182h-134v-1145h-316v96q-60 -57 -141 -88.5t-171 -31.5q-108 0 -200 42.5t-159.5 116t-106 172.5t-38.5 211q0 113 38.5 211.5t106 172t159.5 116t200 42.5q90 0 171 -31.5t141 -88.5v205h-275v182zM641 258q80 0 142.5 39.5t93.5 105.5 v229q-31 66 -93.5 106t-142.5 40q-56 0 -103.5 -20t-82.5 -55t-55 -82.5t-20 -102.5t20 -102.5t55 -82.5t82.5 -55t103.5 -20z" glyph-name="dcroat" horiz-adv-x="1347"/>
<glyph unicode="Ē" d="M147 1400h892v-280h-560v-278h512v-276h-512v-286h578v-280h-910v1400zM267 1779h640v-236h-640v236z" glyph-name="Emacron" horiz-adv-x="1152"/>
<glyph unicode="ē" d="M384 429q8 -49 30.5 -88t57 -66.5t79.5 -42t98 -14.5q79 0 150 33t130 90l174 -177q-86 -94 -202.5 -141t-255.5 -47q-129 0 -236.5 42t-185 115t-120 172t-42.5 213t43.5 213t119.5 172t180 115t225 42q119 0 219.5 -41t173.5 -112.5t114 -167t41 -204.5q0 -26 -4 -54.5 t-11 -51.5h-778zM625 818q-88 0 -150.5 -49t-85.5 -137h461q-19 86 -77 136t-148 50zM300 1455h640v-236h-640v236z" glyph-name="emacron" horiz-adv-x="1238"/>
<glyph unicode="Ĕ" d="M147 1400h892v-280h-560v-278h512v-276h-512v-286h578v-280h-910v1400zM591 1488q-72 0 -137.5 23t-115.5 64.5t-81 99.5t-34 127h257q2 -48 33.5 -79.5t77.5 -31.5t77.5 31.5t33.5 79.5h257q-3 -69 -34 -127t-81 -99.5t-115.5 -64.5t-137.5 -23z" glyph-name="Ebreve" horiz-adv-x="1152"/>
<glyph unicode="ĕ" d="M384 429q8 -49 30.5 -88t57 -66.5t79.5 -42t98 -14.5q79 0 150 33t130 90l174 -177q-86 -94 -202.5 -141t-255.5 -47q-129 0 -236.5 42t-185 115t-120 172t-42.5 213t43.5 213t119.5 172t180 115t225 42q119 0 219.5 -41t173.5 -112.5t114 -167t41 -204.5q0 -26 -4 -54.5 t-11 -51.5h-778zM625 818q-88 0 -150.5 -49t-85.5 -137h461q-19 86 -77 136t-148 50zM619 1164q-72 0 -137.5 23t-115.5 64.5t-81 99.5t-34 127h257q2 -48 33.5 -79.5t77.5 -31.5t77.5 31.5t33.5 79.5h257q-3 -69 -34 -127t-81 -99.5t-115.5 -64.5t-137.5 -23z" glyph-name="ebreve" horiz-adv-x="1238"/>
<glyph unicode="Ė" d="M147 1400h892v-280h-560v-278h512v-276h-512v-286h578v-280h-910v1400zM431 1664q0 35 13 65t35.5 52t53 35t65.5 13t65.5 -13t53 -35t35.5 -52t13 -65q0 -34 -13 -64.5t-35.5 -52.5t-53 -35t-65.5 -13t-65.5 13t-53 35t-35.5 52.5t-13 64.5z" glyph-name="Edotaccent" horiz-adv-x="1152"/>
<glyph unicode="ė" d="M384 429q8 -49 30.5 -88t57 -66.5t79.5 -42t98 -14.5q79 0 150 33t130 90l174 -177q-86 -94 -202.5 -141t-255.5 -47q-129 0 -236.5 42t-185 115t-120 172t-42.5 213t43.5 213t119.5 172t180 115t225 42q119 0 219.5 -41t173.5 -112.5t114 -167t41 -204.5q0 -26 -4 -54.5 t-11 -51.5h-778zM625 818q-88 0 -150.5 -49t-85.5 -137h461q-19 86 -77 136t-148 50zM454 1340q0 35 13 65t35.5 52t53 35t65.5 13t65.5 -13t53 -35t35.5 -52t13 -65q0 -34 -13 -64.5t-35.5 -52.5t-53 -35t-65.5 -13t-65.5 13t-53 35t-35.5 52.5t-13 64.5z" glyph-name="edotaccent" horiz-adv-x="1238"/>
<glyph unicode="Ę" d="M147 1400h892v-280h-560v-278h512v-276h-512v-286h578v-280h-172q-33 -27 -62 -54.5t-50.5 -54.5t-33.5 -54t-12 -54q0 -35 23 -56t58 -21q23 0 43.5 6t37.5 17l58 -138q-37 -24 -83.5 -36.5t-95.5 -12.5q-56 0 -104.5 16t-84 43.5t-56 65.5t-20.5 83q0 36 13.5 70 t36.5 66t55 61t68 53h-529v1400z" glyph-name="Eogonek" horiz-adv-x="1152"/>
<glyph unicode="ę" d="M384 429q8 -49 30.5 -88t57 -66.5t79.5 -42t98 -14.5q79 0 150 33t130 90l174 -177q-69 -75 -157 -120t-192 -60q-60 -51 -99 -101t-39 -100q0 -35 23 -56t58 -21q23 0 43.5 6t37.5 17l58 -138q-37 -24 -83.5 -36.5t-95.5 -12.5q-56 0 -104.5 16t-84 43.5t-56 65.5 t-20.5 83q0 33 11.5 64.5t31.5 61t47 57t59 51.5q-108 16 -196.5 63t-151.5 117.5t-97.5 161t-34.5 192.5q0 114 43.5 213t119.5 172t180 115t225 42q119 0 219.5 -41t173.5 -112.5t114 -167t41 -204.5q0 -26 -4 -54.5t-11 -51.5h-778zM625 818q-88 0 -150.5 -49t-85.5 -137 h461q-19 86 -77 136t-148 50z" glyph-name="eogonek" horiz-adv-x="1238"/>
<glyph unicode="Ě" d="M147 1400h892v-280h-560v-278h512v-276h-512v-286h578v-280h-910v1400zM472 1508l-292 342h297l113 -140l113 140h297l-292 -342h-236z" glyph-name="Ecaron" horiz-adv-x="1152"/>
<glyph unicode="ě" d="M384 429q8 -49 30.5 -88t57 -66.5t79.5 -42t98 -14.5q79 0 150 33t130 90l174 -177q-86 -94 -202.5 -141t-255.5 -47q-129 0 -236.5 42t-185 115t-120 172t-42.5 213t43.5 213t119.5 172t180 115t225 42q119 0 219.5 -41t173.5 -112.5t114 -167t41 -204.5q0 -26 -4 -54.5 t-11 -51.5h-778zM625 818q-88 0 -150.5 -49t-85.5 -137h461q-19 86 -77 136t-148 50zM503 1164l-292 342h297l113 -140l113 140h297l-292 -342h-236z" glyph-name="ecaron" horiz-adv-x="1238"/>
<glyph unicode="Ĝ" d="M830 1136q-90 0 -167 -33.5t-134 -92.5t-89 -139.5t-32 -175.5q0 -93 32.5 -173.5t89.5 -140t134 -93.5t166 -34q47 0 95.5 12t86.5 35v235h-274v254h606v-627q-100 -88 -232 -137.5t-282 -49.5q-160 0 -298.5 56t-240 153.5t-159.5 229.5t-58 285t58 285.5t159.5 230 t240 153t298.5 55.5q144 0 267 -43.5t223 -123.5l-168 -244q-67 53 -145.5 88t-176.5 35zM901 1850l292 -342h-297l-113 140l-113 -140h-297l292 342h236z" glyph-name="Gcircumflex" horiz-adv-x="1466"/>
<glyph unicode="ĝ" d="M641 258q80 0 142.5 39.5t93.5 105.5v229q-31 66 -93.5 106t-142.5 40q-56 0 -103.5 -20t-82.5 -55t-55 -82.5t-20 -102.5t20 -102.5t55 -82.5t82.5 -55t103.5 -20zM877 110q-60 -58 -141 -89t-171 -31q-108 0 -200 41t-159.5 112t-106 167.5t-38.5 207.5 q0 113 38.5 211.5t106 172t159.5 116t200 42.5q90 0 171 -31.5t141 -88.5v96h316v-970q0 -116 -38.5 -213.5t-110.5 -168t-175 -109.5t-232 -39q-149 0 -280.5 48.5t-223.5 138.5l166 216q61 -59 141 -94t174 -35q60 0 108.5 16.5t83 47t53 74t18.5 98.5v64zM777 1526 l292 -342h-297l-113 140l-113 -140h-297l292 342h236z" glyph-name="gcircumflex" horiz-adv-x="1319"/>
<glyph unicode="Ğ" d="M830 1136q-90 0 -167 -33.5t-134 -92.5t-89 -139.5t-32 -175.5q0 -93 32.5 -173.5t89.5 -140t134 -93.5t166 -34q47 0 95.5 12t86.5 35v235h-274v254h606v-627q-100 -88 -232 -137.5t-282 -49.5q-160 0 -298.5 56t-240 153.5t-159.5 229.5t-58 285t58 285.5t159.5 230 t240 153t298.5 55.5q144 0 267 -43.5t223 -123.5l-168 -244q-67 53 -145.5 88t-176.5 35zM783 1488q-72 0 -137.5 23t-115.5 64.5t-81 99.5t-34 127h257q2 -48 33.5 -79.5t77.5 -31.5t77.5 31.5t33.5 79.5h257q-3 -69 -34 -127t-81 -99.5t-115.5 -64.5t-137.5 -23z" glyph-name="Gbreve" horiz-adv-x="1466"/>
<glyph unicode="ğ" d="M641 258q80 0 142.5 39.5t93.5 105.5v229q-31 66 -93.5 106t-142.5 40q-56 0 -103.5 -20t-82.5 -55t-55 -82.5t-20 -102.5t20 -102.5t55 -82.5t82.5 -55t103.5 -20zM877 110q-60 -58 -141 -89t-171 -31q-108 0 -200 41t-159.5 112t-106 167.5t-38.5 207.5 q0 113 38.5 211.5t106 172t159.5 116t200 42.5q90 0 171 -31.5t141 -88.5v96h316v-970q0 -116 -38.5 -213.5t-110.5 -168t-175 -109.5t-232 -39q-149 0 -280.5 48.5t-223.5 138.5l166 216q61 -59 141 -94t174 -35q60 0 108.5 16.5t83 47t53 74t18.5 98.5v64zM642 1164 q-72 0 -137.5 23t-115.5 64.5t-81 99.5t-34 127h257q2 -48 33.5 -79.5t77.5 -31.5t77.5 31.5t33.5 79.5h257q-3 -69 -34 -127t-81 -99.5t-115.5 -64.5t-137.5 -23z" glyph-name="gbreve" horiz-adv-x="1319"/>
<glyph unicode="Ġ" d="M830 1136q-90 0 -167 -33.5t-134 -92.5t-89 -139.5t-32 -175.5q0 -93 32.5 -173.5t89.5 -140t134 -93.5t166 -34q47 0 95.5 12t86.5 35v235h-274v254h606v-627q-100 -88 -232 -137.5t-282 -49.5q-160 0 -298.5 56t-240 153.5t-159.5 229.5t-58 285t58 285.5t159.5 230 t240 153t298.5 55.5q144 0 267 -43.5t223 -123.5l-168 -244q-67 53 -145.5 88t-176.5 35zM613 1664q0 35 13 65t35.5 52t53 35t65.5 13t65.5 -13t53 -35t35.5 -52t13 -65q0 -34 -13 -64.5t-35.5 -52.5t-53 -35t-65.5 -13t-65.5 13t-53 35t-35.5 52.5t-13 64.5z" glyph-name="Gdotaccent" horiz-adv-x="1466"/>
<glyph unicode="ġ" d="M641 258q80 0 142.5 39.5t93.5 105.5v229q-31 66 -93.5 106t-142.5 40q-56 0 -103.5 -20t-82.5 -55t-55 -82.5t-20 -102.5t20 -102.5t55 -82.5t82.5 -55t103.5 -20zM877 110q-60 -58 -141 -89t-171 -31q-108 0 -200 41t-159.5 112t-106 167.5t-38.5 207.5 q0 113 38.5 211.5t106 172t159.5 116t200 42.5q90 0 171 -31.5t141 -88.5v96h316v-970q0 -116 -38.5 -213.5t-110.5 -168t-175 -109.5t-232 -39q-149 0 -280.5 48.5t-223.5 138.5l166 216q61 -59 141 -94t174 -35q60 0 108.5 16.5t83 47t53 74t18.5 98.5v64zM471 1340 q0 35 13 65t35.5 52t53 35t65.5 13t65.5 -13t53 -35t35.5 -52t13 -65q0 -34 -13 -64.5t-35.5 -52.5t-53 -35t-65.5 -13t-65.5 13t-53 35t-35.5 52.5t-13 64.5z" glyph-name="gdotaccent" horiz-adv-x="1319"/>
<glyph unicode="Ģ" d="M830 1136q-90 0 -167 -33.5t-134 -92.5t-89 -139.5t-32 -175.5q0 -93 32.5 -173.5t89.5 -140t134 -93.5t166 -34q47 0 95.5 12t86.5 35v235h-274v254h606v-627q-100 -88 -232 -137.5t-282 -49.5q-160 0 -298.5 56t-240 153.5t-159.5 229.5t-58 285t58 285.5t159.5 230 t240 153t298.5 55.5q144 0 267 -43.5t223 -123.5l-168 -244q-67 53 -145.5 88t-176.5 35zM510 -470l156 342h333l-198 -342h-291z" glyph-name="Gcommaaccent" horiz-adv-x="1466"/>
<glyph unicode="ģ" d="M641 258q80 0 142.5 39.5t93.5 105.5v229q-31 66 -93.5 106t-142.5 40q-56 0 -103.5 -20t-82.5 -55t-55 -82.5t-20 -102.5t20 -102.5t55 -82.5t82.5 -55t103.5 -20zM877 110q-60 -58 -141 -89t-171 -31q-108 0 -200 41t-159.5 112t-106 167.5t-38.5 207.5 q0 113 38.5 211.5t106 172t159.5 116t200 42.5q90 0 171 -31.5t141 -88.5v96h316v-970q0 -116 -38.5 -213.5t-110.5 -168t-175 -109.5t-232 -39q-149 0 -280.5 48.5t-223.5 138.5l166 216q61 -59 141 -94t174 -35q60 0 108.5 16.5t83 47t53 74t18.5 98.5v64zM938 1514 l-156 -342h-333l198 342h291z" glyph-name="gcommaaccent" horiz-adv-x="1319"/>
<glyph unicode="Ĥ" d="M147 1400h332v-553h464v553h332v-1400h-332v561h-464v-561h-332v1400zM829 1850l292 -342h-297l-113 140l-113 -140h-297l292 342h236z" glyph-name="Hcircumflex" horiz-adv-x="1422"/>
<glyph unicode="ĥ" d="M448 0h-322v1460h322v-531q47 60 119 95.5t153 35.5q89 0 163.5 -30.5t128.5 -85t84 -130t30 -165.5v-649h-322v606q0 34 -11.5 65t-33.5 55t-54 38t-74 14q-28 0 -55 -9.5t-51 -26t-43.5 -37.5t-33.5 -44v-661zM404 1910l292 -342h-297l-113 140l-113 -140h-297l292 342 h236z" glyph-name="hcircumflex" horiz-adv-x="1232"/>
<glyph unicode="Ħ" d="M155 1022h-120v197h120v181h332v-181h464v181h332v-181h120v-197h-120v-1022h-332v566h-464v-566h-332v1022zM951 842v180h-464v-180h464z" glyph-name="Hbar" horiz-adv-x="1438"/>
<glyph unicode="ħ" d="M20 1327h131v133h322v-133h272v-182h-272v-216q47 60 119 95.5t153 35.5q89 0 163.5 -30.5t128.5 -85t84 -130t30 -165.5v-649h-322v606q0 34 -11.5 65t-33.5 55t-54 38t-74 14q-28 0 -55 -9.5t-51 -26t-43.5 -37.5t-33.5 -44v-661h-322v1145h-131v182z" glyph-name="hbar" horiz-adv-x="1257"/>
<glyph unicode="Ĩ" d="M484 1400v-1400h-332v1400h332zM329 1555q-26 14 -49 25t-42 11t-33 -17t-22 -55l-247 48q42 236 220 236q42 0 80.5 -13t69.5 -30q26 -14 49 -24.5t43 -10.5q19 0 32.5 16.5t21.5 54.5l248 -48q-42 -236 -221 -236q-41 0 -79.5 13t-70.5 30z" glyph-name="Itilde" horiz-adv-x="636"/>
<glyph unicode="ĩ" d="M127 1036h322v-1036h-322v1036zM299 1226q-26 14 -49 25t-42 11t-33 -17t-22 -55l-247 48q42 236 220 236q42 0 80.5 -13t69.5 -30q26 -14 49 -24.5t43 -10.5q19 0 32.5 16.5t21.5 54.5l248 -48q-42 -236 -221 -236q-41 0 -79.5 13t-70.5 30z" glyph-name="itilde" horiz-adv-x="576"/>
<glyph unicode="Ī" d="M484 1400v-1400h-332v1400h332zM-2 1779h640v-236h-640v236z" glyph-name="Imacron" horiz-adv-x="636"/>
<glyph unicode="ī" d="M127 1036h322v-1036h-322v1036zM-32 1455h640v-236h-640v236z" glyph-name="imacron" horiz-adv-x="576"/>
<glyph unicode="Ĭ" d="M484 1400v-1400h-332v1400h332zM318 1488q-72 0 -137.5 23t-115.5 64.5t-81 99.5t-34 127h257q2 -48 33.5 -79.5t77.5 -31.5t77.5 31.5t33.5 79.5h257q-3 -69 -34 -127t-81 -99.5t-115.5 -64.5t-137.5 -23z" glyph-name="Ibreve" horiz-adv-x="636"/>
<glyph unicode="ĭ" d="M127 1036h322v-1036h-322v1036zM288 1164q-72 0 -137.5 23t-115.5 64.5t-81 99.5t-34 127h257q2 -48 33.5 -79.5t77.5 -31.5t77.5 31.5t33.5 79.5h257q-3 -69 -34 -127t-81 -99.5t-115.5 -64.5t-137.5 -23z" glyph-name="ibreve" horiz-adv-x="576"/>
<glyph unicode="Į" d="M152 0v1400h332v-1400q-33 -27 -62 -54.5t-50.5 -54.5t-33.5 -54t-12 -54q0 -35 23 -56t58 -21q23 0 43.5 6t37.5 17l58 -138q-37 -24 -83.5 -36.5t-95.5 -12.5q-56 0 -104.5 16t-84 43.5t-56 65.5t-20.5 83q0 36 13.5 70t36.5 66t55 61t68 53h-123z" glyph-name="Iogonek" horiz-adv-x="636"/>
<glyph unicode="į" d="M127 1036h322v-1036q-33 -27 -62 -54.5t-50.5 -54.5t-33.5 -54t-12 -54q0 -35 23 -56t58 -21q23 0 43.5 6t37.5 17l58 -138q-37 -24 -83.5 -36.5t-95.5 -12.5q-56 0 -104.5 16t-84 43.5t-56 65.5t-20.5 83q0 36 13.5 70t36.5 66t55 61t68 53h-113v1036zM104 1307 q0 37 14 69t39 55.5t58.5 37t72.5 13.5t72.5 -13.5t58.5 -37t39 -55.5t14 -69t-14 -69t-39 -55.5t-58.5 -37t-72.5 -13.5t-72.5 13.5t-58.5 37t-39 55.5t-14 69z" glyph-name="iogonek" horiz-adv-x="576"/>
<glyph unicode="İ" d="M484 1400v-1400h-332v1400h332zM151 1664q0 35 13 65t35.5 52t53 35t65.5 13t65.5 -13t53 -35t35.5 -52t13 -65q0 -34 -13 -64.5t-35.5 -52.5t-53 -35t-65.5 -13t-65.5 13t-53 35t-35.5 52.5t-13 64.5z" glyph-name="Idotaccent" horiz-adv-x="636"/>
<glyph unicode="ı" d="M127 1036h322v-1036h-322v1036z" glyph-name="dotlessi" horiz-adv-x="576"/>
<glyph unicode="Ĳ" d="M484 1400v-1400h-332v1400h332zM1066 1400h332v-954q0 -115 -31 -202.5t-90.5 -147t-146 -90t-196.5 -30.5q-85 0 -167.5 19t-143.5 54l87 270q37 -23 85.5 -39t94.5 -16q82 0 129 49.5t47 152.5v934z" glyph-name="IJ" horiz-adv-x="1533"/>
<glyph unicode="ĳ" d="M127 1036h322v-1036h-322v1036zM104 1307q0 37 14 69t39 55.5t58.5 37t72.5 13.5t72.5 -13.5t58.5 -37t39 -55.5t14 -69t-14 -69t-39 -55.5t-58.5 -37t-72.5 -13.5t-72.5 13.5t-58.5 37t-39 55.5t-14 69zM703 1036h322v-1140q0 -176 -97 -268t-273 -92q-29 0 -61 3t-54 8 v267h55q54 0 81 26.5t27 87.5v1108zM680 1307q0 37 14 69t39 55.5t58.5 37t72.5 13.5t72.5 -13.5t58.5 -37t39 -55.5t14 -69t-14 -69t-39 -55.5t-58.5 -37t-72.5 -13.5t-72.5 13.5t-58.5 37t-39 55.5t-14 69z" glyph-name="ij" horiz-adv-x="1152"/>
<glyph unicode="Ĵ" d="M470 1400h332v-954q0 -115 -31 -202.5t-90.5 -147t-146 -90t-196.5 -30.5q-85 0 -167.5 19t-143.5 54l87 270q37 -23 85.5 -39t94.5 -16q82 0 129 49.5t47 152.5v934zM755 1850l292 -342h-297l-113 140l-113 -140h-297l292 342h236z" glyph-name="Jcircumflex" horiz-adv-x="937"/>
<glyph unicode="ĵ" d="M127 1036h322v-1140q0 -176 -97 -268t-273 -92q-29 0 -61 3t-54 8v267h55q54 0 81 26.5t27 87.5v1108zM406 1526l292 -342h-297l-113 140l-113 -140h-297l292 342h236z" glyph-name="jcircumflex" horiz-adv-x="576"/>
<glyph unicode="Ķ" d="M479 852h74l307 548h358l-391 -687l466 -713h-362l-368 566h-84v-566h-332v1400h332v-548zM368 -470l156 342h333l-198 -342h-291z" glyph-name="Kcommaaccent" horiz-adv-x="1263"/>
<glyph unicode="ķ" d="M521 428h-73v-428h-322v1460h322v-756h78l184 332h352l-278 -472l314 -564h-350zM255 -470l156 342h333l-198 -342h-291z" glyph-name="kcommaaccent" horiz-adv-x="1106"/>
<glyph unicode="ĸ" d="M521 428h-73v-428h-322v1036h322v-332h78l184 332h352l-278 -472l314 -564h-350z" glyph-name="kgreenlandic" horiz-adv-x="1106"/>
<glyph unicode="Ĺ" d="M147 1400h332v-1114h538v-286h-870v1400zM397 1850h323l-271 -342h-302z" glyph-name="Lacute" horiz-adv-x="1047"/>
<glyph unicode="ĺ" d="M127 1460h322v-1460h-322v1460zM326 1910h323l-271 -342h-302z" glyph-name="lacute" horiz-adv-x="576"/>
<glyph unicode="Ļ" d="M147 1400h332v-1114h538v-286h-870v1400zM288 -470l156 342h333l-198 -342h-291z" glyph-name="Lcommaaccent" horiz-adv-x="1047"/>
<glyph unicode="ļ" d="M127 1460h322v-1460h-322v1460zM-10 -470l156 342h333l-198 -342h-291z" glyph-name="lcommaaccent" horiz-adv-x="576"/>
<glyph unicode="Ľ" d="M147 1400h332v-1114h538v-286h-870v1400zM636 1247q0 38 13.5 70t37.5 56t56.5 37.5t70.5 13.5t70.5 -13.5t56.5 -37.5t37.5 -56t13.5 -70q0 -22 -5.5 -42.5t-15.5 -41.5l-148 -308h-188l111 232q-49 20 -79.5 61.5t-30.5 98.5z" glyph-name="Lcaron" horiz-adv-x="1047"/>
<glyph unicode="ľ" d="M127 1460h322v-1460h-322v1460zM555 1307q0 38 13.5 70t37.5 56t56.5 37.5t70.5 13.5t70.5 -13.5t56.5 -37.5t37.5 -56t13.5 -70q0 -22 -5.5 -42.5t-15.5 -41.5l-148 -308h-188l111 232q-49 20 -79.5 61.5t-30.5 98.5z" glyph-name="lcaron" horiz-adv-x="941"/>
<glyph unicode="Ŀ" d="M147 1400h332v-1114h538v-286h-870v1400zM624 772q0 35 13 65t35.5 52t53 35t65.5 13t65.5 -13t53 -35t35.5 -52t13 -65q0 -34 -13 -64.5t-35.5 -52.5t-53 -35t-65.5 -13t-65.5 13t-53 35t-35.5 52.5t-13 64.5z" glyph-name="Ldot" horiz-adv-x="1047"/>
<glyph unicode="ŀ" d="M127 1460h322v-1460h-322v1460zM549 752q0 35 13 65t35.5 52t53 35t65.5 13t65.5 -13t53 -35t35.5 -52t13 -65q0 -34 -13 -64.5t-35.5 -52.5t-53 -35t-65.5 -13t-65.5 13t-53 35t-35.5 52.5t-13 64.5z" glyph-name="ldot" horiz-adv-x="913"/>
<glyph unicode="Ł" d="M172 496l-137 -70v223l137 70v681h332v-511l305 157v-223l-305 -157v-380h538v-286h-870v496z" glyph-name="Lslash" horiz-adv-x="1072"/>
<glyph unicode="ł" d="M628 802l-143 -71v-731h-322v575l-143 -69v212l143 69v673h322v-517l143 71v-212z" glyph-name="lslash" horiz-adv-x="648"/>
<glyph unicode="Ń" d="M147 1400h348l472 -892v892h308v-1400h-348l-472 892v-892h-308v1400zM763 1850h323l-271 -342h-302z" glyph-name="Nacute" horiz-adv-x="1422"/>
<glyph unicode="ń" d="M448 0h-322v1036h322v-107q47 60 119 95.5t153 35.5q89 0 163.5 -30.5t128.5 -85t84 -130t30 -165.5v-649h-322v606q0 34 -11.5 65t-33.5 55t-54 38t-74 14q-28 0 -55 -9.5t-51 -26t-43.5 -37.5t-33.5 -44v-661zM673 1526h323l-271 -342h-302z" glyph-name="nacute" horiz-adv-x="1232"/>
<glyph unicode="Ņ" d="M147 1400h348l472 -892v892h308v-1400h-348l-472 892v-892h-308v1400zM429 -470l156 342h333l-198 -342h-291z" glyph-name="Ncommaaccent" horiz-adv-x="1422"/>
<glyph unicode="ņ" d="M448 0h-322v1036h322v-107q47 60 119 95.5t153 35.5q89 0 163.5 -30.5t128.5 -85t84 -130t30 -165.5v-649h-322v606q0 34 -11.5 65t-33.5 55t-54 38t-74 14q-28 0 -55 -9.5t-51 -26t-43.5 -37.5t-33.5 -44v-661zM336 -470l156 342h333l-198 -342h-291z" glyph-name="ncommaaccent" horiz-adv-x="1232"/>
<glyph unicode="Ň" d="M147 1400h348l472 -892v892h308v-1400h-348l-472 892v-892h-308v1400zM593 1508l-292 342h297l113 -140l113 140h297l-292 -342h-236z" glyph-name="Ncaron" horiz-adv-x="1422"/>
<glyph unicode="ň" d="M448 0h-322v1036h322v-107q47 60 119 95.5t153 35.5q89 0 163.5 -30.5t128.5 -85t84 -130t30 -165.5v-649h-322v606q0 34 -11.5 65t-33.5 55t-54 38t-74 14q-28 0 -55 -9.5t-51 -26t-43.5 -37.5t-33.5 -44v-661zM491 1164l-292 342h297l113 -140l113 140h297l-292 -342 h-236z" glyph-name="ncaron" horiz-adv-x="1232"/>
<glyph unicode="ŉ" d="M709 0h-322v1036h322v-107q47 60 119 95.5t153 35.5q89 0 163.5 -30.5t128.5 -85t84 -130t30 -165.5v-649h-322v606q0 34 -11.5 65t-33.5 55t-54 38t-74 14q-28 0 -55 -9.5t-51 -26t-43.5 -37.5t-33.5 -44v-661zM41 1307q0 38 13.5 70t37.5 56t56.5 37.5t70.5 13.5 t70.5 -13.5t56.5 -37.5t37.5 -56t13.5 -70q0 -22 -5.5 -42.5t-15.5 -41.5l-148 -308h-188l111 232q-49 20 -79.5 61.5t-30.5 98.5z" glyph-name="napostrophe" horiz-adv-x="1493"/>
<glyph unicode="Ŋ" d="M967 10l-512 892v-902h-308v1400h315l505 -877v877h308v-1501q0 -177 -109 -270t-312 -93q-31 0 -62.5 3.5t-55.5 8.5v242q21 -3 48 -4.5t50 -1.5q70 0 101.5 30t31.5 90v106z" glyph-name="Eng" horiz-adv-x="1422"/>
<glyph unicode="ŋ" d="M1126 -101q0 -176 -110 -269.5t-312 -93.5q-34 0 -69.5 3.5t-58.5 8.5v242q18 -3 45 -4.5t50 -1.5q70 0 101.5 30t31.5 90v702q0 34 -11.5 65t-33.5 55t-54 38t-74 14q-28 0 -55 -9.5t-51 -26t-43.5 -37.5t-33.5 -44v-661h-322v1036h322v-107q47 60 119 95.5t153 35.5 q89 0 163.5 -30.5t128.5 -85t84 -130t30 -165.5v-750z" glyph-name="eng" horiz-adv-x="1232"/>
<glyph unicode="Ō" d="M408 700q0 -93 32.5 -172.5t89.5 -138t134 -92t166 -33.5t166 33.5t134 92t89.5 138t32.5 172.5t-32.5 173t-89.5 138.5t-134 91.5t-166 33t-166 -33t-134 -91.5t-89.5 -138.5t-32.5 -173zM74 700q0 153 58 285.5t159.5 230t240 153t298.5 55.5q161 0 299 -55.5 t239.5 -153t159.5 -230t58 -285.5t-58 -285t-159.5 -229.5t-239.5 -153.5t-299 -56q-160 0 -298.5 56t-240 153.5t-159.5 229.5t-58 285zM510 1779h640v-236h-640v236z" glyph-name="Omacron" horiz-adv-x="1660"/>
<glyph unicode="ō" d="M61 518q0 114 44 213t122 172t184 115t230 42t230 -42t184 -115t122 -172t44 -213t-44 -213t-122 -172t-184 -115t-230 -42t-230 42t-184 115t-122 172t-44 213zM380 518q0 -55 20 -102.5t55 -82.5t82.5 -55t103.5 -20t103.5 20t82.5 55t55 82.5t20 102.5t-20 102.5 t-55 82.5t-82.5 55t-103.5 20t-103.5 -20t-82.5 -55t-55 -82.5t-20 -102.5zM321 1455h640v-236h-640v236z" glyph-name="omacron" horiz-adv-x="1282"/>
<glyph unicode="Ŏ" d="M408 700q0 -93 32.5 -172.5t89.5 -138t134 -92t166 -33.5t166 33.5t134 92t89.5 138t32.5 172.5t-32.5 173t-89.5 138.5t-134 91.5t-166 33t-166 -33t-134 -91.5t-89.5 -138.5t-32.5 -173zM74 700q0 153 58 285.5t159.5 230t240 153t298.5 55.5q161 0 299 -55.5 t239.5 -153t159.5 -230t58 -285.5t-58 -285t-159.5 -229.5t-239.5 -153.5t-299 -56q-160 0 -298.5 56t-240 153.5t-159.5 229.5t-58 285zM830 1488q-72 0 -137.5 23t-115.5 64.5t-81 99.5t-34 127h257q2 -48 33.5 -79.5t77.5 -31.5t77.5 31.5t33.5 79.5h257q-3 -69 -34 -127 t-81 -99.5t-115.5 -64.5t-137.5 -23z" glyph-name="Obreve" horiz-adv-x="1660"/>
<glyph unicode="ŏ" d="M61 518q0 114 44 213t122 172t184 115t230 42t230 -42t184 -115t122 -172t44 -213t-44 -213t-122 -172t-184 -115t-230 -42t-230 42t-184 115t-122 172t-44 213zM380 518q0 -55 20 -102.5t55 -82.5t82.5 -55t103.5 -20t103.5 20t82.5 55t55 82.5t20 102.5t-20 102.5 t-55 82.5t-82.5 55t-103.5 20t-103.5 -20t-82.5 -55t-55 -82.5t-20 -102.5zM641 1164q-72 0 -137.5 23t-115.5 64.5t-81 99.5t-34 127h257q2 -48 33.5 -79.5t77.5 -31.5t77.5 31.5t33.5 79.5h257q-3 -69 -34 -127t-81 -99.5t-115.5 -64.5t-137.5 -23z" glyph-name="obreve" horiz-adv-x="1282"/>
<glyph unicode="Ő" d="M408 700q0 -93 32.5 -172.5t89.5 -138t134 -92t166 -33.5t166 33.5t134 92t89.5 138t32.5 172.5t-32.5 173t-89.5 138.5t-134 91.5t-166 33t-166 -33t-134 -91.5t-89.5 -138.5t-32.5 -173zM74 700q0 153 58 285.5t159.5 230t240 153t298.5 55.5q161 0 299 -55.5 t239.5 -153t159.5 -230t58 -285.5t-58 -285t-159.5 -229.5t-239.5 -153.5t-299 -56q-160 0 -298.5 56t-240 153.5t-159.5 229.5t-58 285zM718 1850h288l-266 -342h-272zM1086 1850h289l-266 -342h-272z" glyph-name="Ohungarumlaut" horiz-adv-x="1660"/>
<glyph unicode="ő" d="M61 518q0 114 44 213t122 172t184 115t230 42t230 -42t184 -115t122 -172t44 -213t-44 -213t-122 -172t-184 -115t-230 -42t-230 42t-184 115t-122 172t-44 213zM380 518q0 -55 20 -102.5t55 -82.5t82.5 -55t103.5 -20t103.5 20t82.5 55t55 82.5t20 102.5t-20 102.5 t-55 82.5t-82.5 55t-103.5 20t-103.5 -20t-82.5 -55t-55 -82.5t-20 -102.5zM514 1526h288l-266 -342h-272zM882 1526h289l-266 -342h-272z" glyph-name="ohungarumlaut" horiz-adv-x="1282"/>
<glyph unicode="Œ" d="M830 0q-158 0 -296 54t-240 148.5t-161 222t-59 275.5t59 275.5t161 222t240 148.5t296 54h887v-280h-550v-278h502v-276h-502v-286h568v-280h-905zM840 1114h-10q-90 0 -167.5 -31.5t-134.5 -87t-89.5 -131t-32.5 -164.5t32.5 -164.5t89.5 -131t134.5 -87t167.5 -31.5 h10v828z" glyph-name="OE" horiz-adv-x="1830"/>
<glyph unicode="œ" d="M61 518q0 114 44 213t122 172t184 115t230 42q72 0 139 -17.5t126 -48.5t108.5 -74.5t85.5 -94.5q35 51 83 94t105.5 74.5t124 49t136.5 17.5q119 0 219.5 -41t173.5 -112.5t114 -167t41 -204.5q0 -26 -4 -54.5t-11 -51.5h-779q9 -49 32 -88t57.5 -66.5t79.5 -42 t97 -14.5q79 0 150 33t130 90l174 -177q-86 -94 -202.5 -141t-255.5 -47q-76 0 -145.5 17t-128.5 48t-107.5 74t-84.5 95q-36 -51 -85.5 -94t-108.5 -74t-125.5 -48.5t-138.5 -17.5q-124 0 -230 42t-184 115t-122 172t-44 213zM380 518q0 -55 20 -102.5t55 -82.5t82.5 -55 t103.5 -20t103.5 20t82.5 55t55 82.5t20 102.5t-20 102.5t-55 82.5t-82.5 55t-103.5 20t-103.5 -20t-82.5 -55t-55 -82.5t-20 -102.5zM1545 818q-88 0 -151 -49t-85 -137h461q-20 86 -77.5 136t-147.5 50z" glyph-name="oe" horiz-adv-x="2158"/>
<glyph unicode="Ŕ" d="M665 1400q110 0 201 -33t156 -93t101 -144t36 -186q0 -74 -19 -138.5t-55 -117t-87.5 -92.5t-116.5 -64l315 -532h-360l-278 488h-83v-488h-328v1400h518zM475 1136v-398h156q48 0 85 15t62.5 41.5t39 63t13.5 79.5q0 91 -53 145t-147 54h-156zM647 1850h323l-271 -342 h-302z" glyph-name="Racute" horiz-adv-x="1241"/>
<glyph unicode="ŕ" d="M659 778q-66 0 -121 -38.5t-90 -104.5v-635h-322v1036h322v-122q42 63 105.5 104.5t144.5 41.5q27 0 51.5 -6.5t42.5 -17.5l-20 -280q-26 10 -56 16t-57 6zM446 1526h323l-271 -342h-302z" glyph-name="racute" horiz-adv-x="840"/>
<glyph unicode="Ŗ" d="M665 1400q110 0 201 -33t156 -93t101 -144t36 -186q0 -74 -19 -138.5t-55 -117t-87.5 -92.5t-116.5 -64l315 -532h-360l-278 488h-83v-488h-328v1400h518zM475 1136v-398h156q48 0 85 15t62.5 41.5t39 63t13.5 79.5q0 91 -53 145t-147 54h-156zM321 -470l156 342h333 l-198 -342h-291z" glyph-name="Rcommaaccent" horiz-adv-x="1241"/>
<glyph unicode="ŗ" d="M659 778q-66 0 -121 -38.5t-90 -104.5v-635h-322v1036h322v-122q42 63 105.5 104.5t144.5 41.5q27 0 51.5 -6.5t42.5 -17.5l-20 -280q-26 10 -56 16t-57 6zM-11 -470l156 342h333l-198 -342h-291z" glyph-name="rcommaaccent" horiz-adv-x="840"/>
<glyph unicode="Ř" d="M665 1400q110 0 201 -33t156 -93t101 -144t36 -186q0 -74 -19 -138.5t-55 -117t-87.5 -92.5t-116.5 -64l315 -532h-360l-278 488h-83v-488h-328v1400h518zM475 1136v-398h156q48 0 85 15t62.5 41.5t39 63t13.5 79.5q0 91 -53 145t-147 54h-156zM485 1508l-292 342h297 l113 -140l113 140h297l-292 -342h-236z" glyph-name="Rcaron" horiz-adv-x="1241"/>
<glyph unicode="ř" d="M659 778q-66 0 -121 -38.5t-90 -104.5v-635h-322v1036h322v-122q42 63 105.5 104.5t144.5 41.5q27 0 51.5 -6.5t42.5 -17.5l-20 -280q-26 10 -56 16t-57 6zM296 1164l-292 342h297l113 -140l113 140h297l-292 -342h-236z" glyph-name="rcaron" horiz-adv-x="840"/>
<glyph unicode="Ś" d="M262 422q35 -37 76 -67.5t85 -53t91 -35t95 -12.5q40 0 75 10.5t60.5 29t40.5 45t15 58.5q0 30 -11.5 57t-40.5 51t-80 45t-130 38q-99 21 -178 59t-133.5 90.5t-83.5 119.5t-29 148q0 90 35.5 167t98.5 133t150.5 87.5t191.5 31.5q140 0 260.5 -47.5t211.5 -130.5 l-168 -230q-67 58 -139.5 96t-150.5 38q-33 0 -61.5 -9t-49.5 -24.5t-33 -37.5t-12 -48q0 -29 11.5 -54.5t39.5 -48t74 -41t115 -34.5q446 -103 446 -440q0 -94 -36.5 -174t-104.5 -138.5t-165 -91.5t-218 -33q-160 0 -295.5 59t-230.5 165zM629 1850h323l-271 -342h-302z " glyph-name="Sacute" horiz-adv-x="1200"/>
<glyph unicode="ś" d="M202 338q48 -54 116 -86t143 -32q60 0 93 22.5t33 60.5t-35 63.5t-124 44.5q-165 35 -250 121t-85 217q0 68 28 125t79 98t121.5 64.5t155.5 23.5q108 0 205.5 -39.5t172.5 -102.5l-142 -190q-48 39 -98.5 63.5t-107.5 24.5q-47 0 -75.5 -19t-28.5 -52q0 -35 33.5 -62.5 t111.5 -43.5q179 -37 264 -122t85 -216q0 -70 -29.5 -129.5t-83 -103t-129 -68t-168.5 -24.5q-133 0 -246 45.5t-186 126.5zM502 1526h323l-271 -342h-302z" glyph-name="sacute" horiz-adv-x="953"/>
<glyph unicode="Ŝ" d="M262 422q35 -37 76 -67.5t85 -53t91 -35t95 -12.5q40 0 75 10.5t60.5 29t40.5 45t15 58.5q0 30 -11.5 57t-40.5 51t-80 45t-130 38q-99 21 -178 59t-133.5 90.5t-83.5 119.5t-29 148q0 90 35.5 167t98.5 133t150.5 87.5t191.5 31.5q140 0 260.5 -47.5t211.5 -130.5 l-168 -230q-67 58 -139.5 96t-150.5 38q-33 0 -61.5 -9t-49.5 -24.5t-33 -37.5t-12 -48q0 -29 11.5 -54.5t39.5 -48t74 -41t115 -34.5q446 -103 446 -440q0 -94 -36.5 -174t-104.5 -138.5t-165 -91.5t-218 -33q-160 0 -295.5 59t-230.5 165zM715 1850l292 -342h-297 l-113 140l-113 -140h-297l292 342h236z" glyph-name="Scircumflex" horiz-adv-x="1200"/>
<glyph unicode="ŝ" d="M202 338q48 -54 116 -86t143 -32q60 0 93 22.5t33 60.5t-35 63.5t-124 44.5q-165 35 -250 121t-85 217q0 68 28 125t79 98t121.5 64.5t155.5 23.5q108 0 205.5 -39.5t172.5 -102.5l-142 -190q-48 39 -98.5 63.5t-107.5 24.5q-47 0 -75.5 -19t-28.5 -52q0 -35 33.5 -62.5 t111.5 -43.5q179 -37 264 -122t85 -216q0 -70 -29.5 -129.5t-83 -103t-129 -68t-168.5 -24.5q-133 0 -246 45.5t-186 126.5zM584 1526l292 -342h-297l-113 140l-113 -140h-297l292 342h236z" glyph-name="scircumflex" horiz-adv-x="953"/>
<glyph unicode="Ş" d="M644 -300q0 29 -24.5 46.5t-65.5 17.5q-16 0 -32 -1t-30 -3l-54 59l86 162q-134 14 -246.5 71t-193.5 148l178 222q35 -37 76 -67.5t85 -53t91 -35t95 -12.5q40 0 75 10.5t60.5 29t40.5 45t15 58.5q0 30 -11.5 57t-40.5 51t-80 45t-130 38q-99 21 -178 59t-133.5 90.5 t-83.5 119.5t-29 148q0 90 35.5 167t98.5 133t150.5 87.5t191.5 31.5q140 0 260.5 -47.5t211.5 -130.5l-168 -230q-67 58 -139.5 96t-150.5 38q-33 0 -61.5 -9t-49.5 -24.5t-33 -37.5t-12 -48q0 -29 11.5 -54.5t39.5 -48t74 -41t115 -34.5q446 -103 446 -440 q0 -80 -26.5 -150t-76.5 -125t-121.5 -93.5t-161.5 -55.5l-65 -98q81 -22 130.5 -74t49.5 -121q0 -46 -22.5 -85.5t-62.5 -68.5t-94.5 -45.5t-117.5 -16.5q-58 0 -115 15.5t-101 48.5l86 129q23 -17 56 -27t62 -10q41 0 65.5 17.5t24.5 46.5z" glyph-name="Scedilla" horiz-adv-x="1200"/>
<glyph unicode="ş" d="M504 -300q0 29 -24.5 46.5t-65.5 17.5q-16 0 -32 -1t-30 -3l-54 59l87 165q-102 14 -186.5 56.5t-143.5 107.5l147 190q48 -54 116 -86t143 -32q60 0 93 22.5t33 60.5t-35 63.5t-124 44.5q-165 35 -250 121t-85 217q0 68 28 125t79 98t121.5 64.5t155.5 23.5 q108 0 205.5 -39.5t172.5 -102.5l-142 -190q-48 39 -98.5 63.5t-107.5 24.5q-47 0 -75.5 -19t-28.5 -52q0 -35 33.5 -62.5t111.5 -43.5q179 -37 264 -122t85 -216q0 -58 -20 -108.5t-57.5 -91t-91 -69.5t-120.5 -43l-65 -98q81 -22 130.5 -74t49.5 -121q0 -46 -22.5 -85.5 t-62.5 -68.5t-94.5 -45.5t-117.5 -16.5q-58 0 -115 15.5t-101 48.5l86 129q23 -17 56 -27t62 -10q41 0 65.5 17.5t24.5 46.5z" glyph-name="scedilla" horiz-adv-x="953"/>
<glyph unicode="Š" d="M262 422q35 -37 76 -67.5t85 -53t91 -35t95 -12.5q40 0 75 10.5t60.5 29t40.5 45t15 58.5q0 30 -11.5 57t-40.5 51t-80 45t-130 38q-99 21 -178 59t-133.5 90.5t-83.5 119.5t-29 148q0 90 35.5 167t98.5 133t150.5 87.5t191.5 31.5q140 0 260.5 -47.5t211.5 -130.5 l-168 -230q-67 58 -139.5 96t-150.5 38q-33 0 -61.5 -9t-49.5 -24.5t-33 -37.5t-12 -48q0 -29 11.5 -54.5t39.5 -48t74 -41t115 -34.5q446 -103 446 -440q0 -94 -36.5 -174t-104.5 -138.5t-165 -91.5t-218 -33q-160 0 -295.5 59t-230.5 165zM469 1508l-292 342h297l113 -140 l113 140h297l-292 -342h-236z" glyph-name="Scaron" horiz-adv-x="1200"/>
<glyph unicode="š" d="M202 338q48 -54 116 -86t143 -32q60 0 93 22.5t33 60.5t-35 63.5t-124 44.5q-165 35 -250 121t-85 217q0 68 28 125t79 98t121.5 64.5t155.5 23.5q108 0 205.5 -39.5t172.5 -102.5l-142 -190q-48 39 -98.5 63.5t-107.5 24.5q-47 0 -75.5 -19t-28.5 -52q0 -35 33.5 -62.5 t111.5 -43.5q179 -37 264 -122t85 -216q0 -70 -29.5 -129.5t-83 -103t-129 -68t-168.5 -24.5q-133 0 -246 45.5t-186 126.5zM348 1164l-292 342h297l113 -140l113 140h297l-292 -342h-236z" glyph-name="scaron" horiz-adv-x="953"/>
<glyph unicode="Ţ" d="M393 1114h-343v286h1018v-286h-343v-1114l-73 -109q81 -22 130.5 -74t49.5 -121q0 -46 -22.5 -85.5t-62.5 -68.5t-94.5 -45.5t-117.5 -16.5q-58 0 -115 15.5t-101 48.5l86 129q23 -17 56 -27t62 -10q41 0 65.5 17.5t24.5 46.5t-24.5 46.5t-65.5 17.5q-16 0 -32 -1t-30 -3 l-54 59l96 181h-110v1114z" glyph-name="Tcommaaccent" horiz-adv-x="1118"/>
<glyph unicode="ţ" d="M451 -300q0 29 -24.5 46.5t-65.5 17.5q-16 0 -32 -1t-30 -3l-54 59l110 207q-79 45 -121 124.5t-42 191.5v416h-150v278h150v272l322 28v-300h227v-278h-227v-383q0 -62 31 -91.5t102 -29.5q26 0 55.5 1.5t50.5 4.5v-263q-31 -10 -79 -15.5t-98 -5.5h-15.5t-13.5 1 l-57 -86q81 -22 130.5 -74t49.5 -121q0 -46 -22.5 -85.5t-62.5 -68.5t-94.5 -45.5t-117.5 -16.5q-58 0 -115 15.5t-101 48.5l86 129q23 -17 56 -27t62 -10q41 0 65.5 17.5t24.5 46.5z" glyph-name="tcommaaccent" horiz-adv-x="802"/>
<glyph unicode="Ť" d="M393 1114h-343v286h1018v-286h-343v-1114h-332v1114zM441 1508l-292 342h297l113 -140l113 140h297l-292 -342h-236z" glyph-name="Tcaron" horiz-adv-x="1118"/>
<glyph unicode="ť" d="M514 375q0 -62 31 -91.5t102 -29.5q26 0 55.5 1.5t50.5 4.5v-263q-31 -10 -79 -15.5t-98 -5.5q-91 0 -162.5 24.5t-120.5 71.5t-75 115t-26 155v416h-150v278h150v272l322 28v-300h227v-278h-227v-383zM792 1307q0 38 13.5 70t37.5 56t56.5 37.5t70.5 13.5t70.5 -13.5 t56.5 -37.5t37.5 -56t13.5 -70q0 -22 -5.5 -42.5t-15.5 -41.5l-148 -308h-188l111 232q-49 20 -79.5 61.5t-30.5 98.5z" glyph-name="tcaron" horiz-adv-x="1178"/>
<glyph unicode="Ŧ" d="M725 579v-579h-332v579h-219v207h219v328h-343v286h1018v-286h-343v-328h219v-207h-219z" glyph-name="Tbar" horiz-adv-x="1118"/>
<glyph unicode="ŧ" d="M68 612h124v166h-150v258h150v272l322 28v-300h227v-258h-227v-166h184v-182h-184v-75q0 -61 31.5 -91t101.5 -30q25 0 54 1.5t52 4.5v-243q-35 -9 -88.5 -14.5t-104.5 -5.5q-86 0 -154 24t-115.5 69.5t-73 111.5t-25.5 150v98h-124v182z" glyph-name="tbar" horiz-adv-x="802"/>
<glyph unicode="Ũ" d="M1211 466q0 -107 -42 -197t-115 -154.5t-171 -100.5t-210 -36t-210 36t-171 100.5t-115 154.5t-42 197v934h332v-932q0 -45 16 -82.5t43.5 -64t65.5 -41t81 -14.5q44 0 81.5 14.5t65 41t43.5 64t16 82.5v932h332v-934zM684 1555q-26 14 -49 25t-42 11t-33 -17t-22 -55 l-247 48q42 236 220 236q42 0 80.5 -13t69.5 -30q26 -14 49 -24.5t43 -10.5q19 0 32.5 16.5t21.5 54.5l248 -48q-42 -236 -221 -236q-41 0 -79.5 13t-70.5 30z" glyph-name="Utilde" horiz-adv-x="1346"/>
<glyph unicode="ũ" d="M784 107q-47 -60 -119 -95.5t-153 -35.5q-88 0 -162.5 30.5t-128.5 85t-84.5 130t-30.5 165.5v649h322v-606q0 -34 11.5 -65t33.5 -55t54 -38t74 -14q28 0 55 9.5t51 26t44 37.5t33 44v661h322v-1036h-322v107zM612 1226q-26 14 -49 25t-42 11t-33 -17t-22 -55l-247 48 q42 236 220 236q42 0 80.5 -13t69.5 -30q26 -14 49 -24.5t43 -10.5q19 0 32.5 16.5t21.5 54.5l248 -48q-42 -236 -221 -236q-41 0 -79.5 13t-70.5 30z" glyph-name="utilde" horiz-adv-x="1232"/>
<glyph unicode="Ū" d="M1211 466q0 -107 -42 -197t-115 -154.5t-171 -100.5t-210 -36t-210 36t-171 100.5t-115 154.5t-42 197v934h332v-932q0 -45 16 -82.5t43.5 -64t65.5 -41t81 -14.5q44 0 81.5 14.5t65 41t43.5 64t16 82.5v932h332v-934zM353 1779h640v-236h-640v236z" glyph-name="Umacron" horiz-adv-x="1346"/>
<glyph unicode="ū" d="M784 107q-47 -60 -119 -95.5t-153 -35.5q-88 0 -162.5 30.5t-128.5 85t-84.5 130t-30.5 165.5v649h322v-606q0 -34 11.5 -65t33.5 -55t54 -38t74 -14q28 0 55 9.5t51 26t44 37.5t33 44v661h322v-1036h-322v107zM284 1455h640v-236h-640v236z" glyph-name="umacron" horiz-adv-x="1232"/>
<glyph unicode="Ŭ" d="M1211 466q0 -107 -42 -197t-115 -154.5t-171 -100.5t-210 -36t-210 36t-171 100.5t-115 154.5t-42 197v934h332v-932q0 -45 16 -82.5t43.5 -64t65.5 -41t81 -14.5q44 0 81.5 14.5t65 41t43.5 64t16 82.5v932h332v-934zM673 1488q-72 0 -137.5 23t-115.5 64.5t-81 99.5 t-34 127h257q2 -48 33.5 -79.5t77.5 -31.5t77.5 31.5t33.5 79.5h257q-3 -69 -34 -127t-81 -99.5t-115.5 -64.5t-137.5 -23z" glyph-name="Ubreve" horiz-adv-x="1346"/>
<glyph unicode="ŭ" d="M784 107q-47 -60 -119 -95.5t-153 -35.5q-88 0 -162.5 30.5t-128.5 85t-84.5 130t-30.5 165.5v649h322v-606q0 -34 11.5 -65t33.5 -55t54 -38t74 -14q28 0 55 9.5t51 26t44 37.5t33 44v661h322v-1036h-322v107zM601 1164q-72 0 -137.5 23t-115.5 64.5t-81 99.5t-34 127 h257q2 -48 33.5 -79.5t77.5 -31.5t77.5 31.5t33.5 79.5h257q-3 -69 -34 -127t-81 -99.5t-115.5 -64.5t-137.5 -23z" glyph-name="ubreve" horiz-adv-x="1232"/>
<glyph unicode="Ů" d="M1211 466q0 -107 -42 -197t-115 -154.5t-171 -100.5t-210 -36t-210 36t-171 100.5t-115 154.5t-42 197v934h332v-932q0 -45 16 -82.5t43.5 -64t65.5 -41t81 -14.5q44 0 81.5 14.5t65 41t43.5 64t16 82.5v932h332v-934zM610 1686q0 -26 17.5 -43.5t45.5 -17.5t45.5 17.5 t17.5 43.5t-17.5 43.5t-45.5 17.5t-45.5 -17.5t-17.5 -43.5zM437 1686q0 46 18 85t49.5 68t75 45.5t93.5 16.5t93.5 -16.5t75 -45.5t49.5 -68t18 -85t-18 -85.5t-49.5 -68.5t-75 -45.5t-93.5 -16.5t-93.5 16.5t-75 45.5t-49.5 68.5t-18 85.5z" glyph-name="Uring" horiz-adv-x="1346"/>
<glyph unicode="ů" d="M784 107q-47 -60 -119 -95.5t-153 -35.5q-88 0 -162.5 30.5t-128.5 85t-84.5 130t-30.5 165.5v649h322v-606q0 -34 11.5 -65t33.5 -55t54 -38t74 -14q28 0 55 9.5t51 26t44 37.5t33 44v661h322v-1036h-322v107zM533 1362q0 -26 17.5 -43.5t45.5 -17.5t45.5 17.5 t17.5 43.5t-17.5 43.5t-45.5 17.5t-45.5 -17.5t-17.5 -43.5zM360 1362q0 46 18 85t49.5 68t75 45.5t93.5 16.5t93.5 -16.5t75 -45.5t49.5 -68t18 -85t-18 -85.5t-49.5 -68.5t-75 -45.5t-93.5 -16.5t-93.5 16.5t-75 45.5t-49.5 68.5t-18 85.5z" glyph-name="uring" horiz-adv-x="1232"/>
<glyph unicode="Ű" d="M1211 466q0 -107 -42 -197t-115 -154.5t-171 -100.5t-210 -36t-210 36t-171 100.5t-115 154.5t-42 197v934h332v-932q0 -45 16 -82.5t43.5 -64t65.5 -41t81 -14.5q44 0 81.5 14.5t65 41t43.5 64t16 82.5v932h332v-934zM582 1888h288l-266 -342h-272zM950 1888h289 l-266 -342h-272z" glyph-name="Uhungarumlaut" horiz-adv-x="1346"/>
<glyph unicode="ű" d="M784 107q-47 -60 -119 -95.5t-153 -35.5q-88 0 -162.5 30.5t-128.5 85t-84.5 130t-30.5 165.5v649h322v-606q0 -34 11.5 -65t33.5 -55t54 -38t74 -14q28 0 55 9.5t51 26t44 37.5t33 44v661h322v-1036h-322v107zM519 1544h288l-266 -342h-272zM887 1544h289l-266 -342 h-272z" glyph-name="uhungarumlaut" horiz-adv-x="1232"/>
<glyph unicode="Ų" d="M1211 466q0 -88 -28.5 -164t-79.5 -136.5t-121 -103.5t-153 -64q-33 -27 -61.5 -54t-49 -54t-32.5 -54t-12 -53q0 -35 23 -56t58 -21q23 0 43.5 6t37.5 17l58 -138q-37 -24 -83.5 -36.5t-95.5 -12.5q-56 0 -104.5 16t-84 43.5t-56 65.5t-20.5 83q0 66 42 125.5t106 107.5 q-99 11 -183.5 51t-146.5 103.5t-97.5 147t-35.5 181.5v934h332v-932q0 -45 16 -82.5t43.5 -64t65.5 -41t81 -14.5q44 0 81.5 14.5t65 41t43.5 64t16 82.5v932h332v-934z" glyph-name="Uogonek" horiz-adv-x="1346"/>
<glyph unicode="ų" d="M784 107q-47 -60 -119 -95.5t-153 -35.5q-88 0 -162.5 30.5t-128.5 85t-84.5 130t-30.5 165.5v649h322v-606q0 -34 11.5 -65t33.5 -55t54 -38t74 -14q28 0 55 9.5t51 26t44 37.5t33 44v661h322v-1036q-33 -27 -62 -54.5t-50.5 -54.5t-33.5 -54t-12 -54q0 -35 23 -56 t58 -21q23 0 43.5 6t37.5 17l58 -138q-37 -24 -83.5 -36.5t-95.5 -12.5q-56 0 -104.5 16t-84 43.5t-56 65.5t-20.5 83q0 36 13.5 70t36.5 66t55 61t68 53h-113v107z" glyph-name="uogonek" horiz-adv-x="1232"/>
<glyph unicode="Ŵ" d="M1158 1400l236 -954l220 954h343l-378 -1400h-337l-250 951l-250 -951h-337l-378 1400h343l220 -954l236 954h332zM1110 1850l292 -342h-297l-113 140l-113 -140h-297l292 342h236z" glyph-name="Wcircumflex" horiz-adv-x="1984"/>
<glyph unicode="ŵ" d="M964 1036l151 -648l153 648h326l-304 -1036h-331l-153 604l-153 -604h-331l-304 1036h326l153 -648l151 648h316zM924 1526l292 -342h-297l-113 140l-113 -140h-297l292 342h236z" glyph-name="wcircumflex" horiz-adv-x="1612"/>
<glyph unicode="Ŷ" d="M658 864l272 536h359l-465 -846v-554h-332v554l-465 846h359zM776 1850l292 -342h-297l-113 140l-113 -140h-297l292 342h236z" glyph-name="Ycircumflex" horiz-adv-x="1316"/>
<glyph unicode="ŷ" d="M201 -464l187 464l-370 1036h336l191 -627l193 627h336l-536 -1500h-337zM663 1526l292 -342h-297l-113 140l-113 -140h-297l292 342h236z" glyph-name="ycircumflex" horiz-adv-x="1092"/>
<glyph unicode="Ÿ" d="M658 864l272 536h359l-465 -846v-554h-332v554l-465 846h359zM294 1664q0 34 12.5 63t34.5 50.5t51.5 34t63.5 12.5q35 0 64.5 -12.5t51 -34t34 -50.5t12.5 -63t-12.5 -63t-34 -50.5t-51 -34t-64.5 -12.5q-34 0 -63.5 12.5t-51.5 34t-34.5 50.5t-12.5 63zM698 1664 q0 34 12.5 63t34.5 50.5t51.5 34t63.5 12.5q35 0 64.5 -12.5t51 -34t34 -50.5t12.5 -63t-12.5 -63t-34 -50.5t-51 -34t-64.5 -12.5q-34 0 -63.5 12.5t-51.5 34t-34.5 50.5t-12.5 63z" glyph-name="Ydieresis" horiz-adv-x="1316"/>
<glyph unicode="Ź" d="M715 1114h-579v286h974v-266l-609 -848h629v-286h-1024v266zM639 1850h323l-271 -342h-302z" glyph-name="Zacute" horiz-adv-x="1226"/>
<glyph unicode="ź" d="M81 246l452 514h-426v276h820v-246l-452 -514h472v-276h-866v246zM537 1526h323l-271 -342h-302z" glyph-name="zacute" horiz-adv-x="1032"/>
<glyph unicode="Ż" d="M715 1114h-579v286h974v-266l-609 -848h629v-286h-1024v266zM453 1664q0 35 13 65t35.5 52t53 35t65.5 13t65.5 -13t53 -35t35.5 -52t13 -65q0 -34 -13 -64.5t-35.5 -52.5t-53 -35t-65.5 -13t-65.5 13t-53 35t-35.5 52.5t-13 64.5z" glyph-name="Zdotaccent" horiz-adv-x="1226"/>
<glyph unicode="ż" d="M81 246l452 514h-426v276h820v-246l-452 -514h472v-276h-866v246zM350 1340q0 35 13 65t35.5 52t53 35t65.5 13t65.5 -13t53 -35t35.5 -52t13 -65q0 -34 -13 -64.5t-35.5 -52.5t-53 -35t-65.5 -13t-65.5 13t-53 35t-35.5 52.5t-13 64.5z" glyph-name="zdotaccent" horiz-adv-x="1032"/>
<glyph unicode="Ž" d="M715 1114h-579v286h974v-266l-609 -848h629v-286h-1024v266zM495 1508l-292 342h297l113 -140l113 140h297l-292 -342h-236z" glyph-name="Zcaron" horiz-adv-x="1226"/>
<glyph unicode="ž" d="M81 246l452 514h-426v276h820v-246l-452 -514h472v-276h-866v246zM389 1164l-292 342h297l113 -140l113 140h297l-292 -342h-236z" glyph-name="zcaron" horiz-adv-x="1032"/>
<glyph unicode="ſ" d="M738 1206q-18 3 -45 4.5t-50 1.5q-70 0 -101.5 -30t-31.5 -90v-1092h-322v758h-146v278h146v61q0 176 110 269.5t312 93.5q34 0 69.5 -3.5t58.5 -8.5v-242z" glyph-name="longs" horiz-adv-x="770"/>
<glyph unicode="Ƒ" d="M479 -91q0 -87 -29 -156.5t-83 -117.5t-131.5 -73.5t-174.5 -25.5q-38 0 -76 3t-66 9v276q20 -3 45.5 -4.5t50.5 -1.5q132 0 132 125v1457h872v-284h-540v-300h492v-284h-492v-623z" glyph-name="uni0191" horiz-adv-x="1084"/>
<glyph unicode="ƒ" d="M510 -101q0 -176 -110 -269.5t-312 -93.5q-34 0 -69.5 3.5t-58.5 8.5v242q18 -3 45 -4.5t50 -1.5q70 0 101.5 30t31.5 90v854h-146v278h146v61q0 176 110 269.5t312 93.5q34 0 69.5 -3.5t58.5 -8.5v-242q-18 3 -45 4.5t-50 1.5q-70 0 -101.5 -30t-31.5 -90v-56h228v-278 h-228v-859z" glyph-name="florin" horiz-adv-x="780"/>
<glyph unicode="Ǻ" d="M459 1453q0 46 18 85t49.5 68t75 45.5t93.5 16.5t93.5 -16.5t75 -45.5t49.5 -68t18 -85q0 -35 -10.5 -65.5t-29.5 -56.5l472 -1331h-346l-91 292h-462l-91 -292h-346l471 1331q-39 53 -39 122zM695 1052l-155 -500h310zM541 1698l180 252h286l-199 -252h-267zM632 1453 q0 -26 17.5 -43.5t45.5 -17.5t45.5 17.5t17.5 43.5t-17.5 43.5t-45.5 17.5t-45.5 -17.5t-17.5 -43.5z" glyph-name="Aringacute" horiz-adv-x="1390"/>
<glyph unicode="ǻ" d="M569 1325q0 -27 18 -45t45 -18t45 18t18 45t-18 45t-45 18t-45 -18t-18 -45zM406 1325q0 44 17.5 82t47.5 66t71.5 44t89.5 16t89.5 -16t71.5 -44t47.5 -66t17.5 -82t-17.5 -82t-47.5 -66t-71.5 -44t-89.5 -16t-89.5 16t-71.5 44t-47.5 66t-17.5 82zM641 258 q80 0 142.5 39.5t93.5 105.5v229q-31 66 -93.5 106t-142.5 40q-56 0 -103.5 -20t-82.5 -55t-55 -82.5t-20 -102.5t20 -102.5t55 -82.5t82.5 -55t103.5 -20zM877 96q-60 -57 -141 -88.5t-171 -31.5q-108 0 -200 42.5t-159.5 116t-106 172.5t-38.5 211q0 113 38.5 211.5 t106 172t159.5 116t200 42.5q90 0 171 -31.5t141 -88.5v96h316v-1036h-316v96zM476 1568l188 262h285l-207 -262h-266z" glyph-name="aringacute" horiz-adv-x="1319"/>
<glyph unicode="Ǽ" d="M5 0l757 1400h1005v-280h-550v-278h502v-276h-502v-286h568v-280h-895v292h-385l-148 -292h-352zM634 552h256v500zM977 1850h323l-271 -342h-302z" glyph-name="AEacute" horiz-adv-x="1880"/>
<glyph unicode="ǽ" d="M1192 429q8 -49 30.5 -88t57 -66.5t79.5 -42t98 -14.5q79 0 150 33t130 90l174 -177q-86 -94 -202.5 -141t-255.5 -47q-72 0 -138 14.5t-123.5 41t-105.5 64t-85 82.5q-33 -46 -79.5 -83.5t-103 -64t-121 -40.5t-134.5 -14q-107 0 -199 27t-159.5 74.5t-105.5 112 t-38 139.5q0 71 37 132t101 105.5t150 70t184 25.5q78 0 156.5 -21.5t144.5 -53.5v19q0 47 -20 86t-56 67t-86.5 43.5t-111.5 15.5q-91 0 -174 -31t-148 -84l-101 210q41 35 91 62.5t105.5 46.5t115 28.5t119.5 9.5q69 0 133.5 -14t120.5 -40t102 -63t80 -84 q75 92 187 146.5t246 54.5q119 0 219.5 -41t173.5 -112.5t114 -167t41 -204.5q0 -26 -4 -54.5t-11 -51.5h-778zM379 329q0 -26 16 -48t44.5 -38.5t67.5 -26t86 -9.5q82 0 141.5 26t97.5 73v69q-45 37 -105.5 56.5t-133.5 19.5q-47 0 -86 -9.5t-67.5 -26t-44.5 -38.5t-16 -48 zM1433 818q-88 0 -150.5 -49t-85.5 -137h461q-19 86 -77 136t-148 50zM1049 1526h323l-271 -342h-302z" glyph-name="aeacute" horiz-adv-x="2046"/>
<glyph unicode="Ǿ" d="M74 700q0 153 58 285.5t159.5 230t240 153t298.5 55.5q99 0 189 -22t170 -62l93 120h246l-177 -229q110 -99 172.5 -234.5t62.5 -296.5q0 -153 -58 -285t-159.5 -229.5t-239.5 -153.5t-299 -56q-106 0 -201 24t-179 69l-100 -129h-246l189 243q-103 98 -161 230t-58 287z M1252 700q0 82 -25 153t-70 128l-520 -671q87 -46 193 -46q89 0 166 33.5t134 92t89.5 138t32.5 172.5zM408 700q0 -76 21.5 -142.5t59.5 -120.5l514 663q-40 17 -83 26.5t-90 9.5q-89 0 -166 -33t-134 -91.5t-89.5 -138.5t-32.5 -173zM882 1850h323l-271 -342h-302z" glyph-name="Oslashacute" horiz-adv-x="1660"/>
<glyph unicode="ǿ" d="M61 518q0 114 44 213t122 172t184 115t230 42q72 0 138 -15t125 -42l73 93h228l-151 -193q78 -73 122.5 -171.5t44.5 -213.5q0 -114 -44 -213t-122 -172t-184 -115t-230 -42q-73 0 -139.5 15t-125.5 42l-73 -93h-228l151 193q-78 74 -121.5 172t-43.5 213zM927 518 q0 45 -13 85t-36 73l-333 -426q45 -17 96 -17q60 0 112.5 22t91 60.5t60.5 90.5t22 112zM355 518q0 -45 12 -85t35 -73l332 425q-21 8 -44.5 13t-48.5 5q-60 0 -112.5 -22t-91 -60.5t-60.5 -90.5t-22 -112zM697 1526h323l-271 -342h-302z" glyph-name="oslashacute" horiz-adv-x="1282"/>
<glyph unicode="Ș" d="M262 422q35 -37 76 -67.5t85 -53t91 -35t95 -12.5q40 0 75 10.5t60.5 29t40.5 45t15 58.5q0 30 -11.5 57t-40.5 51t-80 45t-130 38q-99 21 -178 59t-133.5 90.5t-83.5 119.5t-29 148q0 90 35.5 167t98.5 133t150.5 87.5t191.5 31.5q140 0 260.5 -47.5t211.5 -130.5 l-168 -230q-67 58 -139.5 96t-150.5 38q-33 0 -61.5 -9t-49.5 -24.5t-33 -37.5t-12 -48q0 -29 11.5 -54.5t39.5 -48t74 -41t115 -34.5q446 -103 446 -440q0 -94 -36.5 -174t-104.5 -138.5t-165 -91.5t-218 -33q-160 0 -295.5 59t-230.5 165zM328 -470l156 342h333l-198 -342 h-291z" glyph-name="Scommaaccent" horiz-adv-x="1200"/>
<glyph unicode="ș" d="M202 338q48 -54 116 -86t143 -32q60 0 93 22.5t33 60.5t-35 63.5t-124 44.5q-165 35 -250 121t-85 217q0 68 28 125t79 98t121.5 64.5t155.5 23.5q108 0 205.5 -39.5t172.5 -102.5l-142 -190q-48 39 -98.5 63.5t-107.5 24.5q-47 0 -75.5 -19t-28.5 -52q0 -35 33.5 -62.5 t111.5 -43.5q179 -37 264 -122t85 -216q0 -70 -29.5 -129.5t-83 -103t-129 -68t-168.5 -24.5q-133 0 -246 45.5t-186 126.5zM194 -470l156 342h333l-198 -342h-291z" glyph-name="scommaaccent" horiz-adv-x="953"/>
<glyph unicode="Ț" d="M393 1114h-343v286h1018v-286h-343v-1114h-332v1114zM266 -470l156 342h333l-198 -342h-291z" glyph-name="uni021A" horiz-adv-x="1118"/>
<glyph unicode="ț" d="M514 375q0 -62 31 -91.5t102 -29.5q26 0 55.5 1.5t50.5 4.5v-263q-31 -10 -79 -15.5t-98 -5.5q-91 0 -162.5 24.5t-120.5 71.5t-75 115t-26 155v416h-150v278h150v272l322 28v-300h227v-278h-227v-383zM130 -470l156 342h333l-198 -342h-291z" glyph-name="uni021B" horiz-adv-x="802"/>
<glyph unicode="ȷ" d="M127 1036h322v-1140q0 -176 -97 -268t-273 -92q-29 0 -61 3t-54 8v267h55q54 0 81 26.5t27 87.5v1108z" glyph-name="dotlessj" horiz-adv-x="576"/>
<glyph unicode="ʼ" d="M255 1307q0 38 13.5 70t37.5 56t56.5 37.5t70.5 13.5t70.5 -13.5t56.5 -37.5t37.5 -56t13.5 -70q0 -22 -5.5 -42.5t-15.5 -41.5l-148 -308h-188l111 232q-49 20 -79.5 61.5t-30.5 98.5z" glyph-name="apostrophe" horiz-adv-x="860"/>
<glyph unicode="ˆ" d="M548 1460l292 -342h-297l-113 140l-113 -140h-297l292 342h236z" glyph-name="circumflex" horiz-adv-x="860"/>
<glyph unicode="ˇ" d="M312 1118l-292 342h297l113 -140l113 140h297l-292 -342h-236z" glyph-name="caron" horiz-adv-x="860"/>
<glyph unicode="ˉ" d="M110 1406h640v-236h-640v236z" glyph-name="uni02C9" horiz-adv-x="860"/>
<glyph unicode="˘" d="M430 1126q-72 0 -137.5 23t-115.5 64.5t-81 99.5t-34 127h257q2 -48 33.5 -79.5t77.5 -31.5t77.5 31.5t33.5 79.5h257q-3 -69 -34 -127t-81 -99.5t-115.5 -64.5t-137.5 -23z" glyph-name="breve" horiz-adv-x="860"/>
<glyph unicode="˙" d="M263 1292q0 35 13 65t35.5 52t53 35t65.5 13t65.5 -13t53 -35t35.5 -52t13 -65q0 -34 -13 -64.5t-35.5 -52.5t-53 -35t-65.5 -13t-65.5 13t-53 35t-35.5 52.5t-13 64.5z" glyph-name="dotaccent" horiz-adv-x="860"/>
<glyph unicode="˚" d="M367 1286q0 -26 17.5 -43.5t45.5 -17.5t45.5 17.5t17.5 43.5t-17.5 43.5t-45.5 17.5t-45.5 -17.5t-17.5 -43.5zM194 1286q0 46 18 85t49.5 68t75 45.5t93.5 16.5t93.5 -16.5t75 -45.5t49.5 -68t18 -85t-18 -85.5t-49.5 -68.5t-75 -45.5t-93.5 -16.5t-93.5 16.5t-75 45.5 t-49.5 68.5t-18 85.5z" glyph-name="ring" horiz-adv-x="860"/>
<glyph unicode="˛" d="M601 0q-33 -27 -62 -54.5t-50.5 -54.5t-33.5 -54t-12 -54q0 -35 23 -56t58 -21q23 0 43.5 6t37.5 17l58 -138q-37 -24 -83.5 -36.5t-95.5 -12.5q-56 0 -104.5 16t-84 43.5t-56 65.5t-20.5 83q0 36 13.5 70t36.5 66t55 61t68 53h209z" glyph-name="ogonek" horiz-adv-x="860"/>
<glyph unicode="˜" d="M441 1180q-26 14 -49 25t-42 11t-33 -17t-22 -55l-247 48q42 236 220 236q42 0 80.5 -13t69.5 -30q26 -14 49 -24.5t43 -10.5q19 0 32.5 16.5t21.5 54.5l248 -48q-42 -236 -221 -236q-41 0 -79.5 13t-70.5 30z" glyph-name="tilde" horiz-adv-x="860"/>
<glyph unicode="˝" d="M269 1460h288l-266 -342h-272zM637 1460h289l-266 -342h-272z" glyph-name="hungarumlaut" horiz-adv-x="860"/>
<glyph unicode="̀" d="M-189 1118h-302l-271 342h324z" glyph-name="gravecomb" horiz-adv-x="0"/>
<glyph unicode="́" d="M-421 1460h323l-271 -342h-302z" glyph-name="acutecomb" horiz-adv-x="0"/>
<glyph unicode="̂" d="M-312 1460l292 -342h-297l-113 140l-113 -140h-297l292 342h236z" glyph-name="uni0302" horiz-adv-x="0"/>
<glyph unicode="̃" d="M-419 1180q-26 14 -49 25t-42 11t-33 -17t-22 -55l-247 48q42 236 220 236q42 0 80.5 -13t69.5 -30q26 -14 49 -24.5t43 -10.5q19 0 32.5 16.5t21.5 54.5l248 -48q-42 -236 -221 -236q-41 0 -79.5 13t-70.5 30z" glyph-name="tildecomb" horiz-adv-x="0"/>
<glyph unicode="̄" d="M-750 1407h640v-236h-640v236z" glyph-name="uni0304" horiz-adv-x="0"/>
<glyph unicode="̆" d="M-430 1126q-72 0 -137.5 23t-115.5 64.5t-81 99.5t-34 127h257q2 -48 33.5 -79.5t77.5 -31.5t77.5 31.5t33.5 79.5h257q-3 -69 -34 -127t-81 -99.5t-115.5 -64.5t-137.5 -23z" glyph-name="uni0306" horiz-adv-x="0"/>
<glyph unicode="̇" d="M-597 1292q0 35 13 65t35.5 52t53 35t65.5 13t65.5 -13t53 -35t35.5 -52t13 -65q0 -34 -13 -64.5t-35.5 -52.5t-53 -35t-65.5 -13t-65.5 13t-53 35t-35.5 52.5t-13 64.5z" glyph-name="uni0307" horiz-adv-x="0"/>
<glyph unicode="̈" d="M-794 1292q0 34 12.5 63t34.5 50.5t51.5 34t63.5 12.5t64 -12.5t51.5 -34t34 -50.5t12.5 -63t-12.5 -63t-34 -50.5t-51.5 -34t-64 -12.5t-63.5 12.5t-51.5 34t-34.5 50.5t-12.5 63zM-390 1292q0 34 12.5 63t34.5 50.5t51.5 34t63.5 12.5t64 -12.5t51.5 -34t34 -50.5 t12.5 -63t-12.5 -63t-34 -50.5t-51.5 -34t-64 -12.5t-63.5 12.5t-51.5 34t-34.5 50.5t-12.5 63z" glyph-name="uni0308" horiz-adv-x="0"/>
<glyph unicode="̊" d="M-493 1286q0 -26 17.5 -43.5t45.5 -17.5t45.5 17.5t17.5 43.5t-17.5 43.5t-45.5 17.5t-45.5 -17.5t-17.5 -43.5zM-666 1286q0 46 18 85t49.5 68t75 45.5t93.5 16.5t93.5 -16.5t75 -45.5t49.5 -68t18 -85t-18 -85.5t-49.5 -68.5t-75 -45.5t-93.5 -16.5t-93.5 16.5 t-75 45.5t-49.5 68.5t-18 85.5z" glyph-name="uni030A" horiz-adv-x="0"/>
<glyph unicode="̌" d="M-548 1118l-292 342h297l113 -140l113 140h297l-292 -342h-236z" glyph-name="uni030C" horiz-adv-x="0"/>
<glyph unicode="̧" d="M-393 -300q0 29 -24.5 46.5t-65.5 17.5q-16 0 -32 -1t-30 -3l-54 59l96 181h222l-73 -109q81 -22 130.5 -74t49.5 -121q0 -46 -22.5 -85.5t-62.5 -68.5t-94.5 -45.5t-117.5 -16.5q-58 0 -115 15.5t-101 48.5l86 129q23 -17 56 -27t62 -10q41 0 65.5 17.5t24.5 46.5z" glyph-name="uni0327" horiz-adv-x="0"/>
<glyph unicode="΄" d="M196 1088l149 372h339l-188 -372h-300z" glyph-name="tonos" horiz-adv-x="860"/>
<glyph unicode="΅" d="M88 1142q0 31 11.5 57.5t32 46t48.5 31t61 11.5t61 -11.5t48.5 -31t32 -46t11.5 -57.5q0 -30 -11.5 -56.5t-32 -46t-48.5 -31t-61 -11.5t-61 11.5t-48.5 31t-32 46t-11.5 56.5zM466 1142q0 31 11.5 57.5t32 46t48.5 31t61 11.5t61 -11.5t48.5 -31t32 -46t11.5 -57.5 q0 -30 -11.5 -56.5t-32 -46t-48.5 -31t-61 -11.5t-61 11.5t-48.5 31t-32 46t-11.5 56.5zM273 1314l188 262h285l-207 -262h-266z" glyph-name="dieresistonos" horiz-adv-x="860"/>
<glyph unicode="Ά" d="M994 1400l486 -1400h-346l-91 292h-462l-91 -292h-346l486 1400h364zM812 1052l-155 -500h310zM22 1028l149 372h339l-188 -372h-300z" glyph-name="Alphatonos" horiz-adv-x="1507"/>
<glyph unicode="·" d="M112 653q0 39 14.5 72.5t40 58.5t60.5 39t76 14t76 -14t60.5 -39t40 -58.5t14.5 -72.5t-14.5 -72.5t-40 -58.5t-60.5 -39t-76 -14t-76 14t-60.5 39t-40 58.5t-14.5 72.5z" glyph-name="anoteleia" horiz-adv-x="606"/>
<glyph unicode="Έ" d="M564 1400h892v-280h-560v-278h512v-276h-512v-286h578v-280h-910v1400zM22 1028l149 372h339l-188 -372h-300z" glyph-name="Epsilontonos" horiz-adv-x="1569"/>
<glyph unicode="Ή" d="M564 1400h332v-553h464v553h332v-1400h-332v561h-464v-561h-332v1400zM22 1028l149 372h339l-188 -372h-300z" glyph-name="Etatonos" horiz-adv-x="1839"/>
<glyph unicode="Ί" d="M896 1400v-1400h-332v1400h332zM22 1028l149 372h339l-188 -372h-300z" glyph-name="Iotatonos" horiz-adv-x="1048"/>
<glyph unicode="Ό" d="M685 700q0 -93 32.5 -172.5t89.5 -138t134 -92t166 -33.5t166 33.5t134 92t89.5 138t32.5 172.5t-32.5 173t-89.5 138.5t-134 91.5t-166 33t-166 -33t-134 -91.5t-89.5 -138.5t-32.5 -173zM351 700q0 153 58 285.5t159.5 230t240 153t298.5 55.5q161 0 299 -55.5 t239.5 -153t159.5 -230t58 -285.5t-58 -285t-159.5 -229.5t-239.5 -153.5t-299 -56q-160 0 -298.5 56t-240 153.5t-159.5 229.5t-58 285zM22 1028l149 372h339l-188 -372h-300z" glyph-name="Omicrontonos" horiz-adv-x="1937"/>
<glyph unicode="Ύ" d="M1170 864l272 536h359l-465 -846v-554h-332v554l-465 846h359zM22 1028l149 372h339l-188 -372h-300z" glyph-name="Upsilontonos" horiz-adv-x="1828"/>
<glyph unicode="Ώ" d="M22 1028l149 372h339l-188 -372h-300zM1495 731q0 85 -30.5 159t-83.5 128.5t-124.5 86t-154.5 31.5t-154.5 -31.5t-124.5 -86t-83.5 -128.5t-30.5 -159q0 -75 21 -143.5t61 -127.5t96.5 -107.5t128.5 -82.5v-270h-620v288h252q-136 88 -204.5 209t-68.5 269 q0 138 56 258t154.5 209t231 140t285.5 51t285.5 -51t231 -140t154.5 -209t56 -258q0 -148 -68.5 -269t-204.5 -209h252v-288h-620v270q72 34 128.5 82.5t96.5 107.5t61 127.5t21 143.5z" glyph-name="Omegatonos" horiz-adv-x="1912"/>
<glyph unicode="ΐ" d="M127 1036h322v-660q0 -96 95 -96h38v-275q-20 -2 -48.5 -3.5t-55.5 -1.5q-181 0 -266 76.5t-85 223.5v736zM-55 1276q0 31 11.5 57.5t32 46t48.5 31t61 11.5t61 -11.5t48.5 -31t32 -46t11.5 -57.5q0 -30 -11.5 -56.5t-32 -46t-48.5 -31t-61 -11.5t-61 11.5t-48.5 31 t-32 46t-11.5 56.5zM323 1276q0 31 11.5 57.5t32 46t48.5 31t61 11.5t61 -11.5t48.5 -31t32 -46t11.5 -57.5q0 -30 -11.5 -56.5t-32 -46t-48.5 -31t-61 -11.5t-61 11.5t-48.5 31t-32 46t-11.5 56.5zM130 1448l188 262h285l-207 -262h-266z" glyph-name="iotadieresistonos" horiz-adv-x="624"/>
<glyph unicode="Α" d="M877 1400l486 -1400h-346l-91 292h-462l-91 -292h-346l486 1400h364zM695 1052l-155 -500h310z" glyph-name="Alpha" horiz-adv-x="1390"/>
<glyph unicode="Β" d="M147 0v1400h542q98 0 176.5 -27.5t133.5 -77t84.5 -119.5t29.5 -155q0 -102 -48 -176t-126 -107q53 -14 97.5 -43.5t77 -72t51 -96.5t18.5 -117q0 -89 -31 -164t-88 -129.5t-136 -85t-175 -30.5h-606zM801 989q0 70 -39 107.5t-101 37.5h-192v-290h192q62 0 101 37.5 t39 107.5zM855 427q0 74 -42 117.5t-108 43.5h-236v-322h236q66 0 108 44t42 117z" glyph-name="Beta" horiz-adv-x="1258"/>
<glyph unicode="Γ" d="M147 1400h871v-286h-539v-1114h-332v1400z" glyph-name="Gamma" horiz-adv-x="1048"/>
<glyph unicode="Δ" d="M1363 0h-1336l486 1400h364zM448 274h493l-246 778z" glyph-name="uni0394" horiz-adv-x="1390"/>
<glyph unicode="Ε" d="M147 1400h892v-280h-560v-278h512v-276h-512v-286h578v-280h-910v1400z" glyph-name="Epsilon" horiz-adv-x="1152"/>
<glyph unicode="Ζ" d="M715 1114h-579v286h974v-266l-609 -848h629v-286h-1024v266z" glyph-name="Zeta" horiz-adv-x="1226"/>
<glyph unicode="Η" d="M147 1400h332v-553h464v553h332v-1400h-332v561h-464v-561h-332v1400z" glyph-name="Eta" horiz-adv-x="1422"/>
<glyph unicode="Θ" d="M552 828h556v-256h-556v256zM74 700q0 153 58 285.5t159.5 230t240 153t298.5 55.5q161 0 299 -55.5t239.5 -153t159.5 -230t58 -285.5t-58 -285t-159.5 -229.5t-239.5 -153.5t-299 -56q-160 0 -298.5 56t-240 153.5t-159.5 229.5t-58 285zM398 700q0 -94 33.5 -175.5 t92 -141.5t137 -94.5t169.5 -34.5t169.5 34.5t137 94.5t92 141.5t33.5 175.5q0 95 -33.5 176.5t-92 141.5t-137 94t-169.5 34t-169.5 -34t-137 -94t-92 -141.5t-33.5 -176.5z" glyph-name="Theta" horiz-adv-x="1660"/>
<glyph unicode="Ι" d="M484 1400v-1400h-332v1400h332z" glyph-name="Iota" horiz-adv-x="636"/>
<glyph unicode="Κ" d="M479 852h74l307 548h358l-391 -687l466 -713h-362l-368 566h-84v-566h-332v1400h332v-548z" glyph-name="Kappa" horiz-adv-x="1263"/>
<glyph unicode="Λ" d="M1017 0l-322 1037l-322 -1037h-346l486 1400h364l486 -1400h-346z" glyph-name="Lambda" horiz-adv-x="1390"/>
<glyph unicode="Μ" d="M749 408l-294 520v-928h-308v1400h360l356 -632l356 632h360v-1400h-308v928l-294 -520h-228z" glyph-name="Mu" horiz-adv-x="1726"/>
<glyph unicode="Ν" d="M147 1400h348l472 -892v892h308v-1400h-348l-472 892v-892h-308v1400z" glyph-name="Nu" horiz-adv-x="1422"/>
<glyph unicode="Ξ" d="M115 1400h934v-280h-934v280zM95 280h975v-280h-975v280zM168 566v276h808v-276h-808z" glyph-name="Xi" horiz-adv-x="1165"/>
<glyph unicode="Ο" d="M408 700q0 -93 32.5 -172.5t89.5 -138t134 -92t166 -33.5t166 33.5t134 92t89.5 138t32.5 172.5t-32.5 173t-89.5 138.5t-134 91.5t-166 33t-166 -33t-134 -91.5t-89.5 -138.5t-32.5 -173zM74 700q0 153 58 285.5t159.5 230t240 153t298.5 55.5q161 0 299 -55.5 t239.5 -153t159.5 -230t58 -285.5t-58 -285t-159.5 -229.5t-239.5 -153.5t-299 -56q-160 0 -298.5 56t-240 153.5t-159.5 229.5t-58 285z" glyph-name="Omicron" horiz-adv-x="1660"/>
<glyph unicode="Π" d="M1223 0h-332v1114h-412v-1114h-332v1400h1076v-1400z" glyph-name="Pi" horiz-adv-x="1370"/>
<glyph unicode="Ρ" d="M479 468v-468h-332v1400h518q110 0 201 -34.5t156 -96t101 -147.5t36 -188t-36 -188t-101 -147.5t-156 -96t-201 -34.5h-186zM831 934q0 45 -13.5 82.5t-39.5 64t-63.5 41t-85.5 14.5h-150v-404h150q48 0 85.5 14.5t63.5 41t39.5 64t13.5 82.5z" glyph-name="Rho" horiz-adv-x="1214"/>
<glyph unicode="Σ" d="M443 702l-337 388v310h970v-284h-597l299 -328v-174l-301 -330h599v-284h-970v310z" glyph-name="Sigma" horiz-adv-x="1182"/>
<glyph unicode="Τ" d="M393 1114h-343v286h1018v-286h-343v-1114h-332v1114z" glyph-name="Tau" horiz-adv-x="1118"/>
<glyph unicode="Υ" d="M658 864l272 536h359l-465 -846v-554h-332v554l-465 846h359z" glyph-name="Upsilon" horiz-adv-x="1316"/>
<glyph unicode="Φ" d="M622 192q-119 0 -222.5 39t-180 107t-120.5 160.5t-44 199.5t44 199.5t120.5 160.5t180 107t222.5 39v196h312v-196q119 0 222.5 -39t180 -107t120.5 -160.5t44 -199.5t-44 -199.5t-120.5 -160.5t-180 -107t-222.5 -39v-192h-312v192zM1187 698q0 48 -19.5 90t-53.5 72.5 t-80 48.5t-100 18v-458q54 0 100 18t80 48.5t53.5 72.5t19.5 90zM369 698q0 -48 19.5 -90t53.5 -72.5t80 -48.5t100 -18v458q-54 0 -100 -18t-80 -48.5t-53.5 -72.5t-19.5 -90z" glyph-name="Phi" horiz-adv-x="1556"/>
<glyph unicode="Χ" d="M921 0l-270 490l-270 -490h-361l422 717l-399 683h361l247 -456l247 456h361l-399 -683l422 -717h-361z" glyph-name="Chi" horiz-adv-x="1302"/>
<glyph unicode="Ψ" d="M853 615q68 32 108.5 98t40.5 149v538h296v-549q0 -97 -32.5 -183.5t-91.5 -156t-141 -118.5t-180 -71v-322h-296v322q-99 22 -180.5 71t-140.5 118.5t-91.5 156t-32.5 183.5v549h296v-538q0 -83 40 -149t109 -98v785h296v-785z" glyph-name="Psi" horiz-adv-x="1410"/>
<glyph unicode="Ω" d="M1203 731q0 85 -30.5 159t-83.5 128.5t-124.5 86t-154.5 31.5t-154.5 -31.5t-124.5 -86t-83.5 -128.5t-30.5 -159q0 -75 21 -143.5t61 -127.5t96.5 -107.5t128.5 -82.5v-270h-620v288h252q-136 88 -204.5 209t-68.5 269q0 138 56 258t154.5 209t231 140t285.5 51 t285.5 -51t231 -140t154.5 -209t56 -258q0 -148 -68.5 -269t-204.5 -209h252v-288h-620v270q72 34 128.5 82.5t96.5 107.5t61 127.5t21 143.5z" glyph-name="uni03A9" horiz-adv-x="1620"/>
<glyph unicode="Ϊ" d="M484 1400v-1400h-332v1400h332zM-46 1664q0 34 12.5 63t34.5 50.5t51.5 34t63.5 12.5q35 0 64.5 -12.5t51 -34t34 -50.5t12.5 -63t-12.5 -63t-34 -50.5t-51 -34t-64.5 -12.5q-34 0 -63.5 12.5t-51.5 34t-34.5 50.5t-12.5 63zM358 1664q0 34 12.5 63t34.5 50.5t51.5 34 t63.5 12.5q35 0 64.5 -12.5t51 -34t34 -50.5t12.5 -63t-12.5 -63t-34 -50.5t-51 -34t-64.5 -12.5q-34 0 -63.5 12.5t-51.5 34t-34.5 50.5t-12.5 63z" glyph-name="Iotadieresis" horiz-adv-x="636"/>
<glyph unicode="Ϋ" d="M658 864l272 536h359l-465 -846v-554h-332v554l-465 846h359zM294 1664q0 34 12.5 63t34.5 50.5t51.5 34t63.5 12.5q35 0 64.5 -12.5t51 -34t34 -50.5t12.5 -63t-12.5 -63t-34 -50.5t-51 -34t-64.5 -12.5q-34 0 -63.5 12.5t-51.5 34t-34.5 50.5t-12.5 63zM698 1664 q0 34 12.5 63t34.5 50.5t51.5 34t63.5 12.5q35 0 64.5 -12.5t51 -34t34 -50.5t12.5 -63t-12.5 -63t-34 -50.5t-51 -34t-64.5 -12.5q-34 0 -63.5 12.5t-51.5 34t-34.5 50.5t-12.5 63z" glyph-name="Upsilondieresis" horiz-adv-x="1316"/>
<glyph unicode="ά" d="M1346 5q-19 -2 -45.5 -3.5t-51.5 -1.5q-126 0 -203.5 31t-111.5 110q-69 -81 -162 -123t-201 -42q-110 0 -203.5 42.5t-161.5 116t-106.5 172.5t-38.5 211q0 113 38.5 211.5t106 172t159.5 116t200 42.5q90 0 171 -31.5t141 -88.5v96h316v-650q0 -50 28 -78t78 -28h47 v-275zM641 258q80 0 142.5 39.5t93.5 105.5v229q-31 66 -93.5 106t-142.5 40q-56 0 -103.5 -20t-82.5 -55t-55 -82.5t-20 -102.5t20 -102.5t55 -82.5t82.5 -55t103.5 -20zM678 1526h323l-271 -342h-302z" glyph-name="alphatonos" horiz-adv-x="1388"/>
<glyph unicode="έ" d="M368 318q0 -23 10 -42.5t27.5 -33.5t40.5 -21.5t50 -7.5q61 0 115.5 25t89.5 74l221 -150q-57 -88 -166.5 -137t-251.5 -49q-96 0 -178 24.5t-142.5 67.5t-94.5 102t-34 127q0 45 15.5 85.5t43 74t64.5 58.5t79 38q-37 13 -66.5 36t-50.5 52.5t-32 62.5t-11 67 q0 61 30.5 114t84 92t127 61t159.5 22q137 0 235.5 -50t144.5 -136l-243 -132q-17 35 -50.5 57t-80.5 22q-20 0 -39 -5t-33.5 -15t-23 -23t-8.5 -30q0 -33 29 -57t74 -24h159v-238h-153q-28 0 -53.5 -8.5t-45 -23.5t-31 -35.5t-11.5 -43.5zM503 1526h323l-271 -342h-302z " glyph-name="epsilontonos" horiz-adv-x="970"/>
<glyph unicode="ή" d="M448 0h-322v1036h322v-107q47 60 119 95.5t153 35.5q89 0 163.5 -30.5t128.5 -85t84 -130t30 -165.5v-1113h-322v1070q0 34 -11.5 65t-33.5 55t-54 38t-74 14q-28 0 -55 -9.5t-51 -26t-43.5 -37.5t-33.5 -44v-661zM673 1526h323l-271 -342h-302z" glyph-name="etatonos" horiz-adv-x="1232"/>
<glyph unicode="ί" d="M127 1036h322v-660q0 -96 95 -96h38v-275q-20 -2 -48.5 -3.5t-55.5 -1.5q-181 0 -266 76.5t-85 223.5v736zM331 1526h323l-271 -342h-302z" glyph-name="iotatonos" horiz-adv-x="624"/>
<glyph unicode="ΰ" d="M585 -24q-101 0 -188.5 33.5t-152 92t-101.5 137t-37 169.5v628h322v-611q0 -36 12 -66.5t33 -53t49.5 -35t62.5 -12.5t62.5 12.5t49.5 35t33 53t12 66.5v611h322v-628q0 -91 -37 -169.5t-101.5 -137t-152 -92t-188.5 -33.5zM245 1276q0 31 11.5 57.5t32 46t48.5 31 t61 11.5t61 -11.5t48.5 -31t32 -46t11.5 -57.5q0 -30 -11.5 -56.5t-32 -46t-48.5 -31t-61 -11.5t-61 11.5t-48.5 31t-32 46t-11.5 56.5zM623 1276q0 31 11.5 57.5t32 46t48.5 31t61 11.5t61 -11.5t48.5 -31t32 -46t11.5 -57.5q0 -30 -11.5 -56.5t-32 -46t-48.5 -31 t-61 -11.5t-61 11.5t-48.5 31t-32 46t-11.5 56.5zM430 1448l188 262h285l-207 -262h-266z" glyph-name="upsilondieresistonos" horiz-adv-x="1170"/>
<glyph unicode="α" d="M1346 5q-19 -2 -45.5 -3.5t-51.5 -1.5q-126 0 -203.5 31t-111.5 110q-69 -81 -162 -123t-201 -42q-110 0 -203.5 42.5t-161.5 116t-106.5 172.5t-38.5 211q0 113 38.5 211.5t106 172t159.5 116t200 42.5q90 0 171 -31.5t141 -88.5v96h316v-650q0 -50 28 -78t78 -28h47 v-275zM641 258q80 0 142.5 39.5t93.5 105.5v229q-31 66 -93.5 106t-142.5 40q-56 0 -103.5 -20t-82.5 -55t-55 -82.5t-20 -102.5t20 -102.5t55 -82.5t82.5 -55t103.5 -20z" glyph-name="alpha" horiz-adv-x="1388"/>
<glyph unicode="β" d="M1035 1041q0 -42 -13.5 -83t-39 -76.5t-61.5 -64.5t-82 -47q65 -11 122.5 -43.5t100.5 -81.5t68 -113.5t25 -139.5q0 -88 -32.5 -164t-88.5 -132t-132.5 -88t-164.5 -32q-48 0 -91.5 9.5t-81 28.5t-67 46t-47.5 61v-585h-315v1500q0 83 34.5 154t95 123t142.5 81.5 t178 29.5t178 -29.5t142.5 -81t95 -121.5t34.5 -151zM723 1022q0 30 -10.5 55.5t-28.5 43.5t-43 28.5t-54 10.5q-35 0 -61 -13t-43 -36.5t-25 -55t-8 -69.5v-497q0 -54 12 -99t37 -78t62 -51.5t87 -18.5q39 0 71.5 13t56.5 36.5t37.5 56t13.5 71.5q0 47 -19 83t-54 61 t-85 37.5t-112 12.5v261q42 1 73 13t52 32t31 46.5t10 56.5z" glyph-name="beta" horiz-adv-x="1221"/>
<glyph unicode="γ" d="M385 1l-367 1035h336l192 -637l192 637h336l-367 -1035v-465h-322v465z" glyph-name="gamma" horiz-adv-x="1092"/>
<glyph unicode="δ" d="M379 444q0 -41 15 -76.5t41.5 -61.5t62 -41t75.5 -15q41 0 76 15t61.5 41t41.5 61.5t15 76.5t-15 76.5t-41.5 61.5t-61.5 41t-76 15q-40 0 -75.5 -15t-62 -41t-41.5 -61.5t-15 -76.5zM200 1160v240h756v-279h-359l362 -368q59 -60 93 -140t34 -169q0 -101 -41.5 -187 t-112 -148.5t-164 -97.5t-197.5 -35q-103 0 -195.5 35t-162.5 97.5t-111.5 148.5t-41.5 187q0 86 30.5 161.5t84 134.5t126.5 100t158 58z" glyph-name="delta" horiz-adv-x="1146"/>
<glyph unicode="ε" d="M368 318q0 -23 10 -42.5t27.5 -33.5t40.5 -21.5t50 -7.5q61 0 115.5 25t89.5 74l221 -150q-57 -88 -166.5 -137t-251.5 -49q-96 0 -178 24.5t-142.5 67.5t-94.5 102t-34 127q0 45 15.5 85.5t43 74t64.5 58.5t79 38q-37 13 -66.5 36t-50.5 52.5t-32 62.5t-11 67 q0 61 30.5 114t84 92t127 61t159.5 22q137 0 235.5 -50t144.5 -136l-243 -132q-17 35 -50.5 57t-80.5 22q-20 0 -39 -5t-33.5 -15t-23 -23t-8.5 -30q0 -33 29 -57t74 -24h159v-238h-153q-28 0 -53.5 -8.5t-45 -23.5t-31 -35.5t-11.5 -43.5z" glyph-name="epsilon" horiz-adv-x="970"/>
<glyph unicode="ζ" d="M55 365q0 54 14.5 104.5t39.5 99t57.5 94t68.5 88.5l308 370h-386v279h752v-259l-419 -521q-49 -60 -79 -120.5t-30 -123.5q0 -64 35 -111t95 -79l231 -122q85 -45 126 -116.5t41 -158.5q0 -72 -26 -135t-67 -118h-317q36 48 60 104.5t24 109.5q0 46 -23.5 82t-62.5 56 l-186 94q-121 61 -188.5 159.5t-67.5 223.5z" glyph-name="zeta" horiz-adv-x="957"/>
<glyph unicode="η" d="M448 0h-322v1036h322v-107q47 60 119 95.5t153 35.5q89 0 163.5 -30.5t128.5 -85t84 -130t30 -165.5v-1113h-322v1070q0 34 -11.5 65t-33.5 55t-54 38t-74 14q-28 0 -55 -9.5t-51 -26t-43.5 -37.5t-33.5 -44v-661z" glyph-name="eta" horiz-adv-x="1232"/>
<glyph unicode="θ" d="M56 700q0 149 43.5 281t122 230.5t187 155.5t237.5 57t237.5 -57t187 -155.5t122 -230.5t43.5 -281t-43.5 -281t-122 -230.5t-187 -155.5t-237.5 -57t-237.5 57t-187 155.5t-122 230.5t-43.5 281zM646 1153q-51 0 -94.5 -25t-77 -68.5t-56 -103t-31.5 -128.5h518 q-9 69 -31.5 128.5t-56 103t-77 68.5t-94.5 25zM646 247q51 0 94.5 25t77 68.5t56 103t31.5 128.5h-518q9 -69 31.5 -128.5t56 -103t77 -68.5t94.5 -25z" glyph-name="theta" horiz-adv-x="1292"/>
<glyph unicode="ι" d="M127 1036h322v-660q0 -96 95 -96h38v-275q-20 -2 -48.5 -3.5t-55.5 -1.5q-181 0 -266 76.5t-85 223.5v736z" glyph-name="iota" horiz-adv-x="624"/>
<glyph unicode="κ" d="M521 428h-73v-428h-322v1036h322v-332h78l184 332h352l-278 -472l314 -564h-350z" glyph-name="kappa" horiz-adv-x="1106"/>
<glyph unicode="λ" d="M386 1018l-180 442h337l531 -1460h-336l-194 604l-190 -604h-336z" glyph-name="lambda" horiz-adv-x="1092"/>
<glyph unicode="μ" d="M126 1036h322v-643q14 -64 58 -99.5t103 -35.5q30 0 59 11.5t55 31t47 45.5t34 55v635h322v-1036h-322v115q-37 -61 -93.5 -100t-119.5 -39q-44 0 -81.5 19t-61.5 52v-511h-322v1500z" glyph-name="uni03BC" horiz-adv-x="1252"/>
<glyph unicode="ν" d="M1074 1036l-350 -1036h-356l-350 1036h336l192 -670l192 670h336z" glyph-name="nu" horiz-adv-x="1092"/>
<glyph unicode="ξ" d="M391 373q0 -70 38.5 -124t119.5 -85l142 -55q107 -42 167.5 -117.5t60.5 -187.5q0 -75 -27 -144t-66 -124h-317q37 48 60.5 103t23.5 109q0 93 -98 132l-120 47q-73 28 -130.5 72.5t-97.5 100.5t-61 121t-21 135q0 68 21 131t57.5 116t87 94t110.5 65q-48 21 -87.5 53 t-67.5 72t-43.5 86.5t-15.5 95.5q0 75 32 140t88.5 112.5t133 75t164.5 27.5q113 0 202 -40t150 -112l-190 -196q-30 38 -65 61t-83 23q-55 0 -89.5 -37t-34.5 -100q0 -30 10 -57t28 -47.5t44 -32t58 -11.5h216v-263h-169q-48 0 -90 -18t-73.5 -49.5t-49.5 -75.5t-18 -96z " glyph-name="xi" horiz-adv-x="967"/>
<glyph unicode="ο" d="M61 518q0 114 44 213t122 172t184 115t230 42t230 -42t184 -115t122 -172t44 -213t-44 -213t-122 -172t-184 -115t-230 -42t-230 42t-184 115t-122 172t-44 213zM380 518q0 -55 20 -102.5t55 -82.5t82.5 -55t103.5 -20t103.5 20t82.5 55t55 82.5t20 102.5t-20 102.5 t-55 82.5t-82.5 55t-103.5 20t-103.5 -20t-82.5 -55t-55 -82.5t-20 -102.5z" glyph-name="omicron" horiz-adv-x="1282"/>
<glyph unicode="π" d="M477 0h-318v754h-119v282h1092v-282h-119v-754h-318v754h-218v-754z" glyph-name="pi" horiz-adv-x="1172"/>
<glyph unicode="ρ" d="M106 518q0 113 42.5 212t118.5 172.5t179.5 115.5t225.5 42t225.5 -42t179.5 -115.5t118.5 -172.5t42.5 -212t-43 -211.5t-116.5 -172t-171.5 -116t-209 -42.5q-80 0 -151 25t-125 76v-541h-316v982zM422 391q36 -60 99.5 -96.5t140.5 -36.5q54 0 101 20t81.5 55 t54.5 82.5t20 102.5t-18.5 102.5t-51.5 82.5t-78.5 55t-99.5 20t-99.5 -20t-79 -55t-52 -82.5t-18.5 -102.5v-127z" glyph-name="rho" horiz-adv-x="1299"/>
<glyph unicode="ς" d="M384 518q0 -99 49 -175t146 -121l209 -96q109 -50 164 -133.5t55 -188.5q0 -73 -25 -142.5t-63 -125.5h-316q36 48 60 103t24 109q0 48 -26 85.5t-71 57.5l-198 90q-78 36 -139.5 89t-104 121.5t-65 151t-22.5 175.5q0 114 44 213t122 172t184 115t230 42 q121 0 222 -38.5t179 -106.5l-153 -233q-49 39 -111 67.5t-133 28.5q-56 0 -103.5 -20t-82.5 -55t-55 -82.5t-20 -102.5z" glyph-name="sigma1" horiz-adv-x="1088"/>
<glyph unicode="σ" d="M61 506q0 111 44 207.5t120.5 168.5t180.5 113t223 41h662v-282h-217q57 -51 90 -124t33 -154q0 -97 -43 -187.5t-119 -160t-180 -111t-226 -41.5q-119 0 -223 41t-180.5 112.5t-120.5 168.5t-44 208zM379 506q0 -52 19 -97.5t53 -79t79.5 -52.5t98.5 -19t98.5 19 t79.5 52.5t53 79t19 97.5q0 53 -19 98t-53 78.5t-79.5 52.5t-98.5 19t-98.5 -19t-79.5 -52.5t-53 -78.5t-19 -98z" glyph-name="sigma" horiz-adv-x="1334"/>
<glyph unicode="τ" d="M328 754h-288v282h920v-282h-310v-350q0 -66 29.5 -96t86.5 -30h47v-275q-20 -2 -48.5 -3.5t-55.5 -1.5q-100 0 -172 21.5t-118.5 66t-68.5 113t-22 162.5v393z" glyph-name="tau" horiz-adv-x="1000"/>
<glyph unicode="υ" d="M585 -24q-101 0 -188.5 33.5t-152 92t-101.5 137t-37 169.5v628h322v-611q0 -36 12 -66.5t33 -53t49.5 -35t62.5 -12.5t62.5 12.5t49.5 35t33 53t12 66.5v611h322v-628q0 -91 -37 -169.5t-101.5 -137t-152 -92t-188.5 -33.5z" glyph-name="upsilon" horiz-adv-x="1170"/>
<glyph unicode="φ" d="M458 750q-50 -44 -80 -103.5t-30 -128.5q0 -49 16 -92.5t45.5 -78t70 -58.5t88.5 -33v804h208q123 0 228 -42t182 -115.5t121 -172t44 -212.5q0 -105 -38 -198t-105 -164.5t-159 -117t-201 -57.5v-445h-280v445q-110 11 -203 56.5t-160.5 117t-105.5 164.5t-38 199 q0 67 15 128.5t42 115.5t65 100t83 82zM1064 518q0 48 -16 91t-45 77t-68.5 58t-86.5 34v-522q47 11 86.5 34.5t68.5 58t45 77.5t16 92z" glyph-name="phi" horiz-adv-x="1412"/>
<glyph unicode="χ" d="M741 307l339 -771h-340l-194 471l-194 -471h-340l339 771l-319 729h340l174 -429l174 429h340z" glyph-name="chi" horiz-adv-x="1092"/>
<glyph unicode="ψ" d="M835 282q72 27 116 87.5t44 141.5v525h287v-550q0 -93 -33.5 -175t-92.5 -146.5t-141 -109.5t-180 -64v-455h-282v455q-98 19 -180 64t-141.5 109.5t-92.5 146.5t-33 175v550h287v-525q0 -81 43.5 -141.5t116.5 -87.5v754h282v-754z" glyph-name="psi" horiz-adv-x="1388"/>
<glyph unicode="ω" d="M970 559q0 -62 9 -117t26 -96t42 -64.5t58 -23.5q29 0 53.5 19t42.5 52.5t28 79t10 99.5q0 69 -14 139.5t-38 138t-55.5 131.5t-66.5 119h318q31 -48 63 -106.5t57.5 -126t41.5 -142t16 -153.5q0 -112 -33 -209.5t-90.5 -169t-136 -112.5t-168.5 -41q-54 0 -103 15.5 t-90.5 43t-74 64.5t-54.5 79q-22 -42 -54.5 -79t-74 -64.5t-90.5 -43t-103 -15.5q-90 0 -168.5 41t-136 112.5t-90.5 169t-33 209.5q0 79 16 153.5t41.5 142t57.5 126t63 106.5h318q-35 -55 -66.5 -119t-55.5 -131.5t-38 -138t-14 -139.5q0 -54 10 -99.5t28 -79t42.5 -52.5 t53.5 -19q33 0 58 23.5t42 64.5t26 96t9 117v259h318v-259z" glyph-name="omega" horiz-adv-x="1622"/>
<glyph unicode="ϊ" d="M127 1036h322v-660q0 -96 95 -96h38v-275q-20 -2 -48.5 -3.5t-55.5 -1.5q-181 0 -266 76.5t-85 223.5v736zM-76 1340q0 34 12.5 63t34.5 50.5t51.5 34t63.5 12.5q35 0 64.5 -12.5t51 -34t34 -50.5t12.5 -63t-12.5 -63t-34 -50.5t-51 -34t-64.5 -12.5q-34 0 -63.5 12.5 t-51.5 34t-34.5 50.5t-12.5 63zM328 1340q0 34 12.5 63t34.5 50.5t51.5 34t63.5 12.5q35 0 64.5 -12.5t51 -34t34 -50.5t12.5 -63t-12.5 -63t-34 -50.5t-51 -34t-64.5 -12.5q-34 0 -63.5 12.5t-51.5 34t-34.5 50.5t-12.5 63z" glyph-name="iotadieresis" horiz-adv-x="624"/>
<glyph unicode="ϋ" d="M585 -24q-101 0 -188.5 33.5t-152 92t-101.5 137t-37 169.5v628h322v-611q0 -36 12 -66.5t33 -53t49.5 -35t62.5 -12.5t62.5 12.5t49.5 35t33 53t12 66.5v611h322v-628q0 -91 -37 -169.5t-101.5 -137t-152 -92t-188.5 -33.5zM221 1340q0 34 12.5 63t34.5 50.5t51.5 34 t63.5 12.5q35 0 64.5 -12.5t51 -34t34 -50.5t12.5 -63t-12.5 -63t-34 -50.5t-51 -34t-64.5 -12.5q-34 0 -63.5 12.5t-51.5 34t-34.5 50.5t-12.5 63zM625 1340q0 34 12.5 63t34.5 50.5t51.5 34t63.5 12.5q35 0 64.5 -12.5t51 -34t34 -50.5t12.5 -63t-12.5 -63t-34 -50.5 t-51 -34t-64.5 -12.5q-34 0 -63.5 12.5t-51.5 34t-34.5 50.5t-12.5 63z" glyph-name="upsilondieresis" horiz-adv-x="1170"/>
<glyph unicode="ό" d="M61 518q0 114 44 213t122 172t184 115t230 42t230 -42t184 -115t122 -172t44 -213t-44 -213t-122 -172t-184 -115t-230 -42t-230 42t-184 115t-122 172t-44 213zM380 518q0 -55 20 -102.5t55 -82.5t82.5 -55t103.5 -20t103.5 20t82.5 55t55 82.5t20 102.5t-20 102.5 t-55 82.5t-82.5 55t-103.5 20t-103.5 -20t-82.5 -55t-55 -82.5t-20 -102.5zM697 1526h323l-271 -342h-302z" glyph-name="omicrontonos" horiz-adv-x="1282"/>
<glyph unicode="ύ" d="M585 -24q-101 0 -188.5 33.5t-152 92t-101.5 137t-37 169.5v628h322v-611q0 -36 12 -66.5t33 -53t49.5 -35t62.5 -12.5t62.5 12.5t49.5 35t33 53t12 66.5v611h322v-628q0 -91 -37 -169.5t-101.5 -137t-152 -92t-188.5 -33.5zM634 1526h323l-271 -342h-302z" glyph-name="upsilontonos" horiz-adv-x="1170"/>
<glyph unicode="ώ" d="M970 559q0 -62 9 -117t26 -96t42 -64.5t58 -23.5q29 0 53.5 19t42.5 52.5t28 79t10 99.5q0 69 -14 139.5t-38 138t-55.5 131.5t-66.5 119h318q31 -48 63 -106.5t57.5 -126t41.5 -142t16 -153.5q0 -112 -33 -209.5t-90.5 -169t-136 -112.5t-168.5 -41q-54 0 -103 15.5 t-90.5 43t-74 64.5t-54.5 79q-22 -42 -54.5 -79t-74 -64.5t-90.5 -43t-103 -15.5q-90 0 -168.5 41t-136 112.5t-90.5 169t-33 209.5q0 79 16 153.5t41.5 142t57.5 126t63 106.5h318q-35 -55 -66.5 -119t-55.5 -131.5t-38 -138t-14 -139.5q0 -54 10 -99.5t28 -79t42.5 -52.5 t53.5 -19q33 0 58 23.5t42 64.5t26 96t9 117v259h318v-259zM873 1526h323l-271 -342h-302z" glyph-name="omegatonos" horiz-adv-x="1622"/>
<glyph unicode="Ѐ" d="M147 1400h892v-280h-560v-278h512v-276h-512v-286h578v-280h-910v1400zM780 1508h-302l-271 342h324z" glyph-name="uni0400" horiz-adv-x="1152"/>
<glyph unicode="Ё" d="M147 1400h892v-280h-560v-278h512v-276h-512v-286h578v-280h-910v1400zM234 1664q0 34 12.5 63t34.5 50.5t51.5 34t63.5 12.5q35 0 64.5 -12.5t51 -34t34 -50.5t12.5 -63t-12.5 -63t-34 -50.5t-51 -34t-64.5 -12.5q-34 0 -63.5 12.5t-51.5 34t-34.5 50.5t-12.5 63z M638 1664q0 34 12.5 63t34.5 50.5t51.5 34t63.5 12.5q35 0 64.5 -12.5t51 -34t34 -50.5t12.5 -63t-12.5 -63t-34 -50.5t-51 -34t-64.5 -12.5q-34 0 -63.5 12.5t-51.5 34t-34.5 50.5t-12.5 63z" glyph-name="afii10023" horiz-adv-x="1152"/>
<glyph unicode="Ђ" d="M983 -4q-27 0 -56.5 1t-51.5 3v274h44q31 0 57.5 10.5t46 29.5t30.5 45t11 56v61q0 31 -11.5 57t-31.5 45.5t-47.5 30.5t-59.5 11q-65 0 -113.5 -30t-75.5 -82v-508h-332v1120h-343v280h1018v-280h-343v-320q46 48 112 74t144 26q87 0 163 -30.5t132 -84.5t88 -126.5 t32 -156.5v-112q0 -83 -32 -155t-87.5 -125t-131 -83.5t-162.5 -30.5z" glyph-name="afii10051" horiz-adv-x="1457"/>
<glyph unicode="Ѓ" d="M147 1400h871v-286h-539v-1114h-332v1400zM628 1888h323l-271 -342h-302z" glyph-name="afii10052" horiz-adv-x="1048"/>
<glyph unicode="Є" d="M830 -24q-160 0 -298.5 56t-240 153.5t-159.5 229.5t-58 285t58 285.5t159.5 230t240 153t298.5 55.5q147 0 272.5 -45.5t225.5 -127.5l-166 -233q-63 55 -149.5 91.5t-182.5 36.5q-74 0 -140.5 -23.5t-120.5 -65.5t-93 -100t-58 -127h613v-260h-613q19 -70 58 -128 t93 -100t120.5 -65t140.5 -23q98 0 181 37.5t152 92.5l167 -233q-103 -85 -228.5 -130t-271.5 -45z" glyph-name="afii10053" horiz-adv-x="1399"/>
<glyph unicode="Ѕ" d="M262 422q35 -37 76 -67.5t85 -53t91 -35t95 -12.5q40 0 75 10.5t60.5 29t40.5 45t15 58.5q0 30 -11.5 57t-40.5 51t-80 45t-130 38q-99 21 -178 59t-133.5 90.5t-83.5 119.5t-29 148q0 90 35.5 167t98.5 133t150.5 87.5t191.5 31.5q140 0 260.5 -47.5t211.5 -130.5 l-168 -230q-67 58 -139.5 96t-150.5 38q-33 0 -61.5 -9t-49.5 -24.5t-33 -37.5t-12 -48q0 -29 11.5 -54.5t39.5 -48t74 -41t115 -34.5q446 -103 446 -440q0 -94 -36.5 -174t-104.5 -138.5t-165 -91.5t-218 -33q-160 0 -295.5 59t-230.5 165z" glyph-name="afii10054" horiz-adv-x="1200"/>
<glyph unicode="І" d="M484 1400v-1400h-332v1400h332z" glyph-name="afii10055" horiz-adv-x="636"/>
<glyph unicode="Ї" d="M484 1400v-1400h-332v1400h332zM-46 1664q0 34 12.5 63t34.5 50.5t51.5 34t63.5 12.5q35 0 64.5 -12.5t51 -34t34 -50.5t12.5 -63t-12.5 -63t-34 -50.5t-51 -34t-64.5 -12.5q-34 0 -63.5 12.5t-51.5 34t-34.5 50.5t-12.5 63zM358 1664q0 34 12.5 63t34.5 50.5t51.5 34 t63.5 12.5q35 0 64.5 -12.5t51 -34t34 -50.5t12.5 -63t-12.5 -63t-34 -50.5t-51 -34t-64.5 -12.5q-34 0 -63.5 12.5t-51.5 34t-34.5 50.5t-12.5 63z" glyph-name="afii10056" horiz-adv-x="636"/>
<glyph unicode="Ј" d="M470 1400h332v-954q0 -115 -31 -202.5t-90.5 -147t-146 -90t-196.5 -30.5q-85 0 -167.5 19t-143.5 54l87 270q37 -23 85.5 -39t94.5 -16q82 0 129 49.5t47 152.5v934z" glyph-name="afii10057" horiz-adv-x="937"/>
<glyph unicode="Љ" d="M556 376q0 -101 -28 -173t-83 -118t-135.5 -67.5t-184.5 -21.5q-24 0 -50.5 1t-44.5 3v282h56q68 0 103 35.5t35 120.5v962h1045v-498h216q111 0 203 -33.5t157.5 -93.5t102 -142.5t36.5 -181.5t-36.5 -181.5t-102 -142.5t-157.5 -93.5t-203 -33.5h-548v1114h-381v-738z M1650 451q0 90 -55 135t-151 45h-175v-360h175q97 0 151.5 44.5t54.5 135.5z" glyph-name="afii10058" horiz-adv-x="2039"/>
<glyph unicode="Њ" d="M1265 902h216q111 0 203 -33.5t157.5 -93.5t102 -142.5t36.5 -181.5t-36.5 -181.5t-102 -142.5t-157.5 -93.5t-203 -33.5h-548v561h-454v-561h-332v1400h332v-553h454v553h332v-498zM1646 451q0 90 -55 135t-151 45h-175v-360h175q97 0 151.5 44.5t54.5 135.5z" glyph-name="afii10059" horiz-adv-x="2035"/>
<glyph unicode="Ћ" d="M1396 0h-332v476q0 30 -11 56.5t-31 46t-47.5 30.5t-60.5 11q-65 0 -113.5 -30t-75.5 -82v-508h-332v1120h-343v280h1018v-280h-343v-320q46 48 112 74t144 26q87 0 163 -30.5t132 -84.5t88 -126.5t32 -156.5v-502z" glyph-name="afii10060" horiz-adv-x="1502"/>
<glyph unicode="Ќ" d="M479 852h74l307 548h358l-391 -687l466 -713h-362l-368 566h-84v-566h-332v1400h332v-548zM664 1850h323l-271 -342h-302z" glyph-name="afii10061" horiz-adv-x="1263"/>
<glyph unicode="Ѝ" d="M1275 0h-308v892l-472 -892h-348v1400h308v-892l472 892h348v-1400zM923 1508h-302l-271 342h324z" glyph-name="uni040D" horiz-adv-x="1422"/>
<glyph unicode="Ў" d="M741 228q-51 -109 -135.5 -168.5t-210.5 -59.5h-206v286h132q42 0 72 20.5t47 55.5l40 82l-453 956h356l277 -637l273 637h356zM660 1488q-72 0 -137.5 23t-115.5 64.5t-81 99.5t-34 127h257q2 -48 33.5 -79.5t77.5 -31.5t77.5 31.5t33.5 79.5h257q-3 -69 -34 -127 t-81 -99.5t-115.5 -64.5t-137.5 -23z" glyph-name="afii10062" horiz-adv-x="1316"/>
<glyph unicode="Џ" d="M891 1400h332v-1400h-372v-280h-332v280h-372v1400h332v-1114h412v1114z" glyph-name="afii10145" horiz-adv-x="1370"/>
<glyph unicode="А" d="M877 1400l486 -1400h-346l-91 292h-462l-91 -292h-346l486 1400h364zM695 1052l-155 -500h310z" glyph-name="afii10017" horiz-adv-x="1390"/>
<glyph unicode="Б" d="M695 902q111 0 203 -33.5t157.5 -93.5t102 -142.5t36.5 -181.5t-36.5 -181.5t-102 -142.5t-157.5 -93.5t-203 -33.5h-548v1400h918v-271h-586v-227h216zM860 451q0 90 -55 135t-151 45h-175v-360h175q97 0 151.5 44.5t54.5 135.5z" glyph-name="afii10018" horiz-adv-x="1254"/>
<glyph unicode="В" d="M147 0v1400h542q98 0 176.5 -27.5t133.5 -77t84.5 -119.5t29.5 -155q0 -102 -48 -176t-126 -107q53 -14 97.5 -43.5t77 -72t51 -96.5t18.5 -117q0 -89 -31 -164t-88 -129.5t-136 -85t-175 -30.5h-606zM801 989q0 70 -39 107.5t-101 37.5h-192v-290h192q62 0 101 37.5 t39 107.5zM855 427q0 74 -42 117.5t-108 43.5h-236v-322h236q66 0 108 44t42 117z" glyph-name="afii10019" horiz-adv-x="1258"/>
<glyph unicode="Г" d="M147 1400h871v-286h-539v-1114h-332v1400z" glyph-name="afii10020" horiz-adv-x="1048"/>
<glyph unicode="Д" d="M1317 -280h-322v280h-623v-280h-322v546h101q43 99 73.5 208.5t49.5 224t27.5 232.5t8.5 234v235h880v-1134h127v-546zM868 266v868h-240q0 -110 -8 -224.5t-25 -226t-43 -217.5t-62 -200h378z" glyph-name="afii10021" horiz-adv-x="1367"/>
<glyph unicode="Е" d="M147 1400h892v-280h-560v-278h512v-276h-512v-286h578v-280h-910v1400z" glyph-name="afii10022" horiz-adv-x="1152"/>
<glyph unicode="Ж" d="M759 1400h332v-548h56l287 548h356l-372 -687l447 -713h-360l-348 566h-66v-566h-332v566h-66l-348 -566h-360l447 713l-372 687h356l287 -548h56v548z" glyph-name="afii10024" horiz-adv-x="1850"/>
<glyph unicode="З" d="M113 1248q66 86 166.5 131t225.5 45q96 0 176 -28.5t137.5 -79t90 -118.5t32.5 -146q0 -46 -14 -89t-39.5 -80.5t-62 -68.5t-81.5 -52q57 -21 106.5 -56.5t85.5 -82t56.5 -102t20.5 -116.5q0 -91 -39 -169.5t-108 -136t-163 -90.5t-203 -33q-70 0 -136 14.5t-125 43 t-108.5 69.5t-85.5 93l188 186q46 -66 108 -104t149 -38q42 0 77.5 15t61.5 40.5t40.5 60.5t14.5 75q0 45 -16 80.5t-46 61t-72.5 39t-94.5 13.5h-150v265h155q38 0 70.5 10.5t55.5 29.5t36 44.5t13 55.5q0 29 -11.5 53t-32.5 41t-49.5 26.5t-61.5 9.5q-55 0 -102 -24 t-82 -66z" glyph-name="afii10025" horiz-adv-x="1078"/>
<glyph unicode="И" d="M1275 0h-308v892l-472 -892h-348v1400h308v-892l472 892h348v-1400z" glyph-name="afii10026" horiz-adv-x="1422"/>
<glyph unicode="Й" d="M1275 0h-308v892l-472 -892h-348v1400h308v-892l472 892h348v-1400zM711 1488q-72 0 -137.5 23t-115.5 64.5t-81 99.5t-34 127h257q2 -48 33.5 -79.5t77.5 -31.5t77.5 31.5t33.5 79.5h257q-3 -69 -34 -127t-81 -99.5t-115.5 -64.5t-137.5 -23z" glyph-name="afii10027" horiz-adv-x="1422"/>
<glyph unicode="К" d="M479 852h74l307 548h358l-391 -687l466 -713h-362l-368 566h-84v-566h-332v1400h332v-548z" glyph-name="afii10028" horiz-adv-x="1263"/>
<glyph unicode="Л" d="M1302 0h-332v1114h-414v-738q0 -101 -28 -173t-83 -118t-135.5 -67.5t-184.5 -21.5q-24 0 -50.5 1t-44.5 3v282h56q68 0 103 35.5t35 120.5v962h1078v-1400z" glyph-name="afii10029" horiz-adv-x="1449"/>
<glyph unicode="М" d="M749 408l-294 520v-928h-308v1400h360l356 -632l356 632h360v-1400h-308v928l-294 -520h-228z" glyph-name="afii10030" horiz-adv-x="1726"/>
<glyph unicode="Н" d="M147 1400h332v-553h464v553h332v-1400h-332v561h-464v-561h-332v1400z" glyph-name="afii10031" horiz-adv-x="1422"/>
<glyph unicode="О" d="M408 700q0 -93 32.5 -172.5t89.5 -138t134 -92t166 -33.5t166 33.5t134 92t89.5 138t32.5 172.5t-32.5 173t-89.5 138.5t-134 91.5t-166 33t-166 -33t-134 -91.5t-89.5 -138.5t-32.5 -173zM74 700q0 153 58 285.5t159.5 230t240 153t298.5 55.5q161 0 299 -55.5 t239.5 -153t159.5 -230t58 -285.5t-58 -285t-159.5 -229.5t-239.5 -153.5t-299 -56q-160 0 -298.5 56t-240 153.5t-159.5 229.5t-58 285z" glyph-name="afii10032" horiz-adv-x="1660"/>
<glyph unicode="П" d="M1223 0h-332v1114h-412v-1114h-332v1400h1076v-1400z" glyph-name="afii10033" horiz-adv-x="1370"/>
<glyph unicode="Р" d="M479 468v-468h-332v1400h518q110 0 201 -34.5t156 -96t101 -147.5t36 -188t-36 -188t-101 -147.5t-156 -96t-201 -34.5h-186zM831 934q0 45 -13.5 82.5t-39.5 64t-63.5 41t-85.5 14.5h-150v-404h150q48 0 85.5 14.5t63.5 41t39.5 64t13.5 82.5z" glyph-name="afii10034" horiz-adv-x="1214"/>
<glyph unicode="С" d="M830 -24q-160 0 -298.5 56t-240 153.5t-159.5 229.5t-58 285t58 285.5t159.5 230t240 153t298.5 55.5q144 0 267 -43.5t223 -123.5l-168 -244q-67 53 -145.5 88t-176.5 35q-89 0 -166 -33t-134 -91.5t-89.5 -138.5t-32.5 -173t32.5 -172.5t89.5 -138t134 -92t166 -33.5 q48 0 93.5 10.5t88 28.5t81 43t70.5 53l175 -242q-102 -87 -230.5 -134t-277.5 -47z" glyph-name="afii10035" horiz-adv-x="1399"/>
<glyph unicode="Т" d="M393 1114h-343v286h1018v-286h-343v-1114h-332v1114z" glyph-name="afii10036" horiz-adv-x="1118"/>
<glyph unicode="У" d="M741 228q-51 -109 -135.5 -168.5t-210.5 -59.5h-206v286h132q42 0 72 20.5t47 55.5l40 82l-453 956h356l277 -637l273 637h356z" glyph-name="afii10037" horiz-adv-x="1316"/>
<glyph unicode="Ф" d="M622 192q-119 0 -222.5 39t-180 107t-120.5 160.5t-44 199.5t44 199.5t120.5 160.5t180 107t222.5 39v196h312v-196q119 0 222.5 -39t180 -107t120.5 -160.5t44 -199.5t-44 -199.5t-120.5 -160.5t-180 -107t-222.5 -39v-192h-312v192zM1187 698q0 48 -19.5 90t-53.5 72.5 t-80 48.5t-100 18v-458q54 0 100 18t80 48.5t53.5 72.5t19.5 90zM369 698q0 -48 19.5 -90t53.5 -72.5t80 -48.5t100 -18v458q-54 0 -100 -18t-80 -48.5t-53.5 -72.5t-19.5 -90z" glyph-name="afii10038" horiz-adv-x="1556"/>
<glyph unicode="Х" d="M921 0l-270 490l-270 -490h-361l422 717l-399 683h361l247 -456l247 456h361l-399 -683l422 -717h-361z" glyph-name="afii10039" horiz-adv-x="1302"/>
<glyph unicode="Ц" d="M147 0v1400h332v-1114h412v1114h332v-1114h125v-566h-306v280h-895z" glyph-name="afii10040" horiz-adv-x="1398"/>
<glyph unicode="Ч" d="M106 1400h332v-476q0 -37 13 -67t35.5 -51.5t54 -33.5t67.5 -12q69 0 124.5 36t84.5 91v513h332v-1400h-332v587q-24 -24 -56 -43.5t-68 -34t-75 -22t-77 -7.5q-92 0 -171.5 32t-138 88.5t-92 132.5t-33.5 164v503z" glyph-name="afii10041" horiz-adv-x="1296"/>
<glyph unicode="Ш" d="M1497 1400h332v-1400h-1682v1400h332v-1114h343v1114h332v-1114h343v1114z" glyph-name="afii10042" horiz-adv-x="1976"/>
<glyph unicode="Щ" d="M147 0v1400h332v-1114h343v1114h332v-1114h343v1114h332v-1114h125v-566h-306v280h-1501z" glyph-name="afii10043" horiz-adv-x="2004"/>
<glyph unicode="Ъ" d="M911 902q111 0 203 -33.5t157.5 -93.5t102 -142.5t36.5 -181.5t-36.5 -181.5t-102 -142.5t-157.5 -93.5t-203 -33.5h-548v1129h-313v271h645v-498h216zM1076 451q0 89 -54 134.5t-151 45.5h-176v-360h176q97 0 151 45t54 135z" glyph-name="afii10044" horiz-adv-x="1465"/>
<glyph unicode="Ы" d="M695 902q111 0 203 -33.5t157.5 -93.5t102 -142.5t36.5 -181.5t-36.5 -181.5t-102 -142.5t-157.5 -93.5t-203 -33.5h-548v1400h332v-498h216zM1629 1400v-1400h-332v1400h332zM479 631v-360h176q97 0 151 45t54 135q0 89 -54 134.5t-151 45.5h-176z" glyph-name="afii10045" horiz-adv-x="1776"/>
<glyph unicode="Ь" d="M695 902q111 0 203 -33.5t157.5 -93.5t102 -142.5t36.5 -181.5t-36.5 -181.5t-102 -142.5t-157.5 -93.5t-203 -33.5h-548v1400h332v-498h216zM479 631v-360h176q97 0 151 45t54 135q0 89 -54 134.5t-151 45.5h-176z" glyph-name="afii10046" horiz-adv-x="1249"/>
<glyph unicode="Э" d="M569 -24q-146 0 -271.5 45t-228.5 130l167 233q69 -55 152 -92.5t181 -37.5q74 0 140.5 23t120.5 65t93 100t58 128h-613v260h613q-19 69 -58 127t-93 100t-120.5 65.5t-140.5 23.5q-96 0 -182.5 -36.5t-149.5 -91.5l-166 233q100 82 225.5 127.5t272.5 45.5 q161 0 299 -55.5t239.5 -153t159.5 -230t58 -285.5t-58 -285t-159.5 -229.5t-239.5 -153.5t-299 -56z" glyph-name="afii10047" horiz-adv-x="1399"/>
<glyph unicode="Ю" d="M479 0h-332v1400h332v-553h144q25 125 91 230.5t163 182.5t219.5 120.5t261.5 43.5q158 0 295.5 -56t238.5 -153.5t159 -229.5t58 -285t-58 -285t-159 -229.5t-238.5 -153.5t-295.5 -56q-140 0 -263.5 44t-220.5 122t-163 185t-90 234h-142v-561zM941 700 q0 -93 32.5 -172.5t88.5 -138t132.5 -92t163.5 -33.5t163.5 33.5t132.5 92t88.5 138t32.5 172.5t-32.5 172.5t-88.5 138t-132.5 92t-163.5 33.5t-163.5 -33.5t-132.5 -92t-88.5 -138t-32.5 -172.5z" glyph-name="afii10048" horiz-adv-x="2183"/>
<glyph unicode="Я" d="M1094 1400v-1400h-328v488h-83l-278 -488h-360l315 532q-65 24 -116.5 64t-87.5 92.5t-55 117t-19 138.5q0 102 36 186t101 144t156 93t201 33h518zM610 1136q-94 0 -147 -54t-53 -145q0 -43 13.5 -79.5t39 -63t62.5 -41.5t85 -15h156v398h-156z" glyph-name="afii10049" horiz-adv-x="1241"/>
<glyph unicode="а" d="M641 258q80 0 142.5 39.5t93.5 105.5v229q-31 66 -93.5 106t-142.5 40q-56 0 -103.5 -20t-82.5 -55t-55 -82.5t-20 -102.5t20 -102.5t55 -82.5t82.5 -55t103.5 -20zM877 96q-60 -57 -141 -88.5t-171 -31.5q-108 0 -200 42.5t-159.5 116t-106 172.5t-38.5 211 q0 113 38.5 211.5t106 172t159.5 116t200 42.5q90 0 171 -31.5t141 -88.5v96h316v-1036h-316v96z" glyph-name="afii10065" horiz-adv-x="1319"/>
<glyph unicode="б" d="M438 867q49 42 115.5 65.5t139.5 23.5q104 0 193.5 -37.5t155 -103t102.5 -154t37 -190.5q0 -105 -41.5 -195.5t-114.5 -157t-173.5 -104.5t-219.5 -38q-114 0 -215 38.5t-176.5 115t-119 190.5t-43.5 264q0 227 43 384.5t139.5 260t253 156.5t383.5 75l47 -282 q-139 -14 -231 -36t-149 -58t-85.5 -89t-40.5 -128zM399 539q0 -72 18 -125t49.5 -87.5t74 -51.5t91.5 -17q51 0 93 15.5t72.5 43.5t47.5 66t17 83t-16.5 83t-46 65.5t-70 43.5t-87.5 16q-78 0 -140 -37.5t-103 -97.5z" glyph-name="afii10066" horiz-adv-x="1240"/>
<glyph unicode="в" d="M126 0v1036h449q75 0 139.5 -21.5t112 -59.5t74.5 -90t27 -113q0 -66 -37 -121t-100 -81q41 -10 75 -33.5t58.5 -56t38 -72t13.5 -80.5q0 -65 -28.5 -121.5t-78 -98t-117 -65t-145.5 -23.5h-481zM414 428v-197h149q51 0 83 27.5t32 70.5t-32 71t-83 28h-149zM542 636 q45 0 73 24t28 61t-28 60.5t-73 23.5h-128v-169h128z" glyph-name="afii10067" horiz-adv-x="1051"/>
<glyph unicode="г" d="M448 754v-754h-322v1036h684v-282h-362z" glyph-name="afii10068" horiz-adv-x="852"/>
<glyph unicode="д" d="M1104 -212h-291v212h-480v-212h-291v447h100q74 157 104 355.5t30 445.5h715v-801h113v-447zM702 235v566h-145q0 -70 -7 -144.5t-20.5 -148t-33 -143.5t-44.5 -130h250z" glyph-name="afii10069" horiz-adv-x="1146"/>
<glyph unicode="е" d="M384 429q8 -49 30.5 -88t57 -66.5t79.5 -42t98 -14.5q79 0 150 33t130 90l174 -177q-86 -94 -202.5 -141t-255.5 -47q-129 0 -236.5 42t-185 115t-120 172t-42.5 213t43.5 213t119.5 172t180 115t225 42q119 0 219.5 -41t173.5 -112.5t114 -167t41 -204.5q0 -26 -4 -54.5 t-11 -51.5h-778zM625 818q-88 0 -150.5 -49t-85.5 -137h461q-19 86 -77 136t-148 50z" glyph-name="afii10070" horiz-adv-x="1238"/>
<glyph unicode="ж" d="M1057 413h-77v-413h-322v413h-77l-223 -413h-350l315 549l-279 487h352l184 -347h78v347h322v-347h78l184 347h352l-279 -487l315 -549h-350z" glyph-name="afii10072" horiz-adv-x="1638"/>
<glyph unicode="з" d="M602 318q0 23 -11.5 43.5t-31 35.5t-45 23.5t-53.5 8.5h-153v238h159q45 0 74 24t29 57q0 17 -8.5 30t-23 23t-33.5 15t-39 5q-47 0 -80.5 -22t-50.5 -57l-243 132q46 86 144.5 136t235.5 50q86 0 159.5 -22t127 -61t84 -92t30.5 -114q0 -34 -11 -67t-32 -62.5 t-50.5 -52.5t-66.5 -36q42 -13 79 -38t64.5 -58.5t43 -74t15.5 -85.5q0 -68 -34 -127t-94.5 -102t-142.5 -67.5t-178 -24.5q-142 0 -251.5 49t-166.5 137l221 150q35 -49 89.5 -74t115.5 -25q27 0 50 7.5t40.5 21.5t27.5 33.5t10 42.5z" glyph-name="afii10073" horiz-adv-x="970"/>
<glyph unicode="и" d="M1126 0h-312v578l-405 -578h-283v1036h312v-578l405 578h283v-1036z" glyph-name="afii10074" horiz-adv-x="1252"/>
<glyph unicode="й" d="M1126 0h-312v578l-405 -578h-283v1036h312v-578l405 578h283v-1036zM626 1164q-72 0 -137.5 23t-115.5 64.5t-81 99.5t-34 127h257q2 -48 33.5 -79.5t77.5 -31.5t77.5 31.5t33.5 79.5h257q-3 -69 -34 -127t-81 -99.5t-115.5 -64.5t-137.5 -23z" glyph-name="afii10075" horiz-adv-x="1252"/>
<glyph unicode="к" d="M521 428h-73v-428h-322v1036h322v-332h78l184 332h352l-278 -472l314 -564h-350z" glyph-name="afii10076" horiz-adv-x="1106"/>
<glyph unicode="л" d="M1132 0h-322v759h-272v-435q0 -73 -28 -134.5t-78 -105t-120 -68t-154 -24.5q-31 0 -60.5 1.5t-55.5 6.5v277h52q54 0 88 31.5t34 85.5v642h916v-1036z" glyph-name="afii10077" horiz-adv-x="1258"/>
<glyph unicode="м" d="M691 561l247 475h320v-1036h-300v605l-174 -322h-184l-174 322v-605h-300v1036h320z" glyph-name="afii10078" horiz-adv-x="1384"/>
<glyph unicode="н" d="M1126 0h-322v397h-356v-397h-322v1036h322v-362h356v362h322v-1036z" glyph-name="afii10079" horiz-adv-x="1252"/>
<glyph unicode="о" d="M61 518q0 114 44 213t122 172t184 115t230 42t230 -42t184 -115t122 -172t44 -213t-44 -213t-122 -172t-184 -115t-230 -42t-230 42t-184 115t-122 172t-44 213zM380 518q0 -55 20 -102.5t55 -82.5t82.5 -55t103.5 -20t103.5 20t82.5 55t55 82.5t20 102.5t-20 102.5 t-55 82.5t-82.5 55t-103.5 20t-103.5 -20t-82.5 -55t-55 -82.5t-20 -102.5z" glyph-name="afii10080" horiz-adv-x="1282"/>
<glyph unicode="п" d="M1126 0h-322v759h-356v-759h-322v1036h1000v-1036z" glyph-name="afii10081" horiz-adv-x="1252"/>
<glyph unicode="р" d="M678 258q56 0 103.5 20t82.5 55t55 82.5t20 102.5t-20 102.5t-55 82.5t-82.5 55t-103.5 20q-80 0 -142.5 -40t-93.5 -106v-229q31 -66 93.5 -105.5t142.5 -39.5zM442 -464h-316v1500h316v-96q60 57 141 88.5t171 31.5q108 0 200.5 -42.5t160 -116t105.5 -172t38 -211.5 q0 -112 -38 -211t-105.5 -172.5t-160 -116t-200.5 -42.5q-90 0 -171 31.5t-141 88.5v-560z" glyph-name="afii10082" horiz-adv-x="1319"/>
<glyph unicode="с" d="M641 -24q-124 0 -230 42t-184 115t-122 172t-44 213t44 213t122 172t184 115t230 42q121 0 222 -38.5t179 -106.5l-153 -233q-49 39 -111 67.5t-133 28.5q-56 0 -103.5 -20t-82.5 -55t-55 -82.5t-20 -102.5t20 -102.5t55 -82.5t82.5 -55t103.5 -20q71 0 136 31t116 75 l172 -217q-79 -80 -188 -125.5t-240 -45.5z" glyph-name="afii10083" horiz-adv-x="1119"/>
<glyph unicode="т" d="M42 754v282h900v-282h-289v-754h-322v754h-289z" glyph-name="afii10084" horiz-adv-x="984"/>
<glyph unicode="у" d="M201 -464l187 464l-370 1036h336l191 -627l193 627h336l-536 -1500h-337z" glyph-name="afii10085" horiz-adv-x="1092"/>
<glyph unicode="ф" d="M641 258q80 0 142.5 39.5t93.5 105.5v229q-31 66 -93.5 106t-142.5 40q-56 0 -103.5 -20t-82.5 -55t-55 -82.5t-20 -102.5t20 -102.5t55 -82.5t82.5 -55t103.5 -20zM1429 258q56 0 103.5 20t82.5 55t55 82.5t20 102.5t-20 102.5t-55 82.5t-82.5 55t-103.5 20 q-80 0 -142.5 -40t-93.5 -106v-229q31 -66 93.5 -105.5t142.5 -39.5zM1193 -464h-316v560q-60 -57 -141 -88.5t-171 -31.5q-108 0 -200 42.5t-159.5 116t-106 172.5t-38.5 211q0 113 38.5 211.5t106 172t159.5 116t200 42.5q90 0 171 -31.5t141 -88.5v520h316v-520 q60 57 141 88.5t171 31.5q108 0 200.5 -42.5t160 -116t105.5 -172t38 -211.5q0 -112 -38 -211t-105.5 -172.5t-160 -116t-200.5 -42.5q-90 0 -171 31.5t-141 88.5v-560z" glyph-name="afii10086" horiz-adv-x="2070"/>
<glyph unicode="х" d="M730 0l-184 329l-184 -329h-344l317 528l-291 508h344l158 -309l158 309h344l-291 -508l317 -528h-344z" glyph-name="afii10087" horiz-adv-x="1092"/>
<glyph unicode="ц" d="M1126 277h125v-557h-298v280h-827v1036h322v-759h356v759h322v-759z" glyph-name="afii10088" horiz-adv-x="1293"/>
<glyph unicode="ч" d="M679 366q-37 -42 -91 -65t-118 -23q-84 0 -156.5 30t-126.5 82.5t-85 123t-31 151.5v371h322v-354q0 -25 9.5 -48.5t26.5 -40.5t41 -27.5t54 -10.5q58 0 96.5 31.5t58.5 78.5v371h322v-1036h-322v366z" glyph-name="afii10089" horiz-adv-x="1127"/>
<glyph unicode="ш" d="M1474 0h-1348v1036h308v-759h212v759h307v-759h212v759h309v-1036z" glyph-name="afii10090" horiz-adv-x="1600"/>
<glyph unicode="щ" d="M126 0v1036h308v-759h212v759h307v-759h212v759h309v-759h125v-557h-298v280h-1175z" glyph-name="afii10091" horiz-adv-x="1641"/>
<glyph unicode="ъ" d="M869 361q0 28 -10.5 52t-29 41t-43.5 27t-54 10h-133v-260h133q29 0 54 10t43.5 27t29 41t10.5 52zM1177 361q0 -76 -30.5 -141.5t-83.5 -114.5t-125 -77t-156 -28h-491v778h-249v258h557v-314h183q84 0 156 -28t125 -76.5t83.5 -114.5t30.5 -142z" glyph-name="afii10092" horiz-adv-x="1233"/>
<glyph unicode="ы" d="M704 361q0 28 -10.5 52t-29 41t-43.5 27t-54 10h-133v-260h133q29 0 54 10t43.5 27t29 41t10.5 52zM1012 361q0 -76 -30.5 -141.5t-83.5 -114.5t-125 -77t-156 -28h-491v1036h308v-314h183q84 0 156 -28t125 -76.5t83.5 -114.5t30.5 -142zM1100 1036h322v-1036h-322v1036 z" glyph-name="afii10093" horiz-adv-x="1548"/>
<glyph unicode="ь" d="M704 361q0 28 -10.5 52t-29 41t-43.5 27t-54 10h-133v-260h133q29 0 54 10t43.5 27t29 41t10.5 52zM1012 361q0 -76 -30.5 -141.5t-83.5 -114.5t-125 -77t-156 -28h-491v1036h308v-314h183q84 0 156 -28t125 -76.5t83.5 -114.5t30.5 -142z" glyph-name="afii10094" horiz-adv-x="1068"/>
<glyph unicode="э" d="M478 -24q-131 0 -240 45.5t-188 125.5l167 200q54 -48 119.5 -81t137.5 -33q45 0 85 13t74 36t59 55.5t40 71.5h-399v213h401q-15 40 -40 73.5t-59 57.5t-75 37t-86 13q-71 0 -134.5 -31t-114.5 -73l-148 216q78 68 179 106.5t222 38.5q124 0 230 -42t184 -115t122 -172 t44 -213t-44 -213t-122 -172t-184 -115t-230 -42z" glyph-name="afii10095" horiz-adv-x="1119"/>
<glyph unicode="ю" d="M1117 1060q124 0 230 -42t184 -115t122 -172t44 -213t-44 -213t-122 -172t-184 -115t-230 -42q-105 0 -196.5 30t-164.5 83.5t-124.5 127.5t-74.5 162h-114v-379h-317v1036h317v-375h115q24 87 75 160t124 126t164.5 83t195.5 30zM1117 258q56 0 103.5 20t82.5 55 t55 82.5t20 102.5t-20 102.5t-55 82.5t-82.5 55t-103.5 20t-103.5 -20t-82.5 -55t-55 -82.5t-20 -102.5t20 -102.5t55 -82.5t82.5 -55t103.5 -20z" glyph-name="afii10096" horiz-adv-x="1758"/>
<glyph unicode="я" d="M86 696q0 72 29.5 134t81.5 108t123 72t153 26h525v-1036h-298v345h-67l-248 -345h-335l285 377q-55 18 -101 49t-79 72t-51 91.5t-18 106.5zM521 805q-27 0 -50 -8.5t-40 -23.5t-27 -34.5t-10 -42.5q0 -48 36 -78.5t91 -30.5h179v218h-179z" glyph-name="afii10097" horiz-adv-x="1124"/>
<glyph unicode="ѐ" d="M384 429q8 -49 30.5 -88t57 -66.5t79.5 -42t98 -14.5q79 0 150 33t130 90l174 -177q-86 -94 -202.5 -141t-255.5 -47q-129 0 -236.5 42t-185 115t-120 172t-42.5 213t43.5 213t119.5 172t180 115t225 42q119 0 219.5 -41t173.5 -112.5t114 -167t41 -204.5q0 -26 -4 -54.5 t-11 -51.5h-778zM625 818q-88 0 -150.5 -49t-85.5 -137h461q-19 86 -77 136t-148 50zM826 1184h-302l-271 342h324z" glyph-name="uni0450" horiz-adv-x="1238"/>
<glyph unicode="ё" d="M384 429q8 -49 30.5 -88t57 -66.5t79.5 -42t98 -14.5q79 0 150 33t130 90l174 -177q-86 -94 -202.5 -141t-255.5 -47q-129 0 -236.5 42t-185 115t-120 172t-42.5 213t43.5 213t119.5 172t180 115t225 42q119 0 219.5 -41t173.5 -112.5t114 -167t41 -204.5q0 -26 -4 -54.5 t-11 -51.5h-778zM625 818q-88 0 -150.5 -49t-85.5 -137h461q-19 86 -77 136t-148 50zM255 1340q0 34 12.5 63t34.5 50.5t51.5 34t63.5 12.5q35 0 64.5 -12.5t51 -34t34 -50.5t12.5 -63t-12.5 -63t-34 -50.5t-51 -34t-64.5 -12.5q-34 0 -63.5 12.5t-51.5 34t-34.5 50.5 t-12.5 63zM659 1340q0 34 12.5 63t34.5 50.5t51.5 34t63.5 12.5q35 0 64.5 -12.5t51 -34t34 -50.5t12.5 -63t-12.5 -63t-34 -50.5t-51 -34t-64.5 -12.5q-34 0 -63.5 12.5t-51.5 34t-34.5 50.5t-12.5 63z" glyph-name="afii10071" horiz-adv-x="1238"/>
<glyph unicode="ђ" d="M20 1327h131v133h322v-133h272v-182h-272v-216q47 60 119 95.5t153 35.5q89 0 163.5 -30.5t128.5 -85t84 -130t30 -165.5v-750q0 -176 -110 -269.5t-312 -93.5q-35 0 -68.5 3.5t-59.5 8.5v242q21 -3 46.5 -4.5t48.5 -1.5q45 0 71.5 12.5t40 35t17.5 54t4 68.5v652 q0 34 -11.5 65t-33.5 55t-54 38t-74 14q-28 0 -55 -9.5t-51 -26t-43.5 -37.5t-33.5 -44v-661h-322v1145h-131v182z" glyph-name="afii10099" horiz-adv-x="1257"/>
<glyph unicode="ѓ" d="M448 754v-754h-322v1036h684v-282h-362zM452 1526h323l-271 -342h-302z" glyph-name="afii10100" horiz-adv-x="852"/>
<glyph unicode="є" d="M641 -24q-124 0 -230 42t-184 115t-122 172t-44 213t44 213t122 172t184 115t230 42q121 0 222 -38.5t179 -106.5l-148 -216q-51 42 -114.5 73t-134.5 31q-45 0 -86 -13t-74.5 -37t-59 -57.5t-40.5 -73.5h401v-213h-399q15 -39 40 -71.5t59 -55.5t74 -36t85 -13 q72 0 137.5 33t119.5 81l167 -200q-79 -80 -188 -125.5t-240 -45.5z" glyph-name="afii10101" horiz-adv-x="1119"/>
<glyph unicode="ѕ" d="M202 338q48 -54 116 -86t143 -32q60 0 93 22.5t33 60.5t-35 63.5t-124 44.5q-165 35 -250 121t-85 217q0 68 28 125t79 98t121.5 64.5t155.5 23.5q108 0 205.5 -39.5t172.5 -102.5l-142 -190q-48 39 -98.5 63.5t-107.5 24.5q-47 0 -75.5 -19t-28.5 -52q0 -35 33.5 -62.5 t111.5 -43.5q179 -37 264 -122t85 -216q0 -70 -29.5 -129.5t-83 -103t-129 -68t-168.5 -24.5q-133 0 -246 45.5t-186 126.5z" glyph-name="afii10102" horiz-adv-x="953"/>
<glyph unicode="і" d="M127 1036h322v-1036h-322v1036zM104 1307q0 37 14 69t39 55.5t58.5 37t72.5 13.5t72.5 -13.5t58.5 -37t39 -55.5t14 -69t-14 -69t-39 -55.5t-58.5 -37t-72.5 -13.5t-72.5 13.5t-58.5 37t-39 55.5t-14 69z" glyph-name="afii10103" horiz-adv-x="576"/>
<glyph unicode="ї" d="M127 1036h322v-1036h-322v1036zM-76 1340q0 34 12.5 63t34.5 50.5t51.5 34t63.5 12.5q35 0 64.5 -12.5t51 -34t34 -50.5t12.5 -63t-12.5 -63t-34 -50.5t-51 -34t-64.5 -12.5q-34 0 -63.5 12.5t-51.5 34t-34.5 50.5t-12.5 63zM328 1340q0 34 12.5 63t34.5 50.5t51.5 34 t63.5 12.5q35 0 64.5 -12.5t51 -34t34 -50.5t12.5 -63t-12.5 -63t-34 -50.5t-51 -34t-64.5 -12.5q-34 0 -63.5 12.5t-51.5 34t-34.5 50.5t-12.5 63z" glyph-name="afii10104" horiz-adv-x="576"/>
<glyph unicode="ј" d="M127 1036h322v-1140q0 -176 -97 -268t-273 -92q-29 0 -61 3t-54 8v267h55q54 0 81 26.5t27 87.5v1108zM104 1307q0 37 14 69t39 55.5t58.5 37t72.5 13.5t72.5 -13.5t58.5 -37t39 -55.5t14 -69t-14 -69t-39 -55.5t-58.5 -37t-72.5 -13.5t-72.5 13.5t-58.5 37t-39 55.5 t-14 69z" glyph-name="afii10105" horiz-adv-x="576"/>
<glyph unicode="љ" d="M538 324q0 -73 -28 -134.5t-78 -105t-120 -68t-154 -24.5q-31 0 -60.5 1.5t-55.5 6.5v277h52q54 0 88 31.5t34 85.5v642h881v-314h183q84 0 156 -28t125 -76.5t83.5 -114.5t30.5 -142t-30.5 -141.5t-83.5 -114.5t-125 -77t-156 -28h-491v764h-251v-440zM1367 361 q0 28 -10.5 52t-29 41t-43.5 27t-54 10h-133v-260h133q29 0 54 10t43.5 27t29 41t10.5 52z" glyph-name="afii10106" horiz-adv-x="1731"/>
<glyph unicode="њ" d="M1669 361q0 -76 -30.5 -141.5t-83.5 -114.5t-125 -77t-156 -28h-491v397h-335v-397h-322v1036h322v-362h335v362h308v-314h183q84 0 156 -28t125 -76.5t83.5 -114.5t30.5 -142zM1361 361q0 28 -10.5 52t-29 41t-43.5 27t-54 10h-133v-260h133q29 0 54 10t43.5 27t29 41 t10.5 52z" glyph-name="afii10107" horiz-adv-x="1725"/>
<glyph unicode="ћ" d="M20 1327h131v133h322v-133h272v-182h-272v-216q47 60 119 95.5t153 35.5q89 0 163.5 -30.5t128.5 -85t84 -130t30 -165.5v-649h-322v606q0 34 -11.5 65t-33.5 55t-54 38t-74 14q-28 0 -55 -9.5t-51 -26t-43.5 -37.5t-33.5 -44v-661h-322v1145h-131v182z" glyph-name="afii10108" horiz-adv-x="1257"/>
<glyph unicode="ќ" d="M521 428h-73v-428h-322v1036h322v-332h78l184 332h352l-278 -472l314 -564h-350zM568 1526h323l-271 -342h-302z" glyph-name="afii10109" horiz-adv-x="1106"/>
<glyph unicode="ѝ" d="M1126 0h-312v578l-405 -578h-283v1036h312v-578l405 578h283v-1036zM833 1184h-302l-271 342h324z" glyph-name="uni045D" horiz-adv-x="1252"/>
<glyph unicode="ў" d="M201 -464l187 464l-370 1036h336l191 -627l193 627h336l-536 -1500h-337zM545 1164q-72 0 -137.5 23t-115.5 64.5t-81 99.5t-34 127h257q2 -48 33.5 -79.5t77.5 -31.5t77.5 31.5t33.5 79.5h257q-3 -69 -34 -127t-81 -99.5t-115.5 -64.5t-137.5 -23z" glyph-name="afii10110" horiz-adv-x="1092"/>
<glyph unicode="џ" d="M787 -280h-322v280h-339v1036h322v-759h356v759h322v-1036h-339v-280z" glyph-name="afii10193" horiz-adv-x="1252"/>
<glyph unicode="Ґ" d="M712 1680h306v-566h-539v-1114h-332v1400h565v280z" glyph-name="afii10050" horiz-adv-x="1048"/>
<glyph unicode="ґ" d="M512 1316h298v-562h-362v-754h-322v1036h386v280z" glyph-name="afii10098" horiz-adv-x="852"/>
<glyph unicode="Ẁ" d="M1158 1400l236 -954l220 954h343l-378 -1400h-337l-250 951l-250 -951h-337l-378 1400h343l220 -954l236 954h332zM1188 1508h-302l-271 342h324z" glyph-name="Wgrave" horiz-adv-x="1984"/>
<glyph unicode="ẁ" d="M964 1036l151 -648l153 648h326l-304 -1036h-331l-153 604l-153 -604h-331l-304 1036h326l153 -648l151 648h316zM994 1184h-302l-271 342h324z" glyph-name="wgrave" horiz-adv-x="1612"/>
<glyph unicode="Ẃ" d="M1158 1400l236 -954l220 954h343l-378 -1400h-337l-250 951l-250 -951h-337l-378 1400h343l220 -954l236 954h332zM1049 1850h323l-271 -342h-302z" glyph-name="Wacute" horiz-adv-x="1984"/>
<glyph unicode="ẃ" d="M964 1036l151 -648l153 648h326l-304 -1036h-331l-153 604l-153 -604h-331l-304 1036h326l153 -648l151 648h316zM864 1526h323l-271 -342h-302z" glyph-name="wacute" horiz-adv-x="1612"/>
<glyph unicode="Ẅ" d="M1158 1400l236 -954l220 954h343l-378 -1400h-337l-250 951l-250 -951h-337l-378 1400h343l220 -954l236 954h332zM628 1664q0 34 12.5 63t34.5 50.5t51.5 34t63.5 12.5q35 0 64.5 -12.5t51 -34t34 -50.5t12.5 -63t-12.5 -63t-34 -50.5t-51 -34t-64.5 -12.5 q-34 0 -63.5 12.5t-51.5 34t-34.5 50.5t-12.5 63zM1032 1664q0 34 12.5 63t34.5 50.5t51.5 34t63.5 12.5q35 0 64.5 -12.5t51 -34t34 -50.5t12.5 -63t-12.5 -63t-34 -50.5t-51 -34t-64.5 -12.5q-34 0 -63.5 12.5t-51.5 34t-34.5 50.5t-12.5 63z" glyph-name="Wdieresis" horiz-adv-x="1984"/>
<glyph unicode="ẅ" d="M964 1036l151 -648l153 648h326l-304 -1036h-331l-153 604l-153 -604h-331l-304 1036h326l153 -648l151 648h316zM442 1340q0 34 12.5 63t34.5 50.5t51.5 34t63.5 12.5q35 0 64.5 -12.5t51 -34t34 -50.5t12.5 -63t-12.5 -63t-34 -50.5t-51 -34t-64.5 -12.5 q-34 0 -63.5 12.5t-51.5 34t-34.5 50.5t-12.5 63zM846 1340q0 34 12.5 63t34.5 50.5t51.5 34t63.5 12.5q35 0 64.5 -12.5t51 -34t34 -50.5t12.5 -63t-12.5 -63t-34 -50.5t-51 -34t-64.5 -12.5q-34 0 -63.5 12.5t-51.5 34t-34.5 50.5t-12.5 63z" glyph-name="wdieresis" horiz-adv-x="1612"/>
<glyph unicode="Ỳ" d="M658 864l272 536h359l-465 -846v-554h-332v554l-465 846h359zM852 1508h-302l-271 342h324z" glyph-name="Ygrave" horiz-adv-x="1316"/>
<glyph unicode="ỳ" d="M201 -464l187 464l-370 1036h336l191 -627l193 627h336l-536 -1500h-337zM732 1184h-302l-271 342h324z" glyph-name="ygrave" horiz-adv-x="1092"/>
<glyph unicode=" " glyph-name="thinspace" horiz-adv-x="400"/>
<glyph unicode="‐" d="M116 518v292h612v-292h-612z" glyph-name="uni2010" horiz-adv-x="844"/>
<glyph unicode="‒" d="M100 518v292h1000v-292h-1000z" glyph-name="figuredash" horiz-adv-x="1200"/>
<glyph unicode="–" d="M0 518v292h1000v-292h-1000z" glyph-name="endash" horiz-adv-x="1000"/>
<glyph unicode="—" d="M0 518v292h2000v-292h-2000z" glyph-name="emdash" horiz-adv-x="2000"/>
<glyph unicode="―" d="M200 518v292h1600v-292h-1600z" glyph-name="afii00208" horiz-adv-x="2000"/>
<glyph unicode="‖" d="M152 1500h292v-1780h-292v1780zM566 1500h292v-1780h-292v1780z" glyph-name="uni2016" horiz-adv-x="1010"/>
<glyph unicode="‗" d="M100 -266h1000v-223h-1000v223zM100 31h1000v-223h-1000v223z" glyph-name="underscoredbl" horiz-adv-x="1200"/>
<glyph unicode="‘" d="M494 1148q0 -39 -14.5 -72.5t-40 -58.5t-60.5 -39t-76 -14t-76 14t-60.5 39t-40 58.5t-14.5 72.5q0 43 20 86l152 324h206l-110 -241q52 -20 83 -65t31 -104z" glyph-name="quoteleft" horiz-adv-x="606"/>
<glyph unicode="’" d="M112 1374q0 39 14.5 72.5t40 58.5t60.5 39t76 14t76 -14t60.5 -39t40 -58.5t14.5 -72.5q0 -43 -20 -86l-152 -324h-206l110 241q-52 20 -83 65t-31 104z" glyph-name="quoteright" horiz-adv-x="606"/>
<glyph unicode="‚" d="M112 160q0 39 14.5 72.5t40 58.5t60.5 39t76 14t76 -14t60.5 -39t40 -58.5t14.5 -72.5q0 -43 -20 -86l-152 -324h-206l110 241q-52 20 -83 65t-31 104z" glyph-name="quotesinglbase" horiz-adv-x="606"/>
<glyph unicode="‛" d="M494 1374q0 -59 -31 -104t-83 -65l110 -241h-206l-152 324q-20 42 -20 86q0 39 14.5 72.5t40 58.5t60.5 39t76 14t76 -14t60.5 -39t40 -58.5t14.5 -72.5z" glyph-name="quotereversed" horiz-adv-x="606"/>
<glyph unicode="“" d="M494 1148q0 -39 -14.5 -72.5t-40 -58.5t-60.5 -39t-76 -14t-76 14t-60.5 39t-40 58.5t-14.5 72.5q0 43 20 86l152 324h206l-110 -241q52 -20 83 -65t31 -104zM921 1148q0 -39 -14.5 -72.5t-40 -58.5t-60.5 -39t-76 -14t-76 14t-60.5 39t-40 58.5t-14.5 72.5q0 43 20 86 l152 324h206l-110 -241q52 -20 83 -65t31 -104z" glyph-name="quotedblleft" horiz-adv-x="1033"/>
<glyph unicode="”" d="M112 1374q0 39 14.5 72.5t40 58.5t60.5 39t76 14t76 -14t60.5 -39t40 -58.5t14.5 -72.5q0 -43 -20 -86l-152 -324h-206l110 241q-52 20 -83 65t-31 104zM539 1374q0 39 14.5 72.5t40 58.5t60.5 39t76 14t76 -14t60.5 -39t40 -58.5t14.5 -72.5q0 -43 -20 -86l-152 -324 h-206l110 241q-52 20 -83 65t-31 104z" glyph-name="quotedblright" horiz-adv-x="1033"/>
<glyph unicode="„" d="M112 160q0 39 14.5 72.5t40 58.5t60.5 39t76 14t76 -14t60.5 -39t40 -58.5t14.5 -72.5q0 -43 -20 -86l-152 -324h-206l110 241q-52 20 -83 65t-31 104zM539 160q0 39 14.5 72.5t40 58.5t60.5 39t76 14t76 -14t60.5 -39t40 -58.5t14.5 -72.5q0 -43 -20 -86l-152 -324h-206 l110 241q-52 20 -83 65t-31 104z" glyph-name="quotedblbase" horiz-adv-x="1033"/>
<glyph unicode="‟" d="M494 1374q0 -59 -31 -104t-83 -65l110 -241h-206l-152 324q-20 42 -20 86q0 39 14.5 72.5t40 58.5t60.5 39t76 14t76 -14t60.5 -39t40 -58.5t14.5 -72.5zM921 1374q0 -59 -31 -104t-83 -65l110 -241h-206l-152 324q-20 42 -20 86q0 39 14.5 72.5t40 58.5t60.5 39t76 14 t76 -14t60.5 -39t40 -58.5t14.5 -72.5z" glyph-name="uni201F" horiz-adv-x="1033"/>
<glyph unicode="†" d="M403 899h-293v277h293v320h326v-320h293v-277h-293v-1161h-326v1161z" glyph-name="dagger" horiz-adv-x="1132"/>
<glyph unicode="‡" d="M110 335h293v564h-293v277h293v320h326v-320h293v-277h-293v-564h293v-277h-293v-320h-326v320h-293v277z" glyph-name="daggerdbl" horiz-adv-x="1132"/>
<glyph unicode="•" d="M106 664q0 61 23 114t63 92.5t93.5 62.5t114.5 23t114.5 -23t93.5 -62.5t63 -92.5t23 -114t-23 -114.5t-63 -93t-93.5 -62t-114.5 -22.5t-114.5 22.5t-93.5 62t-63 93t-23 114.5z" glyph-name="bullet" horiz-adv-x="800"/>
<glyph unicode="․" d="M112 160q0 39 14.5 72.5t40 58.5t60.5 39t76 14t76 -14t60.5 -39t40 -58.5t14.5 -72.5t-14.5 -72.5t-40 -58.5t-60.5 -39t-76 -14t-76 14t-60.5 39t-40 58.5t-14.5 72.5z" glyph-name="onedotenleader" horiz-adv-x="606"/>
<glyph unicode="‥" d="M112 160q0 39 14.5 72.5t40 58.5t60.5 39t76 14t76 -14t60.5 -39t40 -58.5t14.5 -72.5t-14.5 -72.5t-40 -58.5t-60.5 -39t-76 -14t-76 14t-60.5 39t-40 58.5t-14.5 72.5zM718 160q0 39 14.5 72.5t40 58.5t60.5 39t76 14t76 -14t60.5 -39t40 -58.5t14.5 -72.5t-14.5 -72.5 t-40 -58.5t-60.5 -39t-76 -14t-76 14t-60.5 39t-40 58.5t-14.5 72.5z" glyph-name="twodotenleader" horiz-adv-x="1212"/>
<glyph unicode="…" d="M112 160q0 39 14.5 72.5t40 58.5t60.5 39t76 14t76 -14t60.5 -39t40 -58.5t14.5 -72.5t-14.5 -72.5t-40 -58.5t-60.5 -39t-76 -14t-76 14t-60.5 39t-40 58.5t-14.5 72.5zM718 160q0 39 14.5 72.5t40 58.5t60.5 39t76 14t76 -14t60.5 -39t40 -58.5t14.5 -72.5t-14.5 -72.5 t-40 -58.5t-60.5 -39t-76 -14t-76 14t-60.5 39t-40 58.5t-14.5 72.5zM1324 160q0 39 14.5 72.5t40 58.5t60.5 39t76 14t76 -14t60.5 -39t40 -58.5t14.5 -72.5t-14.5 -72.5t-40 -58.5t-60.5 -39t-76 -14t-76 14t-60.5 39t-40 58.5t-14.5 72.5z" glyph-name="ellipsis" horiz-adv-x="1818"/>
<glyph unicode="‰" d="M1130 1400h256l-720 -1400h-258zM341 1053q0 -26 8.5 -48.5t23.5 -39t35.5 -26t45.5 -9.5t45.5 9.5t35.5 26t23.5 39t8.5 48.5t-8.5 48.5t-23.5 39t-35.5 26t-45.5 9.5t-45.5 -9.5t-35.5 -26t-23.5 -39t-8.5 -48.5zM83 1053q0 76 28.5 142t78.5 114.5t118 76.5t146 28 t146 -28t118 -76.5t78.5 -114.5t28.5 -142t-28.5 -142t-78.5 -114.5t-118 -76.5t-146 -28t-146 28t-118 76.5t-78.5 114.5t-28.5 142zM1228 347q0 -26 8.5 -48.5t23.5 -39t35.5 -26t45.5 -9.5t45.5 9.5t35.5 26t23.5 39t8.5 48.5t-8.5 48.5t-23.5 39t-35.5 26t-45.5 9.5 t-45.5 -9.5t-35.5 -26t-23.5 -39t-8.5 -48.5zM970 347q0 76 28.5 142t78.5 114.5t118 76.5t146 28t146 -28t118 -76.5t78.5 -114.5t28.5 -142t-28.5 -142t-78.5 -114.5t-118 -76.5t-146 -28t-146 28t-118 76.5t-78.5 114.5t-28.5 142zM2029 347q0 -26 8.5 -48.5t23.5 -39 t35.5 -26t45.5 -9.5t45.5 9.5t35.5 26t23.5 39t8.5 48.5t-8.5 48.5t-23.5 39t-35.5 26t-45.5 9.5t-45.5 -9.5t-35.5 -26t-23.5 -39t-8.5 -48.5zM1771 347q0 76 28.5 142t78.5 114.5t118 76.5t146 28t146 -28t118 -76.5t78.5 -114.5t28.5 -142t-28.5 -142t-78.5 -114.5 t-118 -76.5t-146 -28t-146 28t-118 76.5t-78.5 114.5t-28.5 142z" glyph-name="perthousand" horiz-adv-x="2596"/>
<glyph unicode="′" d="M243 1400h338l-219 -372h-296z" glyph-name="minute" horiz-adv-x="627"/>
<glyph unicode="″" d="M243 1400h338l-219 -372h-296zM664 1400h338l-219 -372h-296z" glyph-name="second" horiz-adv-x="1048"/>
<glyph unicode="‹" d="M85 699l583 357v-259l-299 -173l299 -174v-259l-583 357v151z" glyph-name="guilsinglleft" horiz-adv-x="772"/>
<glyph unicode="›" d="M687 548l-583 -357v259l299 174l-299 173v259l583 -357v-151z" glyph-name="guilsinglright" horiz-adv-x="772"/>
<glyph unicode="‼" d="M149 1400h332v-966h-332v966zM117 159q0 39 15 72t41.5 58t63 39t78.5 14t78.5 -14t63 -39t41.5 -58t15 -72t-15 -72t-41.5 -58t-63 -39t-78.5 -14t-78.5 14t-63 39t-41.5 58t-15 72zM651 1400h332v-966h-332v966zM619 159q0 39 15 72t41.5 58t63 39t78.5 14t78.5 -14 t63 -39t41.5 -58t15 -72t-15 -72t-41.5 -58t-63 -39t-78.5 -14t-78.5 14t-63 39t-41.5 58t-15 72z" glyph-name="exclamdbl" horiz-adv-x="1132"/>
<glyph unicode="‾" d="M110 1406h640v-236h-640v236z" glyph-name="uni203E" horiz-adv-x="860"/>
<glyph unicode="⁄" d="M385 1400h245l-682 -1400h-247z" glyph-name="fraction" horiz-adv-x="331"/>
<glyph unicode="⁰" glyph-name="zerosuperior" d="M50 926q0 107 22.5 198.5t67.5 158t111.5 104t153.5 37.5t153.5 -37.5t111 -104t67.5 -158t23 -198.5t-23 -198.5t-67.5 -158t-111 -104t-153.5 -37.5t-153.5 37.5t-111.5 104t-67.5 158t-22.5 198.5zM299 926q0 -63 6.5 -114.5t19.5 -87.5t33 -55.5t47 -19.5t46.5 19.5 t33 55.5t20 87.5t6.5 114.5t-6.5 114t-20 87t-33 55.5t-46.5 19.5t-47 -19.5t-33 -55.5t-19.5 -87t-6.5 -114z"/>
<glyph unicode="ⁱ" glyph-name="uni2071" d="M284 1122h241v-670h-241v670zM267 1291q0 27 10.5 50.5t29 41t44 27.5t54.5 10t54.5 -10t44 -27.5t29 -41t10.5 -50.5t-10.5 -50t-29 -40t-44 -27t-54.5 -10t-54.5 10t-44 27t-29 40t-10.5 50z"/>
<glyph unicode="⁴" glyph-name="foursuperior" d="M31 801l401 599h230v-582h99v-206h-99v-160h-241v160h-390v189zM421 817v247l-164 -247h164z"/>
<glyph unicode="⁵" glyph-name="fivesuperior" d="M385 428q-109 0 -196 44t-143 125l164 149q35 -49 74 -76.5t85 -27.5q24 0 45.5 9.5t38 26t26 38t9.5 46.5q0 51 -33 85t-84 34q-26 0 -50 -13t-38 -33l-188 24l63 541h552v-212h-319l-16 -122q10 1 19.5 1.5t20.5 0.5q66 0 126 -22.5t105.5 -63t72 -97.5t26.5 -127 q0 -71 -26 -131.5t-73 -104.5t-113.5 -69t-147.5 -25z"/>
<glyph unicode="⁶" glyph-name="sixsuperior" d="M459 1077q63 -7 119 -32.5t98 -67t66.5 -97t24.5 -121.5q0 -72 -29 -132.5t-78.5 -105t-115 -69t-138.5 -24.5q-74 0 -140.5 24.5t-116 69t-78.5 105t-29 132.5q0 43 12.5 88.5t36.5 82.5l308 470h269zM522 760q0 26 -9 47.5t-25 38t-37.5 25.5t-46.5 9t-46 -9t-37 -25.5 t-25 -38t-9 -47.5t9 -48t25 -38t37 -25t46 -9q51 0 84.5 34t33.5 86z"/>
<glyph unicode="⁷" glyph-name="sevensuperior" d="M728 1400v-186l-313 -762h-274l308 732h-364v216h643z"/>
<glyph unicode="⁸" glyph-name="eightsuperior" d="M292 746q0 -25 9 -46t24.5 -36.5t36 -24t43.5 -8.5t43.5 8.5t36 24t24.5 36.5t9 46t-9 46t-24.5 36.5t-36 24t-43.5 8.5t-43.5 -8.5t-36 -24t-24.5 -36.5t-9 -46zM720 1147q0 -54 -25.5 -102t-68.5 -78q32 -17 57.5 -42.5t42.5 -55.5t26 -63.5t9 -67.5q0 -66 -27 -122.5 t-75 -98.5t-113 -65.5t-141 -23.5t-141 23.5t-113 65.5t-75 98.5t-27 122.5q0 34 9 67.5t26.5 63.5t42.5 55.5t57 42.5q-43 30 -68.5 78t-25.5 102q0 57 23.5 107.5t65.5 88t99.5 59.5t126.5 22t126.5 -22t99.5 -59.5t65.5 -88t23.5 -107.5zM323 1142q0 -35 23 -59.5 t59 -24.5q35 0 58.5 24.5t23.5 59.5t-23.5 58t-58.5 23q-36 0 -59 -23t-23 -58z"/>
<glyph unicode="⁹" glyph-name="ninesuperior" d="M351 775q-63 7 -119 33t-98 67t-66.5 96.5t-24.5 121.5q0 72 29 132.5t78.5 105t115 69t138.5 24.5q74 0 140.5 -24.5t116 -69t78.5 -105t29 -132.5q0 -43 -12.5 -88.5t-36.5 -82.5l-308 -470h-269zM288 1092q0 -25 9 -47t25 -38.5t37.5 -25.5t46.5 -9t46.5 9t37 25.5 t24.5 38.5t9 47q0 26 -9 48t-24.5 38t-37 25t-46.5 9q-51 0 -84.5 -34t-33.5 -86z"/>
<glyph unicode="⁺" glyph-name="uni207A" d="M282 817h-210v218h210v212h246v-212h210v-218h-210v-212h-246v212z"/>
<glyph unicode="⁻" glyph-name="uni207B" d="M72 817v218h666v-218h-666z"/>
<glyph unicode="⁼" glyph-name="uni207C" d="M72 657v213h666v-213h-666zM72 982v213h666v-213h-666z"/>
<glyph unicode="⁽" glyph-name="uni207D" d="M268 926q0 84 16.5 165.5t48 157.5t76 145.5t99.5 128.5l175 -116q-82 -104 -124 -224t-42 -257t42 -257t124 -224l-175 -116q-55 59 -99.5 128.5t-76 145.5t-48 157.5t-16.5 165.5z"/>
<glyph unicode="⁾" glyph-name="uni207E" d="M542 926q0 -84 -16.5 -165.5t-48 -157.5t-75.5 -145.5t-100 -128.5l-175 116q82 104 124 224t42 257t-42 257t-124 224l175 116q56 -59 100 -128.5t75.5 -145.5t48 -157.5t16.5 -165.5z"/>
<glyph unicode="ⁿ" glyph-name="uni207F" d="M326 452h-239v670h239v-46q26 28 61.5 44t77.5 16q57 0 105.5 -20t83.5 -55.5t54.5 -85t19.5 -108.5v-415h-239v389q0 38 -22.5 63t-57.5 25q-27 0 -48.5 -15.5t-34.5 -41.5v-420z"/>
<glyph unicode="₀" glyph-name="zeroinferior" d="M50 212q0 107 22.5 198.5t67.5 158t111.5 104t153.5 37.5t153.5 -37.5t111 -104t67.5 -158t23 -198.5t-23 -198.5t-67.5 -158t-111 -104t-153.5 -37.5t-153.5 37.5t-111.5 104t-67.5 158t-22.5 198.5zM299 212q0 -63 6.5 -114.5t19.5 -87.5t33 -55.5t47 -19.5t46.5 19.5 t33 55.5t20 87.5t6.5 114.5t-6.5 114t-20 87t-33 55.5t-46.5 19.5t-47 -19.5t-33 -55.5t-19.5 -87t-6.5 -114z"/>
<glyph unicode="₁" glyph-name="oneinferior" d="M588 686v-948h-257v705l-138 -76l-92 174l269 145h218z"/>
<glyph unicode="₂" glyph-name="twoinferior" d="M417 -48h297v-214h-625v192l314 343q36 39 51.5 69.5t15.5 65.5q0 38 -22.5 61.5t-58.5 23.5q-34 0 -58.5 -23.5t-43.5 -80.5l-222 73q13 56 41.5 101.5t71 78t97 50.5t118.5 18q71 0 131.5 -20.5t104.5 -57.5t69.5 -89t25.5 -115q0 -78 -30.5 -143.5t-93.5 -133.5z"/>
<glyph unicode="₃" glyph-name="threeinferior" d="M478 46q0 25 -8.5 46.5t-24 37.5t-36.5 25t-46 9q-28 0 -52 -13l-98 122l181 201h-295v212h591v-198l-168 -178q102 -32 158 -109.5t56 -180.5q0 -61 -26.5 -116.5t-74.5 -97.5t-114.5 -67t-146.5 -25q-106 0 -192.5 46t-136.5 127l156 149q35 -51 75 -80t87 -29 q25 0 46 9t36.5 25t24 38t8.5 47z"/>
<glyph unicode="₄" glyph-name="fourinferior" d="M31 87l401 599h230v-582h99v-206h-99v-160h-241v160h-390v189zM421 103v247l-164 -247h164z"/>
<glyph unicode="₅" glyph-name="fiveinferior" d="M385 -286q-109 0 -196 44t-143 125l164 149q35 -49 74 -76.5t85 -27.5q24 0 45.5 9.5t38 26t26 38t9.5 46.5q0 51 -33 85t-84 34q-26 0 -50 -13t-38 -33l-188 24l63 541h552v-212h-319l-16 -122q10 1 19.5 1.5t20.5 0.5q66 0 126 -22.5t105.5 -63t72 -97.5t26.5 -127 q0 -71 -26 -131.5t-73 -104.5t-113.5 -69t-147.5 -25z"/>
<glyph unicode="₆" glyph-name="sixinferior" d="M459 363q63 -7 119 -32.5t98 -67t66.5 -97t24.5 -121.5q0 -72 -29 -132.5t-78.5 -105t-115 -69t-138.5 -24.5q-74 0 -140.5 24.5t-116 69t-78.5 105t-29 132.5q0 43 12.5 88.5t36.5 82.5l308 470h269zM522 46q0 26 -9 47.5t-25 38t-37.5 25.5t-46.5 9t-46 -9t-37 -25.5 t-25 -38t-9 -47.5t9 -48t25 -38t37 -25t46 -9q51 0 84.5 34t33.5 86z"/>
<glyph unicode="₇" glyph-name="seveninferior" d="M728 686v-186l-313 -762h-274l308 732h-364v216h643z"/>
<glyph unicode="₈" glyph-name="eightinferior" d="M292 32q0 -25 9 -46t24.5 -36.5t36 -24t43.5 -8.5t43.5 8.5t36 24t24.5 36.5t9 46t-9 46t-24.5 36.5t-36 24t-43.5 8.5t-43.5 -8.5t-36 -24t-24.5 -36.5t-9 -46zM720 433q0 -54 -25.5 -102t-68.5 -78q32 -17 57.5 -42.5t42.5 -55.5t26 -63.5t9 -67.5q0 -66 -27 -122.5 t-75 -98.5t-113 -65.5t-141 -23.5t-141 23.5t-113 65.5t-75 98.5t-27 122.5q0 34 9 67.5t26.5 63.5t42.5 55.5t57 42.5q-43 30 -68.5 78t-25.5 102q0 57 23.5 107.5t65.5 88t99.5 59.5t126.5 22t126.5 -22t99.5 -59.5t65.5 -88t23.5 -107.5zM323 428q0 -35 23 -59.5 t59 -24.5q35 0 58.5 24.5t23.5 59.5t-23.5 58t-58.5 23q-36 0 -59 -23t-23 -58z"/>
<glyph unicode="₉" glyph-name="nineinferior" d="M351 61q-63 7 -119 33t-98 67t-66.5 96.5t-24.5 121.5q0 72 29 132.5t78.5 105t115 69t138.5 24.5q74 0 140.5 -24.5t116 -69t78.5 -105t29 -132.5q0 -43 -12.5 -88.5t-36.5 -82.5l-308 -470h-269zM288 378q0 -25 9 -47t25 -38.5t37.5 -25.5t46.5 -9t46.5 9t37 25.5 t24.5 38.5t9 47q0 26 -9 48t-24.5 38t-37 25t-46.5 9q-51 0 -84.5 -34t-33.5 -86z"/>
<glyph unicode="₊" glyph-name="uni208A" d="M282 103h-210v218h210v212h246v-212h210v-218h-210v-212h-246v212z"/>
<glyph unicode="₋" glyph-name="uni208B" d="M72 103v218h666v-218h-666z"/>
<glyph unicode="₌" glyph-name="uni208C" d="M72 -57v213h666v-213h-666zM72 268v213h666v-213h-666z"/>
<glyph unicode="₍" glyph-name="uni208D" d="M268 212q0 84 16.5 165.5t48 157.5t76 145.5t99.5 128.5l175 -116q-82 -104 -124 -224t-42 -257t42 -257t124 -224l-175 -116q-55 59 -99.5 128.5t-76 145.5t-48 157.5t-16.5 165.5z"/>
<glyph unicode="₎" glyph-name="uni208E" d="M542 212q0 -84 -16.5 -165.5t-48 -157.5t-75.5 -145.5t-100 -128.5l-175 116q82 104 124 224t42 257t-42 257t-124 224l175 116q56 -59 100 -128.5t75.5 -145.5t48 -157.5t16.5 -165.5z"/>
<glyph unicode="ₐ" glyph-name="uni2090" d="M511 134q-15 32 -46 52.5t-70 20.5q-28 0 -52 -11t-41 -30t-27 -45t-10 -57t10 -57t27 -45.5t41 -30.5t52 -11q40 0 70.5 20t45.5 53v141zM511 -222q-29 -29 -71.5 -46.5t-92.5 -17.5q-67 0 -125 27t-101 74t-67 111t-24 138t24 138t67 111t101 74t125 27q50 0 92.5 -18 t71.5 -47v51h235v-672h-235v50z"/>
<glyph unicode="ₑ" glyph-name="uni2091" d="M289 -4q13 -48 48.5 -76t86.5 -28q46 0 90 22.5t79 57.5l127 -128q-58 -65 -134.5 -97.5t-164.5 -32.5q-82 0 -150.5 27.5t-117 74.5t-75.5 111t-27 137q0 74 27.5 138t76.5 111t115 74t142 27q75 0 139 -26.5t110.5 -72.5t72.5 -108t26 -133q0 -19 -2.5 -39.5 t-7.5 -38.5h-461zM409 235q-43 0 -73 -22.5t-44 -64.5h228q-11 42 -39.5 64.5t-71.5 22.5z"/>
<glyph unicode="ₒ" glyph-name="uni2092" d="M38 64q0 74 28 138t77 111t116 74t145 27q79 0 146 -27t116 -74t77 -111t28 -138t-28 -138t-77 -111t-116 -74t-146 -27q-78 0 -145 27t-116 74t-77 111t-28 138zM273 64q0 -30 10 -56.5t27.5 -46t41.5 -30.5t52 -11q29 0 53 11t41.5 30.5t27.5 46t10 56.5t-10 56 t-27.5 45.5t-41.5 30.5t-53 11q-28 0 -52 -11t-41.5 -30.5t-27.5 -45.5t-10 -56z"/>
<glyph unicode="ₓ" glyph-name="uni2093" d="M405 238l76 162h260l-189 -327l205 -345h-259l-93 182l-93 -182h-259l205 345l-189 327h260z"/>
<glyph unicode="ₔ" glyph-name="uni2094" d="M521 132q-13 48 -48.5 76t-86.5 28q-46 0 -90 -22.5t-79 -57.5l-127 128q58 65 134.5 97.5t164.5 32.5q83 0 151 -27.5t116.5 -74.5t75.5 -111t27 -137q0 -74 -27.5 -138t-76.5 -111t-114.5 -74t-142.5 -27q-75 0 -139 26.5t-110.5 72.5t-72.5 108t-26 133q0 19 2.5 39.5 t7.5 38.5h461zM401 -107q43 0 73 22.5t44 64.5h-228q11 -42 39.5 -64.5t71.5 -22.5z"/>
<glyph unicode="₠" d="M590 422q-112 0 -209 38.5t-168 106t-111.5 159t-40.5 196.5q0 106 40.5 198t111.5 159.5t168 106t209 38.5q101 0 193 -35t173 -101l-141 -211q-54 42 -107.5 68.5t-112.5 26.5q-50 0 -93 -19t-75 -52.5t-50 -79t-18 -99.5q0 -53 18 -98.5t50 -79t75 -52.5t93 -19 q56 0 109.5 19.5t97.5 56.5v221h654v-231h-371v-139h340v-224h-340v-144h383v-231h-666v473q-49 -26 -103 -39t-109 -13z" glyph-name="uni20A0" horiz-adv-x="1589"/>
<glyph unicode="₡" d="M1109 1375q58 -21 110.5 -51t100.5 -67l-158 -229q-25 18 -50 34.5t-53 30.5l-148 -834q75 12 142.5 46t119.5 79l165 -227q-97 -82 -217.5 -128.5t-258.5 -51.5l-32 -181h-166l33 191q-22 3 -45 8t-45 11l-37 -210h-167l48 273q-85 46 -155 112t-119 147t-76 175 t-27 197q0 135 45.5 254.5t127.5 213.5t194.5 157t246.5 86l35 193h167l-32 -181q23 -1 45.5 -3t45.5 -5l34 189h167zM393 700q0 -91 30.5 -169t85.5 -137l125 708q-54 -27 -98.5 -67.5t-76 -92.5t-49 -113t-17.5 -129zM656 284q42 -18 89 -27l157 888q-17 3 -36 4.5 t-36 1.5q-5 0 -10.5 -0.5t-10.5 -1.5z" glyph-name="colonmonetary" horiz-adv-x="1399"/>
<glyph unicode="₢" d="M1338 157q-102 -87 -230.5 -134t-277.5 -47q-160 0 -298.5 56t-240 153.5t-159.5 229.5t-58 285t58 285.5t159.5 230t240 153t298.5 55.5q144 0 267 -43.5t223 -123.5l-158 -229q-67 53 -149.5 88t-182.5 35q-91 0 -171 -34.5t-139 -95.5t-93 -143.5t-34 -177.5 q0 -71 19.5 -135t54 -117.5t83.5 -94t107 -65.5v552h268v-77q30 42 70.5 66.5t88.5 24.5q23 0 48 -6t47 -17l-23 -216q-21 10 -43.5 16.5t-43.5 6.5q-44 0 -81 -25t-63 -73v-278q71 14 134.5 46t113.5 76z" glyph-name="uni20A2" horiz-adv-x="1399"/>
<glyph unicode="₣" d="M539 430v-430h-332v430h-172v159h172v80h-172v159h172v572h872v-284h-540v-288h296v-159h-296v-80h296v-159h-296z" glyph-name="franc" horiz-adv-x="1124"/>
<glyph unicode="₤" d="M76 444v150h213q-3 19 -7.5 38t-9.5 39h-196v150h136q-18 48 -29 98t-11 103q0 84 35 157.5t96 128t144 85.5t179 31q77 0 144.5 -20t122 -54.5t95 -81.5t62.5 -100l-276 -148q-47 116 -148 116q-55 0 -89 -36.5t-34 -92.5q0 -41 13 -89t34 -97h311v-150h-256 q5 -20 9 -39t6 -38h241v-150h-252q-12 -54 -40 -95.5t-68 -70.5h575v-278h-944v264q58 29 97 74.5t54 105.5h-207z" glyph-name="lira" horiz-adv-x="1171"/>
<glyph unicode="₦" d="M175 484h-140v175h140v82h-140v175h140v484h348l472 -892v892h308v-484h140v-175h-140v-82h140v-175h-140v-484h-348l-472 892v-892h-308v484z" glyph-name="uni20A6" horiz-adv-x="1478"/>
<glyph unicode="₧" d="M1966 244q45 0 69.5 19.5t24.5 57.5q0 36 -29 60.5t-96 41.5q-142 35 -219.5 119.5t-77.5 212.5q0 66 25 122t70 96.5t108 63.5t139 23q97 0 183 -40t149 -104l-128 -198q-48 45 -90.5 71t-84.5 26q-34 0 -57 -16t-23 -48q0 -36 26.5 -61t86.5 -39q158 -38 233.5 -122 t75.5 -210q0 -69 -26 -127t-73.5 -101t-114.5 -67t-149 -24h-471q-62 0 -116 6q-134 14 -204.5 97t-70.5 236v429h-131q-21 -69 -58.5 -124.5t-90 -94.5t-118 -60t-142.5 -21h-131v-468h-308v1400h439q85 0 156.5 -26t127 -74t92 -115t50.5 -149h114v271l300 30v-301h188 v-268h-188v-411q0 -59 24 -86t76 -27h440zM716 934q0 91 -42 146.5t-117 55.5h-102v-404h102q75 0 117 55.5t42 146.5z" glyph-name="peseta" horiz-adv-x="2407"/>
<glyph unicode="₨" d="M635 1400q104 0 190 -33t147.5 -93t95.5 -144t34 -186q0 -148 -69 -254.5t-191 -155.5l293 -534h-349l-257 482h-60v-482h-322v1400h488zM1253 333q46 -51 107.5 -82t130.5 -31q57 0 90 24t33 59q0 37 -34.5 62.5t-116.5 45.5q-149 35 -228 121t-79 217q0 68 25.5 125 t72 98t110.5 64.5t142 23.5q98 0 188 -39.5t159 -102.5l-130 -186q-45 38 -91.5 61t-98.5 23q-46 0 -73.5 -19t-27.5 -52q0 -35 32 -62t106 -44q162 -36 241 -122.5t79 -215.5q0 -70 -27 -129.5t-76 -103t-118 -68t-154 -24.5q-121 0 -224.5 45.5t-171.5 126.5zM469 1136 v-398h135q42 0 75 15t55.5 41.5t34 63t11.5 79.5q0 91 -46 145t-130 54h-135z" glyph-name="uni20A8" horiz-adv-x="1946"/>
<glyph unicode="₩" d="M1728 478l-129 -478h-337l-250 951l-250 -951h-337l-129 478h-266v175h219l-21 77h-198v175h150l-133 495h343l220 -954l236 954h332l236 -954l220 954h343l-134 -495h147v-175h-194l-21 -77h215v-175h-262z" glyph-name="uni20A9" horiz-adv-x="2020"/>
<glyph unicode="₪" d="M147 1400h563q109 0 203 -36t163.5 -99t109 -148.5t39.5 -184.5v-408h-286v373q0 51 -18 95t-49.5 76t-75.5 50t-96 18h-267v-1136h-286v1400zM1623 0h-563q-109 0 -203 36t-163.5 99t-109 148.5t-39.5 184.5v408h286v-373q0 -51 18 -95t49.5 -76t75.5 -50t96 -18h267 v1136h286v-1400z" glyph-name="afii57636" horiz-adv-x="1770"/>
<glyph unicode="₫" d="M602 1327h275v133h316v-133h134v-182h-134v-1145h-316v96q-60 -57 -141 -88.5t-171 -31.5q-108 0 -200 42.5t-159.5 116t-106 172.5t-38.5 211q0 113 38.5 211.5t106 172t159.5 116t200 42.5q90 0 171 -31.5t141 -88.5v205h-275v182zM641 258q80 0 142.5 39.5t93.5 105.5 v229q-31 66 -93.5 106t-142.5 40q-56 0 -103.5 -20t-82.5 -55t-55 -82.5t-20 -102.5t20 -102.5t55 -82.5t82.5 -55t103.5 -20zM350 -144h745v-236h-745v236z" glyph-name="dong" horiz-adv-x="1347"/>
<glyph unicode="€" d="M511 484q27 -53 67 -96.5t89.5 -74t107.5 -47.5t121 -17q48 0 95.5 10.5t92 28.5t84 43t71.5 53l165 -227q-102 -87 -230.5 -134t-277.5 -47q-131 0 -247.5 37.5t-210.5 104.5t-162.5 160.5t-103.5 205.5h-152v164h122q-1 13 -1.5 25.5t-0.5 26.5q0 13 0.5 26t1.5 26 h-122v164h152q35 112 103.5 205t162.5 160.5t210.5 105t247.5 37.5q144 0 267 -43.5t223 -123.5l-158 -229q-67 53 -149.5 88t-182.5 35q-63 0 -121 -17t-107.5 -47.5t-89.5 -74t-67 -96.5h494v-164h-544q-2 -13 -2 -26v-26v-26.5t2 -25.5h544v-164h-494z" glyph-name="Euro" horiz-adv-x="1465"/>
<glyph unicode="℅" d="M560 0l684 1400h251l-684 -1400h-251zM528 576q-97 0 -180 33t-144.5 90.5t-96.5 135t-35 165.5q0 89 35 166t96.5 134.5t144.5 90.5t180 33q92 0 176.5 -30t147.5 -83l-141 -204q-41 34 -86.5 57t-96.5 23q-39 0 -73 -14.5t-59 -39.5t-39.5 -59.5t-14.5 -73.5 t14.5 -73.5t39.5 -59.5t59 -39.5t73 -14.5q51 0 97.5 22t85.5 57l153 -187q-65 -60 -152 -94.5t-184 -34.5zM1589 212q39 0 73 14.5t59 39.5t39.5 59.5t14.5 73.5t-14.5 73.5t-39.5 59.5t-59 39.5t-73 14.5t-73 -14.5t-59 -39.5t-39.5 -59.5t-14.5 -73.5t14.5 -73.5 t39.5 -59.5t59 -39.5t73 -14.5zM1589 823q97 0 180 -33t144.5 -90.5t96.5 -134.5t35 -166q0 -88 -35 -165.5t-96.5 -134.5t-144.5 -90t-180 -33t-180 33t-144.5 90t-96.5 134.5t-35 165.5q0 89 35 166t96.5 134.5t144.5 90.5t180 33z" glyph-name="afii61248" horiz-adv-x="2117"/>
<glyph unicode="℉" d="M721 1400h872v-284h-540v-300h492v-284h-492v-532h-332v1400zM40 1139q0 60 23 112t63.5 90.5t95.5 60.5t118 22t118 -22t95.5 -60.5t63.5 -90.5t23 -112t-23 -112t-63.5 -90.5t-95.5 -60.5t-118 -22t-118 22t-95.5 60.5t-63.5 90.5t-23 112zM246 1139q0 -41 26 -67.5 t68 -26.5q41 0 67.5 26.5t26.5 67.5q0 40 -26.5 67t-67.5 27q-42 0 -68 -27t-26 -67z" glyph-name="uni2109" horiz-adv-x="1658"/>
<glyph unicode="ℓ" d="M55 473q59 22 112.5 43t102.5 41v508q0 76 31 141.5t85.5 114t128 76t158.5 27.5t158.5 -27.5t128 -76t85.5 -114t31 -141.5v-47q0 -343 -505 -610v-61q0 -47 28.5 -79.5t75.5 -32.5q55 0 95.5 32.5t68.5 95.5l235 -138q-24 -57 -64 -103.5t-92 -78.5t-113.5 -49.5 t-129.5 -17.5q-77 0 -145 22.5t-121 63t-87.5 95.5t-44.5 119q-33 -13 -67.5 -25.5t-70.5 -24.5zM571 716q109 72 156.5 146.5t47.5 160.5v26q0 24 -7.5 45t-21 37t-32 25t-41.5 9q-45 0 -73.5 -31.5t-28.5 -82.5v-335z" glyph-name="afii61289" horiz-adv-x="1145"/>
<glyph unicode="№" d="M147 1400h286l422 -832v832h297v-1400h-286l-422 832v-832h-297v1400zM1291 314v246h800v-246h-800zM1550 1037q0 -30 10.5 -56t29.5 -45t45 -29.5t56 -10.5t56 10.5t44.5 29.5t29.5 45t11 56t-11 56t-29.5 44.5t-44.5 29.5t-56 11t-56 -11t-45 -29.5t-29.5 -44.5 t-10.5 -56zM1271 1037q0 81 32.5 151.5t89 123t133.5 82.5t165 30t164.5 -30t133.5 -82.5t89.5 -123t32.5 -151.5t-32.5 -152t-89.5 -123t-133.5 -82t-164.5 -30t-165 30t-133.5 82t-89 123t-32.5 152z" glyph-name="afii61352" horiz-adv-x="2221"/>
<glyph unicode="℗" d="M760 557v-243h-217v770h324q62 0 115.5 -20t92.5 -55.5t61.5 -83.5t22.5 -105q0 -56 -22.5 -104t-61.5 -83.5t-92.5 -55.5t-115.5 -20h-107zM940 820q0 37 -25.5 60.5t-66.5 23.5h-88v-167h88q41 0 66.5 23.5t25.5 59.5zM80 700q0 152 56.5 284t154 229.5t230 154 t283.5 56.5q152 0 284 -56.5t229.5 -154t154 -229.5t56.5 -284q0 -151 -56.5 -283.5t-154 -230t-229.5 -154t-284 -56.5q-151 0 -283.5 56.5t-230 154t-154 230t-56.5 283.5zM212 700q0 -126 46 -235.5t126 -190.5t188 -127.5t232 -46.5t232 46.5t188 127.5t126 190.5 t46 235.5t-46 235.5t-126 190.5t-188 127.5t-232 46.5t-232 -46.5t-188 -127.5t-126 -190.5t-46 -235.5z" glyph-name="uni2117" horiz-adv-x="1608"/>
<glyph unicode="℠" d="M180 925q47 -51 96 -81.5t84 -30.5t58.5 17.5t23.5 46.5q0 26 -23 48.5t-89 35.5q-128 26 -189 85t-61 145q0 49 20 89.5t56 70t86 45.5t110 16q83 0 153.5 -31t124.5 -86l-115 -140q-45 42 -85.5 66.5t-73.5 24.5q-26 0 -43.5 -13t-17.5 -34q0 -28 24.5 -47t79.5 -32 q138 -32 198 -93t60 -150q0 -51 -20 -93t-58.5 -72t-93 -47t-123.5 -17q-85 0 -165.5 37t-140.5 103zM1164 866h-130l-116 193v-399h-209v740h193l197 -314l197 314h193v-740h-209v399z" glyph-name="uni2120" horiz-adv-x="1597"/>
<glyph unicode="℡" d="M1107 429q12 -99 62.5 -155t124.5 -56q54 0 109.5 37t106.5 100l172 -184q-71 -98 -170 -146.5t-220 -48.5q-109 0 -199.5 42t-156 115t-101.5 172t-36 213t36.5 213t100.5 172t152 115t190 42q101 0 186 -41t147 -112.5t96.5 -167t34.5 -204.5q0 -26 -3.5 -54.5 t-9.5 -51.5h-622zM369 1114h-319v286h953v-286h-319v-1114h-315v1114zM1812 1460h306v-1460h-306v1460zM1275 818q-61 0 -105 -49t-59 -137h320q-13 86 -53.5 136t-102.5 50z" glyph-name="uni2121" horiz-adv-x="2265"/>
<glyph unicode="™" d="M225 1216h-177v184h577v-184h-177v-556h-223v556zM1138 866h-130l-116 193v-399h-209v740h193l197 -314l197 314h193v-740h-209v399z" glyph-name="trademark" horiz-adv-x="1571"/>
<glyph unicode="Ω" d="M1203 731q0 85 -30.5 159t-83.5 128.5t-124.5 86t-154.5 31.5t-154.5 -31.5t-124.5 -86t-83.5 -128.5t-30.5 -159q0 -75 21 -143.5t61 -127.5t96.5 -107.5t128.5 -82.5v-270h-620v288h252q-136 88 -204.5 209t-68.5 269q0 138 56 258t154.5 209t231 140t285.5 51 t285.5 -51t231 -140t154.5 -209t56 -258q0 -148 -68.5 -269t-204.5 -209h252v-288h-620v270q72 34 128.5 82.5t96.5 107.5t61 127.5t21 143.5z" glyph-name="Omega" horiz-adv-x="1620"/>
<glyph unicode="℮" d="M410 617v-303q74 -80 174.5 -125.5t219.5 -45.5q138 0 255 63t194 178l146 -100q-51 -73 -116.5 -130.5t-142 -97t-161.5 -60t-175 -20.5q-151 0 -283.5 56.5t-230 154t-154 230t-56.5 283.5q0 152 56.5 284t154 229.5t230 154t283.5 56.5q152 0 284 -56.5t229.5 -154 t154 -229.5t56.5 -284v-83h-1118zM804 1257q-119 0 -219.5 -46t-174.5 -126v-303h788v303q-75 80 -175 126t-219 46z" glyph-name="estimated" horiz-adv-x="1608"/>
<glyph unicode="⅓" d="M588 1400v-948h-257v705l-138 -76l-92 174l269 145h218zM1195 1400h245l-682 -1400h-247zM1618 308q0 25 -8.5 46.5t-24 37.5t-36.5 25t-46 9q-28 0 -52 -13l-98 122l181 201h-295v212h591v-198l-168 -178q102 -32 158 -109.5t56 -180.5q0 -61 -26.5 -116.5t-74.5 -97.5 t-114.5 -67t-146.5 -25q-106 0 -192.5 46t-136.5 127l156 149q35 -51 75 -80t87 -29q25 0 46 9t36.5 25t24 38t8.5 47z" glyph-name="onethird" horiz-adv-x="1950"/>
<glyph unicode="⅔" d="M417 666h297v-214h-625v192l314 343q36 39 51.5 69.5t15.5 65.5q0 38 -22.5 61.5t-58.5 23.5q-34 0 -58.5 -23.5t-43.5 -80.5l-222 73q13 56 41.5 101.5t71 78t97 50.5t118.5 18q71 0 131.5 -20.5t104.5 -57.5t69.5 -89t25.5 -115q0 -78 -30.5 -143.5t-93.5 -133.5z M1195 1400h245l-682 -1400h-247zM1618 308q0 25 -8.5 46.5t-24 37.5t-36.5 25t-46 9q-28 0 -52 -13l-98 122l181 201h-295v212h591v-198l-168 -178q102 -32 158 -109.5t56 -180.5q0 -61 -26.5 -116.5t-74.5 -97.5t-114.5 -67t-146.5 -25q-106 0 -192.5 46t-136.5 127 l156 149q35 -51 75 -80t87 -29q25 0 46 9t36.5 25t24 38t8.5 47z" glyph-name="twothirds" horiz-adv-x="1950"/>
<glyph unicode="⅕" d="M588 1400v-948h-257v705l-138 -76l-92 174l269 145h218zM1195 1400h245l-682 -1400h-247zM1525 -26q-109 0 -196 44t-143 125l164 149q35 -49 74 -76.5t85 -27.5q24 0 45.5 9.5t38 26t26 38t9.5 46.5q0 51 -33 85t-84 34q-26 0 -50 -13t-38 -33l-188 24l63 541h552v-212 h-319l-16 -122q10 1 19.5 1.5t20.5 0.5q66 0 126 -22.5t105.5 -63t72 -97.5t26.5 -127q0 -71 -26 -131.5t-73 -104.5t-113.5 -69t-147.5 -25z" glyph-name="onefifth" horiz-adv-x="1950"/>
<glyph unicode="⅖" d="M417 666h297v-214h-625v192l314 343q36 39 51.5 69.5t15.5 65.5q0 38 -22.5 61.5t-58.5 23.5q-34 0 -58.5 -23.5t-43.5 -80.5l-222 73q13 56 41.5 101.5t71 78t97 50.5t118.5 18q71 0 131.5 -20.5t104.5 -57.5t69.5 -89t25.5 -115q0 -78 -30.5 -143.5t-93.5 -133.5z M1195 1400h245l-682 -1400h-247zM1525 -26q-109 0 -196 44t-143 125l164 149q35 -49 74 -76.5t85 -27.5q24 0 45.5 9.5t38 26t26 38t9.5 46.5q0 51 -33 85t-84 34q-26 0 -50 -13t-38 -33l-188 24l63 541h552v-212h-319l-16 -122q10 1 19.5 1.5t20.5 0.5q66 0 126 -22.5 t105.5 -63t72 -97.5t26.5 -127q0 -71 -26 -131.5t-73 -104.5t-113.5 -69t-147.5 -25z" glyph-name="twofifths" horiz-adv-x="1950"/>
</font>
</defs>
</svg>
