
<svg width="32px" height="36px" viewBox="0 0 32 36" version="1.1" xmlns="http://www.w3.org/2000/svg" xmlns:xlink="http://www.w3.org/1999/xlink">
    <!-- Generator: Sketch 51.1 (57501) - http://www.bohemiancoding.com/sketch -->
    <desc>Created with Sketch.</desc>
    <defs></defs>
    <g id="Page-1" stroke="none" stroke-width="1" fill="none" fill-rule="evenodd">
        <g id="kawerka-homepage-PAGE-2-Copy" transform="translate(-732.000000, -1594.000000)" fill="#333" fill-rule="nonzero">
            <g id="user" transform="translate(732.000000, 1594.000000)">
                <path d="M15.75,18 C20.7210938,18 24.75,13.9710937 24.75,9 C24.75,4.02890625 20.7210938,0 15.75,0 C10.7789063,0 6.75,4.02890625 6.75,9 C6.75,13.9710937 10.7789063,18 15.75,18 Z M22.05,20.25 L20.8757813,20.25 C19.3148438,20.9671875 17.578125,21.375 15.75,21.375 C13.921875,21.375 12.1921875,20.9671875 10.6242188,20.25 L9.45,20.25 C4.2328125,20.25 0,24.4828125 0,29.7 L0,32.625 C0,34.4882812 1.51171875,36 3.375,36 L28.125,36 C29.9882812,36 31.5,34.4882812 31.5,32.625 L31.5,29.7 C31.5,24.4828125 27.2671875,20.25 22.05,20.25 Z" id="Shape"></path>
            </g>
        </g>
    </g>
</svg>