<?xml version="1.0" encoding="UTF-8" standalone="no"?>
<!DOCTYPE svg  PUBLIC '-//W3C//DTD SVG 1.1//EN'  'http://www.w3.org/Graphics/SVG/1.1/DTD/svg11.dtd'>
<svg xmlns="http://www.w3.org/2000/svg" version="1.1">
<defs>
<font id="corewebfont-Regular" horiz-adv-x="792">
<font-face bbox="-771 -520 2484 1950" units-per-em="2000" ascent="1600" font-weight="400" cap-height="1400" underline-position="-462" x-height="1036" unicode-range="U+0009-FB04" panose-1="2 11 6 3 3 3 2 2 2 4" descent="-400" font-family="t" underline-thickness="48"/>
<missing-glyph horiz-adv-x="1000" d="M130 0v1500h740v-1500h-740zM717 146v1207h-434v-1207h434z"/>
<glyph glyph-name="ff" horiz-adv-x="1426" unicode="ff" d="M1381 1295q-19 2 -44 3.5t-47 1.5q-111 0 -157.5 -51t-46.5 -152v-61h295v-160h-295v-876h-182v876h-498v-876h-182v876h-179v160h179v63q0 183 92.5 272t288.5 89q40 0 79 -4.5t74 -14.5l-29 -154q-27 6 -56 9.5t-59 3.5q-113 0 -160.5 -51t-47.5 -152v-61h498v63 q0 184 90 272.5t281 88.5q29 0 57.5 -2.5t48.5 -5.5v-157z"/>
<glyph glyph-name="fi" horiz-adv-x="1256" unicode="fi" d="M406 1036h680v-1036h-182v876h-498v-876h-182v876h-179v160h179v63q0 183 91 272t283 89q29 0 58 -2t50 -6v-157q-20 2 -45.5 3.5t-47.5 1.5q-112 0 -159.5 -51t-47.5 -152v-61zM875 1325q0 26 9 47.5t25.5 38t38.5 25.5t47 9q26 0 47.5 -9t38 -25.5t25.5 -38t9 -47.5 q0 -25 -9 -47t-25.5 -38t-38 -25t-47.5 -9q-25 0 -47 9t-38.5 25t-25.5 38t-9 47z"/>
<glyph glyph-name="fl" horiz-adv-x="1256" unicode="fl" d="M701 1295q-19 2 -44 3.5t-47 1.5q-111 0 -157.5 -51t-46.5 -152v-61h295v-160h-295v-876h-182v876h-179v160h179v63q0 184 90 272.5t281 88.5q29 0 57.5 -2.5t48.5 -5.5v-157zM904 1460h182v-1460h-182v1460z"/>
<glyph glyph-name="ffi" horiz-adv-x="1936" unicode="ffi" d="M1555 1325q0 26 9 47.5t25.5 38t38.5 25.5t47 9q26 0 47.5 -9t38 -25.5t25.5 -38t9 -47.5q0 -25 -9 -47t-25.5 -38t-38 -25t-47.5 -9q-25 0 -47 9t-38.5 25t-25.5 38t-9 47zM406 1036h498v63q0 183 91 272t283 89q29 0 58 -2t50 -6v-157q-20 2 -45.5 3.5t-47.5 1.5 q-112 0 -159.5 -51t-47.5 -152v-61h680v-1036h-182v876h-498v-876h-182v876h-498v-876h-182v876h-179v160h179v63q0 183 92.5 272t288.5 89q40 0 79 -4.5t74 -14.5l-29 -154q-27 6 -56 9.5t-59 3.5q-113 0 -160.5 -51t-47.5 -152v-61z"/>
<glyph glyph-name="ffl" horiz-adv-x="1936" unicode="ffl" d="M1381 1295q-19 2 -44 3.5t-47 1.5q-111 0 -157.5 -51t-46.5 -152v-61h295v-160h-295v-876h-182v876h-498v-876h-182v876h-179v160h179v63q0 183 92.5 272t288.5 89q40 0 79 -4.5t74 -14.5l-29 -154q-27 6 -56 9.5t-59 3.5q-113 0 -160.5 -51t-47.5 -152v-61h498v63 q0 184 90 272.5t281 88.5q29 0 57.5 -2.5t48.5 -5.5v-157zM1584 1460h182v-1460h-182v1460z"/>
<glyph glyph-name=".notdef" horiz-adv-x="1000" d="M130 0v1500h740v-1500h-740zM717 146v1207h-434v-1207h434z"/>
<glyph glyph-name=".null" horiz-adv-x="0"/>
<glyph glyph-name=".null" horiz-adv-x="0"/>
<glyph glyph-name="nonmarkingreturn" horiz-adv-x="0" unicode="	"/>
<glyph glyph-name="nonmarkingreturn" horiz-adv-x="0" unicode=""/>
<glyph glyph-name="space" horiz-adv-x="594" unicode=" "/>
<glyph glyph-name="exclam" horiz-adv-x="618" unicode="!" d="M215 1400h188v-1006h-188v1006zM185 100q0 26 9.5 49t26 39.5t39 26t49.5 9.5t49.5 -9.5t39 -26t26 -39.5t9.5 -49q0 -27 -9.5 -49.5t-26 -39t-39 -26t-49.5 -9.5t-49.5 9.5t-39 26t-26 39t-9.5 49.5z"/>
<glyph glyph-name="quotedbl" horiz-adv-x="963" unicode='&quot;' d="M558 1400h182v-566h-182v566zM223 1400h182v-566h-182v566z"/>
<glyph glyph-name="numbersign" horiz-adv-x="1367" unicode="#" d="M285 359h-209v153h235l65 376h-226v153h252l62 359h179l-62 -359h321l62 359h179l-62 -359h210v-153h-236l-65 -376h227v-153h-253l-61 -359h-179l61 359h-321l-61 -359h-179zM490 512h321l65 376h-321z"/>
<glyph glyph-name="dollar" horiz-adv-x="1176" unicode="$" d="M223 329q30 -34 66.5 -65t77 -55.5t84.5 -41t91 -22.5v505q-205 47 -307 148t-102 247q0 80 29.5 147.5t83.5 117t129.5 79t166.5 34.5v181h131v-187q107 -14 192.5 -59t151.5 -112l-112 -135q-51 48 -108 84.5t-124 52.5v-455q112 -28 191 -68t129.5 -92.5t73.5 -117 t23 -141.5q0 -79 -28.5 -147t-82.5 -120t-131.5 -85t-174.5 -42v-184h-131v183q-65 6 -127.5 24t-118.5 46.5t-105 67t-87 84.5zM899 373q0 79 -51.5 141t-174.5 102v-467q51 9 92.5 28.5t71.5 48t46 66t16 81.5zM324 1058q0 -155 218 -229v426q-49 -5 -89.5 -21.5 t-69 -42.5t-44 -59.5t-15.5 -73.5z"/>
<glyph glyph-name="percent" horiz-adv-x="1811" unicode="%" d="M1171 1400h190l-721 -1400h-190zM92 1063q0 72 27 135.5t76 111.5t116 76t147 28t147 -28t116 -76t76 -111.5t27 -135.5t-27 -135.5t-76 -111.5t-116 -76t-147 -28t-147 28t-116 76t-76 111.5t-27 135.5zM269 1063q0 -38 13.5 -73.5t38.5 -63t59.5 -44t77.5 -16.5 t78 16.5t59.5 44t38 63t13.5 73.5t-13.5 73.5t-38 63t-59.5 44t-78 16.5t-77.5 -16.5t-59.5 -44t-38.5 -63t-13.5 -73.5zM987 337q0 72 27 135.5t76 111.5t116 76t147 28t147 -28t116 -76t76 -111.5t27 -135.5t-27 -135.5t-76 -111.5t-116 -76t-147 -28t-147 28t-116 76 t-76 111.5t-27 135.5zM1164 337q0 -38 13.5 -73.5t38.5 -63t59.5 -44t77.5 -16.5t78 16.5t59.5 44t38 63t13.5 73.5t-13.5 73.5t-38 63t-59.5 44t-78 16.5t-77.5 -16.5t-59.5 -44t-38.5 -63t-13.5 -73.5z"/>
<glyph glyph-name="ampersand" horiz-adv-x="1465" unicode="&amp;" d="M826 1118q-24 72 -81 113.5t-138 41.5q-42 0 -78.5 -15t-63.5 -40t-42.5 -58t-15.5 -70q0 -31 10.5 -62t34 -65t61.5 -74t93 -90l408 -375q32 62 53.5 136t29.5 162l177 -26q-10 -111 -42 -211.5t-84 -185.5l326 -299h-254l-182 166q-87 -89 -199 -139.5t-243 -50.5 q-102 0 -188.5 30.5t-150 84.5t-99 126.5t-35.5 156.5q0 127 67 224t195 175q-42 44 -72 83t-49 76.5t-27.5 75.5t-8.5 80q0 72 30.5 133.5t82 106.5t120.5 70.5t146 25.5q72 0 133 -17t110 -49t84.5 -76.5t55.5 -100.5zM596 136q84 0 165.5 37t150.5 110l-410 377 q-100 -60 -148.5 -128t-48.5 -146q0 -52 21.5 -97.5t60 -79.5t92 -53.5t117.5 -19.5z"/>
<glyph glyph-name="quotesingle" horiz-adv-x="628" unicode="&apos;" d="M223 1400h182v-566h-182v566z"/>
<glyph glyph-name="parenleft" horiz-adv-x="831" unicode="(" d="M240 610q0 134 25 263t73 248.5t116.5 225.5t155.5 193l129 -99q-75 -82 -133 -179t-97.5 -203.5t-60 -219.5t-20.5 -229q0 -115 20.5 -228.5t60 -220t97.5 -203.5t133 -179l-129 -99q-87 87 -155.5 193t-116.5 225.5t-73 248.5t-25 263z"/>
<glyph glyph-name="parenright" horiz-adv-x="831" unicode=")" d="M591 610q0 -134 -25 -263t-73 -248.5t-116.5 -225.5t-155.5 -193l-129 99q75 82 133 179t97.5 203.5t60 220t20.5 228.5q0 116 -20.5 229t-60 219.5t-97.5 203.5t-133 179l129 99q87 -87 155.5 -193t116.5 -225.5t73 -248.5t25 -263z"/>
<glyph glyph-name="asterisk" horiz-adv-x="1110" unicode="*" d="M481 794l-4 312h156l-4 -312l270 160l77 -134l-275 -156l275 -156l-77 -134l-270 160l4 -312h-156l4 312l-270 -160l-77 134l275 156l-275 156l77 134z"/>
<glyph glyph-name="plus" horiz-adv-x="1148" unicode="+" d="M483 586h-364v157h364v375h182v-375h364v-157h-364v-376h-182v376z"/>
<glyph glyph-name="comma" horiz-adv-x="594" unicode="," d="M172 101q0 27 9.5 49.5t26.5 39.5t39.5 26.5t49.5 9.5t49.5 -9.5t39.5 -26.5t26.5 -39.5t9.5 -49.5q0 -29 -13 -57l-132 -289h-121l102 227q-38 12 -62 44t-24 75z"/>
<glyph glyph-name="hyphen" horiz-adv-x="804" unicode="-" d="M118 578v172h568v-172h-568z"/>
<glyph glyph-name="period" horiz-adv-x="594" unicode="." d="M172 101q0 27 9.5 49.5t26.5 39.5t39.5 26.5t49.5 9.5t49.5 -9.5t39.5 -26.5t26.5 -39.5t9.5 -49.5t-9.5 -49.5t-26.5 -39.5t-39.5 -26.5t-49.5 -9.5t-49.5 9.5t-39.5 26.5t-26.5 39.5t-9.5 49.5z"/>
<glyph glyph-name="slash" horiz-adv-x="914" unicode="/" d="M212 -280h-193l683 1780h193z"/>
<glyph glyph-name="zero" horiz-adv-x="1188" unicode="0" d="M121 700q0 153 29 285t87.5 229.5t147.5 153.5t209 56t209 -56t147.5 -153.5t87.5 -229.5t29 -285t-29 -285t-87.5 -229.5t-147.5 -153.5t-209 -56t-209 56t-147.5 153.5t-87.5 229.5t-29 285zM306 700q0 -121 16.5 -223t52 -176t90 -115t129.5 -41t129.5 41t90 115 t52 176t16.5 223q0 122 -16.5 223.5t-52 175.5t-90 115t-129.5 41t-129.5 -41t-90 -115t-52 -175.5t-16.5 -223.5z"/>
<glyph glyph-name="one" horiz-adv-x="1188" unicode="1" d="M759 1400v-1400h-185v1214l-265 -145l-78 137l358 194h170z"/>
<glyph glyph-name="two" horiz-adv-x="1188" unicode="2" d="M430 160h587v-160h-830v152l501 552q42 47 72 88.5t49 80t28 76t9 76.5q0 53 -18.5 97t-52 75.5t-79.5 49t-101 17.5q-100 0 -168.5 -55t-103.5 -158l-155 67q20 68 58 124t92 96.5t124 63t153 22.5q94 0 173.5 -28.5t138 -80.5t91.5 -125.5t33 -163.5q0 -58 -12 -109.5 t-36.5 -102t-62 -101.5t-88.5 -108z"/>
<glyph glyph-name="three" horiz-adv-x="1188" unicode="3" d="M840 434q0 62 -23.5 116t-65 94.5t-98.5 64t-123 23.5q-21 0 -41.5 -3.5t-40.5 -9.5l-73 93l360 425h-554v163h779v-163l-334 -386q90 -6 163.5 -42.5t126 -94.5t81 -134t28.5 -163q0 -84 -34.5 -163t-98 -141t-154 -99.5t-202.5 -37.5q-141 0 -251 60.5t-182 170.5 l127 106q54 -81 129 -129t171 -48q66 0 123 23.5t98.5 64t65 94.5t23.5 116z"/>
<glyph glyph-name="four" horiz-adv-x="1188" unicode="4" d="M79 451l639 949h185v-947h165v-169h-165v-284h-185v284h-639v167zM718 451v645l-434 -645h434z"/>
<glyph glyph-name="five" horiz-adv-x="1188" unicode="5" d="M556 -24q-137 0 -248.5 59t-183.5 168l132 108q54 -82 127 -128.5t167 -46.5q66 0 122 23t97.5 63t64.5 94.5t23 117.5t-23 117.5t-64.5 94.5t-97.5 63t-122 23q-75 0 -135.5 -31.5t-92.5 -80.5l-130 16l84 764h714v-163h-550l-49 -415q35 29 86 48t117 19 q90 0 171.5 -31.5t143 -90t97.5 -142t36 -187.5q0 -101 -34.5 -185.5t-98 -146t-153 -96t-200.5 -34.5z"/>
<glyph glyph-name="six" horiz-adv-x="1188" unicode="6" d="M489 863q23 14 56 22.5t71 8.5q92 0 175.5 -33.5t147 -94.5t101 -145t37.5 -185q0 -100 -40 -184.5t-106.5 -146t-154.5 -95.5t-184 -34t-184 34t-155 95.5t-107 146t-40 184.5q0 63 18 127t51 115l464 722h197zM892 436q0 64 -23.5 119t-64 95.5t-95.5 63.5t-117 23 t-117 -23t-96 -63.5t-64.5 -95.5t-23.5 -119q0 -63 23.5 -118t64.5 -95.5t95.5 -63.5t117.5 -23q62 0 117 23t95.5 63.5t64 95.5t23.5 118z"/>
<glyph glyph-name="seven" horiz-adv-x="1188" unicode="7" d="M1026 1400v-156l-522 -1244h-208l522 1237h-649v163h857z"/>
<glyph glyph-name="eight" horiz-adv-x="1188" unicode="8" d="M594 -24q-101 0 -188 33t-151.5 91t-101.5 137t-37 171q0 63 18.5 119.5t53 104t83.5 83t111 55.5q-42 17 -78 46.5t-61.5 67.5t-40 82.5t-14.5 91.5q0 76 30.5 143t84.5 116.5t128.5 78t162.5 28.5q89 0 163.5 -28.5t128.5 -78t84 -116.5t30 -143q0 -47 -14.5 -91.5 t-40 -82.5t-61.5 -67.5t-78 -46.5q62 -20 111 -55.5t83.5 -83t53 -104t18.5 -119.5q0 -92 -37 -171t-101.5 -137t-151.5 -91t-188 -33zM594 687q-63 0 -116.5 -22t-92.5 -59.5t-61.5 -87.5t-22.5 -107q0 -56 22.5 -106t61.5 -87.5t92.5 -59.5t116.5 -22t116.5 22t92.5 59.5 t61.5 87.5t22.5 106q0 57 -22.5 107t-61.5 87.5t-92.5 59.5t-116.5 22zM594 841q48 0 89.5 17.5t72 46.5t48 67.5t17.5 81.5t-17.5 81.5t-48 67t-72 45t-89.5 16.5t-89.5 -16.5t-72 -45t-48 -67t-17.5 -81.5t17.5 -81.5t48 -67.5t72 -46.5t89.5 -17.5z"/>
<glyph glyph-name="nine" horiz-adv-x="1188" unicode="9" d="M699 537q-23 -14 -56 -22.5t-71 -8.5q-92 0 -175.5 33.5t-147 94.5t-101 145t-37.5 185t40 185t106.5 145.5t154.5 95.5t184 34t184 -34t155 -95.5t107 -145.5t40 -185q0 -63 -18 -127t-51 -115l-464 -722h-197zM296 964q0 -64 23.5 -119t64 -95.5t95.5 -63.5t117 -23 t117 23t96 63.5t64.5 95.5t23.5 119q0 63 -23.5 118t-64.5 95.5t-95.5 63.5t-117.5 23q-62 0 -117 -23t-95.5 -63.5t-64 -95.5t-23.5 -118z"/>
<glyph glyph-name="colon" horiz-adv-x="594" unicode=":" d="M172 101q0 27 9.5 49.5t26.5 39.5t39.5 26.5t49.5 9.5t49.5 -9.5t39.5 -26.5t26.5 -39.5t9.5 -49.5t-9.5 -49.5t-26.5 -39.5t-39.5 -26.5t-49.5 -9.5t-49.5 9.5t-39.5 26.5t-26.5 39.5t-9.5 49.5zM172 935q0 27 9.5 49.5t26.5 39.5t39.5 26.5t49.5 9.5t49.5 -9.5 t39.5 -26.5t26.5 -39.5t9.5 -49.5t-9.5 -49.5t-26.5 -39.5t-39.5 -26.5t-49.5 -9.5t-49.5 9.5t-39.5 26.5t-26.5 39.5t-9.5 49.5z"/>
<glyph glyph-name="semicolon" horiz-adv-x="594" unicode=";" d="M172 935q0 27 9.5 49.5t26.5 39.5t39.5 26.5t49.5 9.5t49.5 -9.5t39.5 -26.5t26.5 -39.5t9.5 -49.5t-9.5 -49.5t-26.5 -39.5t-39.5 -26.5t-49.5 -9.5t-49.5 9.5t-39.5 26.5t-26.5 39.5t-9.5 49.5zM172 101q0 27 9.5 49.5t26.5 39.5t39.5 26.5t49.5 9.5t49.5 -9.5 t39.5 -26.5t26.5 -39.5t9.5 -49.5q0 -29 -13 -57l-132 -289h-121l102 227q-38 12 -62 44t-24 75z"/>
<glyph glyph-name="less" horiz-adv-x="1148" unicode="&lt;" d="M994 111l-865 486v132l865 486v-206l-635 -346l635 -346v-206z"/>
<glyph glyph-name="equal" horiz-adv-x="1148" unicode="=" d="M119 812v157h910v-157h-910zM119 360v157h910v-157h-910z"/>
<glyph glyph-name="greater" horiz-adv-x="1148" unicode="&gt;" d="M154 317l635 346l-635 346v206l865 -486v-132l-865 -486v206z"/>
<glyph glyph-name="question" horiz-adv-x="1093" unicode="?" d="M381 753q94 0 167.5 21t124.5 57.5t78 87t27 108.5q0 49 -22.5 91.5t-62.5 73.5t-96 48.5t-124 17.5q-78 0 -154 -34t-139 -89l-99 136q87 74 190.5 113.5t222.5 39.5q107 0 194.5 -32.5t150 -87.5t96.5 -127t34 -151q0 -73 -28 -138t-80 -117t-126 -87.5t-166 -49.5 v-235h-188v354zM353 100q0 26 9.5 49t26 39.5t39 26t49.5 9.5t49.5 -9.5t39 -26t26 -39.5t9.5 -49q0 -27 -9.5 -49.5t-26 -39t-39 -26t-49.5 -9.5t-49.5 9.5t-39 26t-26 39t-9.5 49.5z"/>
<glyph glyph-name="at" horiz-adv-x="1920" unicode="@" d="M954 251q41 0 78 12t68 33.5t55.5 52t40.5 66.5v246q-16 36 -40.5 66t-55.5 52t-68 34t-78 12q-57 0 -106 -22t-85.5 -61t-57 -91.5t-20.5 -112.5t20.5 -112.5t57 -91.5t85.5 -61t106 -22zM1443 112q-37 0 -72.5 11t-66.5 30t-56 45t-41 57q-49 -65 -120 -104t-157 -39 t-159.5 34t-127 92t-84 135.5t-30.5 164.5t30.5 164.5t84 135.5t127 92t159.5 34q84 0 150.5 -35.5t115.5 -95.5v111h154v-614q13 -35 44 -57t68 -22q46 0 87.5 22.5t73 66t50 107.5t18.5 146q0 147 -58.5 273.5t-158.5 219.5t-233.5 146t-283.5 53q-151 0 -283.5 -57 t-231.5 -156t-156 -233t-57 -289q0 -154 57 -288.5t157.5 -233.5t238.5 -156t299 -57q141 0 261 39t225 114l62 -129q-123 -77 -256.5 -120t-291.5 -43q-129 0 -246.5 30t-218.5 85.5t-182.5 134.5t-139 176t-89 210t-31.5 238t31.5 238t89 210t138.5 176t179 134.5 t210.5 85.5t234.5 30q190 0 352.5 -63t282 -174t187 -263t67.5 -331q0 -109 -30 -198t-83.5 -152t-127.5 -97t-162 -34z"/>
<glyph glyph-name="A" horiz-adv-x="1362" unicode="A" d="M1109 0l-130 361h-596l-130 -361h-205l528 1400h210l528 -1400h-205zM923 524l-242 668l-242 -668h484z"/>
<glyph glyph-name="B" horiz-adv-x="1235" unicode="B" d="M168 0v1400h492q94 0 168 -26.5t125.5 -75t78.5 -117t27 -152.5q0 -56 -14 -102t-39.5 -82t-60 -61.5t-75.5 -40.5q54 -12 103 -41t86 -72.5t58.5 -101.5t21.5 -129q0 -88 -29.5 -161.5t-84 -126.5t-132 -82t-173.5 -29h-552zM868 1020q0 52 -16 92.5t-45.5 68t-70 42 t-89.5 14.5h-291v-433h291q49 0 89.5 14.5t70 42t45.5 67.5t16 92zM948 405q0 56 -18 100.5t-50 76t-77 48.5t-99 17h-348v-484h348q54 0 99 17t77 48.5t50 76.5t18 100z"/>
<glyph glyph-name="C" horiz-adv-x="1368" unicode="C" d="M817 142q109 0 206 39.5t173 102.5l100 -141q-97 -79 -218 -123t-261 -44q-156 0 -290.5 56t-233.5 153.5t-155.5 229.5t-56.5 285t56.5 285.5t155.5 230t233.5 153t290.5 55.5q134 0 249.5 -40t212.5 -115l-95 -142q-41 29 -83 53t-87 41t-93.5 27t-103.5 10 q-114 0 -213.5 -43t-173 -118.5t-116 -177.5t-42.5 -219t42.5 -219t116 -177.5t173 -118.5t213.5 -43z"/>
<glyph glyph-name="D" horiz-adv-x="1413" unicode="D" d="M643 1400q158 0 285.5 -49.5t217 -140.5t138 -220.5t48.5 -289.5t-48.5 -289.5t-138 -221t-217 -140.5t-285.5 -49h-475v1400h475zM356 1234v-1068h287q111 0 202.5 34t157 101.5t102 167t36.5 231.5t-36.5 231.5t-102 167t-157 101.5t-202.5 34h-287z"/>
<glyph glyph-name="E" horiz-adv-x="1129" unicode="E" d="M168 1400h827v-163h-639v-452h588v-163h-588v-459h657v-163h-845v1400z"/>
<glyph glyph-name="F" horiz-adv-x="1057" unicode="F" d="M168 1400h807v-163h-619v-451h568v-163h-568v-623h-188v1400z"/>
<glyph glyph-name="G" horiz-adv-x="1440" unicode="G" d="M817 1258q-114 0 -213.5 -43t-173 -118.5t-116 -177.5t-42.5 -219t42.5 -219t116 -177.5t173 -118.5t213.5 -43q81 0 160.5 24.5t140.5 68.5v341h-383v163h571v-586q-94 -81 -219 -129t-270 -48q-156 0 -290.5 56t-233.5 153.5t-155.5 229.5t-56.5 285t56.5 285.5 t155.5 230t233.5 153t290.5 55.5q134 0 249.5 -40t212.5 -115l-95 -142q-41 29 -83 53t-87 41t-93.5 27t-103.5 10z"/>
<glyph glyph-name="H" horiz-adv-x="1394" unicode="H" d="M168 1400h188v-615h682v615h188v-1400h-188v622h-682v-622h-188v1400z"/>
<glyph glyph-name="I" horiz-adv-x="570" unicode="I" d="M379 1400v-1400h-188v1400h188z"/>
<glyph glyph-name="J" horiz-adv-x="909" unicode="J" d="M566 1400h188v-969q0 -236 -110.5 -345.5t-317.5 -109.5q-36 0 -74 4.5t-74 13.5t-69.5 21.5t-60.5 28.5l61 159q44 -26 102.5 -43.5t110.5 -17.5q116 0 180 68.5t64 220.5v969z"/>
<glyph glyph-name="K" horiz-adv-x="1201" unicode="K" d="M356 785h120l428 615h215l-483 -693l563 -707h-221l-496 622h-126v-622h-188v1400h188v-615z"/>
<glyph glyph-name="L" horiz-adv-x="1030" unicode="L" d="M168 1400h188v-1237h627v-163h-815v1400z"/>
<glyph glyph-name="M" horiz-adv-x="1698" unicode="M" d="M789 443l-439 646v-1089h-182v1400h175l506 -749l506 749h175v-1400h-182v1089l-439 -646h-120z"/>
<glyph glyph-name="N" horiz-adv-x="1399" unicode="N" d="M168 1400h181l700 -1074v1074h182v-1400h-181l-700 1074v-1074h-182v1400z"/>
<glyph glyph-name="O" horiz-adv-x="1634" unicode="O" d="M817 142q114 0 213.5 43t173 118.5t116 177.5t42.5 219t-42.5 219t-116 177.5t-173 118.5t-213.5 43t-213.5 -43t-173 -118.5t-116 -177.5t-42.5 -219t42.5 -219t116 -177.5t173 -118.5t213.5 -43zM817 1424q156 0 290.5 -55.5t233.5 -153t155.5 -230t56.5 -285.5 t-56.5 -285t-155.5 -229.5t-233.5 -153.5t-290.5 -56t-290.5 56t-233.5 153.5t-155.5 229.5t-56.5 285t56.5 285.5t155.5 230t233.5 153t290.5 55.5z"/>
<glyph glyph-name="P" horiz-adv-x="1170" unicode="P" d="M356 528v-528h-188v1400h447q111 0 200.5 -31t151.5 -88t95.5 -137.5t33.5 -179.5t-33.5 -179.5t-95.5 -137.5t-151.5 -88t-200.5 -31h-259zM905 964q0 62 -20 112.5t-58 86t-93 55t-126 19.5h-252v-546h252q71 0 126 19.5t93 55t58 86t20 112.5z"/>
<glyph glyph-name="Q" horiz-adv-x="1634" unicode="Q" d="M817 1424q156 0 290.5 -55.5t233.5 -153t155.5 -230t56.5 -285.5q0 -151 -54 -280t-150 -227l199 -214l-121 -111l-207 222q-87 -54 -188.5 -84t-214.5 -30q-156 0 -290.5 56t-233.5 153.5t-155.5 229.5t-56.5 285t56.5 285.5t155.5 230t233.5 153t290.5 55.5zM817 142 q78 0 149 20.5t133 58.5l-246 266l121 111l251 -271q64 74 100.5 169t36.5 204q0 117 -42.5 219t-116 177.5t-173 118.5t-213.5 43t-213.5 -43t-173 -118.5t-116 -177.5t-42.5 -219t42.5 -219t116 -177.5t173 -118.5t213.5 -43z"/>
<glyph glyph-name="R" horiz-adv-x="1200" unicode="R" d="M356 528v-528h-188v1400h447q111 0 200.5 -31t151.5 -88t95.5 -137.5t33.5 -179.5q0 -84 -24 -154.5t-70 -125t-111 -91.5t-148 -53l379 -540h-208l-370 528h-188zM905 964q0 62 -20 112.5t-58 86t-93 55t-126 19.5h-252v-546h252q71 0 126 19.5t93 55t58 86t20 112.5z "/>
<glyph glyph-name="S" horiz-adv-x="1176" unicode="S" d="M223 329q34 -39 75.5 -73t88 -59.5t97.5 -40t105 -14.5q68 0 125 16.5t98 46.5t64 73t23 95q0 47 -17.5 88t-57 75.5t-103 62t-155.5 46.5q-217 45 -325 147.5t-108 252.5q0 84 32.5 153.5t91 120t140.5 78t180 27.5q142 0 250.5 -48.5t189.5 -129.5l-112 -135 q-67 63 -145 105t-174 42q-58 0 -106 -14.5t-82.5 -41t-54 -63.5t-19.5 -81q0 -96 78.5 -158.5t242.5 -99.5q120 -27 204.5 -67t138 -93.5t78 -119.5t24.5 -146q0 -87 -34 -160t-98 -126t-155 -82.5t-205 -29.5q-73 0 -143.5 16t-134 45t-119 71t-97.5 93z"/>
<glyph glyph-name="T" horiz-adv-x="1098" unicode="T" d="M455 1237h-393v163h974v-163h-393v-1237h-188v1237z"/>
<glyph glyph-name="U" horiz-adv-x="1326" unicode="U" d="M1171 489q0 -116 -39 -210.5t-107.5 -161t-161.5 -103t-200 -36.5t-200 36.5t-161.5 103t-107.5 161t-39 210.5v911h188v-932q0 -73 24.5 -133t67.5 -102.5t101.5 -65.5t126.5 -23t126.5 23t101.5 65.5t67.5 102.5t24.5 133v932h188v-911z"/>
<glyph glyph-name="V" horiz-adv-x="1360" unicode="V" d="M680 237l431 1163h202l-528 -1400h-210l-528 1400h202z"/>
<glyph glyph-name="W" horiz-adv-x="1934" unicode="W" d="M1061 1400l324 -1125l304 1125h198l-402 -1400h-188l-330 1141l-330 -1141h-188l-402 1400h198l304 -1125l324 1125h188z"/>
<glyph glyph-name="X" horiz-adv-x="1260" unicode="X" d="M39 0l479 712l-461 688h206l367 -551l367 551h206l-461 -688l479 -712h-206l-385 575l-385 -575h-206z"/>
<glyph glyph-name="Y" horiz-adv-x="1286" unicode="Y" d="M643 758l393 642h203l-502 -826v-574h-188v574l-502 826h203z"/>
<glyph glyph-name="Z" horiz-adv-x="1201" unicode="Z" d="M845 1237h-694v163h919v-163l-724 -1074h744v-163h-969v163z"/>
<glyph glyph-name="bracketleft" horiz-adv-x="831" unicode="[" d="M234 1500h547v-163h-359v-1454h359v-163h-547v1780z"/>
<glyph glyph-name="backslash" horiz-adv-x="914" unicode="\" d="M19 1500h193l683 -1780h-193z"/>
<glyph glyph-name="bracketright" horiz-adv-x="831" unicode="]" d="M597 -280h-547v163h359v1454h-359v163h547v-1780z"/>
<glyph glyph-name="asciicircum" horiz-adv-x="1228" unicode="^" d="M710 1400l409 -622h-204l-301 460l-301 -460h-204l409 622h192z"/>
<glyph glyph-name="underscore" horiz-adv-x="1000" unicode="_" d="M0 -201h1000v-142h-1000v142z"/>
<glyph glyph-name="grave" horiz-adv-x="832" unicode="`" d="M586 1123h-180l-280 337h186z"/>
<glyph glyph-name="a" horiz-adv-x="1297" unicode="a" d="M634 139q56 0 106.5 15t93.5 42t77.5 64.5t57.5 83.5v345q-23 46 -57.5 84.5t-77.5 66t-93.5 42.5t-106.5 15q-79 0 -148 -30t-119 -81.5t-79 -120.5t-29 -147t29 -147t79 -120.5t119 -81.5t148 -30zM604 1060q109 0 202 -40.5t163 -117.5v134h182v-1036h-182v134 q-70 -78 -163 -118t-202 -40q-115 0 -212.5 43.5t-168 117.5t-110 172.5t-39.5 208.5t39.5 208.5t110 172.5t168 117.5t212.5 43.5z"/>
<glyph glyph-name="b" horiz-adv-x="1297" unicode="b" d="M663 139q80 0 148.5 30t118.5 81.5t79 120.5t29 147t-29 147t-79 120.5t-118.5 81.5t-148.5 30q-55 0 -106 -15t-94 -42.5t-77.5 -66t-57.5 -84.5v-345q23 -46 57.5 -83.5t77.5 -64.5t94 -42t106 -15zM693 1060q116 0 213 -43.5t167.5 -117.5t110 -172.5t39.5 -208.5 t-39.5 -208.5t-110 -172.5t-167.5 -117.5t-213 -43.5q-109 0 -202 40t-163 118v-134h-182v1460h182v-558q70 77 163 117.5t202 40.5z"/>
<glyph glyph-name="c" horiz-adv-x="1098" unicode="c" d="M634 -24q-121 0 -223.5 42.5t-177.5 116t-117 172.5t-42 211t42 211t117 172.5t177.5 116t223.5 42.5q113 0 207.5 -36.5t169.5 -100.5l-95 -143q-58 51 -128 84t-154 33q-79 0 -148 -30t-119 -81.5t-79 -120.5t-29 -147t29 -147t79 -120.5t119 -81.5t148 -30 q85 0 158.5 34t130.5 91l107 -133q-75 -73 -175.5 -114t-220.5 -41z"/>
<glyph glyph-name="d" horiz-adv-x="1297" unicode="d" d="M634 139q56 0 106.5 15t93.5 42t77.5 64.5t57.5 83.5v345q-23 46 -57.5 84.5t-77.5 66t-93.5 42.5t-106.5 15q-79 0 -148 -30t-119 -81.5t-79 -120.5t-29 -147t29 -147t79 -120.5t119 -81.5t148 -30zM604 1060q109 0 202 -40.5t163 -117.5v558h182v-1460h-182v134 q-70 -78 -163 -118t-202 -40q-115 0 -212.5 43.5t-168 117.5t-110 172.5t-39.5 208.5t39.5 208.5t110 172.5t168 117.5t212.5 43.5z"/>
<glyph glyph-name="e" horiz-adv-x="1224" unicode="e" d="M260 461q8 -69 38.5 -129t80 -104.5t114 -69.5t139.5 -25q96 0 179.5 40t147.5 110l125 -116q-82 -93 -196 -142t-251 -49q-126 0 -230 42.5t-178 116t-114.5 172.5t-40.5 211q0 113 41.5 211.5t114.5 172t173.5 116t218.5 42.5q116 0 213 -41t167 -111.5t109 -165 t39 -201.5q0 -20 -2.5 -41.5t-6.5 -38.5h-881zM622 903q-65 0 -123.5 -22.5t-105.5 -61.5t-79.5 -92t-46.5 -115h692q-10 63 -39.5 116t-74 92t-101 61t-122.5 22z"/>
<glyph glyph-name="f" horiz-adv-x="746" unicode="f" d="M701 1295q-19 2 -44 3.5t-47 1.5q-111 0 -157.5 -51t-46.5 -152v-61h295v-160h-295v-876h-182v876h-179v160h179v63q0 184 90 272.5t281 88.5q29 0 57.5 -2.5t48.5 -5.5v-157z"/>
<glyph glyph-name="g" horiz-adv-x="1297" unicode="g" d="M969 134q-70 -78 -163 -118t-202 -40q-115 0 -212.5 43.5t-168 117.5t-110 172.5t-39.5 208.5t39.5 208.5t110 172.5t168 117.5t212.5 43.5q109 0 202 -40.5t163 -117.5v134h182v-1003q0 -111 -34 -203t-100.5 -157t-164 -101t-225.5 -36q-73 0 -140 15t-126.5 42 t-110.5 65.5t-92 85.5l120 118q32 -36 70.5 -67t82 -53.5t92.5 -35.5t103 -13q77 0 140.5 22.5t108.5 65t69.5 103t24.5 137.5v113zM634 139q56 0 106.5 15t93.5 42t77.5 64.5t57.5 83.5v345q-23 46 -57.5 84.5t-77.5 66t-93.5 42.5t-106.5 15q-79 0 -148 -30t-119 -81.5 t-79 -120.5t-29 -147t29 -147t79 -120.5t119 -81.5t148 -30z"/>
<glyph glyph-name="h" horiz-adv-x="1207" unicode="h" d="M328 0h-182v1460h182v-583q28 36 63.5 69.5t78 58.5t91.5 40t103 15q92 0 168.5 -31t132 -87t86 -133.5t30.5 -171.5v-637h-182v627q0 58 -19.5 107.5t-55 85.5t-85 56.5t-109.5 20.5q-49 0 -93.5 -18t-83 -47.5t-70 -67.5t-55.5 -77v-687z"/>
<glyph glyph-name="i" horiz-adv-x="522" unicode="i" d="M170 1036h182v-1036h-182v1036zM141 1325q0 26 9 47.5t25.5 38t38.5 25.5t47 9q26 0 47.5 -9t38 -25.5t25.5 -38t9 -47.5q0 -25 -9 -47t-25.5 -38t-38 -25t-47.5 -9q-25 0 -47 9t-38.5 25t-25.5 38t-9 47z"/>
<glyph glyph-name="j" horiz-adv-x="522" unicode="j" d="M170 1036h182v-1170q0 -176 -76 -253t-231 -77q-19 0 -40.5 1t-37.5 3v157q14 -1 28.5 -1h28.5q71 0 108.5 37.5t37.5 129.5v1173zM141 1325q0 26 9 47.5t25.5 38t38.5 25.5t47 9q26 0 47.5 -9t38 -25.5t25.5 -38t9 -47.5q0 -25 -9 -47t-25.5 -38t-38 -25t-47.5 -9 q-25 0 -47 9t-38.5 25t-25.5 38t-9 47z"/>
<glyph glyph-name="k" horiz-adv-x="1029" unicode="k" d="M456 497h-128v-497h-182v1460h182v-806h130l293 382h216l-358 -460l412 -576h-210z"/>
<glyph glyph-name="l" horiz-adv-x="522" unicode="l" d="M170 1460h182v-1460h-182v1460z"/>
<glyph glyph-name="m" horiz-adv-x="1872" unicode="m" d="M328 0h-182v1036h182v-155q25 35 57.5 67t72 57t85.5 40t98 15q60 0 113.5 -15.5t97.5 -43t78.5 -67t57.5 -87.5q29 47 68 86t85 67t99 44t110 16q89 0 161.5 -31t125 -86t81 -131.5t28.5 -166.5v-645h-182v635q0 56 -17 103.5t-48.5 83t-76 55.5t-99.5 20 q-45 0 -86.5 -17.5t-78 -46.5t-67.5 -67.5t-56 -80.5q1 -9 1.5 -19.5t0.5 -20.5v-645h-182v635q0 56 -17 103.5t-48.5 83t-76 55.5t-99.5 20q-46 0 -87 -17t-77 -46t-67 -67t-55 -79v-688z"/>
<glyph glyph-name="n" horiz-adv-x="1207" unicode="n" d="M328 0h-182v1036h182v-159q28 36 63.5 69.5t78 58.5t91.5 40t103 15q92 0 168.5 -31t132 -87t86 -133.5t30.5 -171.5v-637h-182v627q0 58 -19.5 107.5t-55 85.5t-85 56.5t-109.5 20.5q-49 0 -93.5 -18t-83 -47.5t-70 -67.5t-55.5 -77v-687z"/>
<glyph glyph-name="o" horiz-adv-x="1268" unicode="o" d="M634 139q80 0 148.5 30t118.5 81.5t79 120.5t29 147t-29 147t-79 120.5t-118.5 81.5t-148.5 30q-79 0 -148 -30t-119 -81.5t-79 -120.5t-29 -147t29 -147t79 -120.5t119 -81.5t148 -30zM634 1060q121 0 223.5 -42.5t177.5 -116t117 -172.5t42 -211t-42 -211t-117 -172.5 t-177.5 -116t-223.5 -42.5t-223.5 42.5t-177.5 116t-117 172.5t-42 211t42 211t117 172.5t177.5 116t223.5 42.5z"/>
<glyph glyph-name="p" horiz-adv-x="1297" unicode="p" d="M663 139q80 0 148.5 30t118.5 81.5t79 120.5t29 147t-29 147t-79 120.5t-118.5 81.5t-148.5 30q-55 0 -106 -15t-94 -42.5t-77.5 -66t-57.5 -84.5v-345q23 -46 57.5 -83.5t77.5 -64.5t94 -42t106 -15zM693 1060q116 0 213 -43.5t167.5 -117.5t110 -172.5t39.5 -208.5 t-39.5 -208.5t-110 -172.5t-167.5 -117.5t-213 -43.5q-109 0 -202 40t-163 118v-598h-182v1500h182v-134q70 77 163 117.5t202 40.5z"/>
<glyph glyph-name="q" horiz-adv-x="1297" unicode="q" d="M634 139q56 0 106.5 15t93.5 42t77.5 64.5t57.5 83.5v345q-23 46 -57.5 84.5t-77.5 66t-93.5 42.5t-106.5 15q-79 0 -148 -30t-119 -81.5t-79 -120.5t-29 -147t29 -147t79 -120.5t119 -81.5t148 -30zM604 1060q109 0 202 -40.5t163 -117.5v134h182v-1500h-182v598 q-70 -78 -163 -118t-202 -40q-115 0 -212.5 43.5t-168 117.5t-110 172.5t-39.5 208.5t39.5 208.5t110 172.5t168 117.5t212.5 43.5z"/>
<glyph glyph-name="r" unicode="r" d="M626 897q-45 0 -87 -17.5t-80.5 -49t-71.5 -73.5t-59 -92v-665h-182v1036h182v-170q29 39 63.5 74t74.5 62t86 42.5t98 15.5q26 0 51.5 -5.5t45.5 -14.5l-15 -162q-26 9 -53 14t-53 5z"/>
<glyph glyph-name="s" horiz-adv-x="932" unicode="s" d="M176 271q51 -61 125 -99.5t163 -38.5q99 0 155.5 42t56.5 111q0 66 -54 109t-176 66q-172 33 -254.5 112t-82.5 200q0 61 25.5 113.5t72 91t112.5 60.5t147 22q106 0 195 -39t153 -99l-98 -124q-55 48 -111.5 76.5t-125.5 28.5q-40 0 -74.5 -10t-59.5 -27.5t-39.5 -42 t-14.5 -53.5q0 -56 52.5 -99t161.5 -65q180 -35 266.5 -114t86.5 -209q0 -66 -26 -122t-75 -97t-120 -64.5t-161 -23.5q-128 0 -232 46.5t-171 125.5z"/>
<glyph glyph-name="t" horiz-adv-x="764" unicode="t" d="M414 331q0 -98 46.5 -146.5t155.5 -48.5q22 0 49 1.5t44 3.5v-157q-19 -4 -49 -6t-59 -2q-189 0 -279 86t-90 267v547h-187v160h187v284l182 16v-300h283v-160h-283v-545z"/>
<glyph glyph-name="u" horiz-adv-x="1207" unicode="u" d="M879 1036h182v-1036h-182v159q-28 -36 -63.5 -69.5t-78 -58.5t-91.5 -40t-103 -15q-92 0 -168.5 31t-132 87t-86 133.5t-30.5 171.5v637h182v-627q0 -58 19.5 -107.5t55 -85.5t85 -56.5t109.5 -20.5q49 0 93.5 18t83 47.5t70 67.5t55.5 77v687z"/>
<glyph glyph-name="v" horiz-adv-x="1046" unicode="v" d="M617 0h-188l-402 1036h190l306 -798l306 798h190z"/>
<glyph glyph-name="w" horiz-adv-x="1560" unicode="w" d="M874 1036l231 -792l238 792h190l-332 -1036h-188l-233 796l-233 -796h-188l-332 1036h190l238 -792l231 792h188z"/>
<glyph glyph-name="x" horiz-adv-x="1046" unicode="x" d="M27 0l381 529l-355 507h203l267 -384l267 384h203l-355 -507l381 -529h-203l-293 406l-293 -406h-203z"/>
<glyph glyph-name="y" horiz-adv-x="1050" unicode="y" d="M432 4l-405 1032h190l308 -801l308 801h190l-585 -1500h-190z"/>
<glyph glyph-name="z" horiz-adv-x="1012" unicode="z" d="M98 160l572 716h-546v160h765v-160l-571 -716h591v-160h-811v160z"/>
<glyph glyph-name="braceleft" horiz-adv-x="831" unicode="{" d="M149 691q94 0 148 50t54 139v306q0 66 25 123.5t70 99.5t106.5 66.5t134.5 24.5h98v-163h-86q-35 0 -64.5 -12t-50.5 -34t-33 -52t-12 -65v-321q0 -98 -47.5 -158.5t-135.5 -84.5q88 -24 135.5 -84.5t47.5 -158.5v-321q0 -35 12 -65t33 -52t50.5 -34t64.5 -12h86v-163 h-98q-73 0 -134.5 24.5t-106.5 66.5t-70 99.5t-25 123.5v306q0 89 -54 139t-148 50v162z"/>
<glyph glyph-name="bar" horiz-adv-x="649" unicode="|" d="M238 1500h173v-1780h-173v1780z"/>
<glyph glyph-name="braceright" horiz-adv-x="831" unicode="}" d="M682 529q-94 0 -148 -50t-54 -139v-306q0 -66 -25 -123.5t-70 -99.5t-106.5 -66.5t-134.5 -24.5h-98v163h86q35 0 64.5 12t50.5 34t33 52t12 65v321q0 98 47.5 158.5t135.5 84.5q-88 24 -135.5 84.5t-47.5 158.5v321q0 35 -12 65t-33 52t-50.5 34t-64.5 12h-86v163h98 q73 0 134.5 -24.5t106.5 -66.5t70 -99.5t25 -123.5v-306q0 -89 54 -139t148 -50v-162z"/>
<glyph glyph-name="asciitilde" horiz-adv-x="1148" unicode="~" d="M542 575q-20 20 -41 39.5t-42 34.5t-42.5 24.5t-44.5 9.5q-56 0 -88.5 -45t-47.5 -135l-172 43q24 143 97 221.5t193 78.5q74 0 137 -31.5t114 -80.5q21 -20 41.5 -39.5t41.5 -34.5t43 -24.5t44 -9.5q56 0 88.5 45t47.5 135l172 -43q-24 -143 -97 -221.5t-193 -78.5 q-74 0 -137.5 31.5t-113.5 80.5z"/>
<glyph glyph-name="uni00A0" horiz-adv-x="594" unicode=" "/>
<glyph glyph-name="exclamdown" horiz-adv-x="618" unicode="¡" d="M215 642h188v-1006h-188v1006zM185 936q0 27 9.5 49.5t26 39t39 26t49.5 9.5t49.5 -9.5t39 -26t26 -39t9.5 -49.5q0 -26 -9.5 -49t-26 -39.5t-39 -26t-49.5 -9.5t-49.5 9.5t-39 26t-26 39.5t-9.5 49z"/>
<glyph glyph-name="cent" horiz-adv-x="1098" unicode="¢" d="M686 1058q96 -8 177.5 -43t147.5 -92l-95 -143q-49 43 -106.5 73.5t-123.5 39.5v-750q69 10 129 41.5t108 79.5l107 -133q-67 -65 -154 -105t-190 -48v-162h-132v165q-106 13 -194 60.5t-151.5 119t-99 163t-35.5 194.5q0 102 35.5 193.5t99 163.5t151.5 119t194 61v165 h132v-162zM259 518q0 -68 22 -129.5t61 -110.5t93.5 -83t118.5 -48v742q-64 -14 -118.5 -48t-93.5 -83t-61 -110.5t-22 -129.5z"/>
<glyph glyph-name="sterling" horiz-adv-x="1148" unicode="£" d="M141 709h134q-16 38 -31.5 75.5t-28 75.5t-20.5 78.5t-8 83.5q0 84 32.5 157.5t90 128t135 85.5t167.5 31q75 0 138.5 -20.5t114.5 -55.5t87.5 -81.5t56.5 -97.5l-160 -84q-32 78 -91.5 125.5t-145.5 47.5q-50 0 -92.5 -18t-74 -49.5t-49.5 -75t-18 -93.5q0 -38 9.5 -76 t23.5 -77t30.5 -79t30.5 -81h376v-147h-346q4 -20 7 -40.5t3 -39.5q0 -97 -40.5 -177.5t-105.5 -138.5h670v-166h-889v162q79 57 126.5 139.5t47.5 180.5q0 19 -3 39.5t-8 40.5h-169v147z"/>
<glyph glyph-name="currency" horiz-adv-x="1252" unicode="¤" d="M626 927q-58 0 -108 -21.5t-87 -59t-58 -87.5t-21 -107t21 -107t58 -87.5t87 -59t108 -21.5t108 21.5t87 59t58 87.5t21 107t-21 107t-58 87.5t-87 59t-108 21.5zM626 220q-69 0 -131 18t-113 49l-191 -187l-117 117l183 183q-40 52 -62 116t-22 136t22 136t62 116 l-183 183l117 117l191 -187q51 31 113 49t131 18t131 -18t113 -49l191 187l117 -117l-183 -183q40 -52 62 -116t22 -136t-22 -136t-62 -116l183 -183l-117 -117l-191 187q-51 -31 -113 -49t-131 -18z"/>
<glyph glyph-name="yen" horiz-adv-x="1286" unicode="¥" d="M643 758l393 642h203l-417 -686h291v-118h-363l-13 -22v-91h376v-118h-376v-365h-188v365h-376v118h376v91l-14 22h-362v118h291l-417 686h203z"/>
<glyph glyph-name="brokenbar" horiz-adv-x="649" unicode="¦" d="M238 1500h173v-800h-173v800zM238 520h173v-800h-173v800z"/>
<glyph glyph-name="section" horiz-adv-x="1008" unicode="§" d="M943 521q0 -46 -14.5 -88t-41.5 -77.5t-65.5 -63t-85.5 -45.5q57 -41 92 -99t35 -134q0 -67 -28 -124.5t-77.5 -99.5t-117.5 -66t-147 -24q-67 0 -127 17.5t-108.5 50.5t-82 80t-47.5 106l168 38q15 -64 68 -101t129 -37q41 0 76.5 12t61.5 33.5t41 50.5t15 64 q0 51 -31.5 87t-79.5 57l-250 109q-129 56 -195 143t-66 192q0 94 55.5 165.5t150.5 107.5q-57 42 -91.5 100t-34.5 135q0 67 28 124.5t77.5 99.5t117.5 66t147 24q67 0 127 -17.5t108 -50.5t82 -80.5t47 -106.5l-168 -37q-14 63 -67.5 100.5t-128.5 37.5q-42 0 -77.5 -12 t-61.5 -33.5t-40.5 -51t-14.5 -63.5q0 -52 31.5 -88.5t78.5 -56.5l250 -108q130 -56 196 -143.5t66 -192.5zM442 787q-43 -2 -80 -17t-64 -40t-42 -57.5t-15 -70.5q0 -59 41 -110t126 -88l156 -68q43 2 80 17t64.5 40t43 57.5t15.5 70.5q0 59 -41.5 111t-126.5 88z"/>
<glyph glyph-name="dieresis" horiz-adv-x="832" unicode="¨" d="M124 1292q0 24 8.5 44.5t24 35.5t36 24t44.5 9t44.5 -9t36 -24t24 -35.5t8.5 -44.5q0 -48 -32.5 -80.5t-80.5 -32.5t-80.5 32.5t-32.5 80.5zM482 1292q0 24 8.5 44.5t24 35.5t36 24t44.5 9t44.5 -9t36 -24t24 -35.5t8.5 -44.5q0 -48 -32.5 -80.5t-80.5 -32.5t-80.5 32.5 t-32.5 80.5z"/>
<glyph glyph-name="copyright" horiz-adv-x="1602" unicode="©" d="M837 439q59 0 111 21.5t95 56.5l58 -120q-54 -45 -120.5 -69.5t-143.5 -24.5q-84 0 -157.5 30.5t-128 83.5t-85.5 125t-31 156q0 83 31 155.5t85.5 125.5t128 83.5t157.5 30.5q74 0 137 -22.5t117 -64.5l-54 -120q-45 32 -93.5 51.5t-106.5 19.5q-54 0 -100 -20t-80 -55 t-53.5 -82.5t-19.5 -101.5t19.5 -101.5t53.5 -82.5t80 -55t100 -20zM77 700q0 152 56.5 284t154 229.5t230 154t283.5 56.5q152 0 284 -56.5t229.5 -154t154 -229.5t56.5 -284q0 -151 -56.5 -283.5t-154 -230t-229.5 -154t-284 -56.5q-151 0 -283.5 56.5t-230 154t-154 230 t-56.5 283.5zM187 700q0 -130 48 -243.5t131 -197.5t195 -132t240 -48t240 48t195 132t131 197.5t48 243.5t-48 243.5t-131 197.5t-195 132t-240 48t-240 -48t-195 -132t-131 -197.5t-48 -243.5z"/>
<glyph glyph-name="ordfeminine" horiz-adv-x="912" unicode="ª" d="M656 1153q-28 51 -79.5 84t-120.5 33q-49 0 -90.5 -18t-72.5 -49.5t-48.5 -74.5t-17.5 -92t17.5 -92t48.5 -74.5t72.5 -49.5t90.5 -18q69 0 120.5 33t79.5 84v234zM656 757q-38 -48 -95 -74.5t-126 -26.5q-78 0 -145.5 29.5t-117.5 80.5t-78.5 120.5t-28.5 149.5 t28.5 149.5t78.5 120.5t117.5 80.5t145.5 29.5q69 0 126 -26.5t95 -74.5v85h162v-728h-162v85z"/>
<glyph glyph-name="guillemotleft" horiz-adv-x="1271" unicode="«" d="M105 672l553 347v-169l-368 -226l368 -226v-169l-553 347v96zM595 672l553 347v-169l-368 -226l368 -226v-169l-553 347v96z"/>
<glyph glyph-name="logicalnot" horiz-adv-x="1148" unicode="¬" d="M847 586h-728v157h910v-507h-182v350z"/>
<glyph glyph-name="uni00AD" horiz-adv-x="804" unicode="­" d="M118 578v172h568v-172h-568z"/>
<glyph glyph-name="registered" horiz-adv-x="1602" unicode="®" d="M77 700q0 152 56.5 284t154 229.5t230 154t283.5 56.5q152 0 284 -56.5t229.5 -154t154 -229.5t56.5 -284q0 -151 -56.5 -283.5t-154 -230t-229.5 -154t-284 -56.5q-151 0 -283.5 56.5t-230 154t-154 230t-56.5 283.5zM187 700q0 -130 48 -243.5t131 -197.5t195 -132 t240 -48t240 48t195 132t131 197.5t48 243.5t-48 243.5t-131 197.5t-195 132t-240 48t-240 -48t-195 -132t-131 -197.5t-48 -243.5zM699 316h-140v765h271q59 0 108 -18.5t84.5 -51t55.5 -77t20 -97.5q0 -85 -48 -146t-128 -84l193 -291h-154l-182 276h-80v-276zM958 831 q0 53 -38.5 86.5t-101.5 33.5h-119v-241h119q63 0 101.5 33.5t38.5 87.5z"/>
<glyph glyph-name="macron" horiz-adv-x="832" unicode="¯" d="M126 1359h580v-142h-580v142z"/>
<glyph glyph-name="degree" unicode="°" d="M256 1154q0 -29 10.5 -54.5t29.5 -44.5t44.5 -30t55.5 -11t55.5 11t44.5 30t29.5 44.5t10.5 54.5t-10.5 54.5t-29.5 44.5t-44.5 30t-55.5 11t-55.5 -11t-44.5 -30t-29.5 -44.5t-10.5 -54.5zM121 1154q0 56 21 105t58 85t87.5 56.5t108.5 20.5t108.5 -20.5t87.5 -56.5 t58 -85t21 -105t-21 -105t-58 -85t-87.5 -56.5t-108.5 -20.5t-108.5 20.5t-87.5 56.5t-58 85t-21 105z"/>
<glyph glyph-name="plusminus" horiz-adv-x="1148" unicode="±" d="M483 663h-364v157h364v368h182v-368h364v-157h-364v-368h-182v368zM119 0v157h910v-157h-910z"/>
<glyph glyph-name="twosuperior" unicode="²" d="M308 585h376v-133h-591v118l338 371q54 60 77 107t23 98q0 32 -11 58.5t-30.5 45.5t-46.5 30t-60 11q-120 0 -166 -147l-140 54q29 108 109.5 167t196.5 59q66 0 123 -20t99 -56t65.5 -87.5t23.5 -114.5q0 -39 -8 -74.5t-25 -70t-43 -69.5t-61 -74z"/>
<glyph glyph-name="threesuperior" unicode="³" d="M546 746q0 38 -14.5 71.5t-39.5 58.5t-59 39t-73 14q-29 0 -64 -11l-62 77l230 270h-356v135h556v-123l-212 -244q56 -9 103 -35.5t81 -66t53 -90t19 -107.5q0 -58 -24.5 -113.5t-69.5 -98t-108.5 -68.5t-141.5 -26q-102 0 -180.5 45.5t-128.5 123.5l110 94 q40 -60 88 -95t107 -35q39 0 73 14.5t59 39t39.5 58.5t14.5 73z"/>
<glyph glyph-name="acute" horiz-adv-x="832" unicode="´" d="M520 1460h186l-280 -337h-180z"/>
<glyph glyph-name="mu" horiz-adv-x="1227" unicode="µ" d="M146 1036h182v-707q14 -42 41 -76.5t62 -60t77.5 -39.5t87.5 -14q46 0 90 17t83 45.5t72 65.5t58 77v692h182v-1036h-182v153q-27 -36 -62 -68t-76 -56.5t-87 -38.5t-96 -14q-39 0 -75.5 10.5t-69 28t-59 41.5t-46.5 51v-571h-182v1500z"/>
<glyph glyph-name="paragraph" horiz-adv-x="1160" unicode="¶" d="M531 536q-94 0 -175 33t-141 91.5t-94 137.5t-34 170q0 92 34 170.5t94 137t141 91.5t175 33h453v-1662h-137v1533h-122v-1533h-137v798h-57z"/>
<glyph glyph-name="periodcentered" horiz-adv-x="594" unicode="·" d="M172 653q0 27 9.5 49.5t26.5 39.5t39.5 26.5t49.5 9.5t49.5 -9.5t39.5 -26.5t26.5 -39.5t9.5 -49.5t-9.5 -49.5t-26.5 -39.5t-39.5 -26.5t-49.5 -9.5t-49.5 9.5t-39.5 26.5t-26.5 39.5t-9.5 49.5z"/>
<glyph glyph-name="cedilla" horiz-adv-x="832" unicode="¸" d="M364 -209q-29 0 -56 -5l-33 38l96 176h142l-73 -115q42 -8 76.5 -26.5t58.5 -44.5t37 -58.5t13 -67.5q0 -45 -19.5 -83t-53 -65.5t-79.5 -43.5t-100 -16q-51 0 -97 14.5t-82 43.5l62 90q21 -17 50 -26.5t58 -9.5q53 0 86 28.5t33 70.5t-33 71t-86 29z"/>
<glyph glyph-name="onesuperior" unicode="¹" d="M533 1400v-948h-162v783l-168 -91l-63 119l255 137h138z"/>
<glyph glyph-name="ordmasculine" horiz-adv-x="912" unicode="º" d="M64 1036q0 80 30.5 149t83.5 120.5t124.5 81t153.5 29.5t153.5 -29.5t124.5 -81t83.5 -120.5t30.5 -149q0 -79 -30.5 -148.5t-83.5 -121t-124.5 -81t-153.5 -29.5t-153.5 29.5t-124.5 81t-83.5 121t-30.5 148.5zM226 1036q0 -50 17.5 -92.5t48.5 -74t73 -49.5t91 -18 t91 18t73 49.5t48.5 74t17.5 92.5t-17.5 92.5t-48.5 74t-73 49.5t-91 18t-91 -18t-73 -49.5t-48.5 -74t-17.5 -92.5z"/>
<glyph glyph-name="guillemotright" horiz-adv-x="1271" unicode="»" d="M1166 576l-553 -347v169l368 226l-368 226v169l553 -347v-96zM676 576l-553 -347v169l368 226l-368 226v169l553 -347v-96z"/>
<glyph glyph-name="onequarter" horiz-adv-x="1911" unicode="¼" d="M533 1400v-948h-162v783l-168 -91l-63 119l255 137h138zM1218 1400h159l-684 -1400h-159zM1158 313l433 635h154v-622h109v-139h-109v-187h-162v187h-425v126zM1583 325v368l-246 -368h246z"/>
<glyph glyph-name="onehalf" horiz-adv-x="1911" unicode="½" d="M533 1400v-948h-162v783l-168 -91l-63 119l255 137h138zM1218 1400h159l-684 -1400h-159zM1427 133h376v-133h-591v118l338 371q54 60 77 107t23 98q0 32 -11 58.5t-30.5 45.5t-46.5 30t-60 11q-120 0 -166 -147l-140 54q29 108 109.5 167t196.5 59q66 0 123 -20t99 -56 t65.5 -87.5t23.5 -114.5q0 -39 -8 -74.5t-25 -70t-43 -69.5t-61 -74z"/>
<glyph glyph-name="threequarters" horiz-adv-x="1911" unicode="¾" d="M546 746q0 38 -14.5 71.5t-39.5 58.5t-59 39t-73 14q-29 0 -64 -11l-62 77l230 270h-356v135h556v-123l-212 -244q56 -9 103 -35.5t81 -66t53 -90t19 -107.5q0 -58 -24.5 -113.5t-69.5 -98t-108.5 -68.5t-141.5 -26q-102 0 -180.5 45.5t-128.5 123.5l110 94 q40 -60 88 -95t107 -35q39 0 73 14.5t59 39t39.5 58.5t14.5 73zM1218 1400h159l-684 -1400h-159zM1158 313l433 635h154v-622h109v-139h-109v-187h-162v187h-425v126zM1583 325v368l-246 -368h246z"/>
<glyph glyph-name="questiondown" horiz-adv-x="1093" unicode="¿" d="M712 283q-94 0 -167.5 -21t-124.5 -57.5t-78 -86.5t-27 -109q0 -49 22.5 -91.5t62.5 -73.5t96.5 -48.5t123.5 -17.5q78 0 154 34t139 89l99 -136q-87 -74 -190.5 -113.5t-222.5 -39.5q-107 0 -194.5 32.5t-150 87.5t-96.5 127t-34 151q0 73 28 138t80 117t126 88t166 49 v235h188v-354zM740 936q0 -26 -9.5 -49t-26 -39.5t-39 -26t-49.5 -9.5t-49.5 9.5t-39 26t-26 39.5t-9.5 49q0 27 9.5 49.5t26 39t39 26t49.5 9.5t49.5 -9.5t39 -26t26 -39t9.5 -49.5z"/>
<glyph glyph-name="Agrave" horiz-adv-x="1362" unicode="À" d="M1109 0l-130 361h-596l-130 -361h-205l528 1400h210l528 -1400h-205zM923 524l-242 668l-242 -668h484zM831 1510h-180l-280 337h186z"/>
<glyph glyph-name="Aacute" horiz-adv-x="1362" unicode="Á" d="M1109 0l-130 361h-596l-130 -361h-205l528 1400h210l528 -1400h-205zM923 524l-242 668l-242 -668h484zM801 1847h186l-280 -337h-180z"/>
<glyph glyph-name="Acircumflex" horiz-adv-x="1362" unicode="Â" d="M1109 0l-130 361h-596l-130 -361h-205l528 1400h210l528 -1400h-205zM923 524l-242 668l-242 -668h484zM1036 1510h-180l-175 199l-175 -199h-180l292 337h126z"/>
<glyph glyph-name="Atilde" horiz-adv-x="1362" unicode="Ã" d="M1109 0l-130 361h-596l-130 -361h-205l528 1400h210l528 -1400h-205zM923 524l-242 668l-242 -668h484zM676 1580q-29 21 -57 41t-55 20q-26 0 -42 -25t-27 -76l-153 30q22 107 67.5 160t120.5 53q42 0 82 -16.5t74 -41.5q29 -21 57 -41t55 -20q26 0 42 25t27 76l153 -30 q-22 -107 -67.5 -160t-120.5 -53q-42 0 -82 16.5t-74 41.5z"/>
<glyph glyph-name="Adieresis" horiz-adv-x="1362" unicode="Ä" d="M1109 0l-130 361h-596l-130 -361h-205l528 1400h210l528 -1400h-205zM923 524l-242 668l-242 -668h484zM389 1664q0 24 8.5 44.5t24 35.5t36 24t44.5 9t44.5 -9t36 -24t24 -35.5t8.5 -44.5q0 -48 -32.5 -80.5t-80.5 -32.5t-80.5 32.5t-32.5 80.5zM747 1664q0 24 8.5 44.5 t24 35.5t36 24t44.5 9t44.5 -9t36 -24t24 -35.5t8.5 -44.5q0 -48 -32.5 -80.5t-80.5 -32.5t-80.5 32.5t-32.5 80.5z"/>
<glyph glyph-name="Aring" horiz-adv-x="1362" unicode="Å" d="M1109 0l-130 361h-596l-130 -361h-205l528 1400h210l528 -1400h-205zM923 524l-242 668l-242 -668h484zM590 1686q0 -38 26 -63.5t65 -25.5t65 25.5t26 63.5t-26 63.5t-65 25.5t-65 -25.5t-26 -63.5zM471 1686q0 42 16 77.5t44 61.5t66.5 41t83.5 15t83.5 -15t66.5 -41 t44 -61.5t16 -77.5t-16 -77.5t-44 -61.5t-66.5 -41t-83.5 -15t-83.5 15t-66.5 41t-44 61.5t-16 77.5z"/>
<glyph glyph-name="AE" horiz-adv-x="1846" unicode="Æ" d="M18 0l804 1400h890v-163h-621v-452h571v-163h-571v-459h639v-163h-827v361h-467l-204 -361h-214zM903 524v665l-376 -665h376z"/>
<glyph glyph-name="Ccedilla" horiz-adv-x="1368" unicode="Ç" d="M755 -209q-29 0 -56 -5l-33 38l84 155q-143 12 -265.5 72t-212 156t-140.5 222t-51 271q0 153 56.5 285.5t155.5 230t233.5 153t290.5 55.5q134 0 249.5 -40t212.5 -115l-95 -142q-41 29 -83 53t-87 41t-93.5 27t-103.5 10q-114 0 -213.5 -43t-173 -118.5t-116 -177.5 t-42.5 -219t42.5 -219t116 -177.5t173 -118.5t213.5 -43q109 0 206 39.5t173 102.5l100 -141q-84 -69 -186 -110.5t-219 -52.5l-60 -95q42 -8 76.5 -26.5t58.5 -44.5t37 -58.5t13 -67.5q0 -45 -19.5 -83t-53 -65.5t-79.5 -43.5t-100 -16q-51 0 -97 14.5t-82 43.5l62 90 q21 -17 50 -26.5t58 -9.5q53 0 86 28.5t33 70.5t-33 71t-86 29z"/>
<glyph glyph-name="Egrave" horiz-adv-x="1129" unicode="È" d="M168 1400h827v-163h-639v-452h588v-163h-588v-459h657v-163h-845v1400zM717 1510h-180l-280 337h186z"/>
<glyph glyph-name="Eacute" horiz-adv-x="1129" unicode="É" d="M168 1400h827v-163h-639v-452h588v-163h-588v-459h657v-163h-845v1400zM724 1847h186l-280 -337h-180z"/>
<glyph glyph-name="Ecircumflex" horiz-adv-x="1129" unicode="Ê" d="M168 1400h827v-163h-639v-452h588v-163h-588v-459h657v-163h-845v1400zM937 1510h-180l-175 199l-175 -199h-180l292 337h126z"/>
<glyph glyph-name="Edieresis" horiz-adv-x="1129" unicode="Ë" d="M168 1400h827v-163h-639v-452h588v-163h-588v-459h657v-163h-845v1400zM288 1664q0 24 8.5 44.5t24 35.5t36 24t44.5 9t44.5 -9t36 -24t24 -35.5t8.5 -44.5q0 -48 -32.5 -80.5t-80.5 -32.5t-80.5 32.5t-32.5 80.5zM646 1664q0 24 8.5 44.5t24 35.5t36 24t44.5 9t44.5 -9 t36 -24t24 -35.5t8.5 -44.5q0 -48 -32.5 -80.5t-80.5 -32.5t-80.5 32.5t-32.5 80.5z"/>
<glyph glyph-name="Igrave" horiz-adv-x="570" unicode="Ì" d="M379 1400v-1400h-188v1400h188zM434 1510h-180l-280 337h186z"/>
<glyph glyph-name="Iacute" horiz-adv-x="570" unicode="Í" d="M379 1400v-1400h-188v1400h188zM410 1847h186l-280 -337h-180z"/>
<glyph glyph-name="Icircumflex" horiz-adv-x="570" unicode="Î" d="M379 1400v-1400h-188v1400h188zM640 1510h-180l-175 199l-175 -199h-180l292 337h126z"/>
<glyph glyph-name="Idieresis" horiz-adv-x="570" unicode="Ï" d="M379 1400v-1400h-188v1400h188zM-7 1664q0 24 8.5 44.5t24 35.5t36 24t44.5 9t44.5 -9t36 -24t24 -35.5t8.5 -44.5q0 -48 -32.5 -80.5t-80.5 -32.5t-80.5 32.5t-32.5 80.5zM351 1664q0 24 8.5 44.5t24 35.5t36 24t44.5 9t44.5 -9t36 -24t24 -35.5t8.5 -44.5 q0 -48 -32.5 -80.5t-80.5 -32.5t-80.5 32.5t-32.5 80.5z"/>
<glyph glyph-name="Eth" horiz-adv-x="1452" unicode="Ð" d="M682 1400q158 0 285.5 -49.5t217 -140.5t138 -220.5t48.5 -289.5t-48.5 -289.5t-138 -221t-217 -140.5t-285.5 -49h-475v629h-183v142h183v629h475zM395 1234v-463h307v-142h-307v-463h287q111 0 202.5 34t157 101.5t102 167t36.5 231.5t-36.5 231.5t-102 167t-157 101.5 t-202.5 34h-287z"/>
<glyph glyph-name="Ntilde" horiz-adv-x="1399" unicode="Ñ" d="M168 1400h181l700 -1074v1074h182v-1400h-181l-700 1074v-1074h-182v1400zM694 1580q-29 21 -57 41t-55 20q-26 0 -42 -25t-27 -76l-153 30q22 107 67.5 160t120.5 53q42 0 82 -16.5t74 -41.5q29 -21 57 -41t55 -20q26 0 42 25t27 76l153 -30q-22 -107 -67.5 -160 t-120.5 -53q-42 0 -82 16.5t-74 41.5z"/>
<glyph glyph-name="Ograve" horiz-adv-x="1634" unicode="Ò" d="M817 142q114 0 213.5 43t173 118.5t116 177.5t42.5 219t-42.5 219t-116 177.5t-173 118.5t-213.5 43t-213.5 -43t-173 -118.5t-116 -177.5t-42.5 -219t42.5 -219t116 -177.5t173 -118.5t213.5 -43zM817 1424q156 0 290.5 -55.5t233.5 -153t155.5 -230t56.5 -285.5 t-56.5 -285t-155.5 -229.5t-233.5 -153.5t-290.5 -56t-290.5 56t-233.5 153.5t-155.5 229.5t-56.5 285t56.5 285.5t155.5 230t233.5 153t290.5 55.5zM962 1510h-180l-280 337h186z"/>
<glyph glyph-name="Oacute" horiz-adv-x="1634" unicode="Ó" d="M817 142q114 0 213.5 43t173 118.5t116 177.5t42.5 219t-42.5 219t-116 177.5t-173 118.5t-213.5 43t-213.5 -43t-173 -118.5t-116 -177.5t-42.5 -219t42.5 -219t116 -177.5t173 -118.5t213.5 -43zM817 1424q156 0 290.5 -55.5t233.5 -153t155.5 -230t56.5 -285.5 t-56.5 -285t-155.5 -229.5t-233.5 -153.5t-290.5 -56t-290.5 56t-233.5 153.5t-155.5 229.5t-56.5 285t56.5 285.5t155.5 230t233.5 153t290.5 55.5zM947 1847h186l-280 -337h-180z"/>
<glyph glyph-name="Ocircumflex" horiz-adv-x="1634" unicode="Ô" d="M817 142q114 0 213.5 43t173 118.5t116 177.5t42.5 219t-42.5 219t-116 177.5t-173 118.5t-213.5 43t-213.5 -43t-173 -118.5t-116 -177.5t-42.5 -219t42.5 -219t116 -177.5t173 -118.5t213.5 -43zM817 1424q156 0 290.5 -55.5t233.5 -153t155.5 -230t56.5 -285.5 t-56.5 -285t-155.5 -229.5t-233.5 -153.5t-290.5 -56t-290.5 56t-233.5 153.5t-155.5 229.5t-56.5 285t56.5 285.5t155.5 230t233.5 153t290.5 55.5zM1172 1510h-180l-175 199l-175 -199h-180l292 337h126z"/>
<glyph glyph-name="Otilde" horiz-adv-x="1634" unicode="Õ" d="M817 142q114 0 213.5 43t173 118.5t116 177.5t42.5 219t-42.5 219t-116 177.5t-173 118.5t-213.5 43t-213.5 -43t-173 -118.5t-116 -177.5t-42.5 -219t42.5 -219t116 -177.5t173 -118.5t213.5 -43zM817 1424q156 0 290.5 -55.5t233.5 -153t155.5 -230t56.5 -285.5 t-56.5 -285t-155.5 -229.5t-233.5 -153.5t-290.5 -56t-290.5 56t-233.5 153.5t-155.5 229.5t-56.5 285t56.5 285.5t155.5 230t233.5 153t290.5 55.5zM812 1580q-29 21 -57 41t-55 20q-26 0 -42 -25t-27 -76l-153 30q22 107 67.5 160t120.5 53q42 0 82 -16.5t74 -41.5 q29 -21 57 -41t55 -20q26 0 42 25t27 76l153 -30q-22 -107 -67.5 -160t-120.5 -53q-42 0 -82 16.5t-74 41.5z"/>
<glyph glyph-name="Odieresis" horiz-adv-x="1634" unicode="Ö" d="M817 142q114 0 213.5 43t173 118.5t116 177.5t42.5 219t-42.5 219t-116 177.5t-173 118.5t-213.5 43t-213.5 -43t-173 -118.5t-116 -177.5t-42.5 -219t42.5 -219t116 -177.5t173 -118.5t213.5 -43zM817 1424q156 0 290.5 -55.5t233.5 -153t155.5 -230t56.5 -285.5 t-56.5 -285t-155.5 -229.5t-233.5 -153.5t-290.5 -56t-290.5 56t-233.5 153.5t-155.5 229.5t-56.5 285t56.5 285.5t155.5 230t233.5 153t290.5 55.5zM525 1664q0 24 8.5 44.5t24 35.5t36 24t44.5 9t44.5 -9t36 -24t24 -35.5t8.5 -44.5q0 -48 -32.5 -80.5t-80.5 -32.5 t-80.5 32.5t-32.5 80.5zM883 1664q0 24 8.5 44.5t24 35.5t36 24t44.5 9t44.5 -9t36 -24t24 -35.5t8.5 -44.5q0 -48 -32.5 -80.5t-80.5 -32.5t-80.5 32.5t-32.5 80.5z"/>
<glyph glyph-name="multiply" horiz-adv-x="1148" unicode="×" d="M451 660l-304 307l123 123l304 -307l304 307l123 -123l-305 -307l305 -307l-123 -123l-304 306l-304 -306l-123 123z"/>
<glyph glyph-name="Oslash" horiz-adv-x="1634" unicode="Ø" d="M817 1424q108 0 205.5 -27t181.5 -78l111 141h172l-173 -220q112 -100 175.5 -238t63.5 -302q0 -153 -56.5 -285t-155.5 -229.5t-233.5 -153.5t-290.5 -56q-115 0 -217 30t-190 86l-119 -152h-172l185 235q-105 98 -164 232.5t-59 292.5q0 153 56.5 285.5t155.5 230 t233.5 153t290.5 55.5zM817 142q114 0 213.5 43t173 118.5t116 177.5t42.5 219q0 118 -42.5 220t-117.5 178l-683 -868q64 -42 139 -65t159 -23zM272 700q0 -112 38 -209.5t106 -172.5l680 863q-62 37 -132 57t-147 20q-114 0 -213.5 -43t-173 -118.5t-116 -177.5 t-42.5 -219z"/>
<glyph glyph-name="Ugrave" horiz-adv-x="1326" unicode="Ù" d="M1171 489q0 -116 -39 -210.5t-107.5 -161t-161.5 -103t-200 -36.5t-200 36.5t-161.5 103t-107.5 161t-39 210.5v911h188v-932q0 -73 24.5 -133t67.5 -102.5t101.5 -65.5t126.5 -23t126.5 23t101.5 65.5t67.5 102.5t24.5 133v932h188v-911zM800 1510h-180l-280 337h186z "/>
<glyph glyph-name="Uacute" horiz-adv-x="1326" unicode="Ú" d="M1171 489q0 -116 -39 -210.5t-107.5 -161t-161.5 -103t-200 -36.5t-200 36.5t-161.5 103t-107.5 161t-39 210.5v911h188v-932q0 -73 24.5 -133t67.5 -102.5t101.5 -65.5t126.5 -23t126.5 23t101.5 65.5t67.5 102.5t24.5 133v932h188v-911zM803 1847h186l-280 -337h-180z "/>
<glyph glyph-name="Ucircumflex" horiz-adv-x="1326" unicode="Û" d="M1171 489q0 -116 -39 -210.5t-107.5 -161t-161.5 -103t-200 -36.5t-200 36.5t-161.5 103t-107.5 161t-39 210.5v911h188v-932q0 -73 24.5 -133t67.5 -102.5t101.5 -65.5t126.5 -23t126.5 23t101.5 65.5t67.5 102.5t24.5 133v932h188v-911zM1018 1510h-180l-175 199 l-175 -199h-180l292 337h126z"/>
<glyph glyph-name="Udieresis" horiz-adv-x="1326" unicode="Ü" d="M1171 489q0 -116 -39 -210.5t-107.5 -161t-161.5 -103t-200 -36.5t-200 36.5t-161.5 103t-107.5 161t-39 210.5v911h188v-932q0 -73 24.5 -133t67.5 -102.5t101.5 -65.5t126.5 -23t126.5 23t101.5 65.5t67.5 102.5t24.5 133v932h188v-911zM371 1664q0 24 8.5 44.5 t24 35.5t36 24t44.5 9t44.5 -9t36 -24t24 -35.5t8.5 -44.5q0 -48 -32.5 -80.5t-80.5 -32.5t-80.5 32.5t-32.5 80.5zM729 1664q0 24 8.5 44.5t24 35.5t36 24t44.5 9t44.5 -9t36 -24t24 -35.5t8.5 -44.5q0 -48 -32.5 -80.5t-80.5 -32.5t-80.5 32.5t-32.5 80.5z"/>
<glyph glyph-name="Yacute" horiz-adv-x="1286" unicode="Ý" d="M643 758l393 642h203l-502 -826v-574h-188v574l-502 826h203zM786 1847h186l-280 -337h-180z"/>
<glyph glyph-name="Thorn" horiz-adv-x="1170" unicode="Þ" d="M356 264v-264h-188v1400h188v-264h259q111 0 200.5 -31t151.5 -88t95.5 -137.5t33.5 -179.5t-33.5 -179.5t-95.5 -137.5t-151.5 -88t-200.5 -31h-259zM905 700q0 62 -20 112.5t-58 86t-93 55t-126 19.5h-252v-546h252q71 0 126 19.5t93 55t58 86t20 112.5z"/>
<glyph glyph-name="germandbls" horiz-adv-x="1215" unicode="ß" d="M155 1026q0 89 31 162.5t86 126t130 81t163 28.5q87 0 161.5 -28t129 -77t86 -114.5t31.5 -139.5q0 -53 -17 -100.5t-48.5 -87t-74.5 -70t-96 -48.5q83 -12 154 -46t123.5 -84.5t82 -116t29.5 -140.5q0 -84 -35 -156t-97 -125.5t-146 -84t-183 -30.5q-63 0 -125.5 15.5 t-110.5 42.5l47 165q38 -27 89 -43.5t100 -16.5q57 0 106.5 18t85.5 49.5t57 74t21 91.5q0 63 -29.5 116.5t-84.5 93t-134.5 62.5t-178.5 25v157q58 4 108 22t87 48t58 71t21 90q0 42 -16.5 79t-46 65t-69 44t-85.5 16q-48 0 -88.5 -17t-70 -47t-46.5 -71.5t-17 -91.5v-1034 h-188v1026z"/>
<glyph glyph-name="agrave" horiz-adv-x="1297" unicode="à" d="M634 139q56 0 106.5 15t93.5 42t77.5 64.5t57.5 83.5v345q-23 46 -57.5 84.5t-77.5 66t-93.5 42.5t-106.5 15q-79 0 -148 -30t-119 -81.5t-79 -120.5t-29 -147t29 -147t79 -120.5t119 -81.5t148 -30zM604 1060q109 0 202 -40.5t163 -117.5v134h182v-1036h-182v134 q-70 -78 -163 -118t-202 -40q-115 0 -212.5 43.5t-168 117.5t-110 172.5t-39.5 208.5t39.5 208.5t110 172.5t168 117.5t212.5 43.5zM773 1186h-180l-280 337h186z"/>
<glyph glyph-name="aacute" horiz-adv-x="1297" unicode="á" d="M634 139q56 0 106.5 15t93.5 42t77.5 64.5t57.5 83.5v345q-23 46 -57.5 84.5t-77.5 66t-93.5 42.5t-106.5 15q-79 0 -148 -30t-119 -81.5t-79 -120.5t-29 -147t29 -147t79 -120.5t119 -81.5t148 -30zM604 1060q109 0 202 -40.5t163 -117.5v134h182v-1036h-182v134 q-70 -78 -163 -118t-202 -40q-115 0 -212.5 43.5t-168 117.5t-110 172.5t-39.5 208.5t39.5 208.5t110 172.5t168 117.5t212.5 43.5zM733 1523h186l-280 -337h-180z"/>
<glyph glyph-name="acircumflex" horiz-adv-x="1297" unicode="â" d="M634 139q56 0 106.5 15t93.5 42t77.5 64.5t57.5 83.5v345q-23 46 -57.5 84.5t-77.5 66t-93.5 42.5t-106.5 15q-79 0 -148 -30t-119 -81.5t-79 -120.5t-29 -147t29 -147t79 -120.5t119 -81.5t148 -30zM604 1060q109 0 202 -40.5t163 -117.5v134h182v-1036h-182v134 q-70 -78 -163 -118t-202 -40q-115 0 -212.5 43.5t-168 117.5t-110 172.5t-39.5 208.5t39.5 208.5t110 172.5t168 117.5t212.5 43.5zM986 1186h-180l-175 199l-175 -199h-180l292 337h126z"/>
<glyph glyph-name="atilde" horiz-adv-x="1297" unicode="ã" d="M634 139q56 0 106.5 15t93.5 42t77.5 64.5t57.5 83.5v345q-23 46 -57.5 84.5t-77.5 66t-93.5 42.5t-106.5 15q-79 0 -148 -30t-119 -81.5t-79 -120.5t-29 -147t29 -147t79 -120.5t119 -81.5t148 -30zM604 1060q109 0 202 -40.5t163 -117.5v134h182v-1036h-182v134 q-70 -78 -163 -118t-202 -40q-115 0 -212.5 43.5t-168 117.5t-110 172.5t-39.5 208.5t39.5 208.5t110 172.5t168 117.5t212.5 43.5zM613 1256q-29 21 -57 41t-55 20q-26 0 -42 -25t-27 -76l-153 30q22 107 67.5 160t120.5 53q42 0 82 -16.5t74 -41.5q29 -21 57 -41t55 -20 q26 0 42 25t27 76l153 -30q-22 -107 -67.5 -160t-120.5 -53q-42 0 -82 16.5t-74 41.5z"/>
<glyph glyph-name="adieresis" horiz-adv-x="1297" unicode="ä" d="M634 139q56 0 106.5 15t93.5 42t77.5 64.5t57.5 83.5v345q-23 46 -57.5 84.5t-77.5 66t-93.5 42.5t-106.5 15q-79 0 -148 -30t-119 -81.5t-79 -120.5t-29 -147t29 -147t79 -120.5t119 -81.5t148 -30zM604 1060q109 0 202 -40.5t163 -117.5v134h182v-1036h-182v134 q-70 -78 -163 -118t-202 -40q-115 0 -212.5 43.5t-168 117.5t-110 172.5t-39.5 208.5t39.5 208.5t110 172.5t168 117.5t212.5 43.5zM324 1340q0 24 8.5 44.5t24 35.5t36 24t44.5 9t44.5 -9t36 -24t24 -35.5t8.5 -44.5q0 -48 -32.5 -80.5t-80.5 -32.5t-80.5 32.5t-32.5 80.5z M682 1340q0 24 8.5 44.5t24 35.5t36 24t44.5 9t44.5 -9t36 -24t24 -35.5t8.5 -44.5q0 -48 -32.5 -80.5t-80.5 -32.5t-80.5 32.5t-32.5 80.5z"/>
<glyph glyph-name="aring" horiz-adv-x="1297" unicode="å" d="M634 139q56 0 106.5 15t93.5 42t77.5 64.5t57.5 83.5v345q-23 46 -57.5 84.5t-77.5 66t-93.5 42.5t-106.5 15q-79 0 -148 -30t-119 -81.5t-79 -120.5t-29 -147t29 -147t79 -120.5t119 -81.5t148 -30zM604 1060q109 0 202 -40.5t163 -117.5v134h182v-1036h-182v134 q-70 -78 -163 -118t-202 -40q-115 0 -212.5 43.5t-168 117.5t-110 172.5t-39.5 208.5t39.5 208.5t110 172.5t168 117.5t212.5 43.5zM525 1362q0 -38 26 -63.5t65 -25.5t65 25.5t26 63.5t-26 63.5t-65 25.5t-65 -25.5t-26 -63.5zM406 1362q0 42 16 77.5t44 61.5t66.5 41 t83.5 15t83.5 -15t66.5 -41t44 -61.5t16 -77.5t-16 -77.5t-44 -61.5t-66.5 -41t-83.5 -15t-83.5 15t-66.5 41t-44 61.5t-16 77.5z"/>
<glyph glyph-name="ae" horiz-adv-x="2024" unicode="æ" d="M1070 461q8 -69 38.5 -129t79 -104.5t112.5 -69.5t138 -25q94 0 176 40t145 110l125 -116q-81 -93 -194 -142t-248 -49q-73 0 -140 16.5t-124 46t-104 70.5t-80 91q-33 -51 -79 -92.5t-101.5 -70.5t-119.5 -45t-134 -16q-104 0 -193 26.5t-154 72t-102 107.5t-37 134 q0 70 36.5 129.5t100 103t148 68.5t180.5 25q49 0 98.5 -7.5t95.5 -20t86.5 -30t71.5 -38.5q-1 6 -1 12.5v12.5q0 11 1 20.5t2 19.5q-4 66 -31 119.5t-72 92t-105.5 59.5t-129.5 21q-95 0 -182 -35t-153 -92l-70 140q85 68 189.5 106t220.5 38q71 0 136 -16t121 -46t101 -73 t74 -98q33 52 78.5 95t101.5 73.5t120.5 47.5t134.5 17q115 0 211 -41t165.5 -111.5t108 -165t38.5 -201.5q0 -20 -2 -41.5t-6 -38.5h-872zM569 133q115 0 201 48.5t132 130.5q-4 23 -6.5 47t-3.5 47q-59 46 -144.5 70t-177.5 24q-68 0 -125.5 -14.5t-99.5 -39.5 t-65.5 -58.5t-23.5 -71.5t23.5 -71.5t65 -58t99 -39t125.5 -14.5zM1427 903q-64 0 -121.5 -22.5t-104 -61.5t-78.5 -92t-46 -115h683q-11 63 -40 116t-72.5 92t-99.5 61t-121 22z"/>
<glyph glyph-name="ccedilla" horiz-adv-x="1098" unicode="ç" d="M565 -209q-29 0 -56 -5l-33 38l85 156q-107 12 -196.5 59t-154 119t-100.5 164.5t-36 195.5q0 112 42 211t117 172.5t177.5 116t223.5 42.5q113 0 207.5 -36.5t169.5 -100.5l-95 -143q-58 51 -128 84t-154 33q-79 0 -148 -30t-119 -81.5t-79 -120.5t-29 -147t29 -147 t79 -120.5t119 -81.5t148 -30q85 0 158.5 34t130.5 91l107 -133q-65 -63 -148 -101.5t-181 -49.5l-60 -95q42 -8 76.5 -26.5t58.5 -44.5t37 -58.5t13 -67.5q0 -45 -19.5 -83t-53 -65.5t-79.5 -43.5t-100 -16q-51 0 -97 14.5t-82 43.5l62 90q21 -17 50 -26.5t58 -9.5 q53 0 86 28.5t33 70.5t-33 71t-86 29z"/>
<glyph glyph-name="egrave" horiz-adv-x="1224" unicode="è" d="M260 461q8 -69 38.5 -129t80 -104.5t114 -69.5t139.5 -25q96 0 179.5 40t147.5 110l125 -116q-82 -93 -196 -142t-251 -49q-126 0 -230 42.5t-178 116t-114.5 172.5t-40.5 211q0 113 41.5 211.5t114.5 172t173.5 116t218.5 42.5q116 0 213 -41t167 -111.5t109 -165 t39 -201.5q0 -20 -2.5 -41.5t-6.5 -38.5h-881zM622 903q-65 0 -123.5 -22.5t-105.5 -61.5t-79.5 -92t-46.5 -115h692q-10 63 -39.5 116t-74 92t-101 61t-122.5 22zM771 1186h-180l-280 337h186z"/>
<glyph glyph-name="eacute" horiz-adv-x="1224" unicode="é" d="M260 461q8 -69 38.5 -129t80 -104.5t114 -69.5t139.5 -25q96 0 179.5 40t147.5 110l125 -116q-82 -93 -196 -142t-251 -49q-126 0 -230 42.5t-178 116t-114.5 172.5t-40.5 211q0 113 41.5 211.5t114.5 172t173.5 116t218.5 42.5q116 0 213 -41t167 -111.5t109 -165 t39 -201.5q0 -20 -2.5 -41.5t-6.5 -38.5h-881zM622 903q-65 0 -123.5 -22.5t-105.5 -61.5t-79.5 -92t-46.5 -115h692q-10 63 -39.5 116t-74 92t-101 61t-122.5 22zM728 1523h186l-280 -337h-180z"/>
<glyph glyph-name="ecircumflex" horiz-adv-x="1224" unicode="ê" d="M260 461q8 -69 38.5 -129t80 -104.5t114 -69.5t139.5 -25q96 0 179.5 40t147.5 110l125 -116q-82 -93 -196 -142t-251 -49q-126 0 -230 42.5t-178 116t-114.5 172.5t-40.5 211q0 113 41.5 211.5t114.5 172t173.5 116t218.5 42.5q116 0 213 -41t167 -111.5t109 -165 t39 -201.5q0 -20 -2.5 -41.5t-6.5 -38.5h-881zM622 903q-65 0 -123.5 -22.5t-105.5 -61.5t-79.5 -92t-46.5 -115h692q-10 63 -39.5 116t-74 92t-101 61t-122.5 22zM967 1186h-180l-175 199l-175 -199h-180l292 337h126z"/>
<glyph glyph-name="edieresis" horiz-adv-x="1224" unicode="ë" d="M260 461q8 -69 38.5 -129t80 -104.5t114 -69.5t139.5 -25q96 0 179.5 40t147.5 110l125 -116q-82 -93 -196 -142t-251 -49q-126 0 -230 42.5t-178 116t-114.5 172.5t-40.5 211q0 113 41.5 211.5t114.5 172t173.5 116t218.5 42.5q116 0 213 -41t167 -111.5t109 -165 t39 -201.5q0 -20 -2.5 -41.5t-6.5 -38.5h-881zM622 903q-65 0 -123.5 -22.5t-105.5 -61.5t-79.5 -92t-46.5 -115h692q-10 63 -39.5 116t-74 92t-101 61t-122.5 22zM320 1340q0 24 8.5 44.5t24 35.5t36 24t44.5 9t44.5 -9t36 -24t24 -35.5t8.5 -44.5q0 -48 -32.5 -80.5 t-80.5 -32.5t-80.5 32.5t-32.5 80.5zM678 1340q0 24 8.5 44.5t24 35.5t36 24t44.5 9t44.5 -9t36 -24t24 -35.5t8.5 -44.5q0 -48 -32.5 -80.5t-80.5 -32.5t-80.5 32.5t-32.5 80.5z"/>
<glyph glyph-name="igrave" horiz-adv-x="522" unicode="ì" d="M170 1036h182v-1036h-182v1036zM400 1186h-180l-280 337h186z"/>
<glyph glyph-name="iacute" horiz-adv-x="522" unicode="í" d="M170 1036h182v-1036h-182v1036zM396 1523h186l-280 -337h-180z"/>
<glyph glyph-name="icircumflex" horiz-adv-x="522" unicode="î" d="M170 1036h182v-1036h-182v1036zM616 1186h-180l-175 199l-175 -199h-180l292 337h126z"/>
<glyph glyph-name="idieresis" horiz-adv-x="522" unicode="ï" d="M170 1036h182v-1036h-182v1036zM-31 1340q0 24 8.5 44.5t24 35.5t36 24t44.5 9t44.5 -9t36 -24t24 -35.5t8.5 -44.5q0 -48 -32.5 -80.5t-80.5 -32.5t-80.5 32.5t-32.5 80.5zM327 1340q0 24 8.5 44.5t24 35.5t36 24t44.5 9t44.5 -9t36 -24t24 -35.5t8.5 -44.5 q0 -48 -32.5 -80.5t-80.5 -32.5t-80.5 32.5t-32.5 80.5z"/>
<glyph glyph-name="eth" horiz-adv-x="1229" unicode="ð" d="M306 1036l-52 112l245 115q-90 58 -203 108l144 89q117 -50 222 -122l227 107l51 -111l-170 -80q86 -75 155.5 -163.5t118.5 -187t75 -205t26 -216.5q0 -106 -41.5 -198.5t-114 -161t-170 -107.5t-210.5 -39q-112 0 -210 39t-170.5 107.5t-114 161t-41.5 198.5 q0 105 41.5 196.5t112 159t163.5 106t195 38.5q88 0 165 -33.5t137 -96.5q-45 91 -116 177t-156 152zM611 831q-74 0 -138.5 -27t-112 -73.5t-75 -109.5t-27.5 -136t27.5 -136t75 -109.5t112 -73.5t138.5 -27t138 27t111.5 73.5t75 109.5t27.5 136t-27.5 136t-75 109.5 t-111.5 73.5t-138 27z"/>
<glyph glyph-name="ntilde" horiz-adv-x="1207" unicode="ñ" d="M328 0h-182v1036h182v-159q28 36 63.5 69.5t78 58.5t91.5 40t103 15q92 0 168.5 -31t132 -87t86 -133.5t30.5 -171.5v-637h-182v627q0 58 -19.5 107.5t-55 85.5t-85 56.5t-109.5 20.5q-49 0 -93.5 -18t-83 -47.5t-70 -67.5t-55.5 -77v-687zM608 1256q-29 21 -57 41 t-55 20q-26 0 -42 -25t-27 -76l-153 30q22 107 67.5 160t120.5 53q42 0 82 -16.5t74 -41.5q29 -21 57 -41t55 -20q26 0 42 25t27 76l153 -30q-22 -107 -67.5 -160t-120.5 -53q-42 0 -82 16.5t-74 41.5z"/>
<glyph glyph-name="ograve" horiz-adv-x="1268" unicode="ò" d="M634 139q80 0 148.5 30t118.5 81.5t79 120.5t29 147t-29 147t-79 120.5t-118.5 81.5t-148.5 30q-79 0 -148 -30t-119 -81.5t-79 -120.5t-29 -147t29 -147t79 -120.5t119 -81.5t148 -30zM634 1060q121 0 223.5 -42.5t177.5 -116t117 -172.5t42 -211t-42 -211t-117 -172.5 t-177.5 -116t-223.5 -42.5t-223.5 42.5t-177.5 116t-117 172.5t-42 211t42 211t117 172.5t177.5 116t223.5 42.5zM780 1186h-180l-280 337h186z"/>
<glyph glyph-name="oacute" horiz-adv-x="1268" unicode="ó" d="M634 139q80 0 148.5 30t118.5 81.5t79 120.5t29 147t-29 147t-79 120.5t-118.5 81.5t-148.5 30q-79 0 -148 -30t-119 -81.5t-79 -120.5t-29 -147t29 -147t79 -120.5t119 -81.5t148 -30zM634 1060q121 0 223.5 -42.5t177.5 -116t117 -172.5t42 -211t-42 -211t-117 -172.5 t-177.5 -116t-223.5 -42.5t-223.5 42.5t-177.5 116t-117 172.5t-42 211t42 211t117 172.5t177.5 116t223.5 42.5zM764 1523h186l-280 -337h-180z"/>
<glyph glyph-name="ocircumflex" horiz-adv-x="1268" unicode="ô" d="M634 139q80 0 148.5 30t118.5 81.5t79 120.5t29 147t-29 147t-79 120.5t-118.5 81.5t-148.5 30q-79 0 -148 -30t-119 -81.5t-79 -120.5t-29 -147t29 -147t79 -120.5t119 -81.5t148 -30zM634 1060q121 0 223.5 -42.5t177.5 -116t117 -172.5t42 -211t-42 -211t-117 -172.5 t-177.5 -116t-223.5 -42.5t-223.5 42.5t-177.5 116t-117 172.5t-42 211t42 211t117 172.5t177.5 116t223.5 42.5zM989 1186h-180l-175 199l-175 -199h-180l292 337h126z"/>
<glyph glyph-name="otilde" horiz-adv-x="1268" unicode="õ" d="M634 139q80 0 148.5 30t118.5 81.5t79 120.5t29 147t-29 147t-79 120.5t-118.5 81.5t-148.5 30q-79 0 -148 -30t-119 -81.5t-79 -120.5t-29 -147t29 -147t79 -120.5t119 -81.5t148 -30zM634 1060q121 0 223.5 -42.5t177.5 -116t117 -172.5t42 -211t-42 -211t-117 -172.5 t-177.5 -116t-223.5 -42.5t-223.5 42.5t-177.5 116t-117 172.5t-42 211t42 211t117 172.5t177.5 116t223.5 42.5zM629 1256q-29 21 -57 41t-55 20q-26 0 -42 -25t-27 -76l-153 30q22 107 67.5 160t120.5 53q42 0 82 -16.5t74 -41.5q29 -21 57 -41t55 -20q26 0 42 25t27 76 l153 -30q-22 -107 -67.5 -160t-120.5 -53q-42 0 -82 16.5t-74 41.5z"/>
<glyph glyph-name="odieresis" horiz-adv-x="1268" unicode="ö" d="M634 139q80 0 148.5 30t118.5 81.5t79 120.5t29 147t-29 147t-79 120.5t-118.5 81.5t-148.5 30q-79 0 -148 -30t-119 -81.5t-79 -120.5t-29 -147t29 -147t79 -120.5t119 -81.5t148 -30zM634 1060q121 0 223.5 -42.5t177.5 -116t117 -172.5t42 -211t-42 -211t-117 -172.5 t-177.5 -116t-223.5 -42.5t-223.5 42.5t-177.5 116t-117 172.5t-42 211t42 211t117 172.5t177.5 116t223.5 42.5zM342 1340q0 24 8.5 44.5t24 35.5t36 24t44.5 9t44.5 -9t36 -24t24 -35.5t8.5 -44.5q0 -48 -32.5 -80.5t-80.5 -32.5t-80.5 32.5t-32.5 80.5zM700 1340 q0 24 8.5 44.5t24 35.5t36 24t44.5 9t44.5 -9t36 -24t24 -35.5t8.5 -44.5q0 -48 -32.5 -80.5t-80.5 -32.5t-80.5 32.5t-32.5 80.5z"/>
<glyph glyph-name="divide" horiz-adv-x="1148" unicode="÷" d="M119 586v157h910v-157h-910zM449 1042q0 27 9.5 49.5t26.5 39.5t39.5 26.5t49.5 9.5t49.5 -9.5t39.5 -26.5t26.5 -39.5t9.5 -49.5t-9.5 -49.5t-26.5 -39.5t-39.5 -26.5t-49.5 -9.5t-49.5 9.5t-39.5 26.5t-26.5 39.5t-9.5 49.5zM449 287q0 27 9.5 49.5t26.5 39.5 t39.5 26.5t49.5 9.5t49.5 -9.5t39.5 -26.5t26.5 -39.5t9.5 -49.5t-9.5 -49.5t-26.5 -39.5t-39.5 -26.5t-49.5 -9.5t-49.5 9.5t-39.5 26.5t-26.5 39.5t-9.5 49.5z"/>
<glyph glyph-name="oslash" horiz-adv-x="1268" unicode="ø" d="M634 1060q81 0 153 -19.5t135 -54.5l88 110h164l-148 -187q79 -74 123.5 -174.5t44.5 -216.5q0 -112 -42 -211t-117 -172.5t-177.5 -116t-223.5 -42.5q-82 0 -154.5 19.5t-135.5 55.5l-88 -111h-164l149 187q-79 75 -123 175t-44 216q0 112 42 211t117 172.5t177.5 116 t223.5 42.5zM634 139q80 0 148.5 30t118.5 81.5t79 120.5t29 147q0 73 -24.5 137t-69.5 115l-464 -584q40 -23 86 -35t97 -12zM259 518q0 -72 24 -136t68 -115l464 584q-40 22 -85.5 34t-95.5 12q-79 0 -148 -30t-119 -81.5t-79 -120.5t-29 -147z"/>
<glyph glyph-name="ugrave" horiz-adv-x="1207" unicode="ù" d="M879 1036h182v-1036h-182v159q-28 -36 -63.5 -69.5t-78 -58.5t-91.5 -40t-103 -15q-92 0 -168.5 31t-132 87t-86 133.5t-30.5 171.5v637h182v-627q0 -58 19.5 -107.5t55 -85.5t85 -56.5t109.5 -20.5q49 0 93.5 18t83 47.5t70 67.5t55.5 77v687zM721 1186h-180l-280 337 h186z"/>
<glyph glyph-name="uacute" horiz-adv-x="1207" unicode="ú" d="M879 1036h182v-1036h-182v159q-28 -36 -63.5 -69.5t-78 -58.5t-91.5 -40t-103 -15q-92 0 -168.5 31t-132 87t-86 133.5t-30.5 171.5v637h182v-627q0 -58 19.5 -107.5t55 -85.5t85 -56.5t109.5 -20.5q49 0 93.5 18t83 47.5t70 67.5t55.5 77v687zM728 1523h186l-280 -337 h-180z"/>
<glyph glyph-name="ucircumflex" horiz-adv-x="1207" unicode="û" d="M879 1036h182v-1036h-182v159q-28 -36 -63.5 -69.5t-78 -58.5t-91.5 -40t-103 -15q-92 0 -168.5 31t-132 87t-86 133.5t-30.5 171.5v637h182v-627q0 -58 19.5 -107.5t55 -85.5t85 -56.5t109.5 -20.5q49 0 93.5 18t83 47.5t70 67.5t55.5 77v687zM948 1186h-180l-175 199 l-175 -199h-180l292 337h126z"/>
<glyph glyph-name="udieresis" horiz-adv-x="1207" unicode="ü" d="M879 1036h182v-1036h-182v159q-28 -36 -63.5 -69.5t-78 -58.5t-91.5 -40t-103 -15q-92 0 -168.5 31t-132 87t-86 133.5t-30.5 171.5v637h182v-627q0 -58 19.5 -107.5t55 -85.5t85 -56.5t109.5 -20.5q49 0 93.5 18t83 47.5t70 67.5t55.5 77v687zM301 1340q0 24 8.5 44.5 t24 35.5t36 24t44.5 9t44.5 -9t36 -24t24 -35.5t8.5 -44.5q0 -48 -32.5 -80.5t-80.5 -32.5t-80.5 32.5t-32.5 80.5zM659 1340q0 24 8.5 44.5t24 35.5t36 24t44.5 9t44.5 -9t36 -24t24 -35.5t8.5 -44.5q0 -48 -32.5 -80.5t-80.5 -32.5t-80.5 32.5t-32.5 80.5z"/>
<glyph glyph-name="yacute" horiz-adv-x="1050" unicode="ý" d="M432 4l-405 1032h190l308 -801l308 801h190l-585 -1500h-190zM658 1523h186l-280 -337h-180z"/>
<glyph glyph-name="thorn" horiz-adv-x="1297" unicode="þ" d="M663 139q80 0 148.5 30t118.5 81.5t79 120.5t29 147t-29 147t-79 120.5t-118.5 81.5t-148.5 30q-55 0 -106 -15t-94 -42.5t-77.5 -66t-57.5 -84.5v-345q23 -46 57.5 -83.5t77.5 -64.5t94 -42t106 -15zM693 1060q116 0 213 -43.5t167.5 -117.5t110 -172.5t39.5 -208.5 t-39.5 -208.5t-110 -172.5t-167.5 -117.5t-213 -43.5q-109 0 -202 40t-163 118v-598h-182v1924h182v-558q70 77 163 117.5t202 40.5z"/>
<glyph glyph-name="ydieresis" horiz-adv-x="1050" unicode="ÿ" d="M432 4l-405 1032h190l308 -801l308 801h190l-585 -1500h-190zM233 1340q0 24 8.5 44.5t24 35.5t36 24t44.5 9t44.5 -9t36 -24t24 -35.5t8.5 -44.5q0 -48 -32.5 -80.5t-80.5 -32.5t-80.5 32.5t-32.5 80.5zM591 1340q0 24 8.5 44.5t24 35.5t36 24t44.5 9t44.5 -9t36 -24 t24 -35.5t8.5 -44.5q0 -48 -32.5 -80.5t-80.5 -32.5t-80.5 32.5t-32.5 80.5z"/>
<glyph glyph-name="Amacron" horiz-adv-x="1362" unicode="Ā" d="M1109 0l-130 361h-596l-130 -361h-205l528 1400h210l528 -1400h-205zM923 524l-242 668l-242 -668h484zM391 1729h580v-142h-580v142z"/>
<glyph glyph-name="amacron" horiz-adv-x="1297" unicode="ā" d="M634 139q56 0 106.5 15t93.5 42t77.5 64.5t57.5 83.5v345q-23 46 -57.5 84.5t-77.5 66t-93.5 42.5t-106.5 15q-79 0 -148 -30t-119 -81.5t-79 -120.5t-29 -147t29 -147t79 -120.5t119 -81.5t148 -30zM604 1060q109 0 202 -40.5t163 -117.5v134h182v-1036h-182v134 q-70 -78 -163 -118t-202 -40q-115 0 -212.5 43.5t-168 117.5t-110 172.5t-39.5 208.5t39.5 208.5t110 172.5t168 117.5t212.5 43.5zM337 1405h580v-142h-580v142z"/>
<glyph glyph-name="Abreve" horiz-adv-x="1362" unicode="Ă" d="M1109 0l-130 361h-596l-130 -361h-205l528 1400h210l528 -1400h-205zM923 524l-242 668l-242 -668h484zM681 1490q-66 0 -123.5 23t-101.5 64.5t-70.5 98t-30.5 123.5h162q2 -37 14 -68.5t33.5 -54.5t51 -36.5t65.5 -13.5t65.5 13.5t51 36.5t34 54.5t13.5 68.5h162 q-4 -67 -30.5 -123.5t-70.5 -98t-101.5 -64.5t-123.5 -23z"/>
<glyph glyph-name="abreve" horiz-adv-x="1297" unicode="ă" d="M634 139q56 0 106.5 15t93.5 42t77.5 64.5t57.5 83.5v345q-23 46 -57.5 84.5t-77.5 66t-93.5 42.5t-106.5 15q-79 0 -148 -30t-119 -81.5t-79 -120.5t-29 -147t29 -147t79 -120.5t119 -81.5t148 -30zM604 1060q109 0 202 -40.5t163 -117.5v134h182v-1036h-182v134 q-70 -78 -163 -118t-202 -40q-115 0 -212.5 43.5t-168 117.5t-110 172.5t-39.5 208.5t39.5 208.5t110 172.5t168 117.5t212.5 43.5zM626 1166q-66 0 -123.5 23t-101.5 64.5t-70.5 98t-30.5 123.5h162q2 -37 14 -68.5t33.5 -54.5t51 -36.5t65.5 -13.5t65.5 13.5t51 36.5 t34 54.5t13.5 68.5h162q-4 -67 -30.5 -123.5t-70.5 -98t-101.5 -64.5t-123.5 -23z"/>
<glyph glyph-name="Aogonek" horiz-adv-x="1362" unicode="Ą" d="M1109 0l-130 361h-596l-130 -361h-205l528 1400h210l528 -1400q-74 -61 -122 -118t-48 -115q0 -48 31.5 -78.5t77.5 -30.5q48 0 89 27l41 -97q-32 -22 -73.5 -34t-86.5 -12q-46 0 -86.5 15.5t-70 43t-46.5 64.5t-17 81q0 37 13 71.5t36.5 66.5t55.5 61t70 55h-69z M923 524l-242 668l-242 -668h484z"/>
<glyph glyph-name="aogonek" horiz-adv-x="1297" unicode="ą" d="M969 0v134q-70 -78 -163 -118t-202 -40q-115 0 -212.5 43.5t-168 117.5t-110 172.5t-39.5 208.5t39.5 208.5t110 172.5t168 117.5t212.5 43.5q109 0 202 -40.5t163 -117.5v134h182v-1036q-74 -61 -122 -118t-48 -115q0 -48 31.5 -78.5t77.5 -30.5q48 0 89 27l41 -97 q-32 -22 -73.5 -34t-86.5 -12q-46 0 -86.5 15.5t-70 43t-46.5 64.5t-17 81q0 37 13 71.5t36.5 66.5t55.5 61t70 55h-46zM634 139q56 0 106.5 15t93.5 42t77.5 64.5t57.5 83.5v345q-23 46 -57.5 84.5t-77.5 66t-93.5 42.5t-106.5 15q-79 0 -148 -30t-119 -81.5t-79 -120.5 t-29 -147t29 -147t79 -120.5t119 -81.5t148 -30z"/>
<glyph glyph-name="Cacute" horiz-adv-x="1368" unicode="Ć" d="M817 142q109 0 206 39.5t173 102.5l100 -141q-97 -79 -218 -123t-261 -44q-156 0 -290.5 56t-233.5 153.5t-155.5 229.5t-56.5 285t56.5 285.5t155.5 230t233.5 153t290.5 55.5q134 0 249.5 -40t212.5 -115l-95 -142q-41 29 -83 53t-87 41t-93.5 27t-103.5 10 q-114 0 -213.5 -43t-173 -118.5t-116 -177.5t-42.5 -219t42.5 -219t116 -177.5t173 -118.5t213.5 -43zM896 1847h186l-280 -337h-180z"/>
<glyph glyph-name="cacute" horiz-adv-x="1098" unicode="ć" d="M634 -24q-121 0 -223.5 42.5t-177.5 116t-117 172.5t-42 211t42 211t117 172.5t177.5 116t223.5 42.5q113 0 207.5 -36.5t169.5 -100.5l-95 -143q-58 51 -128 84t-154 33q-79 0 -148 -30t-119 -81.5t-79 -120.5t-29 -147t29 -147t79 -120.5t119 -81.5t148 -30 q85 0 158.5 34t130.5 91l107 -133q-75 -73 -175.5 -114t-220.5 -41zM715 1523h186l-280 -337h-180z"/>
<glyph glyph-name="Ccircumflex" horiz-adv-x="1368" unicode="Ĉ" d="M817 142q109 0 206 39.5t173 102.5l100 -141q-97 -79 -218 -123t-261 -44q-156 0 -290.5 56t-233.5 153.5t-155.5 229.5t-56.5 285t56.5 285.5t155.5 230t233.5 153t290.5 55.5q134 0 249.5 -40t212.5 -115l-95 -142q-41 29 -83 53t-87 41t-93.5 27t-103.5 10 q-114 0 -213.5 -43t-173 -118.5t-116 -177.5t-42.5 -219t42.5 -219t116 -177.5t173 -118.5t213.5 -43zM1120 1510h-180l-175 199l-175 -199h-180l292 337h126z"/>
<glyph glyph-name="ccircumflex" horiz-adv-x="1098" unicode="ĉ" d="M634 -24q-121 0 -223.5 42.5t-177.5 116t-117 172.5t-42 211t42 211t117 172.5t177.5 116t223.5 42.5q113 0 207.5 -36.5t169.5 -100.5l-95 -143q-58 51 -128 84t-154 33q-79 0 -148 -30t-119 -81.5t-79 -120.5t-29 -147t29 -147t79 -120.5t119 -81.5t148 -30 q85 0 158.5 34t130.5 91l107 -133q-75 -73 -175.5 -114t-220.5 -41zM936 1186h-180l-175 199l-175 -199h-180l292 337h126z"/>
<glyph glyph-name="Cdotaccent" horiz-adv-x="1368" unicode="Ċ" d="M817 142q109 0 206 39.5t173 102.5l100 -141q-97 -79 -218 -123t-261 -44q-156 0 -290.5 56t-233.5 153.5t-155.5 229.5t-56.5 285t56.5 285.5t155.5 230t233.5 153t290.5 55.5q134 0 249.5 -40t212.5 -115l-95 -142q-41 29 -83 53t-87 41t-93.5 27t-103.5 10 q-114 0 -213.5 -43t-173 -118.5t-116 -177.5t-42.5 -219t42.5 -219t116 -177.5t173 -118.5t213.5 -43zM653 1664q0 24 8.5 44.5t24 35.5t36 24t44.5 9t44.5 -9t36 -24t24 -35.5t8.5 -44.5t-8.5 -44.5t-24 -35.5t-36 -24t-44.5 -9t-44.5 9t-36 24t-24 35.5t-8.5 44.5z"/>
<glyph glyph-name="cdotaccent" horiz-adv-x="1098" unicode="ċ" d="M634 -24q-121 0 -223.5 42.5t-177.5 116t-117 172.5t-42 211t42 211t117 172.5t177.5 116t223.5 42.5q113 0 207.5 -36.5t169.5 -100.5l-95 -143q-58 51 -128 84t-154 33q-79 0 -148 -30t-119 -81.5t-79 -120.5t-29 -147t29 -147t79 -120.5t119 -81.5t148 -30 q85 0 158.5 34t130.5 91l107 -133q-75 -73 -175.5 -114t-220.5 -41zM488 1340q0 24 8.5 44.5t24 35.5t36 24t44.5 9t44.5 -9t36 -24t24 -35.5t8.5 -44.5t-8.5 -44.5t-24 -35.5t-36 -24t-44.5 -9t-44.5 9t-36 24t-24 35.5t-8.5 44.5z"/>
<glyph glyph-name="Ccaron" horiz-adv-x="1368" unicode="Č" d="M817 142q109 0 206 39.5t173 102.5l100 -141q-97 -79 -218 -123t-261 -44q-156 0 -290.5 56t-233.5 153.5t-155.5 229.5t-56.5 285t56.5 285.5t155.5 230t233.5 153t290.5 55.5q134 0 249.5 -40t212.5 -115l-95 -142q-41 29 -83 53t-87 41t-93.5 27t-103.5 10 q-114 0 -213.5 -43t-173 -118.5t-116 -177.5t-42.5 -219t42.5 -219t116 -177.5t173 -118.5t213.5 -43zM828 1510h-126l-292 337h180l175 -199l175 199h180z"/>
<glyph glyph-name="ccaron" horiz-adv-x="1098" unicode="č" d="M634 -24q-121 0 -223.5 42.5t-177.5 116t-117 172.5t-42 211t42 211t117 172.5t177.5 116t223.5 42.5q113 0 207.5 -36.5t169.5 -100.5l-95 -143q-58 51 -128 84t-154 33q-79 0 -148 -30t-119 -81.5t-79 -120.5t-29 -147t29 -147t79 -120.5t119 -81.5t148 -30 q85 0 158.5 34t130.5 91l107 -133q-75 -73 -175.5 -114t-220.5 -41zM645 1166h-126l-292 337h180l175 -199l175 199h180z"/>
<glyph glyph-name="Dcaron" horiz-adv-x="1413" unicode="Ď" d="M643 1400q158 0 285.5 -49.5t217 -140.5t138 -220.5t48.5 -289.5t-48.5 -289.5t-138 -221t-217 -140.5t-285.5 -49h-475v1400h475zM356 1234v-1068h287q111 0 202.5 34t157 101.5t102 167t36.5 231.5t-36.5 231.5t-102 167t-157 101.5t-202.5 34h-287zM728 1510h-126 l-292 337h180l175 -199l175 199h180z"/>
<glyph glyph-name="dcaron" horiz-adv-x="1602" unicode="ď" d="M634 139q56 0 106.5 15t93.5 42t77.5 64.5t57.5 83.5v345q-23 46 -57.5 84.5t-77.5 66t-93.5 42.5t-106.5 15q-79 0 -148 -30t-119 -81.5t-79 -120.5t-29 -147t29 -147t79 -120.5t119 -81.5t148 -30zM604 1060q109 0 202 -40.5t163 -117.5v558h182v-1460h-182v134 q-70 -78 -163 -118t-202 -40q-115 0 -212.5 43.5t-168 117.5t-110 172.5t-39.5 208.5t39.5 208.5t110 172.5t168 117.5t212.5 43.5zM1313 1363q0 26 9 48t25.5 38t38.5 25.5t47 9.5q26 0 48 -9.5t38 -25.5t25.5 -38t9.5 -48t-13 -55l-128 -280h-119l99 221q-35 12 -57.5 42 t-22.5 72z"/>
<glyph glyph-name="Dcroat" horiz-adv-x="1452" unicode="Đ" d="M682 1400q158 0 285.5 -49.5t217 -140.5t138 -220.5t48.5 -289.5t-48.5 -289.5t-138 -221t-217 -140.5t-285.5 -49h-475v629h-183v142h183v629h475zM395 1234v-463h307v-142h-307v-463h287q111 0 202.5 34t157 101.5t102 167t36.5 231.5t-36.5 231.5t-102 167t-157 101.5 t-202.5 34h-287z"/>
<glyph glyph-name="dcroat" horiz-adv-x="1328" unicode="đ" d="M604 1060q109 0 202 -40.5t163 -117.5v271h-346v126h346v161h182v-161h150v-126h-150v-1173h-182v134q-70 -78 -163 -118t-202 -40q-115 0 -212.5 43.5t-168 117.5t-110 172.5t-39.5 208.5t39.5 208.5t110 172.5t168 117.5t212.5 43.5zM634 139q56 0 106.5 15t93.5 42 t77.5 64.5t57.5 83.5v345q-23 46 -57.5 84.5t-77.5 66t-93.5 42.5t-106.5 15q-79 0 -148 -30t-119 -81.5t-79 -120.5t-29 -147t29 -147t79 -120.5t119 -81.5t148 -30z"/>
<glyph glyph-name="Emacron" horiz-adv-x="1129" unicode="Ē" d="M168 1400h827v-163h-639v-452h588v-163h-588v-459h657v-163h-845v1400zM290 1729h580v-142h-580v142z"/>
<glyph glyph-name="emacron" horiz-adv-x="1224" unicode="ē" d="M260 461q8 -69 38.5 -129t80 -104.5t114 -69.5t139.5 -25q96 0 179.5 40t147.5 110l125 -116q-82 -93 -196 -142t-251 -49q-126 0 -230 42.5t-178 116t-114.5 172.5t-40.5 211q0 113 41.5 211.5t114.5 172t173.5 116t218.5 42.5q116 0 213 -41t167 -111.5t109 -165 t39 -201.5q0 -20 -2.5 -41.5t-6.5 -38.5h-881zM622 903q-65 0 -123.5 -22.5t-105.5 -61.5t-79.5 -92t-46.5 -115h692q-10 63 -39.5 116t-74 92t-101 61t-122.5 22zM322 1405h580v-142h-580v142z"/>
<glyph glyph-name="Ebreve" horiz-adv-x="1129" unicode="Ĕ" d="M168 1400h827v-163h-639v-452h588v-163h-588v-459h657v-163h-845v1400zM578 1490q-66 0 -123.5 23t-101.5 64.5t-70.5 98t-30.5 123.5h162q2 -37 14 -68.5t33.5 -54.5t51 -36.5t65.5 -13.5t65.5 13.5t51 36.5t34 54.5t13.5 68.5h162q-4 -67 -30.5 -123.5t-70.5 -98 t-101.5 -64.5t-123.5 -23z"/>
<glyph glyph-name="ebreve" horiz-adv-x="1224" unicode="ĕ" d="M260 461q8 -69 38.5 -129t80 -104.5t114 -69.5t139.5 -25q96 0 179.5 40t147.5 110l125 -116q-82 -93 -196 -142t-251 -49q-126 0 -230 42.5t-178 116t-114.5 172.5t-40.5 211q0 113 41.5 211.5t114.5 172t173.5 116t218.5 42.5q116 0 213 -41t167 -111.5t109 -165 t39 -201.5q0 -20 -2.5 -41.5t-6.5 -38.5h-881zM622 903q-65 0 -123.5 -22.5t-105.5 -61.5t-79.5 -92t-46.5 -115h692q-10 63 -39.5 116t-74 92t-101 61t-122.5 22zM612 1166q-66 0 -123.5 23t-101.5 64.5t-70.5 98t-30.5 123.5h162q2 -37 14 -68.5t33.5 -54.5t51 -36.5 t65.5 -13.5t65.5 13.5t51 36.5t34 54.5t13.5 68.5h162q-4 -67 -30.5 -123.5t-70.5 -98t-101.5 -64.5t-123.5 -23z"/>
<glyph glyph-name="Edotaccent" horiz-adv-x="1129" unicode="Ė" d="M168 1400h827v-163h-639v-452h588v-163h-588v-459h657v-163h-845v1400zM474 1664q0 24 8.5 44.5t24 35.5t36 24t44.5 9t44.5 -9t36 -24t24 -35.5t8.5 -44.5t-8.5 -44.5t-24 -35.5t-36 -24t-44.5 -9t-44.5 9t-36 24t-24 35.5t-8.5 44.5z"/>
<glyph glyph-name="edotaccent" horiz-adv-x="1224" unicode="ė" d="M260 461q8 -69 38.5 -129t80 -104.5t114 -69.5t139.5 -25q96 0 179.5 40t147.5 110l125 -116q-82 -93 -196 -142t-251 -49q-126 0 -230 42.5t-178 116t-114.5 172.5t-40.5 211q0 113 41.5 211.5t114.5 172t173.5 116t218.5 42.5q116 0 213 -41t167 -111.5t109 -165 t39 -201.5q0 -20 -2.5 -41.5t-6.5 -38.5h-881zM622 903q-65 0 -123.5 -22.5t-105.5 -61.5t-79.5 -92t-46.5 -115h692q-10 63 -39.5 116t-74 92t-101 61t-122.5 22zM499 1340q0 24 8.5 44.5t24 35.5t36 24t44.5 9t44.5 -9t36 -24t24 -35.5t8.5 -44.5t-8.5 -44.5t-24 -35.5 t-36 -24t-44.5 -9t-44.5 9t-36 24t-24 35.5t-8.5 44.5z"/>
<glyph glyph-name="Eogonek" horiz-adv-x="1129" unicode="Ę" d="M168 1400h827v-163h-639v-452h588v-163h-588v-459h657v-163h-175q-74 -61 -122 -118t-48 -115q0 -48 31.5 -78.5t77.5 -30.5q48 0 89 27l41 -97q-32 -22 -73.5 -34t-86.5 -12q-46 0 -86.5 15.5t-70 43t-46.5 64.5t-17 81q0 37 13 71.5t36.5 66.5t55.5 61t70 55h-534v1400 z"/>
<glyph glyph-name="eogonek" horiz-adv-x="1224" unicode="ę" d="M260 461q8 -69 38.5 -129t80 -104.5t114 -69.5t139.5 -25q96 0 179.5 40t147.5 110l125 -116q-71 -80 -166 -127.5t-209 -59.5q-65 -56 -105 -107.5t-40 -105.5q0 -48 31.5 -78.5t77.5 -30.5q48 0 89 27l41 -97q-32 -22 -73.5 -34t-86.5 -12q-46 0 -86.5 15.5t-70 43 t-46.5 64.5t-17 81q0 68 40.5 126t106.5 108q-112 11 -204 57t-156.5 118t-100 165t-35.5 198q0 113 41.5 211.5t114.5 172t173.5 116t218.5 42.5q116 0 213 -41t167 -111.5t109 -165t39 -201.5q0 -20 -2.5 -41.5t-6.5 -38.5h-881zM622 903q-65 0 -123.5 -22.5t-105.5 -61.5 t-79.5 -92t-46.5 -115h692q-10 63 -39.5 116t-74 92t-101 61t-122.5 22z"/>
<glyph glyph-name="Ecaron" horiz-adv-x="1129" unicode="Ě" d="M168 1400h827v-163h-639v-452h588v-163h-588v-459h657v-163h-845v1400zM644 1510h-126l-292 337h180l175 -199l175 199h180z"/>
<glyph glyph-name="ecaron" horiz-adv-x="1224" unicode="ě" d="M260 461q8 -69 38.5 -129t80 -104.5t114 -69.5t139.5 -25q96 0 179.5 40t147.5 110l125 -116q-82 -93 -196 -142t-251 -49q-126 0 -230 42.5t-178 116t-114.5 172.5t-40.5 211q0 113 41.5 211.5t114.5 172t173.5 116t218.5 42.5q116 0 213 -41t167 -111.5t109 -165 t39 -201.5q0 -20 -2.5 -41.5t-6.5 -38.5h-881zM622 903q-65 0 -123.5 -22.5t-105.5 -61.5t-79.5 -92t-46.5 -115h692q-10 63 -39.5 116t-74 92t-101 61t-122.5 22zM675 1166h-126l-292 337h180l175 -199l175 199h180z"/>
<glyph glyph-name="Gcircumflex" horiz-adv-x="1440" unicode="Ĝ" d="M817 1258q-114 0 -213.5 -43t-173 -118.5t-116 -177.5t-42.5 -219t42.5 -219t116 -177.5t173 -118.5t213.5 -43q81 0 160.5 24.5t140.5 68.5v341h-383v163h571v-586q-94 -81 -219 -129t-270 -48q-156 0 -290.5 56t-233.5 153.5t-155.5 229.5t-56.5 285t56.5 285.5 t155.5 230t233.5 153t290.5 55.5q134 0 249.5 -40t212.5 -115l-95 -142q-41 29 -83 53t-87 41t-93.5 27t-103.5 10zM1120 1510h-180l-175 199l-175 -199h-180l292 337h126z"/>
<glyph glyph-name="gcircumflex" horiz-adv-x="1297" unicode="ĝ" d="M969 134q-70 -78 -163 -118t-202 -40q-115 0 -212.5 43.5t-168 117.5t-110 172.5t-39.5 208.5t39.5 208.5t110 172.5t168 117.5t212.5 43.5q109 0 202 -40.5t163 -117.5v134h182v-1003q0 -111 -34 -203t-100.5 -157t-164 -101t-225.5 -36q-73 0 -140 15t-126.5 42 t-110.5 65.5t-92 85.5l120 118q32 -36 70.5 -67t82 -53.5t92.5 -35.5t103 -13q77 0 140.5 22.5t108.5 65t69.5 103t24.5 137.5v113zM634 139q56 0 106.5 15t93.5 42t77.5 64.5t57.5 83.5v345q-23 46 -57.5 84.5t-77.5 66t-93.5 42.5t-106.5 15q-79 0 -148 -30t-119 -81.5 t-79 -120.5t-29 -147t29 -147t79 -120.5t119 -81.5t148 -30zM987 1186h-180l-175 199l-175 -199h-180l292 337h126z"/>
<glyph glyph-name="Gbreve" horiz-adv-x="1440" unicode="Ğ" d="M817 1258q-114 0 -213.5 -43t-173 -118.5t-116 -177.5t-42.5 -219t42.5 -219t116 -177.5t173 -118.5t213.5 -43q81 0 160.5 24.5t140.5 68.5v341h-383v163h571v-586q-94 -81 -219 -129t-270 -48q-156 0 -290.5 56t-233.5 153.5t-155.5 229.5t-56.5 285t56.5 285.5 t155.5 230t233.5 153t290.5 55.5q134 0 249.5 -40t212.5 -115l-95 -142q-41 29 -83 53t-87 41t-93.5 27t-103.5 10zM765 1490q-66 0 -123.5 23t-101.5 64.5t-70.5 98t-30.5 123.5h162q2 -37 14 -68.5t33.5 -54.5t51 -36.5t65.5 -13.5t65.5 13.5t51 36.5t34 54.5t13.5 68.5 h162q-4 -67 -30.5 -123.5t-70.5 -98t-101.5 -64.5t-123.5 -23z"/>
<glyph glyph-name="gbreve" horiz-adv-x="1297" unicode="ğ" d="M969 134q-70 -78 -163 -118t-202 -40q-115 0 -212.5 43.5t-168 117.5t-110 172.5t-39.5 208.5t39.5 208.5t110 172.5t168 117.5t212.5 43.5q109 0 202 -40.5t163 -117.5v134h182v-1003q0 -111 -34 -203t-100.5 -157t-164 -101t-225.5 -36q-73 0 -140 15t-126.5 42 t-110.5 65.5t-92 85.5l120 118q32 -36 70.5 -67t82 -53.5t92.5 -35.5t103 -13q77 0 140.5 22.5t108.5 65t69.5 103t24.5 137.5v113zM634 139q56 0 106.5 15t93.5 42t77.5 64.5t57.5 83.5v345q-23 46 -57.5 84.5t-77.5 66t-93.5 42.5t-106.5 15q-79 0 -148 -30t-119 -81.5 t-79 -120.5t-29 -147t29 -147t79 -120.5t119 -81.5t148 -30zM624 1166q-66 0 -123.5 23t-101.5 64.5t-70.5 98t-30.5 123.5h162q2 -37 14 -68.5t33.5 -54.5t51 -36.5t65.5 -13.5t65.5 13.5t51 36.5t34 54.5t13.5 68.5h162q-4 -67 -30.5 -123.5t-70.5 -98t-101.5 -64.5 t-123.5 -23z"/>
<glyph glyph-name="Gdotaccent" horiz-adv-x="1440" unicode="Ġ" d="M817 1258q-114 0 -213.5 -43t-173 -118.5t-116 -177.5t-42.5 -219t42.5 -219t116 -177.5t173 -118.5t213.5 -43q81 0 160.5 24.5t140.5 68.5v341h-383v163h571v-586q-94 -81 -219 -129t-270 -48q-156 0 -290.5 56t-233.5 153.5t-155.5 229.5t-56.5 285t56.5 285.5 t155.5 230t233.5 153t290.5 55.5q134 0 249.5 -40t212.5 -115l-95 -142q-41 29 -83 53t-87 41t-93.5 27t-103.5 10zM652 1664q0 24 8.5 44.5t24 35.5t36 24t44.5 9t44.5 -9t36 -24t24 -35.5t8.5 -44.5t-8.5 -44.5t-24 -35.5t-36 -24t-44.5 -9t-44.5 9t-36 24t-24 35.5 t-8.5 44.5z"/>
<glyph glyph-name="gdotaccent" horiz-adv-x="1297" unicode="ġ" d="M969 134q-70 -78 -163 -118t-202 -40q-115 0 -212.5 43.5t-168 117.5t-110 172.5t-39.5 208.5t39.5 208.5t110 172.5t168 117.5t212.5 43.5q109 0 202 -40.5t163 -117.5v134h182v-1003q0 -111 -34 -203t-100.5 -157t-164 -101t-225.5 -36q-73 0 -140 15t-126.5 42 t-110.5 65.5t-92 85.5l120 118q32 -36 70.5 -67t82 -53.5t92.5 -35.5t103 -13q77 0 140.5 22.5t108.5 65t69.5 103t24.5 137.5v113zM634 139q56 0 106.5 15t93.5 42t77.5 64.5t57.5 83.5v345q-23 46 -57.5 84.5t-77.5 66t-93.5 42.5t-106.5 15q-79 0 -148 -30t-119 -81.5 t-79 -120.5t-29 -147t29 -147t79 -120.5t119 -81.5t148 -30zM504 1340q0 24 8.5 44.5t24 35.5t36 24t44.5 9t44.5 -9t36 -24t24 -35.5t8.5 -44.5t-8.5 -44.5t-24 -35.5t-36 -24t-44.5 -9t-44.5 9t-36 24t-24 35.5t-8.5 44.5z"/>
<glyph glyph-name="Gcommaaccent" horiz-adv-x="1440" unicode="Ģ" d="M817 1258q-114 0 -213.5 -43t-173 -118.5t-116 -177.5t-42.5 -219t42.5 -219t116 -177.5t173 -118.5t213.5 -43q81 0 160.5 24.5t140.5 68.5v341h-383v163h571v-586q-94 -81 -219 -129t-270 -48q-156 0 -290.5 56t-233.5 153.5t-155.5 229.5t-56.5 285t56.5 285.5 t155.5 230t233.5 153t290.5 55.5q134 0 249.5 -40t212.5 -115l-95 -142q-41 29 -83 53t-87 41t-93.5 27t-103.5 10zM579 -470l156 342h184l-174 -342h-166z"/>
<glyph glyph-name="gcommaaccent" horiz-adv-x="1297" unicode="ģ" d="M969 134q-70 -78 -163 -118t-202 -40q-115 0 -212.5 43.5t-168 117.5t-110 172.5t-39.5 208.5t39.5 208.5t110 172.5t168 117.5t212.5 43.5q109 0 202 -40.5t163 -117.5v134h182v-1003q0 -111 -34 -203t-100.5 -157t-164 -101t-225.5 -36q-73 0 -140 15t-126.5 42 t-110.5 65.5t-92 85.5l120 118q32 -36 70.5 -67t82 -53.5t92.5 -35.5t103 -13q77 0 140.5 22.5t108.5 65t69.5 103t24.5 137.5v113zM634 139q56 0 106.5 15t93.5 42t77.5 64.5t57.5 83.5v345q-23 46 -57.5 84.5t-77.5 66t-93.5 42.5t-106.5 15q-79 0 -148 -30t-119 -81.5 t-79 -120.5t-29 -147t29 -147t79 -120.5t119 -81.5t148 -30zM855 1514l-156 -342h-184l174 342h166z"/>
<glyph glyph-name="Hcircumflex" horiz-adv-x="1394" unicode="Ĥ" d="M168 1400h188v-615h682v615h188v-1400h-188v622h-682v-622h-188v1400zM1052 1510h-180l-175 199l-175 -199h-180l292 337h126z"/>
<glyph glyph-name="hcircumflex" horiz-adv-x="1207" unicode="ĥ" d="M328 0h-182v1460h182v-583q28 36 63.5 69.5t78 58.5t91.5 40t103 15q92 0 168.5 -31t132 -87t86 -133.5t30.5 -171.5v-637h-182v627q0 58 -19.5 107.5t-55 85.5t-85 56.5t-109.5 20.5q-49 0 -93.5 -18t-83 -47.5t-70 -67.5t-55.5 -77v-687zM592 1570h-180l-175 199 l-175 -199h-180l292 337h126z"/>
<glyph glyph-name="Hbar" horiz-adv-x="1416" unicode="Ħ" d="M179 1048h-125v139h125v213h188v-213h682v213h188v-213h125v-139h-125v-1048h-188v622h-682v-622h-188v1048zM1049 785v263h-682v-263h682z"/>
<glyph glyph-name="hbar" horiz-adv-x="1238" unicode="ħ" d="M27 1299h150v161h182v-161h346v-126h-346v-296q28 36 63.5 69.5t78 58.5t91.5 40t103 15q92 0 168.5 -31t132 -87t86 -133.5t30.5 -171.5v-637h-182v627q0 58 -19.5 107.5t-55 85.5t-85 56.5t-109.5 20.5q-49 0 -93.5 -18t-83 -47.5t-70 -67.5t-55.5 -77v-687h-182v1173 h-150v126z"/>
<glyph glyph-name="Itilde" horiz-adv-x="570" unicode="Ĩ" d="M379 1400v-1400h-188v1400h188zM280 1580q-29 21 -57 41t-55 20q-26 0 -42 -25t-27 -76l-153 30q22 107 67.5 160t120.5 53q42 0 82 -16.5t74 -41.5q29 -21 57 -41t55 -20q26 0 42 25t27 76l153 -30q-22 -107 -67.5 -160t-120.5 -53q-42 0 -82 16.5t-74 41.5z"/>
<glyph glyph-name="itilde" horiz-adv-x="522" unicode="ĩ" d="M170 1036h182v-1036h-182v1036zM256 1256q-29 21 -57 41t-55 20q-26 0 -42 -25t-27 -76l-153 30q22 107 67.5 160t120.5 53q42 0 82 -16.5t74 -41.5q29 -21 57 -41t55 -20q26 0 42 25t27 76l153 -30q-22 -107 -67.5 -160t-120.5 -53q-42 0 -82 16.5t-74 41.5z"/>
<glyph glyph-name="Imacron" horiz-adv-x="570" unicode="Ī" d="M379 1400v-1400h-188v1400h188zM-5 1729h580v-142h-580v142z"/>
<glyph glyph-name="imacron" horiz-adv-x="522" unicode="ī" d="M170 1036h182v-1036h-182v1036zM-29 1405h580v-142h-580v142z"/>
<glyph glyph-name="Ibreve" horiz-adv-x="570" unicode="Ĭ" d="M379 1400v-1400h-188v1400h188zM285 1490q-66 0 -123.5 23t-101.5 64.5t-70.5 98t-30.5 123.5h162q2 -37 14 -68.5t33.5 -54.5t51 -36.5t65.5 -13.5t65.5 13.5t51 36.5t34 54.5t13.5 68.5h162q-4 -67 -30.5 -123.5t-70.5 -98t-101.5 -64.5t-123.5 -23z"/>
<glyph glyph-name="ibreve" horiz-adv-x="522" unicode="ĭ" d="M170 1036h182v-1036h-182v1036zM261 1166q-66 0 -123.5 23t-101.5 64.5t-70.5 98t-30.5 123.5h162q2 -37 14 -68.5t33.5 -54.5t51 -36.5t65.5 -13.5t65.5 13.5t51 36.5t34 54.5t13.5 68.5h162q-4 -67 -30.5 -123.5t-70.5 -98t-101.5 -64.5t-123.5 -23z"/>
<glyph glyph-name="Iogonek" horiz-adv-x="570" unicode="Į" d="M191 0v1400h188v-1400q-74 -61 -122 -118t-48 -115q0 -48 31.5 -78.5t77.5 -30.5q48 0 89 27l41 -97q-32 -22 -73.5 -34t-86.5 -12q-46 0 -86.5 15.5t-70 43t-46.5 64.5t-17 81q0 37 13 71.5t36.5 66.5t55.5 61t70 55h-52z"/>
<glyph glyph-name="iogonek" horiz-adv-x="522" unicode="į" d="M170 1036h182v-1036q-74 -61 -122 -118t-48 -115q0 -48 31.5 -78.5t77.5 -30.5q48 0 89 27l41 -97q-32 -22 -73.5 -34t-86.5 -12q-46 0 -86.5 15.5t-70 43t-46.5 64.5t-17 81q0 37 13 71.5t36.5 66.5t55.5 61t70 55h-46v1036zM141 1325q0 26 9 47.5t25.5 38t38.5 25.5 t47 9q26 0 47.5 -9t38 -25.5t25.5 -38t9 -47.5q0 -25 -9 -47t-25.5 -38t-38 -25t-47.5 -9q-25 0 -47 9t-38.5 25t-25.5 38t-9 47z"/>
<glyph glyph-name="Idotaccent" horiz-adv-x="570" unicode="İ" d="M379 1400v-1400h-188v1400h188zM172 1664q0 24 8.5 44.5t24 35.5t36 24t44.5 9t44.5 -9t36 -24t24 -35.5t8.5 -44.5t-8.5 -44.5t-24 -35.5t-36 -24t-44.5 -9t-44.5 9t-36 24t-24 35.5t-8.5 44.5z"/>
<glyph glyph-name="dotlessi" horiz-adv-x="522" unicode="ı" d="M170 1036h182v-1036h-182v1036z"/>
<glyph glyph-name="IJ" horiz-adv-x="1449" unicode="Ĳ" d="M379 1400v-1400h-188v1400h188zM1106 1400h188v-969q0 -236 -110.5 -345.5t-317.5 -109.5q-36 0 -74 4.5t-74 13.5t-69.5 21.5t-60.5 28.5l61 159q44 -26 102.5 -43.5t110.5 -17.5q116 0 180 68.5t64 220.5v969z"/>
<glyph glyph-name="ij" horiz-adv-x="1044" unicode="ĳ" d="M170 1036h182v-1036h-182v1036zM141 1325q0 26 9 47.5t25.5 38t38.5 25.5t47 9q26 0 47.5 -9t38 -25.5t25.5 -38t9 -47.5q0 -25 -9 -47t-25.5 -38t-38 -25t-47.5 -9q-25 0 -47 9t-38.5 25t-25.5 38t-9 47zM692 1036h182v-1170q0 -176 -76 -253t-231 -77q-19 0 -40.5 1 t-37.5 3v157q14 -1 28.5 -1h28.5q71 0 108.5 37.5t37.5 129.5v1173zM663 1325q0 26 9 47.5t25.5 38t38.5 25.5t47 9q26 0 47.5 -9t38 -25.5t25.5 -38t9 -47.5q0 -25 -9 -47t-25.5 -38t-38 -25t-47.5 -9q-25 0 -47 9t-38.5 25t-25.5 38t-9 47z"/>
<glyph glyph-name="Jcircumflex" horiz-adv-x="909" unicode="Ĵ" d="M566 1400h188v-969q0 -236 -110.5 -345.5t-317.5 -109.5q-36 0 -74 4.5t-74 13.5t-69.5 21.5t-60.5 28.5l61 159q44 -26 102.5 -43.5t110.5 -17.5q116 0 180 68.5t64 220.5v969zM1015 1510h-180l-175 199l-175 -199h-180l292 337h126z"/>
<glyph glyph-name="jcircumflex" horiz-adv-x="522" unicode="ĵ" d="M170 1036h182v-1170q0 -176 -76 -253t-231 -77q-19 0 -40.5 1t-37.5 3v157q14 -1 28.5 -1h28.5q71 0 108.5 37.5t37.5 129.5v1173zM616 1186h-180l-175 199l-175 -199h-180l292 337h126z"/>
<glyph glyph-name="Kcommaaccent" horiz-adv-x="1201" unicode="Ķ" d="M356 785h120l428 615h215l-483 -693l563 -707h-221l-496 622h-126v-622h-188v1400h188v-615zM412 -470l156 342h184l-174 -342h-166z"/>
<glyph glyph-name="kcommaaccent" horiz-adv-x="1029" unicode="ķ" d="M456 497h-128v-497h-182v1460h182v-806h130l293 382h216l-358 -460l412 -576h-210zM301 -470l156 342h184l-174 -342h-166z"/>
<glyph glyph-name="kgreenlandic" horiz-adv-x="1029" unicode="ĸ" d="M456 492h-128v-492h-182v1036h182v-387h130l293 387h216l-358 -465l412 -571h-210z"/>
<glyph glyph-name="Lacute" horiz-adv-x="1030" unicode="Ĺ" d="M168 1400h188v-1237h627v-163h-815v1400zM443 1847h186l-280 -337h-180z"/>
<glyph glyph-name="lacute" horiz-adv-x="522" unicode="ĺ" d="M170 1460h182v-1460h-182v1460zM386 1907h186l-280 -337h-180z"/>
<glyph glyph-name="Lcommaaccent" horiz-adv-x="1030" unicode="Ļ" d="M168 1400h188v-1237h627v-163h-815v1400zM359 -470l156 342h184l-174 -342h-166z"/>
<glyph glyph-name="lcommaaccent" horiz-adv-x="522" unicode="ļ" d="M170 1460h182v-1460h-182v1460zM36 -470l156 342h184l-174 -342h-166z"/>
<glyph glyph-name="Lcaron" horiz-adv-x="1030" unicode="Ľ" d="M168 1400h188v-1237h627v-163h-815v1400zM630 1303q0 26 9 48t25.5 38t38.5 25.5t47 9.5q26 0 48 -9.5t38 -25.5t25.5 -38t9.5 -48t-13 -55l-128 -280h-119l99 221q-35 12 -57.5 42t-22.5 72z"/>
<glyph glyph-name="lcaron" horiz-adv-x="804" unicode="ľ" d="M170 1460h182v-1460h-182v1460zM515 1363q0 26 9 48t25.5 38t38.5 25.5t47 9.5q26 0 48 -9.5t38 -25.5t25.5 -38t9.5 -48t-13 -55l-128 -280h-119l99 221q-35 12 -57.5 42t-22.5 72z"/>
<glyph glyph-name="Ldot" horiz-adv-x="1030" unicode="Ŀ" d="M168 1400h188v-1237h627v-163h-815v1400zM612 752q0 24 8.5 44.5t24 35.5t36 24t44.5 9t44.5 -9t36 -24t24 -35.5t8.5 -44.5t-8.5 -44.5t-24 -35.5t-36 -24t-44.5 -9t-44.5 9t-36 24t-24 35.5t-8.5 44.5z"/>
<glyph glyph-name="ldot" horiz-adv-x="802" unicode="ŀ" d="M170 1460h182v-1460h-182v1460zM524 752q0 24 8.5 44.5t24 35.5t36 24t44.5 9t44.5 -9t36 -24t24 -35.5t8.5 -44.5t-8.5 -44.5t-24 -35.5t-36 -24t-44.5 -9t-44.5 9t-36 24t-24 35.5t-8.5 44.5z"/>
<glyph glyph-name="Lslash" horiz-adv-x="1061" unicode="Ł" d="M199 550l-145 -74v153l145 74v697h188v-600l376 193v-153l-376 -193v-484h627v-163h-815v550z"/>
<glyph glyph-name="lslash" horiz-adv-x="588" unicode="ł" d="M203 643l-176 -88v142l176 88v675h182v-583l176 88v-142l-176 -88v-735h-182v643z"/>
<glyph glyph-name="Nacute" horiz-adv-x="1399" unicode="Ń" d="M168 1400h181l700 -1074v1074h182v-1400h-181l-700 1074v-1074h-182v1400zM824 1847h186l-280 -337h-180z"/>
<glyph glyph-name="nacute" horiz-adv-x="1207" unicode="ń" d="M328 0h-182v1036h182v-159q28 36 63.5 69.5t78 58.5t91.5 40t103 15q92 0 168.5 -31t132 -87t86 -133.5t30.5 -171.5v-637h-182v627q0 58 -19.5 107.5t-55 85.5t-85 56.5t-109.5 20.5q-49 0 -93.5 -18t-83 -47.5t-70 -67.5t-55.5 -77v-687zM739 1523h186l-280 -337h-180z "/>
<glyph glyph-name="Ncommaaccent" horiz-adv-x="1399" unicode="Ņ" d="M168 1400h181l700 -1074v1074h182v-1400h-181l-700 1074v-1074h-182v1400zM490 -470l156 342h184l-174 -342h-166z"/>
<glyph glyph-name="ncommaaccent" horiz-adv-x="1207" unicode="ņ" d="M328 0h-182v1036h182v-159q28 36 63.5 69.5t78 58.5t91.5 40t103 15q92 0 168.5 -31t132 -87t86 -133.5t30.5 -171.5v-637h-182v627q0 58 -19.5 107.5t-55 85.5t-85 56.5t-109.5 20.5q-49 0 -93.5 -18t-83 -47.5t-70 -67.5t-55.5 -77v-687zM398 -470l156 342h184 l-174 -342h-166z"/>
<glyph glyph-name="Ncaron" horiz-adv-x="1399" unicode="Ň" d="M168 1400h181l700 -1074v1074h182v-1400h-181l-700 1074v-1074h-182v1400zM762 1510h-126l-292 337h180l175 -199l175 199h180z"/>
<glyph glyph-name="ncaron" horiz-adv-x="1207" unicode="ň" d="M328 0h-182v1036h182v-159q28 36 63.5 69.5t78 58.5t91.5 40t103 15q92 0 168.5 -31t132 -87t86 -133.5t30.5 -171.5v-637h-182v627q0 58 -19.5 107.5t-55 85.5t-85 56.5t-109.5 20.5q-49 0 -93.5 -18t-83 -47.5t-70 -67.5t-55.5 -77v-687zM655 1166h-126l-292 337h180 l175 -199l175 199h180z"/>
<glyph glyph-name="napostrophe" horiz-adv-x="1401" unicode="ŉ" d="M522 0h-182v1036h182v-159q28 36 63.5 69.5t78 58.5t91.5 40t103 15q92 0 168.5 -31t132 -87t86 -133.5t30.5 -171.5v-637h-182v627q0 58 -19.5 107.5t-55 85.5t-85 56.5t-109.5 20.5q-49 0 -93.5 -18t-83 -47.5t-70 -67.5t-55.5 -77v-687zM71 1363q0 26 9 48t25.5 38 t38.5 25.5t47 9.5q26 0 48 -9.5t38 -25.5t25.5 -38t9.5 -48t-13 -55l-128 -280h-119l99 221q-35 12 -57.5 42t-22.5 72z"/>
<glyph glyph-name="Eng" horiz-adv-x="1399" unicode="Ŋ" d="M1231 -103q0 -361 -376 -361q-27 0 -55.5 2.5t-45.5 5.5v157q20 -2 44.5 -3.5t46.5 -1.5q111 0 157.5 51t46.5 152v102l-699 1073v-1074h-182v1400h181l700 -1074v1074h182v-1503z"/>
<glyph glyph-name="eng" horiz-adv-x="1207" unicode="ŋ" d="M899 627q0 58 -19.5 107.5t-55 85.5t-85 56.5t-109.5 20.5q-49 0 -93.5 -18t-83 -47.5t-70 -67.5t-55.5 -77v-687h-182v1036h182v-159q28 36 63.5 69.5t78 58.5t91.5 40t103 15q92 0 168.5 -31t132 -87t86 -133.5t30.5 -171.5v-740q0 -184 -90 -272.5t-281 -88.5 q-29 0 -58.5 2.5t-47.5 5.5v157q20 -2 44 -3.5t47 -1.5q111 0 157.5 51t46.5 152v728z"/>
<glyph glyph-name="Omacron" horiz-adv-x="1634" unicode="Ō" d="M817 142q114 0 213.5 43t173 118.5t116 177.5t42.5 219t-42.5 219t-116 177.5t-173 118.5t-213.5 43t-213.5 -43t-173 -118.5t-116 -177.5t-42.5 -219t42.5 -219t116 -177.5t173 -118.5t213.5 -43zM817 1424q156 0 290.5 -55.5t233.5 -153t155.5 -230t56.5 -285.5 t-56.5 -285t-155.5 -229.5t-233.5 -153.5t-290.5 -56t-290.5 56t-233.5 153.5t-155.5 229.5t-56.5 285t56.5 285.5t155.5 230t233.5 153t290.5 55.5zM527 1729h580v-142h-580v142z"/>
<glyph glyph-name="omacron" horiz-adv-x="1268" unicode="ō" d="M634 139q80 0 148.5 30t118.5 81.5t79 120.5t29 147t-29 147t-79 120.5t-118.5 81.5t-148.5 30q-79 0 -148 -30t-119 -81.5t-79 -120.5t-29 -147t29 -147t79 -120.5t119 -81.5t148 -30zM634 1060q121 0 223.5 -42.5t177.5 -116t117 -172.5t42 -211t-42 -211t-117 -172.5 t-177.5 -116t-223.5 -42.5t-223.5 42.5t-177.5 116t-117 172.5t-42 211t42 211t117 172.5t177.5 116t223.5 42.5zM344 1405h580v-142h-580v142z"/>
<glyph glyph-name="Obreve" horiz-adv-x="1634" unicode="Ŏ" d="M817 142q114 0 213.5 43t173 118.5t116 177.5t42.5 219t-42.5 219t-116 177.5t-173 118.5t-213.5 43t-213.5 -43t-173 -118.5t-116 -177.5t-42.5 -219t42.5 -219t116 -177.5t173 -118.5t213.5 -43zM817 1424q156 0 290.5 -55.5t233.5 -153t155.5 -230t56.5 -285.5 t-56.5 -285t-155.5 -229.5t-233.5 -153.5t-290.5 -56t-290.5 56t-233.5 153.5t-155.5 229.5t-56.5 285t56.5 285.5t155.5 230t233.5 153t290.5 55.5zM817 1490q-66 0 -123.5 23t-101.5 64.5t-70.5 98t-30.5 123.5h162q2 -37 14 -68.5t33.5 -54.5t51 -36.5t65.5 -13.5 t65.5 13.5t51 36.5t34 54.5t13.5 68.5h162q-4 -67 -30.5 -123.5t-70.5 -98t-101.5 -64.5t-123.5 -23z"/>
<glyph glyph-name="obreve" horiz-adv-x="1268" unicode="ŏ" d="M634 139q80 0 148.5 30t118.5 81.5t79 120.5t29 147t-29 147t-79 120.5t-118.5 81.5t-148.5 30q-79 0 -148 -30t-119 -81.5t-79 -120.5t-29 -147t29 -147t79 -120.5t119 -81.5t148 -30zM634 1060q121 0 223.5 -42.5t177.5 -116t117 -172.5t42 -211t-42 -211t-117 -172.5 t-177.5 -116t-223.5 -42.5t-223.5 42.5t-177.5 116t-117 172.5t-42 211t42 211t117 172.5t177.5 116t223.5 42.5zM634 1166q-66 0 -123.5 23t-101.5 64.5t-70.5 98t-30.5 123.5h162q2 -37 14 -68.5t33.5 -54.5t51 -36.5t65.5 -13.5t65.5 13.5t51 36.5t34 54.5t13.5 68.5h162 q-4 -67 -30.5 -123.5t-70.5 -98t-101.5 -64.5t-123.5 -23z"/>
<glyph glyph-name="Ohungarumlaut" horiz-adv-x="1634" unicode="Ő" d="M817 142q114 0 213.5 43t173 118.5t116 177.5t42.5 219t-42.5 219t-116 177.5t-173 118.5t-213.5 43t-213.5 -43t-173 -118.5t-116 -177.5t-42.5 -219t42.5 -219t116 -177.5t173 -118.5t213.5 -43zM817 1424q156 0 290.5 -55.5t233.5 -153t155.5 -230t56.5 -285.5 t-56.5 -285t-155.5 -229.5t-233.5 -153.5t-290.5 -56t-290.5 56t-233.5 153.5t-155.5 229.5t-56.5 285t56.5 285.5t155.5 230t233.5 153t290.5 55.5zM809 1847h186l-280 -337h-181zM1125 1847h186l-280 -337h-180z"/>
<glyph glyph-name="ohungarumlaut" horiz-adv-x="1268" unicode="ő" d="M634 139q80 0 148.5 30t118.5 81.5t79 120.5t29 147t-29 147t-79 120.5t-118.5 81.5t-148.5 30q-79 0 -148 -30t-119 -81.5t-79 -120.5t-29 -147t29 -147t79 -120.5t119 -81.5t148 -30zM634 1060q121 0 223.5 -42.5t177.5 -116t117 -172.5t42 -211t-42 -211t-117 -172.5 t-177.5 -116t-223.5 -42.5t-223.5 42.5t-177.5 116t-117 172.5t-42 211t42 211t117 172.5t177.5 116t223.5 42.5zM610 1523h186l-280 -337h-181zM926 1523h186l-280 -337h-180z"/>
<glyph glyph-name="OE" horiz-adv-x="1796" unicode="Œ" d="M852 166v1068h-16q-118 0 -221 -41t-179.5 -113t-120 -169.5t-43.5 -210.5q0 -114 43.5 -211.5t120 -169t179.5 -112.5t221 -41h16zM836 0q-158 0 -295.5 53.5t-239.5 148t-161 222.5t-59 276t59 276t161 222t239.5 148t295.5 54h826v-163h-622v-452h571v-163h-571v-459 h640v-163h-844z"/>
<glyph glyph-name="oe" horiz-adv-x="2134" unicode="œ" d="M626 1060q75 0 143.5 -19.5t127.5 -54.5t107 -84.5t81 -108.5q32 58 78.5 107t105 84.5t126.5 55.5t142 20q115 0 211 -41t165.5 -111.5t108 -165t38.5 -201.5q0 -20 -2 -41.5t-6 -38.5h-873q8 -69 39 -129t79.5 -104.5t112.5 -69.5t138 -25q94 0 176 40t145 110 l125 -116q-81 -93 -194 -142t-248 -49q-79 0 -150.5 19.5t-132 55t-107.5 84t-78 105.5q-33 -59 -80.5 -107.5t-106.5 -83.5t-127.5 -54t-143.5 -19q-118 0 -219.5 42t-175 115.5t-115.5 172.5t-42 212t42 212t115.5 172.5t175 115.5t219.5 42zM626 139q77 0 144 29.5 t116.5 80.5t78 120t28.5 149t-28.5 149t-78 120t-116.5 80.5t-144 29.5t-144 -29.5t-116.5 -80.5t-78 -120t-28.5 -149t28.5 -149t78 -120t116.5 -80.5t144 -29.5zM1537 903q-64 0 -121.5 -22.5t-104 -61.5t-79 -92t-45.5 -115h682q-11 62 -40 115.5t-72 92.5t-99 61 t-121 22z"/>
<glyph glyph-name="Racute" horiz-adv-x="1200" unicode="Ŕ" d="M356 528v-528h-188v1400h447q111 0 200.5 -31t151.5 -88t95.5 -137.5t33.5 -179.5q0 -84 -24 -154.5t-70 -125t-111 -91.5t-148 -53l379 -540h-208l-370 528h-188zM905 964q0 62 -20 112.5t-58 86t-93 55t-126 19.5h-252v-546h252q71 0 126 19.5t93 55t58 86t20 112.5z M711 1847h186l-280 -337h-180z"/>
<glyph glyph-name="racute" unicode="ŕ" d="M626 897q-45 0 -87 -17.5t-80.5 -49t-71.5 -73.5t-59 -92v-665h-182v1036h182v-170q29 39 63.5 74t74.5 62t86 42.5t98 15.5q26 0 51.5 -5.5t45.5 -14.5l-15 -162q-26 9 -53 14t-53 5zM515 1523h186l-280 -337h-180z"/>
<glyph glyph-name="Rcommaaccent" horiz-adv-x="1200" unicode="Ŗ" d="M356 528v-528h-188v1400h447q111 0 200.5 -31t151.5 -88t95.5 -137.5t33.5 -179.5q0 -84 -24 -154.5t-70 -125t-111 -91.5t-148 -53l379 -540h-208l-370 528h-188zM905 964q0 62 -20 112.5t-58 86t-93 55t-126 19.5h-252v-546h252q71 0 126 19.5t93 55t58 86t20 112.5z M377 -470l156 342h184l-174 -342h-166z"/>
<glyph glyph-name="rcommaaccent" unicode="ŗ" d="M626 897q-45 0 -87 -17.5t-80.5 -49t-71.5 -73.5t-59 -92v-665h-182v1036h182v-170q29 39 63.5 74t74.5 62t86 42.5t98 15.5q26 0 51.5 -5.5t45.5 -14.5l-15 -162q-26 9 -53 14t-53 5zM12 -470l156 342h184l-174 -342h-166z"/>
<glyph glyph-name="Rcaron" horiz-adv-x="1200" unicode="Ř" d="M356 528v-528h-188v1400h447q111 0 200.5 -31t151.5 -88t95.5 -137.5t33.5 -179.5q0 -84 -24 -154.5t-70 -125t-111 -91.5t-148 -53l379 -540h-208l-370 528h-188zM905 964q0 62 -20 112.5t-58 86t-93 55t-126 19.5h-252v-546h252q71 0 126 19.5t93 55t58 86t20 112.5z M635 1510h-126l-292 337h180l175 -199l175 199h180z"/>
<glyph glyph-name="rcaron" unicode="ř" d="M626 897q-45 0 -87 -17.5t-80.5 -49t-71.5 -73.5t-59 -92v-665h-182v1036h182v-170q29 39 63.5 74t74.5 62t86 42.5t98 15.5q26 0 51.5 -5.5t45.5 -14.5l-15 -162q-26 9 -53 14t-53 5zM459 1166h-126l-292 337h180l175 -199l175 199h180z"/>
<glyph glyph-name="Sacute" horiz-adv-x="1176" unicode="Ś" d="M223 329q34 -39 75.5 -73t88 -59.5t97.5 -40t105 -14.5q68 0 125 16.5t98 46.5t64 73t23 95q0 47 -17.5 88t-57 75.5t-103 62t-155.5 46.5q-217 45 -325 147.5t-108 252.5q0 84 32.5 153.5t91 120t140.5 78t180 27.5q142 0 250.5 -48.5t189.5 -129.5l-112 -135 q-67 63 -145 105t-174 42q-58 0 -106 -14.5t-82.5 -41t-54 -63.5t-19.5 -81q0 -96 78.5 -158.5t242.5 -99.5q120 -27 204.5 -67t138 -93.5t78 -119.5t24.5 -146q0 -87 -34 -160t-98 -126t-155 -82.5t-205 -29.5q-73 0 -143.5 16t-134 45t-119 71t-97.5 93zM719 1847h186 l-280 -337h-180z"/>
<glyph glyph-name="sacute" horiz-adv-x="932" unicode="ś" d="M176 271q51 -61 125 -99.5t163 -38.5q99 0 155.5 42t56.5 111q0 66 -54 109t-176 66q-172 33 -254.5 112t-82.5 200q0 61 25.5 113.5t72 91t112.5 60.5t147 22q106 0 195 -39t153 -99l-98 -124q-55 48 -111.5 76.5t-125.5 28.5q-40 0 -74.5 -10t-59.5 -27.5t-39.5 -42 t-14.5 -53.5q0 -56 52.5 -99t161.5 -65q180 -35 266.5 -114t86.5 -209q0 -66 -26 -122t-75 -97t-120 -64.5t-161 -23.5q-128 0 -232 46.5t-171 125.5zM582 1523h186l-280 -337h-180z"/>
<glyph glyph-name="Scircumflex" horiz-adv-x="1176" unicode="Ŝ" d="M223 329q34 -39 75.5 -73t88 -59.5t97.5 -40t105 -14.5q68 0 125 16.5t98 46.5t64 73t23 95q0 47 -17.5 88t-57 75.5t-103 62t-155.5 46.5q-217 45 -325 147.5t-108 252.5q0 84 32.5 153.5t91 120t140.5 78t180 27.5q142 0 250.5 -48.5t189.5 -129.5l-112 -135 q-67 63 -145 105t-174 42q-58 0 -106 -14.5t-82.5 -41t-54 -63.5t-19.5 -81q0 -96 78.5 -158.5t242.5 -99.5q120 -27 204.5 -67t138 -93.5t78 -119.5t24.5 -146q0 -87 -34 -160t-98 -126t-155 -82.5t-205 -29.5q-73 0 -143.5 16t-134 45t-119 71t-97.5 93zM930 1510h-180 l-175 199l-175 -199h-180l292 337h126z"/>
<glyph glyph-name="scircumflex" horiz-adv-x="932" unicode="ŝ" d="M176 271q51 -61 125 -99.5t163 -38.5q99 0 155.5 42t56.5 111q0 66 -54 109t-176 66q-172 33 -254.5 112t-82.5 200q0 61 25.5 113.5t72 91t112.5 60.5t147 22q106 0 195 -39t153 -99l-98 -124q-55 48 -111.5 76.5t-125.5 28.5q-40 0 -74.5 -10t-59.5 -27.5t-39.5 -42 t-14.5 -53.5q0 -56 52.5 -99t161.5 -65q180 -35 266.5 -114t86.5 -209q0 -66 -26 -122t-75 -97t-120 -64.5t-161 -23.5q-128 0 -232 46.5t-171 125.5zM809 1186h-180l-175 199l-175 -199h-180l292 337h126z"/>
<glyph glyph-name="Scedilla" horiz-adv-x="1176" unicode="Ş" d="M552 -209q-29 0 -56 -5l-33 38l84 154q-66 5 -129 23t-120 47t-106 67.5t-88 85.5l119 128q34 -39 75.5 -73t88 -59.5t97.5 -40t105 -14.5q68 0 125 16.5t98 46.5t64 73t23 95q0 47 -17.5 88t-57 75.5t-103 62t-155.5 46.5q-217 45 -325 147.5t-108 252.5 q0 84 32.5 153.5t91 120t140.5 78t180 27.5q142 0 250.5 -48.5t189.5 -129.5l-112 -135q-67 63 -145 105t-174 42q-58 0 -106 -14.5t-82.5 -41t-54 -63.5t-19.5 -81q0 -96 78.5 -158.5t242.5 -99.5q120 -27 204.5 -67t138 -93.5t78 -119.5t24.5 -146q0 -78 -27.5 -145 t-79 -118t-126 -84.5t-168.5 -44.5l-61 -97q42 -8 76.5 -26.5t58.5 -44.5t37 -58.5t13 -67.5q0 -45 -19.5 -83t-53 -65.5t-79.5 -43.5t-100 -16q-51 0 -97 14.5t-82 43.5l62 90q21 -17 50 -26.5t58 -9.5q53 0 86 28.5t33 70.5t-33 71t-86 29z"/>
<glyph glyph-name="scedilla" horiz-adv-x="932" unicode="ş" d="M422 -209q-29 0 -56 -5l-33 38l84 155q-108 10 -196.5 54.5t-147.5 114.5l103 123q51 -61 125 -99.5t163 -38.5q99 0 155.5 42t56.5 111q0 66 -54 109t-176 66q-172 33 -254.5 112t-82.5 200q0 61 25.5 113.5t72 91t112.5 60.5t147 22q106 0 195 -39t153 -99l-98 -124 q-55 48 -111.5 76.5t-125.5 28.5q-40 0 -74.5 -10t-59.5 -27.5t-39.5 -42t-14.5 -53.5q0 -56 52.5 -99t161.5 -65q180 -35 266.5 -114t86.5 -209q0 -58 -20 -108.5t-58 -90t-94 -66t-127 -36.5l-61 -97q42 -8 76.5 -26.5t58.5 -44.5t37 -58.5t13 -67.5q0 -45 -19.5 -83 t-53 -65.5t-79.5 -43.5t-100 -16q-51 0 -97 14.5t-82 43.5l62 90q21 -17 50 -26.5t58 -9.5q53 0 86 28.5t33 70.5t-33 71t-86 29z"/>
<glyph glyph-name="Scaron" horiz-adv-x="1176" unicode="Š" d="M223 329q34 -39 75.5 -73t88 -59.5t97.5 -40t105 -14.5q68 0 125 16.5t98 46.5t64 73t23 95q0 47 -17.5 88t-57 75.5t-103 62t-155.5 46.5q-217 45 -325 147.5t-108 252.5q0 84 32.5 153.5t91 120t140.5 78t180 27.5q142 0 250.5 -48.5t189.5 -129.5l-112 -135 q-67 63 -145 105t-174 42q-58 0 -106 -14.5t-82.5 -41t-54 -63.5t-19.5 -81q0 -96 78.5 -158.5t242.5 -99.5q120 -27 204.5 -67t138 -93.5t78 -119.5t24.5 -146q0 -87 -34 -160t-98 -126t-155 -82.5t-205 -29.5q-73 0 -143.5 16t-134 45t-119 71t-97.5 93zM638 1510h-126 l-292 337h180l175 -199l175 199h180z"/>
<glyph glyph-name="scaron" horiz-adv-x="932" unicode="š" d="M176 271q51 -61 125 -99.5t163 -38.5q99 0 155.5 42t56.5 111q0 66 -54 109t-176 66q-172 33 -254.5 112t-82.5 200q0 61 25.5 113.5t72 91t112.5 60.5t147 22q106 0 195 -39t153 -99l-98 -124q-55 48 -111.5 76.5t-125.5 28.5q-40 0 -74.5 -10t-59.5 -27.5t-39.5 -42 t-14.5 -53.5q0 -56 52.5 -99t161.5 -65q180 -35 266.5 -114t86.5 -209q0 -66 -26 -122t-75 -97t-120 -64.5t-161 -23.5q-128 0 -232 46.5t-171 125.5zM519 1166h-126l-292 337h180l175 -199l175 199h180z"/>
<glyph glyph-name="Tcommaaccent" horiz-adv-x="1098" unicode="Ţ" d="M455 1237h-393v163h974v-163h-393v-1237l-73 -115q42 -8 76.5 -26.5t58.5 -44.5t37 -58.5t13 -67.5q0 -45 -19.5 -83t-53 -65.5t-79.5 -43.5t-100 -16q-51 0 -97 14.5t-82 43.5l62 90q21 -17 50 -26.5t58 -9.5q53 0 86 28.5t33 70.5t-33 71t-86 29q-29 0 -56 -5l-33 38 l96 176h-46v1237z"/>
<glyph glyph-name="tcommaaccent" horiz-adv-x="764" unicode="ţ" d="M359 -209q-29 0 -56 -5l-33 38l108 197q-75 41 -110.5 117t-35.5 191v547h-187v160h187v284l182 16v-300h283v-160h-283v-545q0 -98 46.5 -146.5t155.5 -48.5q22 0 49 1.5t44 3.5v-157q-19 -4 -49 -6t-59 -2t-54.5 2t-49.5 6l-62 -99q42 -8 76.5 -26.5t58.5 -44.5 t37 -58.5t13 -67.5q0 -45 -19.5 -83t-53 -65.5t-79.5 -43.5t-100 -16q-51 0 -97 14.5t-82 43.5l62 90q21 -17 50 -26.5t58 -9.5q53 0 86 28.5t33 70.5t-33 71t-86 29z"/>
<glyph glyph-name="Tcaron" horiz-adv-x="1098" unicode="Ť" d="M455 1237h-393v163h974v-163h-393v-1237h-188v1237zM612 1510h-126l-292 337h180l175 -199l175 199h180z"/>
<glyph glyph-name="tcaron" horiz-adv-x="1073" unicode="ť" d="M414 331q0 -98 46.5 -146.5t155.5 -48.5q22 0 49 1.5t44 3.5v-157q-19 -4 -49 -6t-59 -2q-189 0 -279 86t-90 267v547h-187v160h187v284l182 16v-300h283v-160h-283v-545zM784 1363q0 26 9 48t25.5 38t38.5 25.5t47 9.5q26 0 48 -9.5t38 -25.5t25.5 -38t9.5 -48t-13 -55 l-128 -280h-119l99 221q-35 12 -57.5 42t-22.5 72z"/>
<glyph glyph-name="Tbar" horiz-adv-x="1098" unicode="Ŧ" d="M455 629h-266v141h266v467h-393v163h974v-163h-393v-467h266v-141h-266v-629h-188v629z"/>
<glyph glyph-name="tbar" horiz-adv-x="764" unicode="ŧ" d="M414 599h241v-126h-241v-142q0 -98 46.5 -146.5t155.5 -48.5q22 0 49 1.5t44 3.5v-157q-19 -4 -49 -6t-59 -2q-189 0 -279 86t-90 267v144h-162v126h162v277h-187v160h187v284l182 16v-300h283v-160h-283v-277z"/>
<glyph glyph-name="Utilde" horiz-adv-x="1326" unicode="Ũ" d="M1171 489q0 -116 -39 -210.5t-107.5 -161t-161.5 -103t-200 -36.5t-200 36.5t-161.5 103t-107.5 161t-39 210.5v911h188v-932q0 -73 24.5 -133t67.5 -102.5t101.5 -65.5t126.5 -23t126.5 23t101.5 65.5t67.5 102.5t24.5 133v932h188v-911zM658 1580q-29 21 -57 41t-55 20 q-26 0 -42 -25t-27 -76l-153 30q22 107 67.5 160t120.5 53q42 0 82 -16.5t74 -41.5q29 -21 57 -41t55 -20q26 0 42 25t27 76l153 -30q-22 -107 -67.5 -160t-120.5 -53q-42 0 -82 16.5t-74 41.5z"/>
<glyph glyph-name="utilde" horiz-adv-x="1207" unicode="ũ" d="M879 1036h182v-1036h-182v159q-28 -36 -63.5 -69.5t-78 -58.5t-91.5 -40t-103 -15q-92 0 -168.5 31t-132 87t-86 133.5t-30.5 171.5v637h182v-627q0 -58 19.5 -107.5t55 -85.5t85 -56.5t109.5 -20.5q49 0 93.5 18t83 47.5t70 67.5t55.5 77v687zM587 1256q-29 21 -57 41 t-55 20q-26 0 -42 -25t-27 -76l-153 30q22 107 67.5 160t120.5 53q42 0 82 -16.5t74 -41.5q29 -21 57 -41t55 -20q26 0 42 25t27 76l153 -30q-22 -107 -67.5 -160t-120.5 -53q-42 0 -82 16.5t-74 41.5z"/>
<glyph glyph-name="Umacron" horiz-adv-x="1326" unicode="Ū" d="M1171 489q0 -116 -39 -210.5t-107.5 -161t-161.5 -103t-200 -36.5t-200 36.5t-161.5 103t-107.5 161t-39 210.5v911h188v-932q0 -73 24.5 -133t67.5 -102.5t101.5 -65.5t126.5 -23t126.5 23t101.5 65.5t67.5 102.5t24.5 133v932h188v-911zM373 1729h580v-142h-580v142z "/>
<glyph glyph-name="umacron" horiz-adv-x="1207" unicode="ū" d="M879 1036h182v-1036h-182v159q-28 -36 -63.5 -69.5t-78 -58.5t-91.5 -40t-103 -15q-92 0 -168.5 31t-132 87t-86 133.5t-30.5 171.5v637h182v-627q0 -58 19.5 -107.5t55 -85.5t85 -56.5t109.5 -20.5q49 0 93.5 18t83 47.5t70 67.5t55.5 77v687zM303 1405h580v-142h-580 v142z"/>
<glyph glyph-name="Ubreve" horiz-adv-x="1326" unicode="Ŭ" d="M1171 489q0 -116 -39 -210.5t-107.5 -161t-161.5 -103t-200 -36.5t-200 36.5t-161.5 103t-107.5 161t-39 210.5v911h188v-932q0 -73 24.5 -133t67.5 -102.5t101.5 -65.5t126.5 -23t126.5 23t101.5 65.5t67.5 102.5t24.5 133v932h188v-911zM663 1490q-66 0 -123.5 23 t-101.5 64.5t-70.5 98t-30.5 123.5h162q2 -37 14 -68.5t33.5 -54.5t51 -36.5t65.5 -13.5t65.5 13.5t51 36.5t34 54.5t13.5 68.5h162q-4 -67 -30.5 -123.5t-70.5 -98t-101.5 -64.5t-123.5 -23z"/>
<glyph glyph-name="ubreve" horiz-adv-x="1207" unicode="ŭ" d="M879 1036h182v-1036h-182v159q-28 -36 -63.5 -69.5t-78 -58.5t-91.5 -40t-103 -15q-92 0 -168.5 31t-132 87t-86 133.5t-30.5 171.5v637h182v-627q0 -58 19.5 -107.5t55 -85.5t85 -56.5t109.5 -20.5q49 0 93.5 18t83 47.5t70 67.5t55.5 77v687zM592 1166q-66 0 -123.5 23 t-101.5 64.5t-70.5 98t-30.5 123.5h162q2 -37 14 -68.5t33.5 -54.5t51 -36.5t65.5 -13.5t65.5 13.5t51 36.5t34 54.5t13.5 68.5h162q-4 -67 -30.5 -123.5t-70.5 -98t-101.5 -64.5t-123.5 -23z"/>
<glyph glyph-name="Uring" horiz-adv-x="1326" unicode="Ů" d="M1171 489q0 -116 -39 -210.5t-107.5 -161t-161.5 -103t-200 -36.5t-200 36.5t-161.5 103t-107.5 161t-39 210.5v911h188v-932q0 -73 24.5 -133t67.5 -102.5t101.5 -65.5t126.5 -23t126.5 23t101.5 65.5t67.5 102.5t24.5 133v932h188v-911zM572 1686q0 -38 26 -63.5 t65 -25.5t65 25.5t26 63.5t-26 63.5t-65 25.5t-65 -25.5t-26 -63.5zM453 1686q0 42 16 77.5t44 61.5t66.5 41t83.5 15t83.5 -15t66.5 -41t44 -61.5t16 -77.5t-16 -77.5t-44 -61.5t-66.5 -41t-83.5 -15t-83.5 15t-66.5 41t-44 61.5t-16 77.5z"/>
<glyph glyph-name="uring" horiz-adv-x="1207" unicode="ů" d="M879 1036h182v-1036h-182v159q-28 -36 -63.5 -69.5t-78 -58.5t-91.5 -40t-103 -15q-92 0 -168.5 31t-132 87t-86 133.5t-30.5 171.5v637h182v-627q0 -58 19.5 -107.5t55 -85.5t85 -56.5t109.5 -20.5q49 0 93.5 18t83 47.5t70 67.5t55.5 77v687zM499 1362q0 -38 26 -63.5 t65 -25.5t65 25.5t26 63.5t-26 63.5t-65 25.5t-65 -25.5t-26 -63.5zM380 1362q0 42 16 77.5t44 61.5t66.5 41t83.5 15t83.5 -15t66.5 -41t44 -61.5t16 -77.5t-16 -77.5t-44 -61.5t-66.5 -41t-83.5 -15t-83.5 15t-66.5 41t-44 61.5t-16 77.5z"/>
<glyph glyph-name="Uhungarumlaut" horiz-adv-x="1326" unicode="Ű" d="M1171 489q0 -116 -39 -210.5t-107.5 -161t-161.5 -103t-200 -36.5t-200 36.5t-161.5 103t-107.5 161t-39 210.5v911h188v-932q0 -73 24.5 -133t67.5 -102.5t101.5 -65.5t126.5 -23t126.5 23t101.5 65.5t67.5 102.5t24.5 133v932h188v-911zM660 1847h186l-280 -337h-181z M976 1847h186l-280 -337h-180z"/>
<glyph glyph-name="uhungarumlaut" horiz-adv-x="1207" unicode="ű" d="M879 1036h182v-1036h-182v159q-28 -36 -63.5 -69.5t-78 -58.5t-91.5 -40t-103 -15q-92 0 -168.5 31t-132 87t-86 133.5t-30.5 171.5v637h182v-627q0 -58 19.5 -107.5t55 -85.5t85 -56.5t109.5 -20.5q49 0 93.5 18t83 47.5t70 67.5t55.5 77v687zM574 1523h186l-280 -337 h-181zM890 1523h186l-280 -337h-180z"/>
<glyph glyph-name="Uogonek" horiz-adv-x="1326" unicode="Ų" d="M1171 489q0 -101 -30 -186t-83.5 -149.5t-127 -107t-160.5 -58.5q-69 -58 -112 -112t-43 -109q0 -48 31.5 -78.5t77.5 -30.5q48 0 89 27l41 -97q-32 -22 -73.5 -34t-86.5 -12q-46 0 -86.5 15.5t-70 43t-46.5 64.5t-17 81q0 68 40.5 126t106.5 108q-100 7 -185 46 t-147.5 105t-98 156.5t-35.5 201.5v911h188v-932q0 -73 24.5 -133t67.5 -102.5t101.5 -65.5t126.5 -23t126.5 23t101.5 65.5t67.5 102.5t24.5 133v932h188v-911z"/>
<glyph glyph-name="uogonek" horiz-adv-x="1207" unicode="ų" d="M879 0v159q-28 -36 -63.5 -69.5t-78 -58.5t-91.5 -40t-103 -15q-92 0 -168.5 31t-132 87t-86 133.5t-30.5 171.5v637h182v-627q0 -58 19.5 -107.5t55 -85.5t85 -56.5t109.5 -20.5q49 0 93.5 18t83 47.5t70 67.5t55.5 77v687h182v-1036q-74 -61 -122 -118t-48 -115 q0 -48 31.5 -78.5t77.5 -30.5q48 0 89 27l41 -97q-32 -22 -73.5 -34t-86.5 -12q-46 0 -86.5 15.5t-70 43t-46.5 64.5t-17 81q0 37 13 71.5t36.5 66.5t55.5 61t70 55h-46z"/>
<glyph glyph-name="Wcircumflex" horiz-adv-x="1934" unicode="Ŵ" d="M1061 1400l324 -1125l304 1125h198l-402 -1400h-188l-330 1141l-330 -1141h-188l-402 1400h198l304 -1125l324 1125h188zM1322 1510h-180l-175 199l-175 -199h-180l292 337h126z"/>
<glyph glyph-name="wcircumflex" horiz-adv-x="1560" unicode="ŵ" d="M874 1036l231 -792l238 792h190l-332 -1036h-188l-233 796l-233 -796h-188l-332 1036h190l238 -792l231 792h188zM1135 1186h-180l-175 199l-175 -199h-180l292 337h126z"/>
<glyph glyph-name="Ycircumflex" horiz-adv-x="1286" unicode="Ŷ" d="M643 758l393 642h203l-502 -826v-574h-188v574l-502 826h203zM998 1510h-180l-175 199l-175 -199h-180l292 337h126z"/>
<glyph glyph-name="ycircumflex" horiz-adv-x="1050" unicode="ŷ" d="M432 4l-405 1032h190l308 -801l308 801h190l-585 -1500h-190zM880 1186h-180l-175 199l-175 -199h-180l292 337h126z"/>
<glyph glyph-name="Ydieresis" horiz-adv-x="1286" unicode="Ÿ" d="M643 758l393 642h203l-502 -826v-574h-188v574l-502 826h203zM351 1664q0 24 8.5 44.5t24 35.5t36 24t44.5 9t44.5 -9t36 -24t24 -35.5t8.5 -44.5q0 -48 -32.5 -80.5t-80.5 -32.5t-80.5 32.5t-32.5 80.5zM709 1664q0 24 8.5 44.5t24 35.5t36 24t44.5 9t44.5 -9t36 -24 t24 -35.5t8.5 -44.5q0 -48 -32.5 -80.5t-80.5 -32.5t-80.5 32.5t-32.5 80.5z"/>
<glyph glyph-name="Zacute" horiz-adv-x="1201" unicode="Ź" d="M845 1237h-694v163h919v-163l-724 -1074h744v-163h-969v163zM709 1847h186l-280 -337h-180z"/>
<glyph glyph-name="zacute" horiz-adv-x="1012" unicode="ź" d="M98 160l572 716h-546v160h765v-160l-571 -716h591v-160h-811v160zM611 1523h186l-280 -337h-180z"/>
<glyph glyph-name="Zdotaccent" horiz-adv-x="1201" unicode="Ż" d="M845 1237h-694v163h919v-163l-724 -1074h744v-163h-969v163zM490 1664q0 24 8.5 44.5t24 35.5t36 24t44.5 9t44.5 -9t36 -24t24 -35.5t8.5 -44.5t-8.5 -44.5t-24 -35.5t-36 -24t-44.5 -9t-44.5 9t-36 24t-24 35.5t-8.5 44.5z"/>
<glyph glyph-name="zdotaccent" horiz-adv-x="1012" unicode="ż" d="M98 160l572 716h-546v160h765v-160l-571 -716h591v-160h-811v160zM395 1340q0 24 8.5 44.5t24 35.5t36 24t44.5 9t44.5 -9t36 -24t24 -35.5t8.5 -44.5t-8.5 -44.5t-24 -35.5t-36 -24t-44.5 -9t-44.5 9t-36 24t-24 35.5t-8.5 44.5z"/>
<glyph glyph-name="Zcaron" horiz-adv-x="1201" unicode="Ž" d="M845 1237h-694v163h919v-163l-724 -1074h744v-163h-969v163zM667 1510h-126l-292 337h180l175 -199l175 199h180z"/>
<glyph glyph-name="zcaron" horiz-adv-x="1012" unicode="ž" d="M98 160l572 716h-546v160h765v-160l-571 -716h591v-160h-811v160zM562 1166h-126l-292 337h180l175 -199l175 199h180z"/>
<glyph glyph-name="longs" horiz-adv-x="746" unicode="ſ" d="M701 1295q-19 2 -44 3.5t-47 1.5q-111 0 -157.5 -51t-46.5 -152v-1097h-182v876h-179v160h179v63q0 184 90 272.5t281 88.5q29 0 57.5 -2.5t48.5 -5.5v-157z"/>
<glyph glyph-name="uni0191" horiz-adv-x="1057" unicode="Ƒ" d="M168 1400h807v-163h-619v-451h568v-163h-568v-726q0 -182 -89.5 -271.5t-275.5 -89.5q-29 0 -55 2.5t-48 5.5v157q20 -2 41.5 -3.5t43.5 -1.5q105 0 150 51t45 152v1501z"/>
<glyph glyph-name="florin" horiz-adv-x="746" unicode="ƒ" d="M224 876h-179v160h179v63q0 184 90 272.5t281 88.5q29 0 57.5 -2.5t48.5 -5.5v-157q-19 2 -44 3.5t-47 1.5q-111 0 -157.5 -51t-46.5 -152v-61h295v-160h-295v-979q0 -184 -90 -272.5t-281 -88.5q-29 0 -57.5 2.5t-48.5 5.5v157q19 -2 44 -3.5t47 -1.5q111 0 157.5 51 t46.5 152v977z"/>
<glyph glyph-name="Aringacute" horiz-adv-x="1362" unicode="Ǻ" d="M554 1334q-36 25 -57 63t-21 84q0 40 15.5 74t43 59t65 39.5t81.5 14.5t81.5 -14.5t65 -39.5t43 -59t15.5 -74q0 -46 -21 -84t-57 -63l506 -1334h-205l-130 361h-596l-130 -361h-205zM439 524h484l-242 668zM595 1481q0 -35 24 -58t62 -23t62 23t24 58t-24 58t-62 23 t-62 -23t-24 -58zM575 1708l195 242h184l-202 -242h-177z"/>
<glyph glyph-name="aringacute" horiz-adv-x="1297" unicode="ǻ" d="M540 1329q0 -38 26.5 -64t64.5 -26t64.5 26t26.5 64t-26.5 64t-64.5 26t-64.5 -26t-26.5 -64zM421 1329q0 41 16 77t44.5 62.5t66.5 41.5t83 15t83 -15t66.5 -41.5t44.5 -62.5t16 -77t-16 -77t-44.5 -62.5t-66.5 -41.5t-83 -15t-83 15t-66.5 41.5t-44.5 62.5t-16 77z M634 139q56 0 106.5 15t93.5 42t77.5 64.5t57.5 83.5v345q-23 46 -57.5 84.5t-77.5 66t-93.5 42.5t-106.5 15q-79 0 -148 -30t-119 -81.5t-79 -120.5t-29 -147t29 -147t79 -120.5t119 -81.5t148 -30zM604 1060q109 0 202 -40.5t163 -117.5v134h182v-1036h-182v134 q-70 -78 -163 -118t-202 -40q-115 0 -212.5 43.5t-168 117.5t-110 172.5t-39.5 208.5t39.5 208.5t110 172.5t168 117.5t212.5 43.5zM521 1568l211 262h184l-218 -262h-177z"/>
<glyph glyph-name="AEacute" horiz-adv-x="1846" unicode="Ǽ" d="M18 0l804 1400h890v-163h-621v-452h571v-163h-571v-459h639v-163h-827v361h-467l-204 -361h-214zM903 524v665l-376 -665h376zM1059 1847h186l-280 -337h-180z"/>
<glyph glyph-name="aeacute" horiz-adv-x="2024" unicode="ǽ" d="M1070 461q8 -69 38.5 -129t79 -104.5t112.5 -69.5t138 -25q94 0 176 40t145 110l125 -116q-81 -93 -194 -142t-248 -49q-73 0 -140 16.5t-124 46t-104 70.5t-80 91q-33 -51 -79 -92.5t-101.5 -70.5t-119.5 -45t-134 -16q-104 0 -193 26.5t-154 72t-102 107.5t-37 134 q0 70 36.5 129.5t100 103t148 68.5t180.5 25q49 0 98.5 -7.5t95.5 -20t86.5 -30t71.5 -38.5q-1 6 -1 12.5v12.5q0 11 1 20.5t2 19.5q-4 66 -31 119.5t-72 92t-105.5 59.5t-129.5 21q-95 0 -182 -35t-153 -92l-70 140q85 68 189.5 106t220.5 38q71 0 136 -16t121 -46t101 -73 t74 -98q33 52 78.5 95t101.5 73.5t120.5 47.5t134.5 17q115 0 211 -41t165.5 -111.5t108 -165t38.5 -201.5q0 -20 -2 -41.5t-6 -38.5h-872zM569 133q115 0 201 48.5t132 130.5q-4 23 -6.5 47t-3.5 47q-59 46 -144.5 70t-177.5 24q-68 0 -125.5 -14.5t-99.5 -39.5 t-65.5 -58.5t-23.5 -71.5t23.5 -71.5t65 -58t99 -39t125.5 -14.5zM1427 903q-64 0 -121.5 -22.5t-104 -61.5t-78.5 -92t-46 -115h683q-11 63 -40 116t-72.5 92t-99.5 61t-121 22zM1125 1523h186l-280 -337h-180z"/>
<glyph glyph-name="Oslashacute" horiz-adv-x="1634" unicode="Ǿ" d="M817 1424q108 0 205.5 -27t181.5 -78l111 141h172l-173 -220q112 -100 175.5 -238t63.5 -302q0 -153 -56.5 -285t-155.5 -229.5t-233.5 -153.5t-290.5 -56q-115 0 -217 30t-190 86l-119 -152h-172l185 235q-105 98 -164 232.5t-59 292.5q0 153 56.5 285.5t155.5 230 t233.5 153t290.5 55.5zM817 142q114 0 213.5 43t173 118.5t116 177.5t42.5 219q0 118 -42.5 220t-117.5 178l-683 -868q64 -42 139 -65t159 -23zM272 700q0 -112 38 -209.5t106 -172.5l680 863q-62 37 -132 57t-147 20q-114 0 -213.5 -43t-173 -118.5t-116 -177.5 t-42.5 -219zM947 1847h186l-280 -337h-180z"/>
<glyph glyph-name="oslashacute" horiz-adv-x="1268" unicode="ǿ" d="M634 1060q81 0 153 -19.5t135 -54.5l88 110h164l-148 -187q79 -74 123.5 -174.5t44.5 -216.5q0 -112 -42 -211t-117 -172.5t-177.5 -116t-223.5 -42.5q-82 0 -154.5 19.5t-135.5 55.5l-88 -111h-164l149 187q-79 75 -123 175t-44 216q0 112 42 211t117 172.5t177.5 116 t223.5 42.5zM634 139q80 0 148.5 30t118.5 81.5t79 120.5t29 147q0 73 -24.5 137t-69.5 115l-464 -584q40 -23 86 -35t97 -12zM259 518q0 -72 24 -136t68 -115l464 584q-40 22 -85.5 34t-95.5 12q-79 0 -148 -30t-119 -81.5t-79 -120.5t-29 -147zM764 1523h186l-280 -337 h-180z"/>
<glyph glyph-name="Scommaaccent" horiz-adv-x="1176" unicode="Ș" d="M223 329q34 -39 75.5 -73t88 -59.5t97.5 -40t105 -14.5q68 0 125 16.5t98 46.5t64 73t23 95q0 47 -17.5 88t-57 75.5t-103 62t-155.5 46.5q-217 45 -325 147.5t-108 252.5q0 84 32.5 153.5t91 120t140.5 78t180 27.5q142 0 250.5 -48.5t189.5 -129.5l-112 -135 q-67 63 -145 105t-174 42q-58 0 -106 -14.5t-82.5 -41t-54 -63.5t-19.5 -81q0 -96 78.5 -158.5t242.5 -99.5q120 -27 204.5 -67t138 -93.5t78 -119.5t24.5 -146q0 -87 -34 -160t-98 -126t-155 -82.5t-205 -29.5q-73 0 -143.5 16t-134 45t-119 71t-97.5 93zM399 -470l156 342 h184l-174 -342h-166z"/>
<glyph glyph-name="scommaaccent" horiz-adv-x="932" unicode="ș" d="M176 271q51 -61 125 -99.5t163 -38.5q99 0 155.5 42t56.5 111q0 66 -54 109t-176 66q-172 33 -254.5 112t-82.5 200q0 61 25.5 113.5t72 91t112.5 60.5t147 22q106 0 195 -39t153 -99l-98 -124q-55 48 -111.5 76.5t-125.5 28.5q-40 0 -74.5 -10t-59.5 -27.5t-39.5 -42 t-14.5 -53.5q0 -56 52.5 -99t161.5 -65q180 -35 266.5 -114t86.5 -209q0 -66 -26 -122t-75 -97t-120 -64.5t-161 -23.5q-128 0 -232 46.5t-171 125.5zM263 -470l156 342h184l-174 -342h-166z"/>
<glyph glyph-name="uni021A" horiz-adv-x="1098" unicode="Ț" d="M455 1237h-393v163h974v-163h-393v-1237h-188v1237zM339 -470l156 342h184l-174 -342h-166z"/>
<glyph glyph-name="uni021B" horiz-adv-x="764" unicode="ț" d="M414 331q0 -98 46.5 -146.5t155.5 -48.5q22 0 49 1.5t44 3.5v-157q-19 -4 -49 -6t-59 -2q-189 0 -279 86t-90 267v547h-187v160h187v284l182 16v-300h283v-160h-283v-545zM186 -470l156 342h184l-174 -342h-166z"/>
<glyph glyph-name="dotlessj" horiz-adv-x="522" unicode="ȷ" d="M170 1036h182v-1170q0 -176 -76 -253t-231 -77q-19 0 -40.5 1t-37.5 3v157q14 -1 28.5 -1h28.5q71 0 108.5 37.5t37.5 129.5v1173z"/>
<glyph glyph-name="apostrophe" horiz-adv-x="832" unicode="ʼ" d="M300 1348q0 26 9 48t25.5 38t38.5 25.5t47 9.5q26 0 48 -9.5t38 -25.5t25.5 -38t9.5 -48t-13 -55l-128 -280h-119l99 221q-35 12 -57.5 42t-22.5 72z"/>
<glyph glyph-name="circumflex" horiz-adv-x="832" unicode="ˆ" d="M771 1120h-180l-175 199l-175 -199h-180l292 337h126z"/>
<glyph glyph-name="caron" horiz-adv-x="832" unicode="ˇ" d="M479 1120h-126l-292 337h180l175 -199l175 199h180z"/>
<glyph glyph-name="uni02C9" horiz-adv-x="832" unicode="ˉ" d="M126 1359h580v-142h-580v142z"/>
<glyph glyph-name="breve" horiz-adv-x="832" unicode="˘" d="M416 1128q-66 0 -123.5 23t-101.5 64.5t-70.5 98t-30.5 123.5h162q2 -37 14 -68.5t33.5 -54.5t51 -36.5t65.5 -13.5t65.5 13.5t51 36.5t34 54.5t13.5 68.5h162q-4 -67 -30.5 -123.5t-70.5 -98t-101.5 -64.5t-123.5 -23z"/>
<glyph glyph-name="dotaccent" horiz-adv-x="832" unicode="˙" d="M303 1292q0 24 8.5 44.5t24 35.5t36 24t44.5 9t44.5 -9t36 -24t24 -35.5t8.5 -44.5t-8.5 -44.5t-24 -35.5t-36 -24t-44.5 -9t-44.5 9t-36 24t-24 35.5t-8.5 44.5z"/>
<glyph glyph-name="ring" horiz-adv-x="832" unicode="˚" d="M325 1286q0 -38 26 -63.5t65 -25.5t65 25.5t26 63.5t-26 63.5t-65 25.5t-65 -25.5t-26 -63.5zM206 1286q0 42 16 77.5t44 61.5t66.5 41t83.5 15t83.5 -15t66.5 -41t44 -61.5t16 -77.5t-16 -77.5t-44 -61.5t-66.5 -41t-83.5 -15t-83.5 15t-66.5 41t-44 61.5t-16 77.5z"/>
<glyph glyph-name="ogonek" horiz-adv-x="832" unicode="˛" d="M548 0q-74 -61 -122 -118t-48 -115q0 -48 31.5 -78.5t77.5 -30.5q48 0 89 27l41 -97q-32 -22 -73.5 -34t-86.5 -12q-46 0 -86.5 15.5t-70 43t-46.5 64.5t-17 81q0 37 13 71.5t36.5 66.5t55.5 61t70 55h136z"/>
<glyph glyph-name="tilde" horiz-adv-x="832" unicode="˜" d="M411 1210q-29 21 -57 41t-55 20q-26 0 -42 -25t-27 -76l-153 30q22 107 67.5 160t120.5 53q42 0 82 -16.5t74 -41.5q29 -21 57 -41t55 -20q26 0 42 25t27 76l153 -30q-22 -107 -67.5 -160t-120.5 -53q-42 0 -82 16.5t-74 41.5z"/>
<glyph glyph-name="hungarumlaut" horiz-adv-x="832" unicode="˝" d="M357 1460h186l-280 -337h-181zM673 1460h186l-280 -337h-180z"/>
<glyph glyph-name="gravecomb" horiz-adv-x="0" unicode="̀" d="M-246 1123h-180l-280 337h186z"/>
<glyph glyph-name="acutecomb" horiz-adv-x="0" unicode="́" d="M-312 1460h186l-280 -337h-180z"/>
<glyph glyph-name="uni0302" horiz-adv-x="0" unicode="̂" d="M-61 1120h-180l-175 199l-175 -199h-180l292 337h126z"/>
<glyph glyph-name="tildecomb" horiz-adv-x="0" unicode="̃" d="M-421 1210q-29 21 -57 41t-55 20q-26 0 -42 -25t-27 -76l-153 30q22 107 67.5 160t120.5 53q42 0 82 -16.5t74 -41.5q29 -21 57 -41t55 -20q26 0 42 25t27 76l153 -30q-22 -107 -67.5 -160t-120.5 -53q-42 0 -82 16.5t-74 41.5z"/>
<glyph glyph-name="uni0304" horiz-adv-x="0" unicode="̄" d="M-706 1361h580v-142h-580v142z"/>
<glyph glyph-name="uni0306" horiz-adv-x="0" unicode="̆" d="M-416 1128q-66 0 -123.5 23t-101.5 64.5t-70.5 98t-30.5 123.5h162q1 -37 13.5 -68.5t34 -54.5t51 -36.5t65.5 -13.5t65.5 13.5t51 36.5t33.5 54.5t14 68.5h162q-4 -67 -30.5 -123.5t-70.5 -98t-101.5 -64.5t-123.5 -23z"/>
<glyph glyph-name="uni0307" horiz-adv-x="0" unicode="̇" d="M-529 1292q0 24 8.5 44.5t24 35.5t36 24t44.5 9t44.5 -9t36 -24t24 -35.5t8.5 -44.5t-8.5 -44.5t-24 -35.5t-36 -24t-44.5 -9t-44.5 9t-36 24t-24 35.5t-8.5 44.5z"/>
<glyph glyph-name="uni0308" horiz-adv-x="0" unicode="̈" d="M-708 1292q0 24 8.5 44.5t24 35.5t36 24t44.5 9t44.5 -9t36 -24t24 -35.5t8.5 -44.5q0 -48 -32.5 -80.5t-80.5 -32.5t-80.5 32.5t-32.5 80.5zM-350 1292q0 24 8.5 44.5t24 35.5t36 24t44.5 9t44.5 -9t36 -24t24 -35.5t8.5 -44.5q0 -48 -32.5 -80.5t-80.5 -32.5 t-80.5 32.5t-32.5 80.5z"/>
<glyph glyph-name="uni030A" horiz-adv-x="0" unicode="̊" d="M-507 1286q0 -38 26 -63.5t65 -25.5t65 25.5t26 63.5t-26 63.5t-65 25.5t-65 -25.5t-26 -63.5zM-626 1286q0 42 16 77.5t44 61.5t66.5 41t83.5 15t83.5 -15t66.5 -41t44 -61.5t16 -77.5t-16 -77.5t-44 -61.5t-66.5 -41t-83.5 -15t-83.5 15t-66.5 41t-44 61.5t-16 77.5z "/>
<glyph glyph-name="uni030C" horiz-adv-x="0" unicode="̌" d="M-353 1120h-126l-292 337h180l175 -199l175 199h180z"/>
<glyph glyph-name="uni0327" horiz-adv-x="0" unicode="̧" d="M-458 -209q-29 0 -56 -5l-33 38l96 176h142l-73 -115q42 -8 76.5 -26.5t58.5 -44.5t37 -58.5t13 -67.5q0 -45 -19.5 -83t-53 -65.5t-79.5 -43.5t-100 -16q-51 0 -97 14.5t-82 43.5l62 90q21 -17 50 -26.5t58 -9.5q53 0 86 28.5t33 70.5t-33 71t-86 29z"/>
<glyph glyph-name="tonos" horiz-adv-x="832" unicode="΄" d="M259 1088l158 372h184l-177 -372h-165z"/>
<glyph glyph-name="dieresistonos" horiz-adv-x="832" unicode="΅" d="M118 1140q0 50 33.5 83.5t85.5 33.5t85.5 -33.5t33.5 -83.5t-33.5 -83.5t-85.5 -33.5t-85.5 33.5t-33.5 83.5zM476 1140q0 50 33.5 83.5t85.5 33.5t85.5 -33.5t33.5 -83.5t-33.5 -83.5t-85.5 -33.5t-85.5 33.5t-33.5 83.5zM306 1314l211 262h184l-218 -262h-177z"/>
<glyph glyph-name="Alphatonos" horiz-adv-x="1379" unicode="Ά" d="M1126 0l-130 361h-596l-130 -361h-205l528 1400h210l528 -1400h-205zM940 524l-242 668l-242 -668h484zM40 1028l158 372h184l-177 -372h-165z"/>
<glyph glyph-name="anoteleia" horiz-adv-x="594" unicode="·" d="M172 627q0 27 9.5 49.5t26.5 39.5t39.5 26.5t49.5 9.5t49.5 -9.5t39.5 -26.5t26.5 -39.5t9.5 -49.5t-9.5 -49.5t-26.5 -39.5t-39.5 -26.5t-49.5 -9.5t-49.5 9.5t-39.5 26.5t-26.5 39.5t-9.5 49.5z"/>
<glyph glyph-name="Epsilontonos" horiz-adv-x="1451" unicode="Έ" d="M490 1400h827v-163h-639v-452h588v-163h-588v-459h657v-163h-845v1400zM40 1028l158 372h184l-177 -372h-165z"/>
<glyph glyph-name="Etatonos" horiz-adv-x="1716" unicode="Ή" d="M490 1400h188v-615h682v615h188v-1400h-188v622h-682v-622h-188v1400zM40 1028l158 372h184l-177 -372h-165z"/>
<glyph glyph-name="Iotatonos" horiz-adv-x="869" unicode="Ί" d="M678 1400v-1400h-188v1400h188zM40 1028l158 372h184l-177 -372h-165z"/>
<glyph glyph-name="Omicrontonos" horiz-adv-x="1838" unicode="Ό" d="M1021 142q114 0 213.5 43t173 118.5t116 177.5t42.5 219t-42.5 219t-116 177.5t-173 118.5t-213.5 43t-213.5 -43t-173 -118.5t-116 -177.5t-42.5 -219t42.5 -219t116 -177.5t173 -118.5t213.5 -43zM1021 1424q156 0 290.5 -55.5t233.5 -153t155.5 -230t56.5 -285.5 t-56.5 -285t-155.5 -229.5t-233.5 -153.5t-290.5 -56t-290.5 56t-233.5 153.5t-155.5 229.5t-56.5 285t56.5 285.5t155.5 230t233.5 153t290.5 55.5zM40 1028l158 372h184l-177 -372h-165z"/>
<glyph glyph-name="Upsilontonos" horiz-adv-x="1683" unicode="Ύ" d="M1040 758l393 642h203l-502 -826v-574h-188v574l-502 826h203zM40 1028l158 372h184l-177 -372h-165z"/>
<glyph glyph-name="Omegatonos" horiz-adv-x="1798" unicode="Ώ" d="M40 1028l158 372h184l-177 -372h-165zM1515 733q0 110 -39.5 205.5t-108.5 166.5t-162.5 112t-200.5 41t-200.5 -41t-162.5 -112t-108.5 -166.5t-39.5 -205.5q0 -86 24.5 -168t74 -156t123.5 -137t173 -112v-160h-570v166h336q-177 107 -264.5 255.5t-87.5 326.5 q0 141 54.5 264.5t149 215t222.5 144t276 52.5t276 -52.5t222.5 -144t149 -215t54.5 -264.5q0 -178 -87.5 -326.5t-264.5 -255.5h336v-166h-570v160q99 49 173 112t123.5 137t74 156t24.5 168z"/>
<glyph glyph-name="iotadieresistonos" horiz-adv-x="549" unicode="ΐ" d="M170 1036h182v-764q0 -112 109 -112h43v-157q-17 -2 -37.5 -2.5t-39.5 -0.5q-131 0 -194 57.5t-63 167.5v811zM-38 1274q0 50 33.5 83.5t85.5 33.5t85.5 -33.5t33.5 -83.5t-33.5 -83.5t-85.5 -33.5t-85.5 33.5t-33.5 83.5zM320 1274q0 50 33.5 83.5t85.5 33.5t85.5 -33.5 t33.5 -83.5t-33.5 -83.5t-85.5 -33.5t-85.5 33.5t-33.5 83.5zM150 1448l211 262h184l-218 -262h-177z"/>
<glyph glyph-name="Alpha" horiz-adv-x="1362" unicode="Α" d="M1109 0l-130 361h-596l-130 -361h-205l528 1400h210l528 -1400h-205zM923 524l-242 668l-242 -668h484z"/>
<glyph glyph-name="Beta" horiz-adv-x="1235" unicode="Β" d="M168 0v1400h492q94 0 168 -26.5t125.5 -75t78.5 -117t27 -152.5q0 -56 -14 -102t-39.5 -82t-60 -61.5t-75.5 -40.5q54 -12 103 -41t86 -72.5t58.5 -101.5t21.5 -129q0 -88 -29.5 -161.5t-84 -126.5t-132 -82t-173.5 -29h-552zM868 1020q0 52 -16 92.5t-45.5 68t-70 42 t-89.5 14.5h-291v-433h291q49 0 89.5 14.5t70 42t45.5 67.5t16 92zM948 405q0 56 -18 100.5t-50 76t-77 48.5t-99 17h-348v-484h348q54 0 99 17t77 48.5t50 76.5t18 100z"/>
<glyph glyph-name="Gamma" horiz-adv-x="1029" unicode="Γ" d="M168 1400h814v-163h-626v-1237h-188v1400z"/>
<glyph glyph-name="uni0394" horiz-adv-x="1362" unicode="Δ" d="M1314 0h-1266l528 1400h210zM307 163h748l-374 1029z"/>
<glyph glyph-name="Epsilon" horiz-adv-x="1129" unicode="Ε" d="M168 1400h827v-163h-639v-452h588v-163h-588v-459h657v-163h-845v1400z"/>
<glyph glyph-name="Zeta" horiz-adv-x="1201" unicode="Ζ" d="M845 1237h-694v163h919v-163l-724 -1074h744v-163h-969v163z"/>
<glyph glyph-name="Eta" horiz-adv-x="1394" unicode="Η" d="M168 1400h188v-615h682v615h188v-1400h-188v622h-682v-622h-188v1400z"/>
<glyph glyph-name="Theta" horiz-adv-x="1634" unicode="Θ" d="M529 778h576v-157h-576v157zM817 142q114 0 213.5 43t173 118.5t116 177.5t42.5 219t-42.5 219t-116 177.5t-173 118.5t-213.5 43t-213.5 -43t-173 -118.5t-116 -177.5t-42.5 -219t42.5 -219t116 -177.5t173 -118.5t213.5 -43zM817 1424q156 0 290.5 -55.5t233.5 -153 t155.5 -230t56.5 -285.5t-56.5 -285t-155.5 -229.5t-233.5 -153.5t-290.5 -56t-290.5 56t-233.5 153.5t-155.5 229.5t-56.5 285t56.5 285.5t155.5 230t233.5 153t290.5 55.5z"/>
<glyph glyph-name="Iota" horiz-adv-x="570" unicode="Ι" d="M379 1400v-1400h-188v1400h188z"/>
<glyph glyph-name="Kappa" horiz-adv-x="1201" unicode="Κ" d="M356 785h120l428 615h215l-483 -693l563 -707h-221l-496 622h-126v-622h-188v1400h188v-615z"/>
<glyph glyph-name="Lambda" horiz-adv-x="1362" unicode="Λ" d="M681 1177l-428 -1177h-205l528 1400h210l528 -1400h-205z"/>
<glyph glyph-name="Mu" horiz-adv-x="1698" unicode="Μ" d="M789 443l-439 646v-1089h-182v1400h175l506 -749l506 749h175v-1400h-182v1089l-439 -646h-120z"/>
<glyph glyph-name="Nu" horiz-adv-x="1399" unicode="Ν" d="M168 1400h181l700 -1074v1074h182v-1400h-181l-700 1074v-1074h-182v1400z"/>
<glyph glyph-name="Xi" horiz-adv-x="1167" unicode="Ξ" d="M134 1400h899v-163h-899v163zM116 163h935v-163h-935v163zM192 622v163h783v-163h-783z"/>
<glyph glyph-name="Omicron" horiz-adv-x="1634" unicode="Ο" d="M817 142q114 0 213.5 43t173 118.5t116 177.5t42.5 219t-42.5 219t-116 177.5t-173 118.5t-213.5 43t-213.5 -43t-173 -118.5t-116 -177.5t-42.5 -219t42.5 -219t116 -177.5t173 -118.5t213.5 -43zM817 1424q156 0 290.5 -55.5t233.5 -153t155.5 -230t56.5 -285.5 t-56.5 -285t-155.5 -229.5t-233.5 -153.5t-290.5 -56t-290.5 56t-233.5 153.5t-155.5 229.5t-56.5 285t56.5 285.5t155.5 230t233.5 153t290.5 55.5z"/>
<glyph glyph-name="Pi" horiz-adv-x="1349" unicode="Π" d="M1181 0h-188v1237h-637v-1237h-188v1400h1013v-1400z"/>
<glyph glyph-name="Rho" horiz-adv-x="1170" unicode="Ρ" d="M356 528v-528h-188v1400h447q111 0 200.5 -31t151.5 -88t95.5 -137.5t33.5 -179.5t-33.5 -179.5t-95.5 -137.5t-151.5 -88t-200.5 -31h-259zM905 964q0 62 -20 112.5t-58 86t-93 55t-126 19.5h-252v-546h252q71 0 126 19.5t93 55t58 86t20 112.5z"/>
<glyph glyph-name="Sigma" horiz-adv-x="1159" unicode="Σ" d="M540 702l-418 538v160h915v-163h-685l390 -498v-76l-392 -500h687v-163h-915v160z"/>
<glyph glyph-name="Tau" horiz-adv-x="1098" unicode="Τ" d="M455 1237h-393v163h974v-163h-393v-1237h-188v1237z"/>
<glyph glyph-name="Upsilon" horiz-adv-x="1286" unicode="Υ" d="M643 758l393 642h203l-502 -826v-574h-188v574l-502 826h203z"/>
<glyph glyph-name="Phi" horiz-adv-x="1516" unicode="Φ" d="M664 1041q-84 0 -156.5 -27t-126.5 -73.5t-85 -109t-31 -133.5t31 -133.5t85 -109t126.5 -73.5t156.5 -27v686zM664 0v192q-123 0 -230.5 39t-187.5 107t-126 160.5t-46 199.5t46 199t126 160.5t187.5 107.5t230.5 39v196h188v-196q123 0 230.5 -39t187.5 -107.5 t126 -160.5t46 -199t-46 -199.5t-126 -160.5t-187.5 -107t-230.5 -39v-192h-188zM852 355q84 0 156.5 27t126.5 73.5t85 109t31 133.5t-31 133.5t-85 109t-126.5 73.5t-156.5 27v-686z"/>
<glyph glyph-name="Chi" horiz-adv-x="1260" unicode="Χ" d="M39 0l479 712l-461 688h206l367 -551l367 551h206l-461 -688l479 -712h-206l-385 575l-385 -575h-206z"/>
<glyph glyph-name="Psi" horiz-adv-x="1382" unicode="Ψ" d="M785 497q60 14 110.5 46.5t87 79.5t57.5 108.5t21 133.5v535h188v-544q0 -104 -35 -194.5t-97 -160.5t-147 -116t-185 -61v-324h-188v324q-100 15 -185 61t-147 116t-97 160.5t-35 194.5v544h188v-535q0 -72 21 -133.5t57.5 -108.5t87 -79.5t110.5 -46.5v903h188v-903z "/>
<glyph glyph-name="uni03A9" horiz-adv-x="1588" unicode="Ω" d="M1305 733q0 110 -39.5 205.5t-108.5 166.5t-162.5 112t-200.5 41t-200.5 -41t-162.5 -112t-108.5 -166.5t-39.5 -205.5q0 -86 24.5 -168t74 -156t123.5 -137t173 -112v-160h-570v166h336q-177 107 -264.5 255.5t-87.5 326.5q0 141 54.5 264.5t149 215t222.5 144t276 52.5 t276 -52.5t222.5 -144t149 -215t54.5 -264.5q0 -178 -87.5 -326.5t-264.5 -255.5h336v-166h-570v160q99 49 173 112t123.5 137t74 156t24.5 168z"/>
<glyph glyph-name="Iotadieresis" horiz-adv-x="570" unicode="Ϊ" d="M379 1400v-1400h-188v1400h188zM-7 1664q0 24 8.5 44.5t24 35.5t36 24t44.5 9t44.5 -9t36 -24t24 -35.5t8.5 -44.5q0 -48 -32.5 -80.5t-80.5 -32.5t-80.5 32.5t-32.5 80.5zM351 1664q0 24 8.5 44.5t24 35.5t36 24t44.5 9t44.5 -9t36 -24t24 -35.5t8.5 -44.5 q0 -48 -32.5 -80.5t-80.5 -32.5t-80.5 32.5t-32.5 80.5z"/>
<glyph glyph-name="Upsilondieresis" horiz-adv-x="1286" unicode="Ϋ" d="M643 758l393 642h203l-502 -826v-574h-188v574l-502 826h203zM351 1664q0 24 8.5 44.5t24 35.5t36 24t44.5 9t44.5 -9t36 -24t24 -35.5t8.5 -44.5q0 -48 -32.5 -80.5t-80.5 -32.5t-80.5 32.5t-32.5 80.5zM709 1664q0 24 8.5 44.5t24 35.5t36 24t44.5 9t44.5 -9t36 -24 t24 -35.5t8.5 -44.5q0 -48 -32.5 -80.5t-80.5 -32.5t-80.5 32.5t-32.5 80.5z"/>
<glyph glyph-name="alphatonos" horiz-adv-x="1378" unicode="ά" d="M1256 0q-62 0 -109 7.5t-80.5 25t-54 46.5t-29.5 72q-71 -88 -169 -131.5t-210 -43.5q-115 0 -212.5 43.5t-168 117.5t-110 172.5t-39.5 208.5t39.5 208.5t110 172.5t168 117.5t212.5 43.5q109 0 202 -40.5t163 -117.5v134h182v-749q0 -59 33.5 -93t92.5 -34h56v-157 q-34 -3 -77 -3zM634 139q56 0 106.5 15t93.5 42t77.5 64.5t57.5 83.5v345q-23 46 -57.5 84.5t-77.5 66t-93.5 42.5t-106.5 15q-79 0 -148 -30t-119 -81.5t-79 -120.5t-29 -147t29 -147t79 -120.5t119 -81.5t148 -30zM733 1523h186l-280 -337h-180z"/>
<glyph glyph-name="epsilontonos" horiz-adv-x="949" unicode="έ" d="M255 307q0 -36 18 -68t49.5 -55.5t74.5 -37t93 -13.5q87 0 154 34.5t115 94.5l125 -103q-60 -85 -160.5 -134t-233.5 -49q-88 0 -164 24.5t-132.5 67.5t-88.5 101.5t-32 125.5q0 49 18 92t48.5 77.5t70 59t82.5 36.5q-42 14 -75 36.5t-55.5 51.5t-34.5 63t-12 70 q0 59 28.5 110t78 88.5t117 59t145.5 21.5q127 0 218 -48.5t137 -135.5l-146 -90q-29 56 -83.5 86.5t-125.5 30.5q-40 0 -74.5 -10.5t-59.5 -28.5t-39 -42.5t-14 -53.5t14 -53.5t39 -42.5t59.5 -28.5t74.5 -10.5h154v-151h-148q-50 0 -93 -13.5t-74.5 -37t-49.5 -55.5 t-18 -69zM573 1523h186l-280 -337h-180z"/>
<glyph glyph-name="etatonos" horiz-adv-x="1207" unicode="ή" d="M328 0h-182v1036h182v-159q28 36 63.5 69.5t78 58.5t91.5 40t103 15q92 0 168.5 -31t132 -87t86 -133.5t30.5 -171.5v-1101h-182v1091q0 58 -19.5 107.5t-55 85.5t-85 56.5t-109.5 20.5q-49 0 -93.5 -18t-83 -47.5t-70 -67.5t-55.5 -77v-687zM739 1523h186l-280 -337 h-180z"/>
<glyph glyph-name="iotatonos" horiz-adv-x="549" unicode="ί" d="M170 1036h182v-764q0 -112 109 -112h43v-157q-17 -2 -37.5 -2.5t-39.5 -0.5q-131 0 -194 57.5t-63 167.5v811zM396 1523h186l-280 -337h-180z"/>
<glyph glyph-name="upsilondieresistonos" horiz-adv-x="1140" unicode="ΰ" d="M570 -24q-94 0 -175 33t-141 91t-94 136.5t-34 168.5v631h182v-622q0 -58 20 -108.5t55.5 -87.5t83.5 -58t103 -21q56 0 103.5 21t83 58t55.5 87.5t20 108.5v622h182v-631q0 -90 -34 -168.5t-94 -136.5t-141 -91t-175 -33zM272 1274q0 50 33.5 83.5t85.5 33.5t85.5 -33.5 t33.5 -83.5t-33.5 -83.5t-85.5 -33.5t-85.5 33.5t-33.5 83.5zM630 1274q0 50 33.5 83.5t85.5 33.5t85.5 -33.5t33.5 -83.5t-33.5 -83.5t-85.5 -33.5t-85.5 33.5t-33.5 83.5zM460 1448l211 262h184l-218 -262h-177z"/>
<glyph glyph-name="alpha" horiz-adv-x="1378" unicode="α" d="M1256 0q-62 0 -109 7.5t-80.5 25t-54 46.5t-29.5 72q-71 -88 -169 -131.5t-210 -43.5q-115 0 -212.5 43.5t-168 117.5t-110 172.5t-39.5 208.5t39.5 208.5t110 172.5t168 117.5t212.5 43.5q109 0 202 -40.5t163 -117.5v134h182v-749q0 -59 33.5 -93t92.5 -34h56v-157 q-34 -3 -77 -3zM634 139q56 0 106.5 15t93.5 42t77.5 64.5t57.5 83.5v345q-23 46 -57.5 84.5t-77.5 66t-93.5 42.5t-106.5 15q-79 0 -148 -30t-119 -81.5t-79 -120.5t-29 -147t29 -147t79 -120.5t119 -81.5t148 -30z"/>
<glyph glyph-name="beta" horiz-adv-x="1200" unicode="β" d="M155 1035q0 84 31.5 155.5t87.5 123t132.5 81t166.5 29.5q89 0 165 -28.5t132 -78.5t88 -117.5t32 -144.5q0 -49 -17.5 -94t-49 -82.5t-76 -66.5t-97.5 -45q73 -11 139 -43.5t115.5 -82t78.5 -115.5t29 -145q0 -86 -33.5 -160t-91.5 -128.5t-137 -85.5t-170 -31 q-56 0 -107.5 13t-95 37t-78 57.5t-56.5 73.5v-621h-188v1499zM343 347q20 -47 50 -85.5t68 -65.5t83 -42t95 -15q60 0 111.5 19t89.5 53t59.5 80.5t21.5 101.5q0 65 -28 116t-80 86.5t-126 54.5t-165 19v158q70 0 122 18t86.5 48.5t51.5 70.5t17 84q0 46 -17.5 85.5 t-48.5 68.5t-72.5 45.5t-89.5 16.5t-89.5 -17.5t-72.5 -49t-48.5 -75.5t-17.5 -96v-679z"/>
<glyph glyph-name="gamma" horiz-adv-x="1050" unicode="γ" d="M434 1l-407 1035h190l308 -801l308 801h190l-407 -1035v-465h-182v465z"/>
<glyph glyph-name="delta" horiz-adv-x="1124" unicode="δ" d="M71 444q0 102 39.5 186t106 144t155 93t187.5 33l-350 346v154h716v-163h-482l481 -479q62 -62 95 -144.5t33 -169.5q0 -102 -40 -188t-108 -148.5t-157.5 -97t-187.5 -34.5q-96 0 -184 34.5t-155.5 97t-108 148.5t-40.5 188zM256 444q0 -65 24 -121.5t65.5 -98t97.5 -65 t119 -23.5t118.5 23.5t97 65t65.5 98t24 121.5t-24 121t-65.5 97.5t-97 65.5t-118.5 24t-119 -24t-97.5 -65.5t-65.5 -97.5t-24 -121z"/>
<glyph glyph-name="epsilon" horiz-adv-x="949" unicode="ε" d="M255 307q0 -36 18 -68t49.5 -55.5t74.5 -37t93 -13.5q87 0 154 34.5t115 94.5l125 -103q-60 -85 -160.5 -134t-233.5 -49q-88 0 -164 24.5t-132.5 67.5t-88.5 101.5t-32 125.5q0 49 18 92t48.5 77.5t70 59t82.5 36.5q-42 14 -75 36.5t-55.5 51.5t-34.5 63t-12 70 q0 59 28.5 110t78 88.5t117 59t145.5 21.5q127 0 218 -48.5t137 -135.5l-146 -90q-29 56 -83.5 86.5t-125.5 30.5q-40 0 -74.5 -10.5t-59.5 -28.5t-39 -42.5t-14 -53.5t14 -53.5t39 -42.5t59.5 -28.5t74.5 -10.5h154v-151h-148q-50 0 -93 -13.5t-74.5 -37t-49.5 -55.5 t-18 -69z"/>
<glyph glyph-name="zeta" horiz-adv-x="934" unicode="ζ" d="M74 370q0 52 14.5 101t39.5 95.5t57.5 91.5t68.5 88l403 491h-484v163h697v-154l-474 -584q-28 -35 -54 -70.5t-45.5 -72t-31 -74t-11.5 -75.5q0 -79 49 -135.5t137 -95.5l236 -105q92 -41 142 -104.5t50 -150.5q0 -69 -25 -130t-61 -113h-183q39 51 63.5 106.5 t24.5 110.5q0 51 -35.5 89.5t-87.5 61.5l-221 95q-130 56 -199.5 151.5t-69.5 219.5z"/>
<glyph glyph-name="eta" horiz-adv-x="1207" unicode="η" d="M328 0h-182v1036h182v-159q28 36 63.5 69.5t78 58.5t91.5 40t103 15q92 0 168.5 -31t132 -87t86 -133.5t30.5 -171.5v-1101h-182v1091q0 58 -19.5 107.5t-55 85.5t-85 56.5t-109.5 20.5q-49 0 -93.5 -18t-83 -47.5t-70 -67.5t-55.5 -77v-687z"/>
<glyph glyph-name="theta" horiz-adv-x="1274" unicode="θ" d="M74 700q0 148 40.5 279.5t115 230.5t178 156.5t229.5 57.5t229.5 -57.5t178 -156.5t115 -230.5t40.5 -279.5t-40.5 -279.5t-115 -230.5t-178 -156.5t-229.5 -57.5t-229.5 57.5t-178 156.5t-115 230.5t-40.5 279.5zM637 139q77 0 142 38t113.5 103t79.5 153t39 188h-748 q8 -100 39 -188t79.5 -153t113.5 -103t142 -38zM637 1261q-77 0 -142 -38t-113.5 -103.5t-79.5 -153.5t-39 -188h748q-8 100 -39 188t-79.5 153.5t-113.5 103.5t-142 38z"/>
<glyph glyph-name="iota" horiz-adv-x="549" unicode="ι" d="M170 1036h182v-764q0 -112 109 -112h43v-157q-17 -2 -37.5 -2.5t-39.5 -0.5q-131 0 -194 57.5t-63 167.5v811z"/>
<glyph glyph-name="kappa" horiz-adv-x="1029" unicode="κ" d="M456 492h-128v-492h-182v1036h182v-387h130l293 387h216l-358 -465l412 -571h-210z"/>
<glyph glyph-name="lambda" horiz-adv-x="1050" unicode="λ" d="M258 1460h190l575 -1460h-190l-310 783l-306 -783h-190l406 1016z"/>
<glyph glyph-name="uni03BC" horiz-adv-x="1227" unicode="μ" d="M146 1036h182v-707q14 -42 41 -76.5t62 -60t77.5 -39.5t87.5 -14q46 0 90 17t83 45.5t72 65.5t58 77v692h182v-1036h-182v153q-27 -36 -62 -68t-76 -56.5t-87 -38.5t-96 -14q-39 0 -75.5 10.5t-69 28t-59 41.5t-46.5 51v-571h-182v1500z"/>
<glyph glyph-name="nu" horiz-adv-x="1046" unicode="ν" d="M617 0h-188l-402 1036h190l306 -798l306 798h190z"/>
<glyph glyph-name="xi" horiz-adv-x="944" unicode="ξ" d="M263 376q0 -92 52.5 -161t162.5 -110l189 -70q100 -37 157 -102.5t57 -154.5q0 -69 -27 -130t-65 -112h-182q39 48 66.5 105.5t27.5 110.5q0 51 -33 88t-93 59l-181 65q-75 27 -133 70t-97.5 96t-60.5 114t-21 125q0 68 22.5 129.5t62 113t93 91t115.5 62.5 q-51 19 -93 50.5t-73 72t-48 88.5t-17 100q0 74 30 137.5t83 110t124.5 73.5t153.5 27q106 0 186 -36.5t138 -103.5l-120 -127q-38 48 -89 82t-115 34q-44 0 -82.5 -16.5t-66.5 -45.5t-44 -68.5t-16 -85.5t16 -85.5t44 -68.5t66.5 -45.5t82.5 -16.5h216v-151h-181 q-65 0 -121 -24t-97.5 -66t-65 -99.5t-23.5 -124.5z"/>
<glyph glyph-name="omicron" horiz-adv-x="1268" unicode="ο" d="M634 139q80 0 148.5 30t118.5 81.5t79 120.5t29 147t-29 147t-79 120.5t-118.5 81.5t-148.5 30q-79 0 -148 -30t-119 -81.5t-79 -120.5t-29 -147t29 -147t79 -120.5t119 -81.5t148 -30zM634 1060q121 0 223.5 -42.5t177.5 -116t117 -172.5t42 -211t-42 -211t-117 -172.5 t-177.5 -116t-223.5 -42.5t-223.5 42.5t-177.5 116t-117 172.5t-42 211t42 211t117 172.5t177.5 116t223.5 42.5z"/>
<glyph glyph-name="pi" horiz-adv-x="1142" unicode="π" d="M389 0h-182v873h-157v163h1042v-163h-157v-873h-182v873h-364v-873z"/>
<glyph glyph-name="rho" horiz-adv-x="1282" unicode="ρ" d="M308 386q19 -57 53 -102.5t79.5 -77.5t100 -49.5t112.5 -17.5q78 0 145.5 29.5t117.5 80.5t78.5 120t28.5 149t-27 149t-74.5 120t-113 80.5t-142.5 29.5t-142.5 -29.5t-113.5 -80.5t-75 -120t-27 -149v-132zM683 -24q-118 0 -213.5 48.5t-161.5 132.5v-621h-182v982 q0 113 40.5 212t112.5 172.5t171.5 115.5t217.5 42t217 -42t171 -115.5t112 -172.5t40 -212q0 -111 -39.5 -209.5t-109.5 -172.5t-166.5 -117t-209.5 -43z"/>
<glyph glyph-name="sigma1" horiz-adv-x="1075" unicode="ς" d="M74 518q0 112 42 211t117 172.5t177.5 116t223.5 42.5q113 0 207.5 -36.5t169.5 -100.5l-95 -143q-58 51 -128 84t-154 33q-79 0 -148 -30t-119 -81.5t-79 -120.5t-29 -147q0 -123 65 -217.5t190 -148.5l276 -119q190 -82 190 -254q0 -69 -27.5 -130.5t-65.5 -112.5h-180 q39 50 65.5 106.5t26.5 110.5q0 51 -32.5 88.5t-88.5 60.5l-259 110q-78 33 -141.5 83t-109 114.5t-70 142.5t-24.5 166z"/>
<glyph glyph-name="sigma" horiz-adv-x="1311" unicode="σ" d="M74 506q0 111 42.5 207.5t116.5 168.5t174 113t215 41h639v-163h-284q44 -32 79.5 -74t60.5 -90.5t39 -103.5t14 -114q0 -106 -42.5 -200t-116.5 -164t-174 -110.5t-215 -40.5t-215 41t-174 113t-116.5 168.5t-42.5 207.5zM985 506q0 77 -28 144t-77 116.5t-115 78 t-143 28.5q-76 0 -142.5 -28.5t-115.5 -78t-77 -116.5t-28 -144q0 -78 28 -145t77 -116.5t115.5 -77.5t142.5 -28q77 0 143 28t115 77.5t77 116.5t28 145z"/>
<glyph glyph-name="tau" horiz-adv-x="980" unicode="τ" d="M388 873h-338v163h880v-163h-360v-559q0 -87 34.5 -122t106.5 -35h57v-157q-17 -2 -38 -2.5t-40 -0.5q-78 0 -135 17.5t-94 55t-55 96t-18 141.5v566z"/>
<glyph glyph-name="upsilon" horiz-adv-x="1140" unicode="υ" d="M570 -24q-94 0 -175 33t-141 91t-94 136.5t-34 168.5v631h182v-622q0 -58 20 -108.5t55.5 -87.5t83.5 -58t103 -21q56 0 103.5 21t83 58t55.5 87.5t20 108.5v622h182v-631q0 -90 -34 -168.5t-94 -136.5t-141 -91t-175 -33z"/>
<glyph glyph-name="phi" horiz-adv-x="1388" unicode="φ" d="M398 825q-63 -60 -101 -138t-38 -169q0 -75 26 -140.5t72.5 -115.5t109.5 -81.5t136 -38.5v918h141q123 0 227.5 -42t180.5 -115.5t119 -172.5t43 -212q0 -109 -40 -204.5t-110.5 -168t-167.5 -117t-211 -50.5v-442h-182v442q-114 6 -211 50.5t-167.5 117t-110.5 168 t-40 204.5q0 67 15 128t41.5 115t62 99t76.5 81zM1129 518q0 75 -26 140.5t-72.5 115.5t-109 81.5t-136.5 38.5v-752q74 7 136.5 38.5t109 81.5t72.5 115.5t26 140.5z"/>
<glyph glyph-name="chi" horiz-adv-x="1028" unicode="χ" d="M822 -464l-308 593l-308 -593h-196l400 769l-380 731h196l288 -557l288 557h196l-380 -731l400 -769h-196z"/>
<glyph glyph-name="psi" horiz-adv-x="1369" unicode="ψ" d="M777 152q62 13 113.5 45t88.5 77.5t58 103.5t21 123v535h185v-543q0 -98 -35 -184.5t-97.5 -154t-147.5 -112t-186 -58.5v-448h-185v448q-100 14 -185.5 58.5t-148 112t-97.5 154t-35 184.5v543h185v-535q0 -65 21 -123t58 -103.5t89 -77.5t113 -45v884h185v-884z"/>
<glyph glyph-name="omega" horiz-adv-x="1588" unicode="ω" d="M794 207q-21 -48 -53 -90t-73 -73.5t-90 -49.5t-105 -18q-84 0 -157 41t-127 112.5t-84.5 169t-30.5 209.5q0 83 17 158t43 142t57.5 124t60.5 104h182q-32 -54 -63.5 -115t-56 -128t-40 -139t-15.5 -146q0 -78 17.5 -145.5t47.5 -117t71.5 -78t89.5 -28.5q45 0 84.5 26 t69.5 71t47 105t17 129v348h182v-348q0 -69 17 -129t47 -105t69.5 -71t84.5 -26q48 0 89.5 28.5t71.5 78t47.5 117t17.5 145.5q0 74 -15 146t-40 139t-56.5 128t-63.5 115h182q29 -47 60.5 -104t57.5 -124t43 -142t17 -158q0 -112 -30.5 -209.5t-84.5 -169t-127 -112.5 t-157 -41q-56 0 -105 18t-90 49.5t-73 73.5t-53 90z"/>
<glyph glyph-name="iotadieresis" horiz-adv-x="549" unicode="ϊ" d="M170 1036h182v-764q0 -112 109 -112h43v-157q-17 -2 -37.5 -2.5t-39.5 -0.5q-131 0 -194 57.5t-63 167.5v811zM-31 1340q0 24 8.5 44.5t24 35.5t36 24t44.5 9t44.5 -9t36 -24t24 -35.5t8.5 -44.5q0 -48 -32.5 -80.5t-80.5 -32.5t-80.5 32.5t-32.5 80.5zM327 1340 q0 24 8.5 44.5t24 35.5t36 24t44.5 9t44.5 -9t36 -24t24 -35.5t8.5 -44.5q0 -48 -32.5 -80.5t-80.5 -32.5t-80.5 32.5t-32.5 80.5z"/>
<glyph glyph-name="upsilondieresis" horiz-adv-x="1140" unicode="ϋ" d="M570 -24q-94 0 -175 33t-141 91t-94 136.5t-34 168.5v631h182v-622q0 -58 20 -108.5t55.5 -87.5t83.5 -58t103 -21q56 0 103.5 21t83 58t55.5 87.5t20 108.5v622h182v-631q0 -90 -34 -168.5t-94 -136.5t-141 -91t-175 -33zM278 1340q0 24 8.5 44.5t24 35.5t36 24t44.5 9 t44.5 -9t36 -24t24 -35.5t8.5 -44.5q0 -48 -32.5 -80.5t-80.5 -32.5t-80.5 32.5t-32.5 80.5zM636 1340q0 24 8.5 44.5t24 35.5t36 24t44.5 9t44.5 -9t36 -24t24 -35.5t8.5 -44.5q0 -48 -32.5 -80.5t-80.5 -32.5t-80.5 32.5t-32.5 80.5z"/>
<glyph glyph-name="omicrontonos" horiz-adv-x="1268" unicode="ό" d="M634 139q80 0 148.5 30t118.5 81.5t79 120.5t29 147t-29 147t-79 120.5t-118.5 81.5t-148.5 30q-79 0 -148 -30t-119 -81.5t-79 -120.5t-29 -147t29 -147t79 -120.5t119 -81.5t148 -30zM634 1060q121 0 223.5 -42.5t177.5 -116t117 -172.5t42 -211t-42 -211t-117 -172.5 t-177.5 -116t-223.5 -42.5t-223.5 42.5t-177.5 116t-117 172.5t-42 211t42 211t117 172.5t177.5 116t223.5 42.5zM764 1523h186l-280 -337h-180z"/>
<glyph glyph-name="upsilontonos" horiz-adv-x="1140" unicode="ύ" d="M570 -24q-94 0 -175 33t-141 91t-94 136.5t-34 168.5v631h182v-622q0 -58 20 -108.5t55.5 -87.5t83.5 -58t103 -21q56 0 103.5 21t83 58t55.5 87.5t20 108.5v622h182v-631q0 -90 -34 -168.5t-94 -136.5t-141 -91t-175 -33zM688 1523h186l-280 -337h-180z"/>
<glyph glyph-name="omegatonos" horiz-adv-x="1588" unicode="ώ" d="M794 207q-21 -48 -53 -90t-73 -73.5t-90 -49.5t-105 -18q-84 0 -157 41t-127 112.5t-84.5 169t-30.5 209.5q0 83 17 158t43 142t57.5 124t60.5 104h182q-32 -54 -63.5 -115t-56 -128t-40 -139t-15.5 -146q0 -78 17.5 -145.5t47.5 -117t71.5 -78t89.5 -28.5q45 0 84.5 26 t69.5 71t47 105t17 129v348h182v-348q0 -69 17 -129t47 -105t69.5 -71t84.5 -26q48 0 89.5 28.5t71.5 78t47.5 117t17.5 145.5q0 74 -15 146t-40 139t-56.5 128t-63.5 115h182q29 -47 60.5 -104t57.5 -124t43 -142t17 -158q0 -112 -30.5 -209.5t-84.5 -169t-127 -112.5 t-157 -41q-56 0 -105 18t-90 49.5t-73 73.5t-53 90zM931 1523h186l-280 -337h-180z"/>
<glyph glyph-name="uni0400" horiz-adv-x="1129" unicode="Ѐ" d="M168 1400h827v-163h-639v-452h588v-163h-588v-459h657v-163h-845v1400zM717 1510h-180l-280 337h186z"/>
<glyph glyph-name="afii10023" horiz-adv-x="1129" unicode="Ё" d="M168 1400h827v-163h-639v-452h588v-163h-588v-459h657v-163h-845v1400zM288 1664q0 24 8.5 44.5t24 35.5t36 24t44.5 9t44.5 -9t36 -24t24 -35.5t8.5 -44.5q0 -48 -32.5 -80.5t-80.5 -32.5t-80.5 32.5t-32.5 80.5zM646 1664q0 24 8.5 44.5t24 35.5t36 24t44.5 9t44.5 -9 t36 -24t24 -35.5t8.5 -44.5q0 -48 -32.5 -80.5t-80.5 -32.5t-80.5 32.5t-32.5 80.5z"/>
<glyph glyph-name="afii10051" horiz-adv-x="1425" unicode="Ђ" d="M454 1237h-392v163h973v-163h-393v-474q53 63 132.5 100t170.5 37q86 0 159.5 -30.5t128.5 -84t86 -126t31 -156.5v-115q0 -82 -31 -154t-85 -124.5t-127.5 -83t-158.5 -30.5q-21 0 -43.5 1t-37.5 3v157q14 -1 30 -1h30q50 0 93 18t74.5 50t49.5 75.5t18 94.5v100 q0 51 -18.5 95.5t-51 77t-77 51.5t-95.5 19q-93 0 -163.5 -43t-114.5 -121v-573h-188v1237z"/>
<glyph glyph-name="afii10052" horiz-adv-x="1029" unicode="Ѓ" d="M168 1400h814v-163h-626v-1237h-188v1400zM706 1888h186l-280 -337h-180z"/>
<glyph glyph-name="afii10053" horiz-adv-x="1368" unicode="Є" d="M817 142q109 0 206 39.5t173 102.5l100 -141q-97 -79 -218 -123t-261 -44q-156 0 -290.5 56t-233.5 153.5t-155.5 229.5t-56.5 285t56.5 285.5t155.5 230t233.5 153t290.5 55.5q134 0 249.5 -40t212.5 -115l-95 -142q-41 29 -83 53t-87 41t-93.5 27t-103.5 10 q-104 0 -196 -36t-163.5 -100t-119 -151.5t-61.5 -189.5h721v-163h-721q14 -102 61.5 -189.5t119 -151t163.5 -99.5t196 -36z"/>
<glyph glyph-name="afii10054" horiz-adv-x="1176" unicode="Ѕ" d="M223 329q34 -39 75.5 -73t88 -59.5t97.5 -40t105 -14.5q68 0 125 16.5t98 46.5t64 73t23 95q0 47 -17.5 88t-57 75.5t-103 62t-155.5 46.5q-217 45 -325 147.5t-108 252.5q0 84 32.5 153.5t91 120t140.5 78t180 27.5q142 0 250.5 -48.5t189.5 -129.5l-112 -135 q-67 63 -145 105t-174 42q-58 0 -106 -14.5t-82.5 -41t-54 -63.5t-19.5 -81q0 -96 78.5 -158.5t242.5 -99.5q120 -27 204.5 -67t138 -93.5t78 -119.5t24.5 -146q0 -87 -34 -160t-98 -126t-155 -82.5t-205 -29.5q-73 0 -143.5 16t-134 45t-119 71t-97.5 93z"/>
<glyph glyph-name="afii10055" horiz-adv-x="570" unicode="І" d="M379 1400v-1400h-188v1400h188z"/>
<glyph glyph-name="afii10056" horiz-adv-x="570" unicode="Ї" d="M379 1400v-1400h-188v1400h188zM-7 1664q0 24 8.5 44.5t24 35.5t36 24t44.5 9t44.5 -9t36 -24t24 -35.5t8.5 -44.5q0 -48 -32.5 -80.5t-80.5 -32.5t-80.5 32.5t-32.5 80.5zM351 1664q0 24 8.5 44.5t24 35.5t36 24t44.5 9t44.5 -9t36 -24t24 -35.5t8.5 -44.5 q0 -48 -32.5 -80.5t-80.5 -32.5t-80.5 32.5t-32.5 80.5z"/>
<glyph glyph-name="afii10057" horiz-adv-x="909" unicode="Ј" d="M566 1400h188v-969q0 -236 -110.5 -345.5t-317.5 -109.5q-36 0 -74 4.5t-74 13.5t-69.5 21.5t-60.5 28.5l61 159q44 -26 102.5 -43.5t110.5 -17.5q116 0 180 68.5t64 220.5v969z"/>
<glyph glyph-name="afii10058" horiz-adv-x="2004" unicode="Љ" d="M1434 163q72 0 128.5 20.5t96 58t60.5 89.5t21 115t-21 115t-60.5 89.5t-96 58t-128.5 20.5h-236v-566h236zM1010 0v1237h-569v-909q0 -332 -316 -332q-20 0 -41 1t-37 3v160q14 -1 29.5 -1h30.5q71 0 108.5 38t37.5 129v1074h945v-508h243q112 0 202.5 -32.5t154 -91 t98 -141t34.5 -181.5t-34.5 -181.5t-98 -141t-154 -91t-202.5 -32.5h-431z"/>
<glyph glyph-name="afii10059" horiz-adv-x="2015" unicode="Њ" d="M168 1400h188v-615h664v615h188v-508h244q112 0 202.5 -32.5t154 -91t98 -141t34.5 -181.5t-34.5 -181.5t-98 -141t-154 -91t-202.5 -32.5h-432v622h-664v-622h-188v1400zM1444 163q72 0 129 20.5t96.5 58t60.5 89.5t21 115t-21 115t-60.5 89.5t-96.5 58t-129 20.5h-236 v-566h236z"/>
<glyph glyph-name="afii10060" horiz-adv-x="1476" unicode="Ћ" d="M454 1237h-392v163h973v-163h-393v-474q53 63 132.5 100t170.5 37q86 0 159.5 -30.5t128.5 -84t86 -126t31 -156.5v-503h-188v494q0 51 -18.5 95.5t-51 77t-77 51.5t-95.5 19q-93 0 -163.5 -43t-114.5 -121v-573h-188v1237z"/>
<glyph glyph-name="afii10061" horiz-adv-x="1201" unicode="Ќ" d="M356 785h120l428 615h215l-483 -693l563 -707h-221l-496 622h-126v-622h-188v1400h188v-615zM698 1847h186l-280 -337h-180z"/>
<glyph glyph-name="uni040D" horiz-adv-x="1399" unicode="Ѝ" d="M1231 0h-182v1074l-700 -1074h-181v1400h182v-1074l700 1074h181v-1400zM837 1510h-180l-280 337h186z"/>
<glyph glyph-name="afii10062" horiz-adv-x="1286" unicode="Ў" d="M550 410l-503 990h198l403 -800l393 800h198l-602 -1211q-45 -91 -114 -140t-173 -49h-144v163h120q51 0 87.5 26.5t61.5 74.5zM648 1490q-66 0 -123.5 23t-101.5 64.5t-70.5 98t-30.5 123.5h162q2 -37 14 -68.5t33.5 -54.5t51 -36.5t65.5 -13.5t65.5 13.5t51 36.5 t34 54.5t13.5 68.5h162q-4 -67 -30.5 -123.5t-70.5 -98t-101.5 -64.5t-123.5 -23z"/>
<glyph glyph-name="afii10145" horiz-adv-x="1350" unicode="Џ" d="M1182 0h-413v-280h-188v280h-413v1400h188v-1237h638v1237h188v-1400z"/>
<glyph glyph-name="afii10017" horiz-adv-x="1362" unicode="А" d="M1109 0l-130 361h-596l-130 -361h-205l528 1400h210l528 -1400h-205zM923 524l-242 668l-242 -668h484z"/>
<glyph glyph-name="afii10018" horiz-adv-x="1183" unicode="Б" d="M168 1400h815v-163h-627v-345h248q112 0 202.5 -32.5t154 -91t98 -141t34.5 -181.5t-34.5 -181.5t-98 -141t-154 -91t-202.5 -32.5h-436v1400zM597 163q71 0 127.5 20.5t96 58t60.5 89.5t21 115t-21 115t-60.5 89.5t-96 58t-127.5 20.5h-241v-566h241z"/>
<glyph glyph-name="afii10019" horiz-adv-x="1235" unicode="В" d="M168 0v1400h492q94 0 168 -26.5t125.5 -75t78.5 -117t27 -152.5q0 -56 -14 -102t-39.5 -82t-60 -61.5t-75.5 -40.5q54 -12 103 -41t86 -72.5t58.5 -101.5t21.5 -129q0 -88 -29.5 -161.5t-84 -126.5t-132 -82t-173.5 -29h-552zM868 1020q0 52 -16 92.5t-45.5 68t-70 42 t-89.5 14.5h-291v-433h291q49 0 89.5 14.5t70 42t45.5 67.5t16 92zM948 405q0 56 -18 100.5t-50 76t-77 48.5t-99 17h-348v-484h348q54 0 99 17t77 48.5t50 76.5t18 100z"/>
<glyph glyph-name="afii10020" horiz-adv-x="1029" unicode="Г" d="M168 1400h814v-163h-626v-1237h-188v1400z"/>
<glyph glyph-name="afii10021" horiz-adv-x="1316" unicode="Д" d="M1253 -280h-188v280h-814v-280h-188v443h108q52 121 86 257t54.5 279t28.5 288t8 283v130h780v-1237h125v-443zM940 163v1074h-406q0 -134 -9.5 -276t-29 -281.5t-50 -271t-73.5 -245.5h568z"/>
<glyph glyph-name="afii10022" horiz-adv-x="1129" unicode="Е" d="M168 1400h827v-163h-639v-452h588v-163h-588v-459h657v-163h-845v1400z"/>
<glyph glyph-name="afii10024" horiz-adv-x="1798" unicode="Ж" d="M707 785h98v615h188v-615h98l410 615h215l-464 -693l544 -707h-221l-477 622h-105v-622h-188v622h-105l-477 -622h-221l544 707l-464 693h215z"/>
<glyph glyph-name="afii10025" horiz-adv-x="1057" unicode="З" d="M789 411q0 59 -23 109.5t-66 87.5t-102.5 58t-133.5 21h-145v154h147q57 0 104.5 16t81.5 44.5t52.5 67.5t18.5 85q0 45 -18.5 83.5t-51 66.5t-77 44t-95.5 16q-75 0 -136 -31t-110 -88l-112 114q138 165 373 165q90 0 164.5 -28.5t128 -78t83.5 -116t30 -143.5 q0 -48 -15 -92.5t-42.5 -82t-66 -66.5t-84.5 -47q61 -21 112.5 -56t88.5 -82t58 -103.5t21 -120.5q0 -91 -37 -170t-101.5 -137.5t-152 -91.5t-189.5 -33q-67 0 -130 15.5t-118.5 44.5t-102 70.5t-80.5 93.5l119 119q26 -40 59 -73.5t72.5 -58t84.5 -38t96 -13.5 q63 0 116.5 21.5t93.5 58.5t62.5 87t22.5 108z"/>
<glyph glyph-name="afii10026" horiz-adv-x="1399" unicode="И" d="M1231 0h-182v1074l-700 -1074h-181v1400h182v-1074l700 1074h181v-1400z"/>
<glyph glyph-name="afii10027" horiz-adv-x="1399" unicode="Й" d="M1231 0h-182v1074l-700 -1074h-181v1400h182v-1074l700 1074h181v-1400zM699 1490q-66 0 -123.5 23t-101.5 64.5t-70.5 98t-30.5 123.5h162q2 -37 14 -68.5t33.5 -54.5t51 -36.5t65.5 -13.5t65.5 13.5t51 36.5t34 54.5t13.5 68.5h162q-4 -67 -30.5 -123.5t-70.5 -98 t-101.5 -64.5t-123.5 -23z"/>
<glyph glyph-name="afii10028" horiz-adv-x="1201" unicode="К" d="M356 785h120l428 615h215l-483 -693l563 -707h-221l-496 622h-126v-622h-188v1400h188v-615z"/>
<glyph glyph-name="afii10029" horiz-adv-x="1403" unicode="Л" d="M441 328q0 -332 -316 -332q-20 0 -41 1t-37 3v160q14 -1 29.5 -1h30.5q71 0 108.5 38t37.5 129v1074h982v-1400h-188v1237h-606v-909z"/>
<glyph glyph-name="afii10030" horiz-adv-x="1698" unicode="М" d="M789 443l-439 646v-1089h-182v1400h175l506 -749l506 749h175v-1400h-182v1089l-439 -646h-120z"/>
<glyph glyph-name="afii10031" horiz-adv-x="1394" unicode="Н" d="M168 1400h188v-615h682v615h188v-1400h-188v622h-682v-622h-188v1400z"/>
<glyph glyph-name="afii10032" horiz-adv-x="1634" unicode="О" d="M817 142q114 0 213.5 43t173 118.5t116 177.5t42.5 219t-42.5 219t-116 177.5t-173 118.5t-213.5 43t-213.5 -43t-173 -118.5t-116 -177.5t-42.5 -219t42.5 -219t116 -177.5t173 -118.5t213.5 -43zM817 1424q156 0 290.5 -55.5t233.5 -153t155.5 -230t56.5 -285.5 t-56.5 -285t-155.5 -229.5t-233.5 -153.5t-290.5 -56t-290.5 56t-233.5 153.5t-155.5 229.5t-56.5 285t56.5 285.5t155.5 230t233.5 153t290.5 55.5z"/>
<glyph glyph-name="afii10033" horiz-adv-x="1349" unicode="П" d="M1181 0h-188v1237h-637v-1237h-188v1400h1013v-1400z"/>
<glyph glyph-name="afii10034" horiz-adv-x="1170" unicode="Р" d="M356 528v-528h-188v1400h447q111 0 200.5 -31t151.5 -88t95.5 -137.5t33.5 -179.5t-33.5 -179.5t-95.5 -137.5t-151.5 -88t-200.5 -31h-259zM905 964q0 62 -20 112.5t-58 86t-93 55t-126 19.5h-252v-546h252q71 0 126 19.5t93 55t58 86t20 112.5z"/>
<glyph glyph-name="afii10035" horiz-adv-x="1368" unicode="С" d="M817 142q109 0 206 39.5t173 102.5l100 -141q-97 -79 -218 -123t-261 -44q-156 0 -290.5 56t-233.5 153.5t-155.5 229.5t-56.5 285t56.5 285.5t155.5 230t233.5 153t290.5 55.5q134 0 249.5 -40t212.5 -115l-95 -142q-41 29 -83 53t-87 41t-93.5 27t-103.5 10 q-114 0 -213.5 -43t-173 -118.5t-116 -177.5t-42.5 -219t42.5 -219t116 -177.5t173 -118.5t213.5 -43z"/>
<glyph glyph-name="afii10036" horiz-adv-x="1098" unicode="Т" d="M455 1237h-393v163h974v-163h-393v-1237h-188v1237z"/>
<glyph glyph-name="afii10037" horiz-adv-x="1286" unicode="У" d="M550 410l-503 990h198l403 -800l393 800h198l-602 -1211q-45 -91 -114 -140t-173 -49h-144v163h120q51 0 87.5 26.5t61.5 74.5z"/>
<glyph glyph-name="afii10038" horiz-adv-x="1516" unicode="Ф" d="M664 1041q-84 0 -156.5 -27t-126.5 -73.5t-85 -109t-31 -133.5t31 -133.5t85 -109t126.5 -73.5t156.5 -27v686zM664 0v192q-123 0 -230.5 39t-187.5 107t-126 160.5t-46 199.5t46 199t126 160.5t187.5 107.5t230.5 39v196h188v-196q123 0 230.5 -39t187.5 -107.5 t126 -160.5t46 -199t-46 -199.5t-126 -160.5t-187.5 -107t-230.5 -39v-192h-188zM852 355q84 0 156.5 27t126.5 73.5t85 109t31 133.5t-31 133.5t-85 109t-126.5 73.5t-156.5 27v-686z"/>
<glyph glyph-name="afii10039" horiz-adv-x="1260" unicode="Х" d="M39 0l479 712l-461 688h206l367 -551l367 551h206l-461 -688l479 -712h-206l-385 575l-385 -575h-206z"/>
<glyph glyph-name="afii10040" horiz-adv-x="1368" unicode="Ц" d="M1182 163h123v-443h-188v280h-949v1400h188v-1237h638v1237h188v-1237z"/>
<glyph glyph-name="afii10041" horiz-adv-x="1230" unicode="Ч" d="M874 0v646q-26 -31 -62 -58t-78 -46.5t-89 -30.5t-94 -11q-90 0 -167.5 32t-134.5 88t-90 131.5t-33 162.5v486h188v-477q0 -54 20 -101.5t55.5 -83t83.5 -55.5t104 -20q47 0 91 12.5t82.5 35t70 54.5t53.5 71v564h188v-1400h-188z"/>
<glyph glyph-name="afii10042" horiz-adv-x="1928" unicode="Ш" d="M1572 1400h188v-1400h-1592v1400h188v-1237h514v1237h188v-1237h514v1237z"/>
<glyph glyph-name="afii10043" horiz-adv-x="1945" unicode="Щ" d="M168 1400h188v-1237h514v1237h188v-1237h514v1237h188v-1237h122v-443h-188v280h-1526v1400z"/>
<glyph glyph-name="afii10044" horiz-adv-x="1416" unicode="Ъ" d="M846 163q72 0 128.5 20.5t96 58t60.5 89.5t21 115t-21 115t-60.5 89.5t-96 58t-128.5 20.5h-241v-566h241zM417 0v1237h-355v163h543v-508h248q112 0 202.5 -32.5t154 -91t98 -141t34.5 -181.5t-34.5 -181.5t-98 -141t-154 -91t-202.5 -32.5h-436z"/>
<glyph glyph-name="afii10045" horiz-adv-x="1629" unicode="Ы" d="M597 163q72 0 128.5 20.5t96 58t60.5 89.5t21 115t-21 115t-60.5 89.5t-96 58t-128.5 20.5h-241v-566h241zM1461 1400v-1400h-188v1400h188zM168 0v1400h188v-508h248q112 0 202.5 -32.5t154 -91t98 -141t34.5 -181.5t-34.5 -181.5t-98 -141t-154 -91t-202.5 -32.5h-436z "/>
<glyph glyph-name="afii10046" horiz-adv-x="1167" unicode="Ь" d="M597 163q72 0 128.5 20.5t96 58t60.5 89.5t21 115t-21 115t-60.5 89.5t-96 58t-128.5 20.5h-241v-566h241zM168 0v1400h188v-508h248q112 0 202.5 -32.5t154 -91t98 -141t34.5 -181.5t-34.5 -181.5t-98 -141t-154 -91t-202.5 -32.5h-436z"/>
<glyph glyph-name="afii10047" horiz-adv-x="1368" unicode="Э" d="M551 142q104 0 196 36t163.5 99.5t118.5 151t61 189.5h-720v163h720q-14 102 -61 189.5t-118.5 151.5t-163.5 100t-196 36q-55 0 -103.5 -10t-93.5 -27t-87 -41t-83 -53l-95 142q97 75 212.5 115t249.5 40q156 0 290.5 -55.5t233.5 -153t155.5 -230t56.5 -285.5 t-56.5 -285t-155.5 -229.5t-233.5 -153.5t-290.5 -56q-140 0 -261 44t-218 123l100 141q76 -63 173 -102.5t206 -39.5z"/>
<glyph glyph-name="afii10048" horiz-adv-x="2112" unicode="Ю" d="M356 0h-188v1400h188v-616h208q15 137 77 254.5t159 203t223.5 134t271.5 48.5q156 0 290.5 -55.5t233.5 -153t155.5 -230t56.5 -285.5t-56.5 -285t-155.5 -229.5t-233.5 -153.5t-290.5 -56q-145 0 -272.5 49t-224.5 135t-158.5 204t-75.5 257h-208v-621zM1295 142 q114 0 213.5 43t173 118.5t116 177.5t42.5 219t-42.5 219t-116 177.5t-173 118.5t-213.5 43t-213.5 -43t-173 -118.5t-116 -177.5t-42.5 -219t42.5 -219t116 -177.5t173 -118.5t213.5 -43z"/>
<glyph glyph-name="afii10049" horiz-adv-x="1200" unicode="Я" d="M656 528l-370 -528h-208l379 540q-82 16 -147.5 53t-111.5 91.5t-70 125t-24 154.5q0 99 33.5 179.5t95.5 137.5t151.5 88t200.5 31h447v-1400h-188v528h-188zM295 964q0 -62 20 -112.5t58 -86t93.5 -55t125.5 -19.5h252v546h-252q-70 0 -125.5 -19.5t-93.5 -55t-58 -86 t-20 -112.5z"/>
<glyph glyph-name="afii10065" horiz-adv-x="1297" unicode="а" d="M634 139q56 0 106.5 15t93.5 42t77.5 64.5t57.5 83.5v345q-23 46 -57.5 84.5t-77.5 66t-93.5 42.5t-106.5 15q-79 0 -148 -30t-119 -81.5t-79 -120.5t-29 -147t29 -147t79 -120.5t119 -81.5t148 -30zM604 1060q109 0 202 -40.5t163 -117.5v134h182v-1036h-182v134 q-70 -78 -163 -118t-202 -40q-115 0 -212.5 43.5t-168 117.5t-110 172.5t-39.5 208.5t39.5 208.5t110 172.5t168 117.5t212.5 43.5z"/>
<glyph glyph-name="afii10066" horiz-adv-x="1216" unicode="б" d="M291 778q32 37 71.5 67.5t86 53t98.5 35t108 12.5q102 0 191 -37.5t155 -103t103.5 -154t37.5 -190.5q0 -104 -39 -192.5t-108.5 -153.5t-166 -102t-210.5 -37q-112 0 -208 39t-166.5 113.5t-110 183.5t-39.5 250q0 234 40 397.5t132 269.5t241.5 160.5t368.5 70.5 l26 -163q-175 -16 -288 -50.5t-181.5 -95.5t-99.5 -152.5t-42 -220.5zM279 575q0 -102 24 -183t68.5 -137.5t107 -86t139.5 -29.5q73 0 135 24.5t107.5 68t71 102.5t25.5 127t-25.5 127t-70 102.5t-104.5 68t-129 24.5q-56 0 -106.5 -16t-94.5 -43.5t-81 -65.5t-67 -83z"/>
<glyph glyph-name="afii10067" horiz-adv-x="1031" unicode="в" d="M146 0v1036h407q71 0 132.5 -21t106.5 -58t70.5 -87t25.5 -108q0 -37 -11.5 -70.5t-32 -61.5t-49 -50t-62.5 -35q43 -10 80 -34t64.5 -58t43 -75t15.5 -85q0 -62 -27 -115.5t-74.5 -93t-112 -62t-138.5 -22.5h-438zM541 609q36 0 66 10.5t52 28.5t34.5 42.5t12.5 53.5 t-12.5 54t-34.5 43t-52.5 28t-65.5 10h-213v-270h213zM575 157q38 0 71 11.5t57 31.5t37.5 47.5t13.5 58.5q0 32 -13.5 59.5t-37.5 48t-57 32.5t-71 12h-247v-301h247z"/>
<glyph glyph-name="afii10068" horiz-adv-x="820" unicode="г" d="M328 873v-873h-182v1036h629v-163h-447z"/>
<glyph glyph-name="afii10069" horiz-adv-x="1100" unicode="д" d="M1051 -212h-182v212h-638v-212h-182v372h108q84 178 116.5 399.5t32.5 476.5h612v-876h133v-372zM739 160v716h-260q0 -87 -8 -181.5t-24.5 -188.5t-40 -182.5t-55.5 -163.5h388z"/>
<glyph glyph-name="afii10070" horiz-adv-x="1224" unicode="е" d="M260 461q8 -69 38.5 -129t80 -104.5t114 -69.5t139.5 -25q96 0 179.5 40t147.5 110l125 -116q-82 -93 -196 -142t-251 -49q-126 0 -230 42.5t-178 116t-114.5 172.5t-40.5 211q0 113 41.5 211.5t114.5 172t173.5 116t218.5 42.5q116 0 213 -41t167 -111.5t109 -165 t39 -201.5q0 -20 -2.5 -41.5t-6.5 -38.5h-881zM622 903q-65 0 -123.5 -22.5t-105.5 -61.5t-79.5 -92t-46.5 -115h692q-10 63 -39.5 116t-74 92t-101 61t-122.5 22z"/>
<glyph glyph-name="afii10072" horiz-adv-x="1564" unicode="ж" d="M998 477h-125v-477h-182v477h-125l-348 -477h-210l407 556l-353 480h216l289 -402h124v402h182v-402h124l289 402h216l-353 -480l407 -556h-210z"/>
<glyph glyph-name="afii10073" horiz-adv-x="949" unicode="з" d="M694 307q0 37 -18 69t-49.5 55.5t-74.5 37t-93 13.5h-148v151h154q40 0 74.5 10.5t59.5 28.5t39 42.5t14 53.5t-14 53.5t-39 42.5t-59.5 28.5t-74.5 10.5q-71 0 -125.5 -30.5t-83.5 -86.5l-146 90q46 87 137 135.5t218 48.5q78 0 145.5 -21.5t117 -59t78 -88.5t28.5 -110 q0 -36 -12 -70t-34.5 -63t-55.5 -51.5t-75 -36.5q43 -12 82.5 -36.5t70 -59t48.5 -77.5t18 -92q0 -67 -32 -125.5t-88.5 -101.5t-132.5 -67.5t-164 -24.5q-133 0 -233.5 49t-160.5 134l125 103q48 -60 115 -94.5t154 -34.5q50 0 93 13.5t74.5 37t49.5 55.5t18 68z"/>
<glyph glyph-name="afii10074" horiz-adv-x="1227" unicode="и" d="M1081 0h-176v780l-586 -780h-173v1036h176v-780l586 780h173v-1036z"/>
<glyph glyph-name="afii10075" horiz-adv-x="1227" unicode="й" d="M1081 0h-176v780l-586 -780h-173v1036h176v-780l586 780h173v-1036zM613 1166q-66 0 -123.5 23t-101.5 64.5t-70.5 98t-30.5 123.5h162q2 -37 14 -68.5t33.5 -54.5t51 -36.5t65.5 -13.5t65.5 13.5t51 36.5t34 54.5t13.5 68.5h162q-4 -67 -30.5 -123.5t-70.5 -98 t-101.5 -64.5t-123.5 -23z"/>
<glyph glyph-name="afii10076" horiz-adv-x="1029" unicode="к" d="M456 492h-128v-492h-182v1036h182v-387h130l293 387h216l-358 -465l412 -571h-210z"/>
<glyph glyph-name="afii10077" horiz-adv-x="1228" unicode="л" d="M231 1036h851v-1036h-182v873h-487v-588q0 -63 -21 -116.5t-58 -92.5t-88.5 -61t-112.5 -22q-23 0 -46 1.5t-42 5.5v161q12 -1 25.5 -1h27.5q58 0 95.5 37.5t37.5 101.5v737z"/>
<glyph glyph-name="afii10078" horiz-adv-x="1350" unicode="м" d="M675 490l361 546h168v-1036h-176v757l-298 -444h-110l-298 444v-757h-176v1036h168z"/>
<glyph glyph-name="afii10079" horiz-adv-x="1227" unicode="н" d="M1081 0h-182v454h-571v-454h-182v1036h182v-419h571v419h182v-1036z"/>
<glyph glyph-name="afii10080" horiz-adv-x="1268" unicode="о" d="M634 139q80 0 148.5 30t118.5 81.5t79 120.5t29 147t-29 147t-79 120.5t-118.5 81.5t-148.5 30q-79 0 -148 -30t-119 -81.5t-79 -120.5t-29 -147t29 -147t79 -120.5t119 -81.5t148 -30zM634 1060q121 0 223.5 -42.5t177.5 -116t117 -172.5t42 -211t-42 -211t-117 -172.5 t-177.5 -116t-223.5 -42.5t-223.5 42.5t-177.5 116t-117 172.5t-42 211t42 211t117 172.5t177.5 116t223.5 42.5z"/>
<glyph glyph-name="afii10081" horiz-adv-x="1227" unicode="п" d="M1081 0h-182v873h-571v-873h-182v1036h935v-1036z"/>
<glyph glyph-name="afii10082" horiz-adv-x="1297" unicode="р" d="M663 139q80 0 148.5 30t118.5 81.5t79 120.5t29 147t-29 147t-79 120.5t-118.5 81.5t-148.5 30q-55 0 -106 -15t-94 -42.5t-77.5 -66t-57.5 -84.5v-345q23 -46 57.5 -83.5t77.5 -64.5t94 -42t106 -15zM693 1060q116 0 213 -43.5t167.5 -117.5t110 -172.5t39.5 -208.5 t-39.5 -208.5t-110 -172.5t-167.5 -117.5t-213 -43.5q-109 0 -202 40t-163 118v-598h-182v1500h182v-134q70 77 163 117.5t202 40.5z"/>
<glyph glyph-name="afii10083" horiz-adv-x="1098" unicode="с" d="M634 -24q-121 0 -223.5 42.5t-177.5 116t-117 172.5t-42 211t42 211t117 172.5t177.5 116t223.5 42.5q113 0 207.5 -36.5t169.5 -100.5l-95 -143q-58 51 -128 84t-154 33q-79 0 -148 -30t-119 -81.5t-79 -120.5t-29 -147t29 -147t79 -120.5t119 -81.5t148 -30 q85 0 158.5 34t130.5 91l107 -133q-75 -73 -175.5 -114t-220.5 -41z"/>
<glyph glyph-name="afii10084" horiz-adv-x="940" unicode="т" d="M45 873v163h850v-163h-334v-873h-182v873h-334z"/>
<glyph glyph-name="afii10085" horiz-adv-x="1050" unicode="у" d="M432 4l-405 1032h190l308 -801l308 801h190l-585 -1500h-190z"/>
<glyph glyph-name="afii10086" horiz-adv-x="2120" unicode="ф" d="M634 139q56 0 106.5 15t93.5 42t77.5 64.5t57.5 83.5v345q-23 46 -57.5 84.5t-77.5 66t-93.5 42.5t-106.5 15q-79 0 -148 -30t-119 -81.5t-79 -120.5t-29 -147t29 -147t79 -120.5t119 -81.5t148 -30zM1151 -464h-182v598q-70 -78 -163 -118t-202 -40q-115 0 -212.5 43.5 t-168 117.5t-110 172.5t-39.5 208.5t39.5 208.5t110 172.5t168 117.5t212.5 43.5q109 0 202 -40.5t163 -117.5v558h182v-558q70 77 163 117.5t202 40.5q116 0 213 -43.5t167.5 -117.5t110 -172.5t39.5 -208.5t-39.5 -208.5t-110 -172.5t-167.5 -117.5t-213 -43.5 q-109 0 -202 40t-163 118v-598zM1486 139q80 0 148.5 30t118.5 81.5t79 120.5t29 147t-29 147t-79 120.5t-118.5 81.5t-148.5 30q-55 0 -106 -15t-94 -42.5t-77.5 -66t-57.5 -84.5v-345q23 -46 57.5 -83.5t77.5 -64.5t94 -42t106 -15z"/>
<glyph glyph-name="afii10087" horiz-adv-x="1046" unicode="х" d="M27 0l381 529l-355 507h203l267 -384l267 384h203l-355 -507l381 -529h-203l-293 406l-293 -406h-203z"/>
<glyph glyph-name="afii10088" horiz-adv-x="1252" unicode="ц" d="M1021 0h-875v1036h182v-873h571v873h182v-873h122v-443h-182v280z"/>
<glyph glyph-name="afii10089" horiz-adv-x="1098" unicode="ч" d="M770 446q-49 -70 -123.5 -114t-170.5 -44q-79 0 -148.5 30.5t-120.5 83t-80.5 124.5t-29.5 154v356h182v-347q0 -51 17.5 -94.5t48.5 -75.5t73 -50t91 -18q47 0 86 14t71.5 39t58.5 59t45 74v399h182v-1036h-182v446z"/>
<glyph glyph-name="afii10090" horiz-adv-x="1576" unicode="ш" d="M1430 0h-1284v1036h182v-873h369v873h182v-873h369v873h182v-1036z"/>
<glyph glyph-name="afii10091" horiz-adv-x="1601" unicode="щ" d="M146 1036h182v-873h369v873h182v-873h369v873h182v-873h122v-443h-182v280h-1224v1036z"/>
<glyph glyph-name="afii10092" horiz-adv-x="1191" unicode="ъ" d="M339 0v879h-294v157h476v-334h234q80 0 148.5 -27.5t119 -75t79 -111.5t28.5 -137t-28.5 -137.5t-79 -111.5t-119 -74.5t-148.5 -27.5h-416zM948 351q0 41 -16 76.5t-44.5 61.5t-66 41t-81.5 15h-219v-388h219q44 0 81.5 14.5t66 40.5t44.5 61.5t16 77.5z"/>
<glyph glyph-name="afii10093" horiz-adv-x="1414" unicode="ы" d="M146 0v1036h182v-334h234q80 0 148.5 -27.5t118.5 -75t79 -111.5t29 -137t-29 -137.5t-79 -111.5t-118.5 -74.5t-148.5 -27.5h-416zM755 351q0 41 -16 76.5t-44.5 61.5t-66 41t-81.5 15h-219v-388h219q44 0 81.5 14.5t66 40.5t44.5 61.5t16 77.5zM1086 1036h182v-1036 h-182v1036z"/>
<glyph glyph-name="afii10094" horiz-adv-x="998" unicode="ь" d="M146 0v1036h182v-334h234q80 0 148.5 -27.5t118.5 -75t79 -111.5t29 -137t-29 -137.5t-79 -111.5t-118.5 -74.5t-148.5 -27.5h-416zM755 351q0 41 -16 76.5t-44.5 61.5t-66 41t-81.5 15h-219v-388h219q44 0 81.5 14.5t66 40.5t44.5 61.5t16 77.5z"/>
<glyph glyph-name="afii10095" horiz-adv-x="1098" unicode="э" d="M464 -24q-120 0 -220.5 41t-175.5 114l107 133q57 -57 130.5 -91t158.5 -34q69 0 130.5 23t109.5 63.5t81 95.5t46 120h-499v151h500q-12 65 -45 121t-81.5 97t-110 64t-131.5 23q-84 0 -154 -33t-128 -84l-95 143q75 64 169.5 100.5t207.5 36.5q121 0 223.5 -42.5 t177.5 -116t117 -172.5t42 -211t-42 -211t-117 -172.5t-177.5 -116t-223.5 -42.5z"/>
<glyph glyph-name="afii10096" horiz-adv-x="1674" unicode="ю" d="M1040 1060q121 0 223.5 -42.5t177.5 -116t117 -172.5t42 -211t-42 -211t-117 -172.5t-177.5 -116t-223.5 -42.5q-110 0 -205 35.5t-167.5 97.5t-120 146.5t-61.5 182.5h-158v-438h-182v1036h182v-435h158q15 97 62 181t120 145.5t167.5 97t204.5 35.5zM1040 139 q80 0 148.5 30t118.5 81.5t79 120.5t29 147t-29 147t-79 120.5t-118.5 81.5t-148.5 30q-79 0 -148 -30t-119 -81.5t-79 -120.5t-29 -147t29 -147t79 -120.5t119 -81.5t148 -30z"/>
<glyph glyph-name="afii10097" horiz-adv-x="1093" unicode="я" d="M560 366l-289 -366h-202l301 379q-61 15 -111.5 45.5t-87 72.5t-56.5 94t-20 110q0 71 29.5 132t81.5 106t123 71t153 26h465v-1036h-182v366h-205zM765 523v356h-277q-45 0 -83.5 -13.5t-67 -37.5t-44.5 -56.5t-16 -70.5q0 -39 16 -71.5t44.5 -56t67 -37t83.5 -13.5h277 z"/>
<glyph glyph-name="uni0450" horiz-adv-x="1224" unicode="ѐ" d="M260 461q8 -69 38.5 -129t80 -104.5t114 -69.5t139.5 -25q96 0 179.5 40t147.5 110l125 -116q-82 -93 -196 -142t-251 -49q-126 0 -230 42.5t-178 116t-114.5 172.5t-40.5 211q0 113 41.5 211.5t114.5 172t173.5 116t218.5 42.5q116 0 213 -41t167 -111.5t109 -165 t39 -201.5q0 -20 -2.5 -41.5t-6.5 -38.5h-881zM622 903q-65 0 -123.5 -22.5t-105.5 -61.5t-79.5 -92t-46.5 -115h692q-10 63 -39.5 116t-74 92t-101 61t-122.5 22zM771 1186h-180l-280 337h186z"/>
<glyph glyph-name="afii10071" horiz-adv-x="1224" unicode="ё" d="M260 461q8 -69 38.5 -129t80 -104.5t114 -69.5t139.5 -25q96 0 179.5 40t147.5 110l125 -116q-82 -93 -196 -142t-251 -49q-126 0 -230 42.5t-178 116t-114.5 172.5t-40.5 211q0 113 41.5 211.5t114.5 172t173.5 116t218.5 42.5q116 0 213 -41t167 -111.5t109 -165 t39 -201.5q0 -20 -2.5 -41.5t-6.5 -38.5h-881zM622 903q-65 0 -123.5 -22.5t-105.5 -61.5t-79.5 -92t-46.5 -115h692q-10 63 -39.5 116t-74 92t-101 61t-122.5 22zM320 1340q0 24 8.5 44.5t24 35.5t36 24t44.5 9t44.5 -9t36 -24t24 -35.5t8.5 -44.5q0 -48 -32.5 -80.5 t-80.5 -32.5t-80.5 32.5t-32.5 80.5zM678 1340q0 24 8.5 44.5t24 35.5t36 24t44.5 9t44.5 -9t36 -24t24 -35.5t8.5 -44.5q0 -48 -32.5 -80.5t-80.5 -32.5t-80.5 32.5t-32.5 80.5z"/>
<glyph glyph-name="afii10099" horiz-adv-x="1238" unicode="ђ" d="M27 1299h150v161h182v-161h346v-126h-346v-296q28 36 63.5 69.5t78 58.5t91.5 40t103 15q92 0 168.5 -31t132 -87t86 -133.5t30.5 -171.5v-740q0 -186 -92 -273.5t-283 -87.5q-26 0 -54 2.5t-48 5.5v157q20 -2 44 -3.5t47 -1.5q111 0 157.5 51t46.5 152v728 q0 58 -19.5 107.5t-55 85.5t-85 56.5t-109.5 20.5q-49 0 -93.5 -18t-83 -47.5t-70 -67.5t-55.5 -77v-687h-182v1173h-150v126z"/>
<glyph glyph-name="afii10100" horiz-adv-x="820" unicode="ѓ" d="M328 873v-873h-182v1036h629v-163h-447zM517 1523h186l-280 -337h-180z"/>
<glyph glyph-name="afii10101" horiz-adv-x="1098" unicode="є" d="M634 -24q-121 0 -223.5 42.5t-177.5 116t-117 172.5t-42 211t42 211t117 172.5t177.5 116t223.5 42.5q113 0 207.5 -36.5t169.5 -100.5l-95 -143q-58 51 -128 84t-154 33q-70 0 -131.5 -23t-110 -64t-81.5 -97t-45 -121h500v-151h-500q13 -65 46 -120t81.5 -95.5 t109.5 -63.5t131 -23q85 0 158.5 34t130.5 91l107 -133q-75 -73 -175.5 -114t-220.5 -41z"/>
<glyph glyph-name="afii10102" horiz-adv-x="932" unicode="ѕ" d="M176 271q51 -61 125 -99.5t163 -38.5q99 0 155.5 42t56.5 111q0 66 -54 109t-176 66q-172 33 -254.5 112t-82.5 200q0 61 25.5 113.5t72 91t112.5 60.5t147 22q106 0 195 -39t153 -99l-98 -124q-55 48 -111.5 76.5t-125.5 28.5q-40 0 -74.5 -10t-59.5 -27.5t-39.5 -42 t-14.5 -53.5q0 -56 52.5 -99t161.5 -65q180 -35 266.5 -114t86.5 -209q0 -66 -26 -122t-75 -97t-120 -64.5t-161 -23.5q-128 0 -232 46.5t-171 125.5z"/>
<glyph glyph-name="afii10103" horiz-adv-x="522" unicode="і" d="M170 1036h182v-1036h-182v1036zM141 1325q0 26 9 47.5t25.5 38t38.5 25.5t47 9q26 0 47.5 -9t38 -25.5t25.5 -38t9 -47.5q0 -25 -9 -47t-25.5 -38t-38 -25t-47.5 -9q-25 0 -47 9t-38.5 25t-25.5 38t-9 47z"/>
<glyph glyph-name="afii10104" horiz-adv-x="522" unicode="ї" d="M170 1036h182v-1036h-182v1036zM-31 1340q0 24 8.5 44.5t24 35.5t36 24t44.5 9t44.5 -9t36 -24t24 -35.5t8.5 -44.5q0 -48 -32.5 -80.5t-80.5 -32.5t-80.5 32.5t-32.5 80.5zM327 1340q0 24 8.5 44.5t24 35.5t36 24t44.5 9t44.5 -9t36 -24t24 -35.5t8.5 -44.5 q0 -48 -32.5 -80.5t-80.5 -32.5t-80.5 32.5t-32.5 80.5z"/>
<glyph glyph-name="afii10105" horiz-adv-x="522" unicode="ј" d="M170 1036h182v-1170q0 -176 -76 -253t-231 -77q-19 0 -40.5 1t-37.5 3v157q14 -1 28.5 -1h28.5q71 0 108.5 37.5t37.5 129.5v1173zM141 1325q0 26 9 47.5t25.5 38t38.5 25.5t47 9q26 0 47.5 -9t38 -25.5t25.5 -38t9 -47.5q0 -25 -9 -47t-25.5 -38t-38 -25t-47.5 -9 q-25 0 -47 9t-38.5 25t-25.5 38t-9 47z"/>
<glyph glyph-name="afii10106" horiz-adv-x="1707" unicode="љ" d="M1256 157q44 0 81.5 14.5t66 40.5t44.5 61.5t16 77.5q0 41 -16 76.5t-44.5 61.5t-66 41t-81.5 15h-214v-388h214zM231 1036h811v-334h229q80 0 148.5 -27.5t119 -75t79 -111.5t28.5 -137t-28.5 -137.5t-79 -111.5t-119 -74.5t-148.5 -27.5h-411v873h-447v-588 q0 -63 -21 -116.5t-58 -92.5t-88.5 -61t-112.5 -22q-23 0 -46 1.5t-42 5.5v161q12 -1 25.5 -1h27.5q58 0 95.5 37.5t37.5 101.5v737z"/>
<glyph glyph-name="afii10107" horiz-adv-x="1706" unicode="њ" d="M859 0v454h-531v-454h-182v1036h182v-419h531v419h182v-334h229q80 0 148.5 -27.5t118.5 -75t79 -111.5t29 -137t-29 -137.5t-79 -111.5t-118.5 -74.5t-148.5 -27.5h-411zM1463 351q0 41 -16 76.5t-44.5 61.5t-66 41t-81.5 15h-214v-388h214q44 0 81.5 14.5t66 40.5 t44.5 61.5t16 77.5z"/>
<glyph glyph-name="afii10108" horiz-adv-x="1238" unicode="ћ" d="M27 1299h150v161h182v-161h346v-126h-346v-296q28 36 63.5 69.5t78 58.5t91.5 40t103 15q92 0 168.5 -31t132 -87t86 -133.5t30.5 -171.5v-637h-182v627q0 58 -19.5 107.5t-55 85.5t-85 56.5t-109.5 20.5q-49 0 -93.5 -18t-83 -47.5t-70 -67.5t-55.5 -77v-687h-182v1173 h-150v126z"/>
<glyph glyph-name="afii10109" horiz-adv-x="1029" unicode="ќ" d="M456 492h-128v-492h-182v1036h182v-387h130l293 387h216l-358 -465l412 -571h-210zM609 1523h186l-280 -337h-180z"/>
<glyph glyph-name="uni045D" horiz-adv-x="1227" unicode="ѝ" d="M1081 0h-176v780l-586 -780h-173v1036h176v-780l586 780h173v-1036zM760 1186h-180l-280 337h186z"/>
<glyph glyph-name="afii10110" horiz-adv-x="1050" unicode="ў" d="M432 4l-405 1032h190l308 -801l308 801h190l-585 -1500h-190zM525 1166q-66 0 -123.5 23t-101.5 64.5t-70.5 98t-30.5 123.5h162q2 -37 14 -68.5t33.5 -54.5t51 -36.5t65.5 -13.5t65.5 13.5t51 36.5t34 54.5t13.5 68.5h162q-4 -67 -30.5 -123.5t-70.5 -98t-101.5 -64.5 t-123.5 -23z"/>
<glyph glyph-name="afii10193" horiz-adv-x="1228" unicode="џ" d="M1082 0h-377v-280h-182v280h-377v1036h182v-873h572v873h182v-1036z"/>
<glyph glyph-name="afii10050" horiz-adv-x="1029" unicode="Ґ" d="M168 1400h626v280h188v-443h-626v-1237h-188v1400z"/>
<glyph glyph-name="afii10098" horiz-adv-x="820" unicode="ґ" d="M328 873v-873h-182v1036h447v280h182v-443h-447z"/>
<glyph glyph-name="Wgrave" horiz-adv-x="1934" unicode="Ẁ" d="M1061 1400l324 -1125l304 1125h198l-402 -1400h-188l-330 1141l-330 -1141h-188l-402 1400h198l304 -1125l324 1125h188zM1114 1510h-180l-280 337h186z"/>
<glyph glyph-name="wgrave" horiz-adv-x="1560" unicode="ẁ" d="M874 1036l231 -792l238 792h190l-332 -1036h-188l-233 796l-233 -796h-188l-332 1036h190l238 -792l231 792h188zM910 1186h-180l-280 337h186z"/>
<glyph glyph-name="Wacute" horiz-adv-x="1934" unicode="Ẃ" d="M1061 1400l324 -1125l304 1125h198l-402 -1400h-188l-330 1141l-330 -1141h-188l-402 1400h198l304 -1125l324 1125h188zM1097 1847h186l-280 -337h-180z"/>
<glyph glyph-name="wacute" horiz-adv-x="1560" unicode="ẃ" d="M874 1036l231 -792l238 792h190l-332 -1036h-188l-233 796l-233 -796h-188l-332 1036h190l238 -792l231 792h188zM917 1523h186l-280 -337h-180z"/>
<glyph glyph-name="Wdieresis" horiz-adv-x="1934" unicode="Ẅ" d="M1061 1400l324 -1125l304 1125h198l-402 -1400h-188l-330 1141l-330 -1141h-188l-402 1400h198l304 -1125l324 1125h188zM675 1664q0 24 8.5 44.5t24 35.5t36 24t44.5 9t44.5 -9t36 -24t24 -35.5t8.5 -44.5q0 -48 -32.5 -80.5t-80.5 -32.5t-80.5 32.5t-32.5 80.5z M1033 1664q0 24 8.5 44.5t24 35.5t36 24t44.5 9t44.5 -9t36 -24t24 -35.5t8.5 -44.5q0 -48 -32.5 -80.5t-80.5 -32.5t-80.5 32.5t-32.5 80.5z"/>
<glyph glyph-name="wdieresis" horiz-adv-x="1560" unicode="ẅ" d="M874 1036l231 -792l238 792h190l-332 -1036h-188l-233 796l-233 -796h-188l-332 1036h190l238 -792l231 792h188zM488 1340q0 24 8.5 44.5t24 35.5t36 24t44.5 9t44.5 -9t36 -24t24 -35.5t8.5 -44.5q0 -48 -32.5 -80.5t-80.5 -32.5t-80.5 32.5t-32.5 80.5zM846 1340 q0 24 8.5 44.5t24 35.5t36 24t44.5 9t44.5 -9t36 -24t24 -35.5t8.5 -44.5q0 -48 -32.5 -80.5t-80.5 -32.5t-80.5 32.5t-32.5 80.5z"/>
<glyph glyph-name="Ygrave" horiz-adv-x="1286" unicode="Ỳ" d="M643 758l393 642h203l-502 -826v-574h-188v574l-502 826h203zM779 1510h-180l-280 337h186z"/>
<glyph glyph-name="ygrave" horiz-adv-x="1050" unicode="ỳ" d="M432 4l-405 1032h190l308 -801l308 801h190l-585 -1500h-190zM650 1186h-180l-280 337h186z"/>
<glyph glyph-name="thinspace" horiz-adv-x="400" unicode=" "/>
<glyph glyph-name="uni2010" horiz-adv-x="804" unicode="‐" d="M118 578v172h568v-172h-568z"/>
<glyph glyph-name="figuredash" horiz-adv-x="1200" unicode="‒" d="M100 578v172h1000v-172h-1000z"/>
<glyph glyph-name="endash" horiz-adv-x="1000" unicode="–" d="M0 578v172h1000v-172h-1000z"/>
<glyph glyph-name="emdash" horiz-adv-x="2000" unicode="—" d="M0 578v172h2000v-172h-2000z"/>
<glyph glyph-name="afii00208" horiz-adv-x="2000" unicode="―" d="M200 578v172h1600v-172h-1600z"/>
<glyph glyph-name="uni2016" horiz-adv-x="900" unicode="‖" d="M192 1500h167v-1780h-167v1780zM541 1500h167v-1780h-167v1780z"/>
<glyph glyph-name="underscoredbl" horiz-adv-x="1200" unicode="‗" d="M100 -310h1000v-140h-1000v140zM100 -38h1000v-140h-1000v140z"/>
<glyph glyph-name="quoteleft" horiz-adv-x="594" unicode="‘" d="M422 1193q0 -27 -9.5 -49.5t-26.5 -39.5t-39.5 -26.5t-49.5 -9.5t-49.5 9.5t-39.5 26.5t-26.5 39.5t-9.5 49.5q0 29 13 57l132 289h121l-102 -227q38 -12 62 -44t24 -75z"/>
<glyph glyph-name="quoteright" horiz-adv-x="594" unicode="’" d="M172 1414q0 27 9.5 49.5t26.5 39.5t39.5 26.5t49.5 9.5t49.5 -9.5t39.5 -26.5t26.5 -39.5t9.5 -49.5q0 -29 -13 -57l-132 -289h-121l102 227q-38 12 -62 44t-24 75z"/>
<glyph glyph-name="quotesinglbase" horiz-adv-x="594" unicode="‚" d="M172 101q0 27 9.5 49.5t26.5 39.5t39.5 26.5t49.5 9.5t49.5 -9.5t39.5 -26.5t26.5 -39.5t9.5 -49.5q0 -29 -13 -57l-132 -289h-121l102 227q-38 12 -62 44t-24 75z"/>
<glyph glyph-name="quotereversed" horiz-adv-x="594" unicode="‛" d="M422 1414q0 -43 -24 -75t-62 -44l102 -227h-121l-132 289q-13 28 -13 57q0 27 9.5 49.5t26.5 39.5t39.5 26.5t49.5 9.5t49.5 -9.5t39.5 -26.5t26.5 -39.5t9.5 -49.5z"/>
<glyph glyph-name="quotedblleft" horiz-adv-x="920" unicode="“" d="M748 1193q0 -27 -9.5 -49.5t-26.5 -39.5t-39.5 -26.5t-49.5 -9.5t-49.5 9.5t-39.5 26.5t-26.5 39.5t-9.5 49.5q0 29 13 57l132 289h121l-102 -227q38 -12 62 -44t24 -75zM422 1193q0 -27 -9.5 -49.5t-26.5 -39.5t-39.5 -26.5t-49.5 -9.5t-49.5 9.5t-39.5 26.5t-26.5 39.5 t-9.5 49.5q0 29 13 57l132 289h121l-102 -227q38 -12 62 -44t24 -75z"/>
<glyph glyph-name="quotedblright" horiz-adv-x="920" unicode="”" d="M498 1414q0 27 9.5 49.5t26.5 39.5t39.5 26.5t49.5 9.5t49.5 -9.5t39.5 -26.5t26.5 -39.5t9.5 -49.5q0 -29 -13 -57l-132 -289h-121l102 227q-38 12 -62 44t-24 75zM172 1414q0 27 9.5 49.5t26.5 39.5t39.5 26.5t49.5 9.5t49.5 -9.5t39.5 -26.5t26.5 -39.5t9.5 -49.5 q0 -29 -13 -57l-132 -289h-121l102 227q-38 12 -62 44t-24 75z"/>
<glyph glyph-name="quotedblbase" horiz-adv-x="920" unicode="„" d="M172 101q0 27 9.5 49.5t26.5 39.5t39.5 26.5t49.5 9.5t49.5 -9.5t39.5 -26.5t26.5 -39.5t9.5 -49.5q0 -29 -13 -57l-132 -289h-121l102 227q-38 12 -62 44t-24 75zM498 101q0 27 9.5 49.5t26.5 39.5t39.5 26.5t49.5 9.5t49.5 -9.5t39.5 -26.5t26.5 -39.5t9.5 -49.5 q0 -29 -13 -57l-132 -289h-121l102 227q-38 12 -62 44t-24 75z"/>
<glyph glyph-name="uni201F" horiz-adv-x="920" unicode="‟" d="M422 1414q0 -43 -24 -75t-62 -44l102 -227h-121l-132 289q-13 28 -13 57q0 27 9.5 49.5t26.5 39.5t39.5 26.5t49.5 9.5t49.5 -9.5t39.5 -26.5t26.5 -39.5t9.5 -49.5zM748 1414q0 -43 -24 -75t-62 -44l102 -227h-121l-132 289q-13 28 -13 57q0 27 9.5 49.5t26.5 39.5 t39.5 26.5t49.5 9.5t49.5 -9.5t39.5 -26.5t26.5 -39.5t9.5 -49.5z"/>
<glyph glyph-name="dagger" horiz-adv-x="1120" unicode="†" d="M466 978h-332v163h332v355h188v-355h332v-163h-332v-1240h-188v1240z"/>
<glyph glyph-name="daggerdbl" horiz-adv-x="1120" unicode="‡" d="M466 978h-332v163h332v355h188v-355h332v-163h-332v-722h332v-163h-332v-355h-188v355h-332v163h332v722z"/>
<glyph glyph-name="bullet" horiz-adv-x="800" unicode="•" d="M400 417q-51 0 -96.5 19.5t-79.5 53t-53.5 78.5t-19.5 96t19.5 96t53.5 78.5t79.5 53t96.5 19.5t96.5 -19.5t79.5 -53t53.5 -78.5t19.5 -96t-19.5 -96t-53.5 -78.5t-79.5 -53t-96.5 -19.5z"/>
<glyph glyph-name="onedotenleader" horiz-adv-x="594" unicode="․" d="M172 101q0 27 9.5 49.5t26.5 39.5t39.5 26.5t49.5 9.5t49.5 -9.5t39.5 -26.5t26.5 -39.5t9.5 -49.5t-9.5 -49.5t-26.5 -39.5t-39.5 -26.5t-49.5 -9.5t-49.5 9.5t-39.5 26.5t-26.5 39.5t-9.5 49.5z"/>
<glyph glyph-name="twodotenleader" horiz-adv-x="1188" unicode="‥" d="M172 101q0 27 9.5 49.5t26.5 39.5t39.5 26.5t49.5 9.5t49.5 -9.5t39.5 -26.5t26.5 -39.5t9.5 -49.5t-9.5 -49.5t-26.5 -39.5t-39.5 -26.5t-49.5 -9.5t-49.5 9.5t-39.5 26.5t-26.5 39.5t-9.5 49.5zM766 101q0 27 9.5 49.5t26.5 39.5t39.5 26.5t49.5 9.5t49.5 -9.5 t39.5 -26.5t26.5 -39.5t9.5 -49.5t-9.5 -49.5t-26.5 -39.5t-39.5 -26.5t-49.5 -9.5t-49.5 9.5t-39.5 26.5t-26.5 39.5t-9.5 49.5z"/>
<glyph glyph-name="ellipsis" horiz-adv-x="1782" unicode="…" d="M172 101q0 27 9.5 49.5t26.5 39.5t39.5 26.5t49.5 9.5t49.5 -9.5t39.5 -26.5t26.5 -39.5t9.5 -49.5t-9.5 -49.5t-26.5 -39.5t-39.5 -26.5t-49.5 -9.5t-49.5 9.5t-39.5 26.5t-26.5 39.5t-9.5 49.5zM1360 101q0 27 9.5 49.5t26.5 39.5t39.5 26.5t49.5 9.5t49.5 -9.5 t39.5 -26.5t26.5 -39.5t9.5 -49.5t-9.5 -49.5t-26.5 -39.5t-39.5 -26.5t-49.5 -9.5t-49.5 9.5t-39.5 26.5t-26.5 39.5t-9.5 49.5zM766 101q0 27 9.5 49.5t26.5 39.5t39.5 26.5t49.5 9.5t49.5 -9.5t39.5 -26.5t26.5 -39.5t9.5 -49.5t-9.5 -49.5t-26.5 -39.5t-39.5 -26.5 t-49.5 -9.5t-49.5 9.5t-39.5 26.5t-26.5 39.5t-9.5 49.5z"/>
<glyph glyph-name="perthousand" horiz-adv-x="2576" unicode="‰" d="M1153 1400h190l-720 -1400h-190zM269 1063q0 -41 14 -77t38 -62.5t57 -42t72 -15.5t72 15.5t57 42t38 62.5t14 77t-14 77t-38 62.5t-57 42t-72 15.5t-72 -15.5t-57 -42t-38 -62.5t-14 -77zM92 1063q0 74 27.5 138t76 111.5t114 74.5t140.5 27t140.5 -27t114 -74.5 t76 -111.5t27.5 -138t-27.5 -138t-76 -111.5t-114 -74.5t-140.5 -27t-140.5 27t-114 74.5t-76 111.5t-27.5 138zM1147 337q0 -41 14 -77t38 -62.5t57 -42t72 -15.5t72 15.5t57 42t38 62.5t14 77t-14 77t-38 62.5t-57 42t-72 15.5t-72 -15.5t-57 -42t-38 -62.5t-14 -77z M970 337q0 74 27.5 138t76 111.5t114 74.5t140.5 27t140.5 -27t114 -74.5t76 -111.5t27.5 -138t-27.5 -138t-76 -111.5t-114 -74.5t-140.5 -27t-140.5 27t-114 74.5t-76 111.5t-27.5 138zM1945 337q0 -41 14 -77t38 -62.5t57 -42t72 -15.5t72 15.5t57 42t38 62.5t14 77 t-14 77t-38 62.5t-57 42t-72 15.5t-72 -15.5t-57 -42t-38 -62.5t-14 -77zM1768 337q0 74 27.5 138t76 111.5t114 74.5t140.5 27t140.5 -27t114 -74.5t76 -111.5t27.5 -138t-27.5 -138t-76 -111.5t-114 -74.5t-140.5 -27t-140.5 27t-114 74.5t-76 111.5t-27.5 138z"/>
<glyph glyph-name="minute" horiz-adv-x="554" unicode="′" d="M286 1400h184l-201 -372h-165z"/>
<glyph glyph-name="second" horiz-adv-x="878" unicode="″" d="M286 1400h184l-201 -372h-165zM610 1400h184l-201 -372h-165z"/>
<glyph glyph-name="guilsinglleft" horiz-adv-x="781" unicode="‹" d="M105 672l553 347v-169l-368 -226l368 -226v-169l-553 347v96z"/>
<glyph glyph-name="guilsinglright" horiz-adv-x="781" unicode="›" d="M676 576l-553 -347v169l368 226l-368 226v169l553 -347v-96z"/>
<glyph glyph-name="exclamdbl" horiz-adv-x="1041" unicode="‼" d="M215 1400h188v-1006h-188v1006zM185 100q0 26 9.5 49t26 39.5t39 26t49.5 9.5t49.5 -9.5t39 -26t26 -39.5t9.5 -49q0 -27 -9.5 -49.5t-26 -39t-39 -26t-49.5 -9.5t-49.5 9.5t-39 26t-26 39t-9.5 49.5zM638 1400h188v-1006h-188v1006zM608 100q0 26 9.5 49t26 39.5t39 26 t49.5 9.5t49.5 -9.5t39 -26t26 -39.5t9.5 -49q0 -27 -9.5 -49.5t-26 -39t-39 -26t-49.5 -9.5t-49.5 9.5t-39 26t-26 39t-9.5 49.5z"/>
<glyph glyph-name="uni203E" horiz-adv-x="832" unicode="‾" d="M126 1359h580v-142h-580v142z"/>
<glyph glyph-name="fraction" horiz-adv-x="329" unicode="⁄" d="M427 1400h159l-684 -1400h-159z"/>
<glyph glyph-name="zerosuperior" unicode="⁰" d="M60 926q0 104 20.5 195t62.5 158.5t105 106t148 38.5t148 -38.5t105 -106t62.5 -158.5t20.5 -195t-20.5 -195t-62.5 -158.5t-105 -106t-148 -38.5t-148 38.5t-105 106t-62.5 158.5t-20.5 195zM221 926q0 -78 10.5 -144t32 -113.5t54.5 -74.5t78 -27t78 27t54.5 74.5 t32 113.5t10.5 144t-10.5 144t-32 113.5t-54.5 74.5t-78 27t-78 -27t-54.5 -74.5t-32 -113.5t-10.5 -144z"/>
<glyph glyph-name="uni2071" unicode="ⁱ" d="M316 1122h159v-670h-159v670zM297 1305q0 39 28.5 67t70.5 28t70.5 -28t28.5 -67t-28.5 -67t-70.5 -28t-70.5 28t-28.5 67z"/>
<glyph glyph-name="foursuperior" unicode="⁴" d="M39 765l433 635h154v-622h109v-139h-109v-187h-162v187h-425v126zM464 777v368l-246 -368h246z"/>
<glyph glyph-name="fivesuperior" unicode="⁵" d="M369 428q-99 0 -179 44t-130 123l114 92q39 -60 85.5 -93t106.5 -33q39 0 73 14t58.5 38.5t38.5 58.5t14 73t-14 73t-38.5 59t-58.5 39t-73 14q-45 0 -82.5 -22.5t-58.5 -54.5l-118 15l58 532h513v-135h-367l-29 -233q22 13 50 20.5t63 7.5q63 0 121 -21.5t101.5 -62 t69.5 -98.5t26 -130q0 -70 -24.5 -129t-69.5 -101.5t-108.5 -66t-141.5 -23.5z"/>
<glyph glyph-name="sixsuperior" unicode="⁶" d="M364 1055q10 5 22.5 7t24.5 2q65 0 124 -23t104 -65t72 -100t27 -128t-28.5 -129t-75.5 -101.5t-109 -66t-128 -23.5q-69 0 -131 23.5t-109.5 66t-75.5 101.5t-28 129q0 42 12.5 86t35.5 80l314 486h172zM575 748q0 39 -14 73t-38.5 58.5t-57.5 39t-71 14.5 q-37 0 -69.5 -14.5t-57 -39t-38.5 -58.5t-14 -73q0 -40 14 -74t38.5 -59t57 -39.5t69.5 -14.5q38 0 71 14.5t57.5 39.5t38.5 59t14 74z"/>
<glyph glyph-name="sevensuperior" unicode="⁷" d="M702 1400v-118l-348 -830h-182l346 813h-425v135h609z"/>
<glyph glyph-name="eightsuperior" unicode="⁸" d="M396 428q-71 0 -133 23t-107.5 63.5t-71.5 96t-26 119.5q0 78 43.5 143.5t118.5 100.5q-51 29 -82.5 80t-31.5 111q0 54 21.5 101t60 82t92 55.5t116.5 20.5t116.5 -20.5t92 -55.5t60 -82t21.5 -101q0 -60 -31.5 -111t-82.5 -80q75 -35 118.5 -100.5t43.5 -143.5 q0 -64 -26 -119.5t-71.5 -96t-107.5 -63.5t-133 -23zM396 903q-37 0 -69.5 -13.5t-55.5 -36.5t-36.5 -54.5t-13.5 -66.5q0 -36 13.5 -67t36.5 -54t55.5 -36.5t69.5 -13.5q38 0 70 13.5t55 36.5t36.5 54t13.5 67q0 35 -13.5 66.5t-36.5 54.5t-55 36.5t-70 13.5zM396 1033 q28 0 52 10.5t42 28t28 41t10 50.5t-10 50.5t-28 40.5t-42 27t-52 10t-52 -10t-42 -27t-28 -40.5t-10 -50.5t10 -50.5t28 -41t42 -28t52 -10.5z"/>
<glyph glyph-name="ninesuperior" unicode="⁹" d="M428 797q-10 -5 -22.5 -7t-24.5 -2q-64 0 -123.5 23t-104.5 65t-72 100t-27 128q0 71 28.5 129.5t75.5 101t109 66t128 23.5q69 0 131 -23.5t109.5 -66t75.5 -101t28 -129.5q0 -42 -12.5 -86t-35.5 -80l-314 -486h-172zM217 1104q0 -39 14 -73t38.5 -58.5t57.5 -39 t71 -14.5q37 0 69.5 14.5t57 39t38.5 58.5t14 73q0 40 -14 74t-38.5 59t-57 39.5t-69.5 14.5q-38 0 -71 -14.5t-57.5 -39.5t-38.5 -59t-14 -74z"/>
<glyph glyph-name="uni207A" unicode="⁺" d="M477 857v-247h-161v247h-243v139h243v246h161v-246h242v-139h-242z"/>
<glyph glyph-name="uni207B" unicode="⁻" d="M73 857v139h646v-139h-646z"/>
<glyph glyph-name="uni207C" unicode="⁼" d="M73 1014v139h646v-139h-646zM73 700v139h646v-139h-646z"/>
<glyph glyph-name="uni207D" unicode="⁽" d="M291 926q0 168 62 318.5t173 268.5l113 -77q-90 -106 -137 -236.5t-47 -273.5t47 -273.5t137 -236.5l-113 -77q-111 118 -173 268.5t-62 318.5z"/>
<glyph glyph-name="uni207E" unicode="⁾" d="M501 926q0 -168 -62 -318.5t-173 -268.5l-113 77q90 106 137 236.5t47 273.5t-47 273.5t-137 236.5l113 77q111 -118 173 -268.5t62 -318.5z"/>
<glyph glyph-name="uni207F" unicode="ⁿ" d="M261 452h-158v670h158v-68q29 34 70.5 58t96.5 24q59 0 107.5 -20.5t84 -57t55 -87.5t19.5 -113v-406h-158v403q0 31 -9.5 57.5t-27 45.5t-41 29.5t-52.5 10.5q-50 0 -86 -31.5t-59 -79.5v-435z"/>
<glyph glyph-name="zeroinferior" unicode="₀" d="M60 212q0 104 20.5 195t62.5 158.5t105 106t148 38.5t148 -38.5t105 -106t62.5 -158.5t20.5 -195t-20.5 -195t-62.5 -158.5t-105 -106t-148 -38.5t-148 38.5t-105 106t-62.5 158.5t-20.5 195zM221 212q0 -78 10.5 -144t32 -113.5t54.5 -74.5t78 -27t78 27t54.5 74.5 t32 113.5t10.5 144t-10.5 144t-32 113.5t-54.5 74.5t-78 27t-78 -27t-54.5 -74.5t-32 -113.5t-10.5 -144z"/>
<glyph glyph-name="oneinferior" unicode="₁" d="M533 686v-948h-162v783l-168 -91l-63 119l255 137h138z"/>
<glyph glyph-name="twoinferior" unicode="₂" d="M308 -129h376v-133h-591v118l338 371q54 60 77 107t23 98q0 32 -11 58.5t-30.5 45.5t-46.5 30t-60 11q-120 0 -166 -147l-140 54q29 108 109.5 167t196.5 59q66 0 123 -20t99 -56t65.5 -87.5t23.5 -114.5q0 -39 -8 -74.5t-25 -70t-43 -69.5t-61 -74z"/>
<glyph glyph-name="threeinferior" unicode="₃" d="M546 32q0 38 -14.5 71.5t-39.5 58.5t-59 39t-73 14q-29 0 -64 -11l-62 77l230 270h-356v135h556v-123l-212 -244q56 -9 103 -35.5t81 -66t53 -90t19 -107.5q0 -59 -24.5 -114t-69.5 -97.5t-108.5 -68.5t-141.5 -26q-102 0 -180.5 45.5t-128.5 123.5l110 94q40 -60 88 -95 t107 -35q39 0 73 14.5t59 39t39.5 58.5t14.5 73z"/>
<glyph glyph-name="fourinferior" unicode="₄" d="M39 51l433 635h154v-622h109v-139h-109v-187h-162v187h-425v126zM464 63v368l-246 -368h246z"/>
<glyph glyph-name="fiveinferior" unicode="₅" d="M369 -286q-99 0 -179 44t-130 123l114 92q39 -60 85.5 -93t106.5 -33q39 0 73 14t58.5 38.5t38.5 58.5t14 73t-14 73t-38.5 59t-58.5 39t-73 14q-45 0 -82.5 -22.5t-58.5 -54.5l-118 15l58 532h513v-135h-367l-29 -233q22 13 50 20.5t63 7.5q63 0 121 -21.5t101.5 -62 t69.5 -98.5t26 -130q0 -70 -24.5 -129t-69.5 -101.5t-108.5 -66t-141.5 -23.5z"/>
<glyph glyph-name="sixinferior" unicode="₆" d="M364 341q10 5 22.5 7t24.5 2q65 0 124 -23t104 -65t72 -100t27 -128q0 -71 -28.5 -129.5t-75.5 -101t-109 -66t-128 -23.5q-69 0 -131 23.5t-109.5 66t-75.5 101t-28 129.5q0 42 12.5 86t35.5 80l314 486h172zM575 34q0 39 -14 73t-38.5 58.5t-57.5 39t-71 14.5 q-37 0 -69.5 -14.5t-57 -39t-38.5 -58.5t-14 -73q0 -40 14 -74t38.5 -59t57 -39.5t69.5 -14.5q38 0 71 14.5t57.5 39.5t38.5 59t14 74z"/>
<glyph glyph-name="seveninferior" unicode="₇" d="M702 686v-118l-348 -830h-182l346 813h-425v135h609z"/>
<glyph glyph-name="eightinferior" unicode="₈" d="M396 -286q-71 0 -133 23t-107.5 63.5t-71.5 95.5t-26 120q0 78 43.5 143.5t118.5 100.5q-51 29 -82.5 80t-31.5 111q0 54 21.5 101t60 82t92 55.5t116.5 20.5t116.5 -20.5t92 -55.5t60 -82t21.5 -101q0 -60 -31.5 -111t-82.5 -80q75 -35 118.5 -100.5t43.5 -143.5 q0 -65 -26 -120t-71.5 -95.5t-107.5 -63.5t-133 -23zM396 189q-37 0 -69.5 -13.5t-55.5 -36.5t-36.5 -54.5t-13.5 -66.5q0 -36 13.5 -67t36.5 -54t55.5 -36.5t69.5 -13.5q38 0 70 13.5t55 36.5t36.5 54t13.5 67q0 35 -13.5 66.5t-36.5 54.5t-55 36.5t-70 13.5zM396 319 q28 0 52 10.5t42 28t28 41t10 50.5t-10 50.5t-28 40.5t-42 27t-52 10t-52 -10t-42 -27t-28 -40.5t-10 -50.5t10 -50.5t28 -41t42 -28t52 -10.5z"/>
<glyph glyph-name="nineinferior" unicode="₉" d="M428 83q-10 -5 -22.5 -7t-24.5 -2q-64 0 -123.5 23t-104.5 65t-72 100t-27 128q0 71 28.5 129.5t75.5 101t109 66t128 23.5q69 0 131 -23.5t109.5 -66t75.5 -101t28 -129.5q0 -42 -12.5 -86t-35.5 -80l-314 -486h-172zM217 390q0 -39 14 -73t38.5 -58.5t57.5 -39 t71 -14.5q37 0 69.5 14.5t57 39t38.5 58.5t14 73q0 40 -14 74t-38.5 59t-57 39.5t-69.5 14.5q-38 0 -71 -14.5t-57.5 -39.5t-38.5 -59t-14 -74z"/>
<glyph glyph-name="uni208A" unicode="₊" d="M477 143v-247h-161v247h-243v139h243v246h161v-246h242v-139h-242z"/>
<glyph glyph-name="uni208B" unicode="₋" d="M73 143v139h646v-139h-646z"/>
<glyph glyph-name="uni208C" unicode="₌" d="M73 300v139h646v-139h-646zM73 -14v139h646v-139h-646z"/>
<glyph glyph-name="uni208D" unicode="₍" d="M291 212q0 168 62 318.5t173 268.5l113 -77q-90 -106 -137 -236.5t-47 -273.5t47 -273.5t137 -236.5l-113 -77q-111 118 -173 268.5t-62 318.5z"/>
<glyph glyph-name="uni208E" unicode="₎" d="M501 212q0 -168 -62 -318.5t-173 -268.5l-113 77q90 106 137 236.5t47 273.5t-47 273.5t-137 236.5l113 77q111 -118 173 -268.5t62 -318.5z"/>
<glyph glyph-name="uni2090" unicode="ₐ" d="M374 -286q-70 0 -131 27t-105.5 74t-70 111t-25.5 138t25.5 138t70 111t105.5 74t131 27q55 0 100.5 -21t79.5 -57v64h160v-672h-160v64q-34 -36 -79.5 -57t-100.5 -21zM554 174q-23 46 -66.5 74t-97.5 28q-40 0 -74.5 -16t-59.5 -44.5t-39.5 -67.5t-14.5 -84t14.5 -84 t39.5 -67.5t59.5 -44.5t74.5 -16q54 0 97.5 28t66.5 74v220z"/>
<glyph glyph-name="uni2091" unicode="ₑ" d="M218 13q6 -36 23 -66.5t42 -53t57 -35.5t69 -13q53 0 104 28.5t89 73.5l99 -99q-54 -65 -129.5 -99.5t-160.5 -34.5q-79 0 -144.5 27.5t-111.5 75.5t-71.5 111.5t-25.5 135.5q0 74 26.5 137.5t72.5 111t109.5 74.5t136.5 27t134 -26.5t105 -72t68.5 -106.5t24.5 -131 q0 -16 -1 -33t-4 -32h-512zM403 282q-33 0 -62 -11t-52.5 -30t-40.5 -45.5t-25 -57.5h350q-14 65 -59.5 104.5t-110.5 39.5z"/>
<glyph glyph-name="uni2092" unicode="ₒ" d="M396 -149q40 0 75 16.5t60.5 45.5t40 68t14.5 83t-14.5 83t-40 67.5t-60.5 45t-75 16.5t-75 -16.5t-60.5 -45t-40 -67.5t-14.5 -83t14.5 -83t40 -68t60.5 -45.5t75 -16.5zM396 414q75 0 139 -27.5t111 -74.5t73.5 -111t26.5 -137q0 -74 -26.5 -137.5t-73.5 -111 t-111 -74.5t-139 -27t-139 27t-111 74.5t-73.5 111t-26.5 137.5q0 73 26.5 137t73.5 111t111 74.5t139 27.5z"/>
<glyph glyph-name="uni2093" unicode="ₓ" d="M65 -272l238 346l-222 326h178l137 -204l137 204h178l-222 -326l238 -346h-178l-153 227l-153 -227h-178z"/>
<glyph glyph-name="uni2094" unicode="ₔ" d="M574 115q-6 36 -23 66.5t-42 53t-57 35.5t-69 13q-53 0 -104 -28.5t-89 -73.5l-99 99q54 65 129.5 99.5t160.5 34.5q80 0 145 -27.5t111 -75.5t71.5 -111.5t25.5 -135.5q0 -74 -26.5 -137.5t-72.5 -111t-109 -74.5t-137 -27q-73 0 -134 26.5t-105 72t-68.5 106.5 t-24.5 131q0 16 1 33t4 32h512zM389 -154q33 0 62 11t52.5 30t40.5 45.5t25 57.5h-350q14 -65 59.5 -104.5t110.5 -39.5z"/>
<glyph glyph-name="uni20A0" horiz-adv-x="1558" unicode="₠" d="M67 922q0 105 39.5 197t108.5 159.5t162.5 106.5t202.5 39q94 0 180.5 -32.5t163.5 -93.5l-87 -133q-63 46 -125 74t-132 28t-131 -26.5t-106 -73t-71 -109.5t-26 -136q0 -72 26 -135t71 -109t106 -72.5t131 -26.5q59 0 119 18t113 53v320h607v-154h-429v-251h397v-154 h-397v-257h441v-154h-619v475q-55 -27 -113.5 -40t-118.5 -13q-109 0 -202.5 39t-162.5 106.5t-108.5 158.5t-39.5 196z"/>
<glyph glyph-name="colonmonetary" horiz-adv-x="1368" unicode="₡" d="M684 -12q-32 5 -62.5 12t-59.5 18l-39 -222h-127l49 275q-82 46 -149.5 111.5t-115 146.5t-73.5 174.5t-26 196.5q0 136 45 255.5t125 213.5t190.5 157.5t240.5 85.5l34 192h127l-32 -180q33 0 64.5 -2.5t61.5 -6.5l34 189h126l-38 -218q60 -20 114.5 -49.5t105.5 -67.5 l-95 -142q-38 26 -76 48.5t-80 39.5l-189 -1072q103 4 194 42.5t163 98.5l100 -141q-98 -81 -221 -123.5t-266 -42.5l-32 -181h-126zM272 700q0 -137 55.5 -250t151.5 -189l171 969q-83 -26 -152.5 -76.5t-119.5 -120t-78 -154t-28 -179.5zM592 190q29 -13 59 -23t62 -16 l195 1099q-22 4 -44.5 6t-46.5 2q-9 0 -18 -0.5t-18 -1.5z"/>
<glyph glyph-name="uni20A2" horiz-adv-x="1368" unicode="₢" d="M850 143q100 6 187.5 44.5t158.5 96.5l100 -141q-97 -79 -218 -123t-261 -44q-156 0 -290.5 56t-233.5 153.5t-155.5 229.5t-56.5 285t56.5 285.5t155.5 230t233.5 153t290.5 55.5q134 0 249.5 -40t212.5 -115l-95 -142q-41 29 -83 53t-87 41t-93.5 27t-103.5 10 q-114 0 -213.5 -43t-173 -118.5t-116 -177.5t-42.5 -219q0 -100 31 -188.5t85.5 -159.5t130 -121t164.5 -72v671h167v-101q17 23 37 44t43.5 37t49.5 25t53 9q23 0 49 -6t49 -17l-14 -142q-23 10 -46.5 16.5t-45.5 6.5q-48 0 -95 -37.5t-80 -94.5v-427z"/>
<glyph glyph-name="franc" horiz-adv-x="1099" unicode="₣" d="M245 475h-191v110h191v110h-191v109h191v596h807v-163h-619v-433h346v-109h-346v-110h346v-110h-346v-475h-188v475z"/>
<glyph glyph-name="lira" horiz-adv-x="1150" unicode="₤" d="M80 465v110h234q-9 56 -29 109h-205v110h158q-22 54 -35.5 110t-13.5 118q0 84 32.5 157.5t90 128t135 85.5t167.5 31q74 0 137.5 -20.5t114.5 -55.5t87.5 -81.5t56.5 -97.5l-159 -84q-30 79 -89.5 126t-147.5 47q-50 0 -93 -18t-74.5 -49.5t-49 -75t-17.5 -93.5 q0 -53 18.5 -112t42.5 -116h364v-110h-325q17 -53 26 -109h299v-110h-293q-5 -89 -38.5 -164.5t-96.5 -134.5h661v-166h-889v162q74 54 121 133t52 170h-242z"/>
<glyph glyph-name="uni20A6" horiz-adv-x="1456" unicode="₦" d="M1260 543v-543h-178l-347 543h-359v-543h-179v543h-143v102h143v110h-143v102h143v543h178l346 -543h360v543h179v-543h142v-102h-142v-110h142v-102h-142zM376 645h294l-71 110h-223v-110zM856 645h225v110h-295zM1081 296v247h-160zM376 857h159l-159 247v-247z"/>
<glyph glyph-name="peseta" horiz-adv-x="2368" unicode="₧" d="M1931 157q39 0 72.5 10.5t57.5 30t37.5 46.5t13.5 60q0 35 -13.5 61t-41.5 47t-71 37.5t-101 32.5q-282 75 -282 297q0 59 23.5 110.5t66.5 89.5t104 59.5t136 21.5q99 0 180.5 -39.5t138.5 -99.5l-92 -130q-54 50 -105.5 81t-109.5 31q-34 0 -63 -9t-51 -26t-34.5 -40 t-12.5 -52q0 -63 53 -100.5t162 -66.5q149 -38 222 -113.5t73 -194.5q0 -64 -24 -119t-69 -95.5t-110.5 -63.5t-148.5 -23h-449q-92 0 -157 21t-106 64.5t-59.5 109.5t-18.5 156v525h-167q-13 -75 -49 -138.5t-92 -110t-130 -73t-163 -26.5h-197v-528h-186v1400h383 q91 0 167 -26t132.5 -74t92 -115t46.5 -149h163v283l181 17v-300h247v-160h-247v-527q0 -99 39.5 -145.5t133.5 -46.5h425zM804 964q0 61 -18 111t-51.5 86t-81.5 56t-109 20h-190v-546h190q61 0 109 19.5t81.5 55.5t51.5 86.5t18 111.5z"/>
<glyph glyph-name="uni20A8" horiz-adv-x="1929" unicode="₨" d="M356 528v-528h-188v1400h428q107 0 192.5 -31t145 -88t91.5 -137.5t32 -179.5q0 -84 -23 -154.5t-66 -124.5t-105.5 -91t-140.5 -53l360 -541h-207l-351 528h-168zM866 964q0 62 -18.5 112.5t-54 86t-86.5 55t-117 19.5h-234v-546h234q66 0 117 19.5t86.5 55t54 86 t18.5 112.5zM1204 275q49 -63 120 -102.5t152 -39.5q91 0 143.5 42t52.5 111q0 129 -213 175q-160 35 -242 113.5t-82 198.5q0 61 24 113.5t69 91t108.5 60.5t141.5 22q103 0 188 -39.5t146 -99.5l-96 -127q-54 49 -108 79t-117 30q-38 0 -69.5 -10t-54.5 -28t-36 -42 t-13 -53q0 -57 49.5 -100t149.5 -64q170 -36 254 -115.5t84 -207.5q0 -66 -24.5 -122t-72 -97t-115.5 -64.5t-155 -23.5q-123 0 -223 46.5t-163 125.5z"/>
<glyph glyph-name="uni20A9" horiz-adv-x="1980" unicode="₩" d="M1666 547l-158 -547h-185l-157 547h-352l-157 -547h-185l-158 547h-274v102h245l-32 110h-213v102h184l-154 539h195l144 -539h335l155 539h182l155 -539h335l144 539h195l-154 -539h184v-102h-213l-32 -110h245v-102h-274zM843 649h294l-32 110h-230zM1297 649h217 l29 110h-277zM466 649h217l31 110h-277zM904 861h172l-86 296zM1408 260l78 287h-160zM572 260l82 287h-160z"/>
<glyph glyph-name="afii57636" horiz-adv-x="1733" unicode="₪" d="M168 1400h503q105 0 195 -36.5t156 -101t103.5 -151t37.5 -187.5v-400h-188v400q0 67 -22.5 124t-63 99t-96.5 66t-122 24h-315v-1237h-188v1400zM1565 0h-503q-105 0 -195 36.5t-156 101t-103.5 151.5t-37.5 187v400h188v-400q0 -67 22.5 -124t63 -99t96.5 -66t122 -24 h315v1237h188v-1400z"/>
<glyph glyph-name="dong" horiz-adv-x="1328" unicode="₫" d="M604 1060q109 0 202 -40.5t163 -117.5v271h-346v126h346v161h182v-161h150v-126h-150v-1173h-182v134q-70 -78 -163 -118t-202 -40q-115 0 -212.5 43.5t-168 117.5t-110 172.5t-39.5 208.5t39.5 208.5t110 172.5t168 117.5t212.5 43.5zM634 139q56 0 106.5 15t93.5 42 t77.5 64.5t57.5 83.5v345q-23 46 -57.5 84.5t-77.5 66t-93.5 42.5t-106.5 15q-79 0 -148 -30t-119 -81.5t-79 -120.5t-29 -147t29 -147t79 -120.5t119 -81.5t148 -30zM359 -181h705v-142h-705v142z"/>
<glyph glyph-name="Euro" horiz-adv-x="1437" unicode="€" d="M886 142q109 0 206 39.5t173 102.5l100 -141q-97 -79 -218 -123t-261 -44q-132 0 -248.5 40t-210 112t-159.5 171.5t-96 217.5h-147v112h128q-3 35 -3 71t3 72h-128v112h148q30 118 96 217t159.5 171t210 112t247.5 40q134 0 249.5 -40t212.5 -115l-95 -142 q-41 29 -83 53t-87 41t-93.5 27t-103.5 10q-90 0 -172 -27.5t-149 -77t-117.5 -118t-77.5 -151.5h600v-112h-625q-2 -18 -3 -36t-1 -36t1 -36t3 -35h625v-112h-600q27 -83 77 -152t117.5 -118.5t149 -77t172.5 -27.5z"/>
<glyph glyph-name="afii61248" horiz-adv-x="2075" unicode="℅" d="M512 576q-95 0 -176 33t-140.5 90.5t-93 135t-33.5 165.5q0 89 33.5 166t93 134.5t140.5 90.5t176 33q91 0 168.5 -31t140.5 -85l-90 -133q-49 43 -104.5 70.5t-114.5 27.5q-56 0 -105 -21t-85 -58t-56.5 -87t-20.5 -107t20.5 -107t56.5 -87t85 -58t105 -21 q60 0 117.5 28.5t105.5 76.5l102 -125q-64 -61 -146.5 -96t-178.5 -35zM1563 126q56 0 105 21t85 58t56.5 87t20.5 107t-20.5 107t-56.5 87t-85 58t-105 21t-105 -21t-85 -58t-56.5 -87t-20.5 -107t20.5 -107t56.5 -87t85 -58t105 -21zM1563 823q95 0 176 -33t140.5 -90.5 t93 -134.5t33.5 -166q0 -88 -33.5 -165.5t-93 -135t-140.5 -90.5t-176 -33t-176 33t-140.5 90.5t-93 135t-33.5 165.5q0 89 33.5 166t93 134.5t140.5 90.5t176 33zM1259 1400h175l-683 -1400h-175z"/>
<glyph glyph-name="uni2109" horiz-adv-x="1594" unicode="℉" d="M705 1400h807v-163h-619v-451h568v-163h-568v-623h-188v1400zM178 1154q0 -29 10.5 -54.5t29.5 -44.5t44.5 -30t55.5 -11t55.5 11t44.5 30t29.5 44.5t10.5 54.5t-10.5 54.5t-29.5 44.5t-44.5 30t-55.5 11t-55.5 -11t-44.5 -30t-29.5 -44.5t-10.5 -54.5zM43 1154 q0 56 21 105t58 85t87.5 56.5t108.5 20.5t108.5 -20.5t87.5 -56.5t58 -85t21 -105t-21 -105t-58 -85t-87.5 -56.5t-108.5 -20.5t-108.5 20.5t-87.5 56.5t-58 85t-21 105z"/>
<glyph glyph-name="afii61289" horiz-adv-x="1122" unicode="ℓ" d="M665 -24q-84 0 -152.5 28.5t-116.5 78t-74.5 116t-26.5 143.5q-39 -16 -82.5 -33t-85.5 -33l-52 154q57 23 113 45.5t107 42.5v554q0 75 28.5 139t78 111.5t117 74.5t144.5 27q78 0 145 -27t116.5 -74.5t78 -111.5t28.5 -139v-51q0 -88 -36 -168t-105.5 -153.5 t-172 -141.5t-234.5 -133v-87q0 -43 14 -79.5t39 -63t58 -41.5t71 -15q73 0 129.5 45t90.5 124l152 -91q-26 -55 -63.5 -99.5t-85 -76t-104 -48.5t-119.5 -17zM843 1058q0 44 -14 81.5t-38 64.5t-57 42t-71 15t-71 -15t-57 -42t-38 -64.5t-14 -81.5v-448q89 47 156.5 95 t112.5 99.5t68 108.5t23 123v22z"/>
</font>
</defs>
</svg>
